<?xml version="1.0" encoding="UTF-8"?>
<svg xmlns="http://www.w3.org/2000/svg" xmlns:xlink="http://www.w3.org/1999/xlink" version="1.1" viewBox="0 0 1920 800">
  <!-- Generator: Adobe Illustrator 30.2.1, SVG Export Plug-In . SVG Version: 2.1.1 Build 1)  -->
  <defs>
    <style>
      .st0 {
        fill: none;
      }

      .st1 {
        stroke: #1d1d1b;
        stroke-linejoin: round;
        stroke-width: 2px;
      }

      .st2 {
        fill: #f9b44f;
      }

      .st3 {
        fill: #1d1e1c;
      }

      .st4 {
        fill: #1d1d1b;
      }

      .st5 {
        fill: #1c1f24;
      }

      .st6 {
        fill: #ffd618;
      }

      .st7 {
        fill: #fff;
      }

      .st8 {
        fill: #f07e26;
      }

      .st9 {
        fill: #f9d3cc;
      }

      .st10 {
        fill: #c9e8fb;
      }

      .st11 {
        fill: #211f1f;
      }

      .st12 {
        fill: #c8e7fa;
      }

      .st13 {
        clip-path: url(#clippath);
      }
    </style>
    <clipPath id="clippath">
      <rect class="st0" x="-303.22" y="-179.91" width="2484.08" height="1093.39"/>
    </clipPath>
  </defs>
  <g id="Ebene_1">
    <rect class="st8" x="-300" y="-179.91" width="2480.86" height="1093.39"/>
  </g>
  <g id="Ebene_3">
    <g class="st13">
      <g>
        <polygon class="st2" points="930.84 199.17 657.98 292.51 682.32 256.43 549.61 290.21 607.45 309.83 411.32 376.97 429.93 350.91 -1081.1 697.79 -1110.02 551.19 535.58 239.39 506.38 213.77 728.85 198.74 716.68 223.79 930.84 199.17"/>
        <polygon class="st2" points="930.84 199.17 1021.18 481.33 986.25 456.13 1018.89 593.42 1037.93 533.58 1102.78 736.29 1077.58 717.11 1163.33 1233.48 1021.61 1263.4 969.78 607.88 945.02 638.09 930.41 408.03 954.61 420.63 930.84 199.17"/>
        <polygon class="st2" points="930.84 199.17 1203.7 105.68 1179.37 141.9 1312.07 107.97 1254.24 88.36 1450.22 21.22 1431.75 47.42 2411.53 -163.45 2440.59 -16.86 1326.1 158.94 1355.16 184.42 1132.84 199.6 1145.01 174.54 930.84 199.17"/>
        <polygon class="st2" points="930.84 199.17 872.58 490.21 861.84 544.18 842.09 631.93 829.49 602.3 590.99 1362.33 453.7 1314.94 691.91 696.35 701.65 716.25 755.62 580.11 730.85 586.55 829.49 379.83 844.38 403.17 930.84 199.17"/>
        <polygon class="st2" points="930.84 199.17 1212.29 259.29 1264.4 270.46 1349.29 290.93 1320.66 303.96 2437.3 640.52 2391.48 782.53 1411.71 446.26 1430.89 436.09 1299.33 380.26 1305.49 405.89 1105.5 303.96 1128.12 288.5 930.84 199.17"/>
        <polygon class="st2" points="930.84 199.17 1145.44 396.72 1103.06 393.15 1197.69 495.07 1185.24 433.37 1339.56 575.39 1308.35 571.81 1969.17 1191.82 1860.94 1291.18 1162.19 533.01 1155.32 571.95 1031.48 380.26 1058.54 378.54 930.84 199.17"/>
        <polygon class="st2" points="930.84 199.17 988.97 -91.87 999.7 -145.84 1024.33 -268.53 1036.78 -238.61 1091.18 -510.75 1243.93 -528.51 1094.76 -174.91 1047.8 -71.83 1032.77 -92.45 1000.7 -5.69 1017.31 -4.98 930.84 199.17"/>
        <polygon class="st2" points="930.84 199.17 840.51 -83 823.76 -135.25 785.68 -254.22 810.88 -234.75 726.41 -498.59 868.28 -528.51 891.9 -209.55 901.07 -96.03 878.16 -106.05 892.33 -14.43 906.94 -22.3 930.84 199.17"/>
        <polygon class="st2" points="930.84 199.17 734.43 416.19 698.07 456.42 615.32 547.9 619.76 515.55 -369.75 1306.21 -462.94 1191.82 602.3 430.08 694.35 367.38 696.78 393 767.93 336.31 754.19 326.72 930.84 199.17"/>
        <polygon class="st2" points="930.84 199.17 1126.68 -18.43 1162.9 -58.66 1245.5 -150.43 1241.21 -118.07 1649.78 -528.51 1828.3 -380.91 1258.82 -32.61 1166.91 30.24 1164.33 4.76 1093.47 61.59 1107.21 71.18 930.84 199.17"/>
        <polygon class="st2" points="930.84 199.17 649.39 139.04 597.14 127.87 478.46 102.39 507.53 89.51 -1237 -312.48 -1046.88 -589.63 568.94 29.67 668.72 78.2 648.82 93.66 732.71 126.87 733.43 109.69 930.84 199.17"/>
        <polygon class="st2" points="930.84 199.17 747.17 -43.34 747.17 1.89 651.11 -106.19 713.1 -88.3 581.11 -262.66 582.11 -229.31 342.03 -528.51 -73.27 -510.75 609.02 -71.4 568.65 -67.11 754.04 78.77 758.19 50.14 930.84 199.17"/>
      </g>
    </g>
  </g>
  <g id="Ebene_2">
    <rect class="st10" x="-303.22" y="456.13" width="2528.24" height="489.39"/>
    <g>
      <g>
        <path class="st6" d="M1031.02,219.49c-31.78,13.6-38.08,23.19-18.32,44.95-38.22-8.73-50.53-5.3-54.54,23.62-21.9-31.64-33.21-37.51-64.56-28.92,15.89-25.05,11.74-35.79-16.46-59.41,30.49,1.15,36.79-8.59,33.36-46.53,21.9,24.91,34.21,21.62,58.41-9.16,1.72,33.36,13.03,39.08,46.53,29.2-18.04,26.34-13.89,37.22,15.6,46.1v.14Z"/>
        <path d="M1031.16,219.78c-1.15.57-2.43,1.15-3.58,1.72-1.15.57-2.43,1.15-3.58,1.72-1.15.57-2.29,1.15-3.58,1.86-1.15.57-2.29,1.29-3.44,1.86-.57.29-1.15.72-1.72,1s-1.15.72-1.72,1c-1.15.72-2.15,1.43-3.15,2.29s-2,1.57-3.01,2.58c-.43.43-.86.86-1.29,1.43-.14.29-.43.43-.57.72l-.57.72c-.72,1-1.43,2.15-1.86,3.29-.29.57-.29,1.15-.57,1.86,0,.57-.14,1.29-.14,1.86v1.86c0,.57.14,1.29.43,1.86l.29.86.29.86c.14.57.57,1.15.72,1.72.29.57.57,1.15.86,1.72.29.57.72,1.15,1,1.72l1.15,1.57c.43.57.72,1,1.15,1.57.86,1,1.57,2,2.43,3.01.86,1,1.72,2,2.58,3.01l2.86,3.15-4.01-.86c-2.86-.57-5.73-1.29-8.59-1.72-1.43-.29-2.86-.57-4.29-.72-1.43-.29-2.86-.43-4.29-.57s-2.86-.29-4.29-.43h-2.15c0-.14-2.15-.29-2.15-.29h-4.29c-.72,0-1.43,0-2.15.14-.72,0-1.43.14-2.15.29-1.43.29-2.72.57-4.01,1-1.29.43-2.58,1.15-3.72,1.86s-2.15,1.72-3.15,2.72l-.72.86-.29.43-.29.43-.57.86-.57.86c-.43.57-.72,1.29-1,1.86-.29.72-.57,1.29-.86,2-.57,1.43-1,2.86-1.43,4.29s-.72,2.86-1,4.44c-.29,1.43-.57,3.01-.72,4.44l-.57,3.72-2-3.01c-1-1.29-1.86-2.72-2.86-4.01l-2.86-4.01c-1-1.29-2-2.72-3.01-4.01-.43-.72-1-1.29-1.57-1.86-.57-.57-1-1.29-1.57-1.86-2.15-2.43-4.29-4.87-6.73-7.01-.57-.57-1.15-1.15-1.86-1.57l-.86-.72-1-.72c-1.29-1-2.58-1.86-4.01-2.58s-2.86-1.43-4.29-2l-1.15-.43-1.15-.29c-.72-.29-1.57-.43-2.29-.57s-1.57-.29-2.29-.43c-.72,0-1.57-.14-2.29-.29h-4.72c-.86,0-1.57,0-2.43.14-.86,0-1.57.14-2.43.29-1.57.14-3.15.43-4.72.72-.86,0-1.57.29-2.43.43-.86.14-1.57.29-2.29.57-1.57.43-3.15.72-4.72,1.15l-1.29.29.72-1.29c.86-1.29,1.57-2.58,2.29-3.87.43-.57.72-1.29,1.15-2s.72-1.29,1-2,.72-1.29,1-2l.43-1,.43-1c.29-.72.57-1.43.86-2,.29-.72.43-1.43.72-2.15s.43-1.43.57-2.15c0-.72.29-1.43.43-2.15,0-.72.14-1.43.14-2.15v-2.15c0-1.43-.29-2.86-.72-4.29-.29-1.43-.86-2.72-1.43-4.15-.57-1.29-1.29-2.58-2.15-3.87l-.57-.86-.57-.86c-.43-.57-.86-1.15-1.29-1.72-.43-.57-.86-1.15-1.43-1.72-.43-.57-1-1.15-1.43-1.57-1-1.15-2-2.15-3.01-3.15-4.15-4.01-8.59-7.87-13.03-11.6l-2.29-1.86h7.3c1.43,0,2.86,0,4.29-.14,1.43,0,2.86-.29,4.15-.43,1.43-.14,2.72-.43,4.15-.72.72-.14,1.29-.29,2-.57l1-.29c.29,0,.57-.29,1-.43,1.29-.57,2.43-1.15,3.58-1.86s2.15-1.72,3.01-2.72c.29-.29.43-.57.57-.86l.29-.43.29-.43.57-.86.43-.86.29-.43v-.43c.14,0,.57-1,.57-1,.29-.72.43-1.29.72-2,.43-1.43.72-2.72.86-4.15,0-.72.29-1.43.29-2.15s.14-1.43.14-2.15c0-1.43.14-2.86.14-4.44,0-5.87-.29-11.88-.86-17.75l-.43-4.87,3.29,3.58c1,1.15,2,2.29,3.15,3.44.57.57,1,1.15,1.57,1.57.57.57,1,1.15,1.57,1.57,1.15,1,2.29,2,3.44,3.01.57.43,1.15.86,1.72,1.43.57.43,1.15.86,1.86,1.29.57.43,1.29.86,1.86,1.15l1,.57c.29.14.72.29,1,.43,1.29.57,2.58,1,4.01,1.29,1.29.29,2.72.29,4.15.29,1.29,0,2.72-.29,4.01-.86,1.29-.43,2.58-1,3.87-1.72s2.43-1.57,3.72-2.43c1.15-.86,2.29-1.86,3.44-2.86,1.15-1,2.29-2,3.29-3.15l1.57-1.72,1.57-1.72c1-1.15,2-2.29,3.01-3.44,1-1.15,2-2.29,3.01-3.58,1-1.15,2-2.43,3.01-3.58l2.86-3.58.29,4.58c0,1.43.14,3.01.29,4.44,0,1.43.29,3.01.43,4.44l.29,2.15.43,2.15c0,.72.29,1.43.43,2.15s.43,1.43.57,2.15c.14.72.43,1.29.72,2s.43,1.29.72,2c.29.57.57,1.29.86,1.86l.43.86c.14.29.43.57.57.86.29.57.86,1,1.15,1.57.14.29.43.43.72.72s.43.43.72.72l.72.57.86.57.43.29.43.29.86.43c.57.29,1.15.57,1.86.72l1,.29,1,.29c1.29.29,2.72.43,4.01.57h6.3c0-.14,2.15-.43,2.15-.43,1.43-.14,2.86-.43,4.15-.72,1.43-.29,2.72-.57,4.15-.86,1.43-.29,2.72-.72,4.15-1s2.72-.72,4.15-1.15l3.44-.86-2,3.01c-.72,1.15-1.57,2.15-2.29,3.29s-1.43,2.29-2.15,3.29c-.72,1.15-1.43,2.29-2,3.44-.29.57-.57,1.15-.86,1.72-.29.57-.57,1.15-.86,1.72-.57,1.15-1,2.43-1.43,3.72-.14.57-.43,1.29-.57,1.86,0,.29-.14.57-.29,1v1c-.29.57-.29,1.29-.43,1.86v2c0,1.29.29,2.58.72,3.72s1,2.29,1.72,3.29,1.57,2,2.58,2.86c.29.14.43.43.72.72l.72.57c.43.43,1,.72,1.57,1.15,1,.72,2.15,1.43,3.29,2,.57.29,1.15.57,1.72.86s1.15.57,1.72.86c1.15.57,2.43,1,3.58,1.57,1.15.43,2.43,1,3.58,1.43s2.43.86,3.72,1.29h.43c0,.14-.43.29-.43.29v-.29ZM1030.44,219.64c-1.15-.29-2.15-.57-3.29-1-1.29-.43-2.43-.72-3.72-1.15-1.29-.43-2.43-.86-3.72-1.43-.57-.29-1.15-.43-1.86-.72-.57-.29-1.15-.57-1.72-.86-1.15-.57-2.29-1.15-3.44-1.86-.57-.43-1.15-.72-1.72-1.15l-.86-.57c-.29-.14-.57-.43-.72-.72-1-.86-2-1.86-2.86-3.01-.86-1.15-1.57-2.29-2-3.72-.43-1.29-.86-2.72-.86-4.15v-2.29c0-.72,0-1.43.29-2.15v-1c.29-.29.29-.72.43-1,.14-.72.29-1.43.57-2,.43-1.29.86-2.58,1.43-3.87.29-.72.57-1.29.86-1.86.29-.57.57-1.29.86-1.86.57-1.29,1.29-2.43,2-3.58s1.43-2.29,2.15-3.44c.72-1.15,1.43-2.29,2.15-3.44l1.43,2c-1.43.43-2.72.86-4.15,1.29-1.43.43-2.86.72-4.29,1.15-1.43.29-2.86.72-4.29,1s-2.86.57-4.29.72l-2.15.29h-2.15c0,.14-2.29.29-2.29.29h-2.29c-1.43,0-3.01-.29-4.44-.57l-1.15-.29-1.15-.29c-.72-.14-1.43-.57-2.15-.86l-1-.57-.57-.29-.43-.29c-.29-.29-.72-.43-1-.72l-1-.72c-.29-.29-.57-.57-.86-.86-.29-.29-.57-.57-.86-.86-.57-.57-1-1.29-1.43-1.86-.29-.29-.43-.72-.72-1l-.57-1c-.43-.72-.72-1.43-1.15-2.15-.29-.72-.57-1.43-.86-2.15-.29-.72-.57-1.43-.72-2.29-.14-.72-.43-1.57-.57-2.29-.14-.72-.29-1.57-.57-2.29l-.43-2.29-.29-2.29c-.14-1.57-.43-3.01-.57-4.58-.14-1.57-.29-3.01-.29-4.58l3.15,1.15c-1,1.29-2,2.43-3.01,3.72-1,1.29-2,2.43-3.01,3.72-1,1.15-2.15,2.43-3.15,3.58l-1.57,1.72-1.72,1.72c-1.15,1.15-2.29,2.29-3.44,3.29-1.15,1-2.43,2.15-3.72,3.01-1.29,1-2.72,1.86-4.15,2.72-1.43.72-3.01,1.43-4.58,2-1.57.57-3.29.86-4.87,1-1.72,0-3.29,0-5.01-.43-1.57-.43-3.15-.86-4.72-1.57-.43-.14-.72-.29-1.15-.57l-1-.57c-.72-.43-1.43-.86-2-1.29-.72-.43-1.29-.86-2-1.43-.57-.43-1.29-1-1.86-1.43-1.29-1-2.43-2-3.58-3.15-.57-.57-1.15-1.15-1.72-1.72s-1.15-1.15-1.57-1.72c-1.15-1.15-2.15-2.29-3.15-3.44l2.86-1.29c.43,6.01.86,12.03.72,18.18,0,1.57,0,3.01-.29,4.58,0,.72-.14,1.57-.29,2.29,0,.72-.14,1.57-.29,2.29-.29,1.57-.57,3.01-1,4.58-.29.72-.57,1.43-.72,2.29l-.43,1.15-.29.57-.29.57-.57,1-.72,1-.29.57-.43.43c-.29.29-.43.57-.72,1-1.15,1.15-2.29,2.29-3.58,3.15-1.29.86-2.72,1.57-4.15,2.15-.29,0-.72.29-1,.43l-1.15.29c-.72.29-1.43.43-2.15.57-1.43.29-2.86.57-4.29.72s-2.86.29-4.29.29h-8.59l.72-1.86c4.44,3.87,8.73,7.73,12.88,12.03,1,1,2,2.15,3.01,3.29.43.57,1,1.15,1.43,1.72.43.57,1,1.15,1.43,1.72.43.57.86,1.15,1.29,1.86.43.57.86,1.29,1.29,1.86.86,1.29,1.57,2.58,2.15,4.01s1.15,2.86,1.43,4.29c.43,1.43.57,3.01.72,4.58v2.29c0,.72,0,1.57-.29,2.29,0,.72-.29,1.57-.43,2.29s-.29,1.43-.57,2.15-.43,1.43-.72,2.15-.57,1.43-.86,2.15l-.43,1-.43,1c-.29.72-.72,1.43-1,2-.29.72-.72,1.29-1,2-.43.72-.72,1.29-1.15,2-.72,1.29-1.57,2.58-2.29,3.87l-.57-.86c1.57-.43,3.15-.86,4.72-1.29.86-.14,1.57-.43,2.43-.57.86-.14,1.57-.43,2.43-.57,1.57-.29,3.15-.57,4.87-.86.86,0,1.57-.29,2.43-.29s1.57-.14,2.43-.14h5.01c.86,0,1.57,0,2.43.14.86,0,1.57.14,2.43.29.86.14,1.57.29,2.43.57l1.15.29,1.15.43c1.57.57,3.15,1.15,4.58,2s2.86,1.57,4.29,2.58l1,.72,1,.72c.72.43,1.29,1,2,1.57,2.58,2.15,4.87,4.58,7.01,7.01.57.57,1.15,1.29,1.57,1.86.57.57,1.15,1.29,1.57,1.86,1,1.29,2.15,2.58,3.15,3.87,1,1.29,2,2.72,3.01,4.01,1,1.29,2,2.72,2.86,4.01l-2.58.72c.29-1.57.43-3.15.72-4.72.29-1.57.57-3.15,1-4.58.43-1.57.86-3.01,1.43-4.58.29-.72.57-1.43,1-2.29.43-.72.72-1.43,1.15-2.15l.57-1,.72-1,.29-.57.43-.43.86-1c1.15-1.15,2.43-2.29,3.72-3.15,1.43-.86,2.86-1.57,4.29-2.15s3.01-.86,4.58-1.15c.72,0,1.57-.29,2.29-.29s1.57,0,2.29-.14h6.87l2.29.29c1.43.14,3.01.29,4.44.57,1.43.14,3.01.43,4.44.72s2.86.57,4.29.86c2.86.57,5.73,1.29,8.73,1.86l-1.15,2.29c-.86-1-1.72-2-2.58-3.15-.86-1-1.72-2.15-2.43-3.15-.43-.57-.86-1.15-1.15-1.72l-1.15-1.72c-.29-.57-.72-1.15-1-1.86-.29-.57-.72-1.29-1-1.86-.29-.72-.57-1.29-.86-2l-.29-1-.29-1c-.14-.72-.29-1.43-.43-2.15v-2.29c0-.72.14-1.43.29-2.15.14-.72.29-1.43.72-2.15.57-1.43,1.29-2.58,2.15-3.72l.72-.86c.29-.29.43-.57.72-.72.43-.57,1-1,1.43-1.43,1-.86,2.15-1.72,3.15-2.58,1.15-.72,2.29-1.57,3.44-2.15.57-.29,1.15-.72,1.72-1s1.15-.72,1.72-1c1.15-.57,2.43-1.15,3.58-1.86,1.15-.57,2.43-1.15,3.58-1.72,2.29-1,4.58-1.86,6.87-2.86h-1.15Z"/>
      </g>
      <g>
        <g>
          <g>
            <path d="M997.23,204.75c-.86,0-1.72-.57-1.86-1.57-.14-1,.43-1.86,1.29-2.15l31.49-8.88h.43c.43,0,.86.14,1.29.43.43.43.72,1,.57,1.72l-1,6.16c0,.86-.86,1.43-1.72,1.57l-30.49,2.72h-.14.14Z"/>
            <path class="st11" d="M1028.87,194.16h0M1028.87,194.16l-1,6.16-30.49,2.72,31.49-8.88M1028.87,190.43h-.14c-.29,0-.57,0-.86.14l-31.49,8.73c-1.86.57-3.01,2.29-2.72,4.29.29,1.72,1.86,3.01,3.72,3.01s.29,0,.29,0l30.49-2.72c1.72-.14,3.01-1.43,3.29-3.15l1-5.87v-.72c0-2-1.57-3.72-3.72-3.72h.14ZM1028.87,197.88h0Z"/>
          </g>
          <g>
            <path d="M977.05,201.74c-.43,0-.86-.14-1.15-.43-.72-.57-.86-1.72-.29-2.43l26.48-38.65c.29-.57.86-.86,1.57-.86s13.89,1,13.89,1c.72,0,1.43.57,1.57,1.29.29.72,0,1.43-.43,2l-40.37,37.65c-.29.29-.86.43-1.29.43h0Z"/>
            <path class="st11" d="M1003.53,161.23h3.01c0,.14,10.74,1,10.74,1l-40.37,37.65,26.48-38.65M1003.53,157.51c-1.29,0-2.43.57-3.01,1.57l-26.48,38.65c-1.15,1.57-.86,3.72.57,4.87.72.57,1.57.86,2.43.86s1.86-.29,2.58-1l40.37-37.65c1.15-1,1.43-2.58,1-4.01s-1.72-2.43-3.29-2.43l-10.74-.72h-3.01c0-.29-.14-.29-.29-.29h0l-.14.14Z"/>
          </g>
        </g>
        <g>
          <polygon class="st7" points="997.23 201.89 1027.87 199.17 1028.87 193.15 997.23 201.89"/>
          <polygon class="st7" points="976.04 199.31 1016.41 161.66 1005.53 160.94 1002.53 160.66 976.04 199.31"/>
        </g>
      </g>
      <g>
        <g>
          <g>
            <path d="M904.89,206.61l-29.92-2.58c-.86,0-1.57-.72-1.72-1.57l-1-6.01c0-.57,0-1.29.57-1.72.29-.29.72-.43,1.29-.43s.29,0,.43,0l30.92,8.59c.86.29,1.43,1.15,1.29,2.15-.14.86-1,1.57-1.86,1.57s0,0-.14,0h.14Z"/>
            <path class="st11" d="M874.26,196.16l30.92,8.59-29.92-2.58-1-6.01M874.26,192.44c-.86,0-1.72.29-2.43,1-1,.86-1.43,2.15-1.15,3.29l1,6.01c.29,1.72,1.72,3.01,3.29,3.15l29.92,2.58h.29c1.72,0,3.29-1.29,3.72-3.01.29-1.86-.86-3.72-2.72-4.29l-30.92-8.59h-1v-.14Z"/>
          </g>
          <g>
            <path d="M924.94,203.75c-.43,0-.86-.14-1.29-.43l-39.51-36.93c-.57-.57-.72-1.29-.43-2s.86-1.15,1.57-1.29l13.46-1h0c.57,0,1.15.29,1.57.86l26.05,37.79c.57.72.43,1.86-.29,2.43-.29.29-.72.43-1.15.43v.14Z"/>
            <path class="st11" d="M898.88,164.09l26.05,37.79-39.51-36.93,10.59-.72h2.86M898.88,160.37h-3.15c0,.14-10.59,1-10.59,1-1.43,0-2.72,1.15-3.29,2.43-.43,1.43,0,3.01,1,4.01l39.51,36.93c.72.72,1.57,1,2.58,1s1.72-.29,2.43-.86c1.43-1.29,1.72-3.29.57-4.87l-26.05-37.79c-.72-1-1.86-1.57-3.01-1.57h0v-.29Z"/>
          </g>
        </g>
        <g>
          <polygon class="st7" points="905.04 203.89 875.12 201.17 874.26 195.16 905.04 203.89"/>
          <polygon class="st7" points="925.94 201.31 886.43 164.38 897.02 163.66 899.88 163.52 925.94 201.31"/>
        </g>
      </g>
      <path class="st4" d="M1100.59,216.92c12.74-6.73,30.92.86,35.07,14.6-8.73-10.16-21.76-15.6-35.07-14.6h0Z"/>
      <path class="st4" d="M770.76,230.52c2.58-14.17,19.76-23.76,33.07-18.61-3.44.14-6.73.72-9.88,1.57-9.59,2.72-17.61,8.73-23.19,17.04h0Z"/>
      <path class="st4" d="M767.75,223.93c.43-10.88,11.74-23.33,23.19-18.47-11.31,0-18.18,9.45-23.19,18.47h0Z"/>
      <g>
        <polygon class="st11" points="951.13 193.44 940.83 198.02 944.55 188.72 936.53 179.84 947.41 180.84 953.14 170.1 956.72 180.98 970.03 180.98 958.72 188.29 961.3 199.6 951.13 193.44"/>
        <polygon class="st6" points="947.98 181.56 952.14 173.83 954.71 181.56 963.88 181.56 955.86 186.57 957.86 194.87 950.56 190.43 943.55 193.73 946.12 187.28 940.11 180.84 947.98 181.56"/>
      </g>
      <g>
        <polygon class="st11" points="862.66 184.13 860.94 190.72 857.94 185.42 850.78 185.85 855.36 180.98 852.5 174.26 858.94 176.69 864.09 170.39 863.24 178.55 869.53 181.7 862.66 184.13"/>
        <polygon class="st6" points="855.93 180.98 853.79 176.12 858.51 177.84 861.95 173.54 861.37 179.27 865.96 181.56 861.09 183.28 859.94 187.86 857.94 184.13 852.5 184.42 855.93 180.98"/>
      </g>
      <g>
        <polygon class="st11" points="1039.46 213.63 1031.88 209.19 1039.46 207.47 1041.47 198.45 1045.62 205.75 1055.07 204.46 1049.77 211.62 1055.64 220.07 1046.05 216.06 1040.04 222.79 1039.46 213.63"/>
        <polygon class="st6" points="1045.48 206.32 1052.2 205.47 1048.48 210.62 1052.63 216.35 1045.9 213.63 1041.47 218.64 1041.04 212.05 1035.88 209.04 1041.04 207.76 1042.47 201.03 1045.48 206.32"/>
      </g>
      <g>
        <polygon class="st1" points="1094.58 170.1 1071.24 195.3 1082.84 195.3 1078.4 211.05 1096.3 188.72 1087.28 188.43 1094.58 170.1"/>
        <g>
          <polygon class="st6" points="1093.72 169.53 1070.38 194.73 1081.98 194.73 1077.54 210.48 1095.44 188.14 1086.42 187.71 1093.72 169.53"/>
          <path d="M1093.58,169.53c-7.59,8.45-14.46,17.89-22.48,25.91l-.86-2c3.29,0,8.3.29,11.6.43.43,0,.72.43.57.86-1.86,5.15-3.29,10.45-4.44,15.89l-1.29-.72c5.58-7.73,11.31-15.46,17.47-22.76l1,2.29c-3.01-.14-6.01-.43-9.02-.72-.86,0-1.29-.86-1-1.57,2.58-6.01,5.73-11.45,8.3-17.75h0l.14.14ZM1093.72,169.39c-2.29,6.01-4.01,12.6-6.3,18.9l-1-1.57h9.02c1.15,0,1.86,1.43,1.15,2.29-5.87,7.59-12.17,14.89-18.61,21.9-.43.72-1.57,0-1.29-.72.86-2.58,1.86-5.15,2.58-7.87.86-2.58,1.43-5.3,2-8.02l.57.86-5.87.29c-2,0-3.87.29-5.87.29-.57,0-1.15-.43-1.15-1.15,0-.29,0-.57.29-.86,2-2.29,4.01-4.44,6.16-6.59,5.73-5.87,12.6-12.17,18.18-18.04h0l.14.29Z"/>
        </g>
      </g>
      <g>
        <path class="st10" d="M1225.85,345.04c-.86,0-1.57-.29-2.43-.29-23.91-2.43-48.24,8.73-64.13,27.49-15.03-6.87-31.92-8.45-46.38-3.01-10.74,4.01-19.76,11.88-26.05,21.76-1.86-3.15-4.01-6.16-6.3-9.02-12.45-15.46-33.64-24.91-53.4-22.91-14.32,1-28.92,7.3-40.37,12.17-13.17,5.58-26.77,8.88-36.51,3.29-12.03-7.16-13.74-25.77-14.6-39.37l-3.01-.29c-2,8.02-3.72,16.18-3.87,25.2-.29,18.61,8.45,30.49,21.33,37.22-2.72.43-5.44,1-8.02,1.72-.57,0-1,.29-1.57.43-4.01-4.15-8.45-7.59-13.46-10.02-15.75-7.87-34.36-6.87-50.96-1.29-4.01,1.43-8.02,3.15-11.88,5.44-1.15-.57-2.29-1.15-3.44-1.72-16.18-7.3-35.07-6.44-52.11-1.15-6.44,2-13.03,5.01-18.47,9.02-2.29-1.57-4.87-3.01-7.44-4.29-2.58-1.15-5.3-2.15-8.02-2.86-3.87-4.58-5.58-12.17-4.15-17.47,2-10.59,13.17-16.89,24.48-17.89,12.88-1.43,21.04,5.44,31.78,11.6,24.77,15.03,60.13,2.86,64.28-24.91l-3.01-.72c-3.44,7.87-10.16,13.89-17.75,16.61-11.31,4.01-23.05,1.29-31.07-6.59-4.58-4.29-9.88-10.45-15.75-14.75-17.89-12.74-42.09-14.89-63.13-6.87-12.74,4.72-22.62,13.03-29.35,23.05-12.17-29.06-40.8-49.39-74.16-49.39s-60.27,19.18-73.01,46.81c-26.34-26.2-65.71-44.67-108.37-47.96-46.38-3.44-93.48,11.6-125.55,37.51-13.89,1.86-27.49,4.44-40.8,7.44-50.53,11.45-103.22,34.79-114.1,72.87l-8.73,86.61c15.03,73.01,101.79,135,201.28,142.16,63.99,4.58,128.99-14.32,174.94-47.1,7.16-1,14.17-2.43,21.04-4.15,16.32-4.29,33.07-11.88,42.23-23.48,6.59,8.73,15.03,16.03,24.77,20.61,20.9,10.02,45.52,8.73,67.57,1.57,10.16-3.29,20.61-8.59,28.2-16.18,5.44,5.58,11.74,10.16,18.61,13.46,20.9,10.02,45.52,8.73,67.57,1.57,6.01-2,12.03-4.58,17.47-7.87,1.29.72,2.72,1.43,4.01,2.15,20.9,10.02,45.52,8.73,67.57,1.57,9.45-3.15,19.18-7.87,26.77-14.75,3.29,2.58,6.87,4.72,10.74,6.59,19.76,9.45,42.8,8.88,63.85,2.72,6.73,9.31,15.46,16.89,25.63,21.76,20.9,10.02,45.52,8.73,67.57,1.57,12.6-4.15,25.63-11.31,33.21-22.19,6.3-1,12.45-2.43,18.47-4.44,12.31-4.01,25.05-11.02,32.78-21.33,6.16,7.01,13.46,12.88,21.62,16.89,20.9,10.02,45.52,8.73,67.57,1.57.57-.14,1.29-.43,1.86-.57,20.9,10.02,45.52,8.73,67.57,1.57,2.29-.72,4.72-1.57,7.01-2.58,2.43,1.57,4.87,3.01,7.44,4.29,20.9,10.02,45.52,8.73,67.57,1.57,9.73-3.15,19.61-8.16,27.2-15.17,11.02,8.3,23.76,15.32,37.94,20.33,42.37,14.89,91.91,12.88,136.43,2.29,35.07-8.3,71.87-25.34,79.45-53.25l6.01-63.28c-10.45-53.4-70.86-98.64-140.15-103.93-15.17-1.15-30.49-.29-45.38,2.29l1.86-20.76c-9.45-52.25-58.55-97.63-118.82-111.95-15.6-5.15-32.5-7.87-49.82-7.87-72.15,0-132.71,47.24-149.74,111.23l-.43-.43Z"/>
        <g>
          <path class="st12" d="M1159.57,372.24c6.16-8.02,15.03-14.89,25.63-19.47,15.46-6.73,33.93-8.45,50.25-4.58l-75.87,24.05Z"/>
          <path class="st4" d="M790.65,399.01c24.48-20.76,66.57-19.47,87.76,5.58-24.62-20.19-60.84-23.33-87.76-5.58h0Z"/>
          <path class="st4" d="M1159.14,372.24c16.89-23.48,48.67-32.64,76.59-27.34l-1.57,6.59c-25.91-7.01-57.12-.43-75.01,20.76h0Z"/>
        </g>
        <g>
          <path class="st4" d="M916.06,223.36h0Z"/>
          <path class="st4" d="M923.36,223.5c.14,0,.29-.14.29-.29s0-.29-.29-.29-.29.14-.29.29,0,.29.29.29Z"/>
          <path class="st4" d="M930.66,223.79c.29,0,.43-.29.43-.57s-.14-.57-.43-.57-.43.29-.43.57.14.57.43.57Z"/>
          <path class="st4" d="M937.96,223.93c.29,0,.57-.29.57-.72s-.29-.72-.57-.72-.57.29-.57.72c0,.29.29.72.57.72Z"/>
          <path class="st4" d="M945.41,223.93c.29,0,.57-.29.57-.72s-.29-.72-.57-.72-.57.29-.57.72.29.72.57.72Z"/>
          <path class="st4" d="M952.71,223.93c.29,0,.57-.29.57-.72s-.29-.72-.57-.72-.57.29-.57.72.29.72.57.72Z"/>
          <path class="st4" d="M960.01,223.79c.29,0,.57-.29.57-.57s-.29-.57-.57-.57-.57.29-.57.57.29.57.57.57Z"/>
          <path class="st4" d="M967.31,223.65c.14,0,.43-.14.43-.43s-.14-.43-.43-.43-.43.14-.43.43.14.43.43.43Z"/>
          <path class="st4" d="M974.61,223.36s.14,0,.14-.14,0-.14-.14-.14,0,0,0,.14v.14Z"/>
          <path class="st4" d="M908.76,231.66c.14,0,.29-.14.29-.43s-.14-.29-.29-.29-.29.14-.29.29.14.43.29.43Z"/>
          <path class="st4" d="M916.06,231.95c.29,0,.57-.29.57-.72s-.29-.72-.57-.72-.57.29-.57.72.29.72.57.72Z"/>
          <path class="st4" d="M923.36,232.24c.57,0,.86-.43.86-1s-.43-1-.86-1c-.57,0-.86.43-.86,1s.43,1,.86,1Z"/>
          <path class="st4" d="M930.66,232.52c.57,0,1.15-.57,1.15-1.15,0-.72-.43-1.15-1.15-1.15s-1.15.57-1.15,1.15c0,.72.43,1.15,1.15,1.15Z"/>
          <path class="st4" d="M937.96,232.52c.72,0,1.29-.57,1.29-1.29s-.57-1.29-1.29-1.29-1.29.57-1.29,1.29.57,1.29,1.29,1.29Z"/>
          <path class="st4" d="M945.41,232.67c.72,0,1.29-.57,1.29-1.43,0-.72-.57-1.43-1.29-1.43s-1.29.57-1.29,1.43c0,.72.57,1.43,1.29,1.43Z"/>
          <path class="st4" d="M952.71,232.67c.72,0,1.29-.57,1.29-1.29s-.57-1.29-1.29-1.29-1.29.57-1.29,1.29.57,1.29,1.29,1.29Z"/>
          <path class="st4" d="M960.01,232.52c.57,0,1.15-.57,1.15-1.29s-.57-1.29-1.15-1.29-1.15.57-1.15,1.29.57,1.29,1.15,1.29Z"/>
          <path class="st4" d="M967.31,232.38c.57,0,1-.43,1-1s-.43-1-1-1-1,.43-1,1,.43,1,1,1Z"/>
          <path class="st4" d="M974.61,232.09c.43,0,.72-.43.72-.86s-.29-.86-.72-.86-.72.43-.72.86.29.86.72.86Z"/>
          <path class="st4" d="M982.06,231.81c.29,0,.43-.29.43-.43,0-.29-.14-.43-.43-.43s-.43.29-.43.43c0,.29.14.43.43.43Z"/>
          <path class="st4" d="M989.36,231.38h0Z"/>
          <path class="st4" d="M894.01,239.25h0Z"/>
          <path class="st4" d="M901.46,239.82c.29,0,.43-.29.43-.43s-.14-.43-.43-.43-.43.29-.43.43.14.43.43.43Z"/>
          <path class="st4" d="M908.76,240.25c.43,0,.86-.43.86-1s-.43-1-.86-1-.86.43-.86,1,.43,1,.86,1Z"/>
          <path class="st4" d="M916.06,240.54c.72,0,1.15-.57,1.15-1.29s-.57-1.29-1.15-1.29-1.15.57-1.15,1.29.57,1.29,1.15,1.29Z"/>
          <path class="st4" d="M923.36,240.97c.86,0,1.43-.72,1.43-1.57s-.72-1.57-1.43-1.57-1.43.72-1.43,1.57.72,1.57,1.43,1.57Z"/>
          <path class="st4" d="M930.66,241.11c1,0,1.72-.86,1.72-1.86s-.72-1.86-1.72-1.86-1.72.86-1.72,1.86.72,1.86,1.72,1.86Z"/>
          <path class="st4" d="M937.96,241.25c1,0,1.86-.86,1.86-2s-.86-2-1.86-2-1.86.86-1.86,2,.86,2,1.86,2Z"/>
          <path class="st4" d="M945.41,241.4c1,0,1.86-1,1.86-2.15s-.86-2.15-1.86-2.15-1.86,1-1.86,2.15.86,2.15,1.86,2.15Z"/>
          <path class="st4" d="M952.71,241.4c1,0,1.86-.86,1.86-2s-.86-2-1.86-2-1.86.86-1.86,2,.86,2,1.86,2Z"/>
          <path class="st4" d="M960.01,241.25c1,0,1.72-.86,1.72-2s-.86-2-1.72-2-1.72.86-1.72,2c0,1,.86,2,1.72,2Z"/>
          <path class="st4" d="M967.31,240.97c.86,0,1.57-.72,1.57-1.72s-.72-1.72-1.57-1.72-1.57.72-1.57,1.72.72,1.72,1.57,1.72Z"/>
          <path class="st4" d="M974.61,240.68c.72,0,1.29-.57,1.29-1.43s-.57-1.43-1.29-1.43-1.29.57-1.29,1.43.57,1.43,1.29,1.43Z"/>
          <path class="st4" d="M982.06,240.4c.57,0,1-.43,1-1s-.43-1-1-1-1,.43-1,1,.43,1,1,1Z"/>
          <path class="st4" d="M989.36,239.97c.29,0,.57-.29.57-.72s-.29-.72-.57-.72-.57.29-.57.72.29.72.57.72Z"/>
          <path class="st4" d="M996.66,239.39s.14,0,.14-.14,0-.14-.14-.14-.14,0-.14.14,0,.14.14.14Z"/>
          <path class="st4" d="M894.01,247.84c.29,0,.43-.29.43-.43s-.14-.43-.43-.43-.43.29-.43.43.14.43.43.43Z"/>
          <path class="st4" d="M901.46,248.27c.57,0,1-.43,1-1s-.43-1-1-1-1,.43-1,1,.43,1,1,1Z"/>
          <path class="st4" d="M908.76,248.84c.72,0,1.43-.72,1.43-1.43s-.57-1.43-1.43-1.43-1.43.72-1.43,1.43.57,1.43,1.43,1.43Z"/>
          <path class="st4" d="M916.06,249.27c1,0,1.72-.86,1.72-1.86s-.72-1.86-1.72-1.86-1.72.86-1.72,1.86.72,1.86,1.72,1.86Z"/>
          <path class="st4" d="M923.36,249.56c1.15,0,2-1,2-2.29s-.86-2.29-2-2.29-2,1-2,2.29.86,2.29,2,2.29Z"/>
          <path class="st4" d="M930.66,249.84c1.29,0,2.29-1.15,2.29-2.58s-1-2.58-2.29-2.58-2.29,1.15-2.29,2.58,1,2.58,2.29,2.58Z"/>
          <path class="st4" d="M937.96,249.99c1.43,0,2.43-1.29,2.43-2.72s-1.15-2.72-2.43-2.72c-1.43,0-2.43,1.15-2.43,2.72,0,1.43,1.15,2.72,2.43,2.72Z"/>
          <path class="st4" d="M945.41,250.13c1.43,0,2.58-1.29,2.58-2.72,0-1.57-1.15-2.72-2.58-2.72s-2.58,1.29-2.58,2.72c0,1.57,1.15,2.72,2.58,2.72Z"/>
          <path class="st4" d="M952.71,249.99c1.43,0,2.43-1.29,2.43-2.72,0-1.57-1.15-2.72-2.43-2.72-1.43,0-2.43,1.29-2.43,2.72,0,1.57,1.15,2.72,2.43,2.72Z"/>
          <path class="st4" d="M960.01,249.84c1.29,0,2.43-1.15,2.43-2.58s-1-2.58-2.43-2.58c-1.29,0-2.43,1.15-2.43,2.58s1,2.58,2.43,2.58Z"/>
          <path class="st4" d="M967.31,249.7c1.15,0,2.15-1,2.15-2.29s-1-2.29-2.15-2.29-2.15,1-2.15,2.29,1,2.29,2.15,2.29Z"/>
          <path class="st4" d="M974.61,249.27c1,0,1.86-.86,1.86-2s-.86-2-1.86-2-1.86.86-1.86,2,.86,2,1.86,2Z"/>
          <path class="st4" d="M982.06,248.99c.86,0,1.43-.72,1.43-1.57s-.72-1.57-1.43-1.57c-.86,0-1.43.72-1.43,1.57s.72,1.57,1.43,1.57Z"/>
          <path class="st4" d="M989.36,248.56c.57,0,1.15-.57,1.15-1.15,0-.72-.43-1.15-1.15-1.15s-1.15.57-1.15,1.15c0,.72.43,1.15,1.15,1.15Z"/>
          <path class="st4" d="M996.66,247.98c.29,0,.57-.29.57-.72s-.29-.72-.57-.72-.57.29-.57.72.29.72.57.72Z"/>
          <path class="st4" d="M1003.96,247.41h0Z"/>
          <path class="st4" d="M886.71,255.71c.14,0,.29-.14.29-.29s-.14-.29-.29-.29-.29.14-.29.29.14.29.29.29Z"/>
          <path class="st4" d="M894.01,256.29c.43,0,.86-.43.86-1s-.43-1-.86-1-.86.43-.86,1,.43,1,.86,1Z"/>
          <path class="st4" d="M901.46,256.86c.72,0,1.43-.72,1.43-1.43s-.57-1.43-1.43-1.43-1.43.72-1.43,1.43.57,1.43,1.43,1.43Z"/>
          <path class="st4" d="M908.76,257.29c1,0,1.86-.86,1.86-2s-.86-2-1.86-2-1.86.86-1.86,2,.86,2,1.86,2Z"/>
          <path class="st4" d="M916.06,257.72c1.29,0,2.29-1.15,2.29-2.43s-1-2.43-2.29-2.43-2.29,1.15-2.29,2.43,1,2.43,2.29,2.43Z"/>
          <path class="st4" d="M923.36,258.15c1.43,0,2.58-1.29,2.58-2.86s-1.15-2.86-2.58-2.86-2.58,1.29-2.58,2.86,1.15,2.86,2.58,2.86Z"/>
          <path class="st4" d="M930.66,258.58c1.57,0,2.86-1.43,2.86-3.15s-1.29-3.15-2.86-3.15-2.86,1.43-2.86,3.15,1.29,3.15,2.86,3.15Z"/>
          <path class="st4" d="M937.96,258.72c1.72,0,3.15-1.57,3.15-3.44s-1.43-3.44-3.15-3.44-3.15,1.57-3.15,3.44,1.43,3.44,3.15,3.44Z"/>
          <path class="st4" d="M945.41,258.86c1.72,0,3.15-1.57,3.15-3.44s-1.43-3.44-3.15-3.44-3.15,1.57-3.15,3.44,1.43,3.44,3.15,3.44Z"/>
          <path class="st4" d="M952.71,258.72c1.72,0,3.15-1.57,3.15-3.44s-1.43-3.44-3.15-3.44-3.15,1.57-3.15,3.44,1.43,3.44,3.15,3.44Z"/>
          <path class="st4" d="M960.01,258.58c1.72,0,3.01-1.43,3.01-3.29s-1.29-3.29-3.01-3.29-3.01,1.43-3.01,3.29,1.29,3.29,3.01,3.29Z"/>
          <path class="st4" d="M967.31,258.29c1.43,0,2.72-1.29,2.72-3.01s-1.29-3.01-2.72-3.01-2.72,1.29-2.72,3.01,1.29,3.01,2.72,3.01Z"/>
          <path class="st4" d="M974.61,258c1.29,0,2.43-1.15,2.43-2.58s-1-2.58-2.43-2.58-2.43,1.15-2.43,2.58,1,2.58,2.43,2.58Z"/>
          <path class="st4" d="M982.06,257.43c1.15,0,2-1,2-2.15s-.86-2.15-2-2.15-2,1-2,2.15.86,2.15,2,2.15Z"/>
          <path class="st4" d="M989.36,257c.86,0,1.57-.72,1.57-1.72s-.72-1.72-1.57-1.72-1.43.72-1.43,1.72.72,1.72,1.43,1.72Z"/>
          <path class="st4" d="M996.66,256.43c.57,0,1-.57,1-1.15s-.43-1.15-1-1.15-1,.57-1,1.15.43,1.15,1,1.15Z"/>
          <path class="st4" d="M1003.96,255.86c.29,0,.57-.29.57-.57s-.29-.57-.57-.57-.57.29-.57.57.29.57.57.57Z"/>
          <path class="st4" d="M879.41,263.44h0Z"/>
          <path class="st4" d="M886.71,264.02c.29,0,.57-.29.57-.72s-.29-.72-.57-.72-.57.29-.57.72.29.72.57.72Z"/>
          <path class="st4" d="M894.01,264.73c.72,0,1.15-.57,1.15-1.29s-.57-1.29-1.15-1.29-1.15.57-1.15,1.29.57,1.29,1.15,1.29Z"/>
          <path class="st4" d="M901.46,265.31c1,0,1.72-.86,1.72-1.86s-.72-1.86-1.72-1.86-1.72.86-1.72,1.86.72,1.86,1.72,1.86Z"/>
          <path class="st4" d="M908.76,265.88c1.29,0,2.29-1.15,2.29-2.43s-1-2.43-2.29-2.43-2.29,1.15-2.29,2.43,1,2.43,2.29,2.43Z"/>
          <path class="st4" d="M916.06,266.31c1.43,0,2.72-1.29,2.72-3.01s-1.29-3.01-2.72-3.01-2.72,1.29-2.72,3.01,1.29,3.01,2.72,3.01Z"/>
          <path class="st4" d="M923.36,266.88c1.72,0,3.15-1.57,3.15-3.44s-1.43-3.44-3.15-3.44-3.15,1.57-3.15,3.44,1.43,3.44,3.15,3.44Z"/>
          <path class="st4" d="M930.66,267.17c1.86,0,3.44-1.72,3.44-3.87s-1.57-3.87-3.44-3.87-3.44,1.72-3.44,3.87,1.57,3.87,3.44,3.87Z"/>
          <ellipse class="st4" cx="937.96" cy="263.3" rx="3.72" ry="4.01"/>
          <path class="st4" d="M945.41,267.6c2.15,0,3.87-1.86,3.87-4.15s-1.72-4.15-3.87-4.15-3.87,1.86-3.87,4.15,1.72,4.15,3.87,4.15Z"/>
          <path class="st4" d="M952.71,267.45c2.15,0,3.72-1.86,3.72-4.15s-1.72-4.15-3.72-4.15-3.72,1.86-3.72,4.15,1.72,4.15,3.72,4.15Z"/>
          <path class="st4" d="M960.01,267.31c2,0,3.58-1.72,3.58-3.87s-1.57-3.87-3.58-3.87-3.58,1.72-3.58,3.87,1.57,3.87,3.58,3.87Z"/>
          <path class="st4" d="M967.31,266.88c1.86,0,3.29-1.57,3.29-3.58s-1.43-3.58-3.29-3.58-3.29,1.57-3.29,3.58,1.43,3.58,3.29,3.58Z"/>
          <path class="st4" d="M974.61,266.45c1.57,0,2.86-1.43,2.86-3.15s-1.29-3.15-2.86-3.15-2.86,1.43-2.86,3.15,1.29,3.15,2.86,3.15Z"/>
          <path class="st4" d="M982.06,266.02c1.29,0,2.43-1.15,2.43-2.58s-1.15-2.58-2.43-2.58-2.43,1.15-2.43,2.58,1,2.58,2.43,2.58Z"/>
          <path class="st4" d="M989.36,265.45c1,0,1.86-1,1.86-2.15s-.86-2.15-1.86-2.15-1.86,1-1.86,2.15.86,2.15,1.86,2.15Z"/>
          <path class="st4" d="M996.66,264.88c.72,0,1.43-.72,1.43-1.57s-.57-1.57-1.43-1.57-1.43.72-1.43,1.57.57,1.57,1.43,1.57Z"/>
          <path class="st4" d="M1003.96,264.3c.43,0,.86-.43.86-.86,0-.57-.43-.86-.86-.86s-.86.43-.86.86c0,.57.43.86.86.86Z"/>
          <path class="st4" d="M1011.26,263.59s.29,0,.29-.29,0-.29-.29-.29-.29,0-.29.29,0,.29.29.29Z"/>
          <path class="st4" d="M879.41,271.75c.14,0,.29-.14.29-.29s0-.29-.29-.29-.29.14-.29.29,0,.29.29.29Z"/>
          <path class="st4" d="M886.71,272.32c.57,0,.86-.43.86-1s-.43-1-.86-1-.86.43-.86,1,.43,1,.86,1Z"/>
          <path class="st4" d="M894.01,273.04c.86,0,1.43-.72,1.43-1.57s-.72-1.57-1.43-1.57-1.43.72-1.43,1.57.72,1.57,1.43,1.57Z"/>
          <path class="st4" d="M901.46,273.61c1.15,0,2-1,2-2.29s-.86-2.29-2-2.29-2,1-2,2.29.86,2.29,2,2.29Z"/>
          <path class="st4" d="M908.76,274.18c1.43,0,2.58-1.29,2.58-2.86s-1.15-2.86-2.58-2.86-2.58,1.29-2.58,2.86,1.15,2.86,2.58,2.86Z"/>
          <path class="st4" d="M916.06,274.9c1.72,0,3.15-1.57,3.15-3.44s-1.43-3.44-3.15-3.44-3.15,1.57-3.15,3.44,1.43,3.44,3.15,3.44Z"/>
          <path class="st4" d="M923.36,275.33c2,0,3.58-1.72,3.58-4.01,0-2.15-1.57-4.01-3.58-4.01s-3.58,1.72-3.58,4.01c0,2.15,1.57,4.01,3.58,4.01Z"/>
          <path class="st4" d="M930.66,275.76c2.29,0,4.01-2,4.01-4.44s-1.86-4.44-4.01-4.44-4.01,2-4.01,4.44,1.86,4.44,4.01,4.44Z"/>
          <path class="st4" d="M937.96,276.19c2.43,0,4.29-2.15,4.29-4.72s-2-4.72-4.29-4.72c-2.43,0-4.29,2.15-4.29,4.72s2,4.72,4.29,4.72Z"/>
          <path class="st4" d="M945.41,276.33c2.43,0,4.44-2.15,4.44-4.87s-2-4.87-4.44-4.87-4.44,2.15-4.44,4.87,2,4.87,4.44,4.87Z"/>
          <path class="st4" d="M952.71,276.19c2.43,0,4.44-2.15,4.44-4.87s-2-4.87-4.44-4.87-4.44,2.15-4.44,4.87,2,4.87,4.44,4.87Z"/>
          <path class="st4" d="M960.01,275.9c2.29,0,4.15-2,4.15-4.58s-1.86-4.58-4.15-4.58-4.15,2-4.15,4.58,1.86,4.58,4.15,4.58Z"/>
          <path class="st4" d="M967.31,275.47c2,0,3.72-1.86,3.72-4.15s-1.72-4.15-3.72-4.15c-2.15,0-3.72,1.86-3.72,4.15s1.72,4.15,3.72,4.15Z"/>
          <path class="st4" d="M974.61,275.04c1.86,0,3.29-1.57,3.29-3.58s-1.43-3.58-3.29-3.58-3.29,1.57-3.29,3.58,1.43,3.58,3.29,3.58Z"/>
          <path class="st4" d="M982.06,274.47c1.57,0,2.72-1.43,2.72-3.01s-1.29-3.01-2.72-3.01-2.72,1.43-2.72,3.01,1.29,3.01,2.72,3.01Z"/>
          <path class="st4" d="M989.36,273.89c1.29,0,2.29-1.15,2.29-2.43s-1-2.43-2.29-2.43-2.29,1.15-2.29,2.43,1,2.43,2.29,2.43Z"/>
          <path class="st4" d="M996.66,273.18c.86,0,1.72-.86,1.72-1.86s-.72-1.86-1.72-1.86-1.72.86-1.72,1.86.72,1.86,1.72,1.86Z"/>
          <path class="st4" d="M1003.96,272.61c.57,0,1.15-.57,1.15-1.15s-.43-1.15-1.15-1.15-1.15.57-1.15,1.15c0,.72.43,1.15,1.15,1.15Z"/>
          <path class="st4" d="M1011.26,271.89c.29,0,.57-.29.57-.57s-.29-.57-.57-.57-.57.29-.57.57.29.57.57.57Z"/>
          <path class="st4" d="M879.41,279.91c.29,0,.43-.29.43-.57s-.14-.57-.43-.57-.43.29-.43.57.14.57.43.57Z"/>
          <path class="st4" d="M886.71,280.62c.57,0,1.15-.57,1.15-1.15,0-.72-.43-1.15-1.15-1.15s-1.15.57-1.15,1.15.43,1.15,1.15,1.15Z"/>
          <path class="st4" d="M894.01,281.34c1,0,1.72-.86,1.72-1.86s-.72-1.86-1.72-1.86-1.72.86-1.72,1.86.72,1.86,1.72,1.86Z"/>
          <path class="st4" d="M901.46,281.91c1.29,0,2.29-1.15,2.29-2.58s-1-2.58-2.29-2.58-2.29,1.15-2.29,2.58,1,2.58,2.29,2.58Z"/>
          <path class="st4" d="M908.76,282.63c1.57,0,2.86-1.43,2.86-3.15s-1.29-3.15-2.86-3.15-2.86,1.43-2.86,3.15,1.29,3.15,2.86,3.15Z"/>
          <path class="st4" d="M916.06,283.2c1.86,0,3.44-1.72,3.44-3.87s-1.57-3.87-3.44-3.87-3.44,1.72-3.44,3.87,1.57,3.87,3.44,3.87Z"/>
          <path class="st4" d="M923.36,283.92c2.29,0,4.01-2,4.01-4.44s-1.86-4.44-4.01-4.44c-2.29,0-4.01,2-4.01,4.44s1.86,4.44,4.01,4.44Z"/>
          <path class="st4" d="M930.66,284.35c2.43,0,4.58-2.29,4.58-5.01s-2-5.01-4.58-5.01c-2.43,0-4.58,2.29-4.58,5.01s2,5.01,4.58,5.01Z"/>
          <path class="st4" d="M937.96,284.35c2.43,0,4.58-2.29,4.58-5.01s-2-5.01-4.58-5.01c-2.43,0-4.58,2.29-4.58,5.01s2,5.01,4.58,5.01Z"/>
          <path class="st4" d="M945.41,284.35c2.43,0,4.58-2.29,4.58-5.01s-2-5.01-4.58-5.01c-2.43,0-4.58,2.29-4.58,5.01s2,5.01,4.58,5.01Z"/>
          <path class="st4" d="M952.71,284.35c2.43,0,4.58-2.29,4.58-5.01s-2-5.01-4.58-5.01c-2.43,0-4.58,2.29-4.58,5.01s2,5.01,4.58,5.01Z"/>
          <path class="st4" d="M960.01,284.35c2.43,0,4.58-2.29,4.58-5.01s-2-5.01-4.58-5.01-4.58,2.29-4.58,5.01,2,5.01,4.58,5.01Z"/>
          <path class="st4" d="M967.31,284.06c2.29,0,4.15-2,4.15-4.58s-1.86-4.58-4.15-4.58-4.15,2-4.15,4.58,1.86,4.58,4.15,4.58Z"/>
          <path class="st4" d="M974.61,283.49c2,0,3.72-1.86,3.72-4.01,0-2.29-1.57-4.01-3.72-4.01-2,0-3.72,1.86-3.72,4.01,0,2.29,1.72,4.01,3.72,4.01Z"/>
          <path class="st4" d="M982.06,282.77c1.72,0,3.15-1.57,3.15-3.44s-1.43-3.44-3.15-3.44-3.15,1.57-3.15,3.44,1.43,3.44,3.15,3.44Z"/>
          <path class="st4" d="M989.36,282.2c1.43,0,2.43-1.29,2.43-2.72,0-1.57-1.15-2.72-2.43-2.72-1.43,0-2.43,1.29-2.43,2.72,0,1.57,1.15,2.72,2.43,2.72Z"/>
          <path class="st4" d="M996.66,281.48c1,0,1.86-1,1.86-2.15s-.86-2.15-1.86-2.15-1.86,1-1.86,2.15.86,2.15,1.86,2.15Z"/>
          <path class="st4" d="M1003.96,280.91c.72,0,1.29-.57,1.29-1.43s-.57-1.43-1.29-1.43-1.29.57-1.29,1.43.57,1.43,1.29,1.43Z"/>
          <path class="st4" d="M1011.26,280.19c.43,0,.72-.29.72-.72s-.29-.72-.72-.72-.72.29-.72.72.29.72.72.72Z"/>
          <path class="st4" d="M1018.56,279.48h0Z"/>
          <path class="st4" d="M879.41,288.07c.29,0,.57-.29.57-.57s-.29-.72-.57-.72-.57.29-.57.72.29.57.57.57Z"/>
          <path class="st4" d="M886.71,288.78c.72,0,1.15-.57,1.15-1.29s-.57-1.29-1.15-1.29-1.29.57-1.29,1.29.57,1.29,1.29,1.29Z"/>
          <path class="st4" d="M894.01,289.5c1,0,1.86-.86,1.86-2s-.86-2-1.86-2-1.86.86-1.86,2,.86,2,1.86,2Z"/>
          <path class="st4" d="M901.46,290.21c1.43,0,2.43-1.15,2.43-2.72s-1.15-2.72-2.43-2.72-2.43,1.15-2.43,2.72,1.15,2.72,2.43,2.72Z"/>
          <path class="st4" d="M908.76,290.79c1.72,0,3.15-1.57,3.15-3.44s-1.43-3.44-3.15-3.44-3.15,1.57-3.15,3.44,1.43,3.44,3.15,3.44Z"/>
          <path class="st4" d="M916.06,291.5c2,0,3.72-1.86,3.72-4.01,0-2.29-1.72-4.01-3.72-4.01s-3.72,1.86-3.72,4.01c0,2.29,1.72,4.01,3.72,4.01Z"/>
          <path class="st4" d="M923.36,292.22c2.43,0,4.29-2.15,4.29-4.72s-2-4.72-4.29-4.72c-2.43,0-4.29,2.15-4.29,4.72s2,4.72,4.29,4.72Z"/>
          <path class="st4" d="M930.66,292.36c2.43,0,4.58-2.29,4.58-5.01s-2-5.01-4.58-5.01c-2.43,0-4.58,2.29-4.58,5.01s2,5.01,4.58,5.01Z"/>
          <path class="st4" d="M937.96,292.36c2.43,0,4.58-2.29,4.58-5.01s-2-5.01-4.58-5.01c-2.43,0-4.58,2.29-4.58,5.01s2,5.01,4.58,5.01Z"/>
          <path class="st4" d="M945.41,292.36c2.43,0,4.58-2.29,4.58-5.01s-2-5.01-4.58-5.01c-2.43,0-4.58,2.29-4.58,5.01s2,5.01,4.58,5.01Z"/>
          <path class="st4" d="M952.71,292.36c2.43,0,4.58-2.29,4.58-5.01s-2-5.01-4.58-5.01-4.58,2.29-4.58,5.01,2,5.01,4.58,5.01Z"/>
          <path class="st4" d="M960.01,292.36c2.43,0,4.58-2.29,4.58-5.01s-2-5.01-4.58-5.01-4.58,2.29-4.58,5.01,2,5.01,4.58,5.01Z"/>
          <path class="st4" d="M967.31,292.36c2.43,0,4.58-2.29,4.58-5.01s-2-5.01-4.58-5.01-4.58,2.29-4.58,5.01,2,5.01,4.58,5.01Z"/>
          <path class="st4" d="M974.61,291.79c2.15,0,3.87-1.86,3.87-4.29s-1.72-4.29-3.87-4.29-3.87,1.86-3.87,4.29,1.72,4.29,3.87,4.29Z"/>
          <path class="st4" d="M982.06,291.07c1.86,0,3.29-1.57,3.29-3.58s-1.43-3.58-3.29-3.58-3.29,1.57-3.29,3.58,1.43,3.58,3.29,3.58Z"/>
          <path class="st4" d="M989.36,290.36c1.43,0,2.72-1.29,2.72-3.01s-1.15-3.01-2.72-3.01-2.72,1.29-2.72,3.01c0,1.57,1.15,3.01,2.72,3.01Z"/>
          <path class="st4" d="M996.66,289.64c1.15,0,2-1,2-2.29s-.86-2.29-2-2.29-2,1-2,2.29.86,2.29,2,2.29Z"/>
          <path class="st4" d="M1003.96,289.07c.86,0,1.43-.72,1.43-1.57s-.72-1.57-1.43-1.57-1.43.72-1.43,1.57.72,1.57,1.43,1.57Z"/>
          <path class="st4" d="M1011.26,288.35c.43,0,.86-.43.86-.86s-.43-.86-.86-.86-.86.43-.86.86.43.86.86.86Z"/>
          <path class="st4" d="M1018.56,287.64s.14,0,.14-.14,0-.14-.14-.14-.14,0-.14.14,0,.14.14.14Z"/>
          <path class="st4" d="M879.41,296.23c.29,0,.57-.29.57-.72s-.29-.72-.57-.72-.57.29-.57.72.29.72.57.72Z"/>
          <path class="st4" d="M886.71,296.94c.72,0,1.29-.57,1.29-1.43,0-.72-.57-1.43-1.29-1.43s-1.29.57-1.29,1.43.57,1.43,1.29,1.43Z"/>
          <path class="st4" d="M894.01,297.52c1,0,1.86-1,1.86-2.15s-.86-2.15-1.86-2.15-1.86,1-1.86,2.15.86,2.15,1.86,2.15Z"/>
          <path class="st4" d="M901.46,298.23c1.43,0,2.58-1.29,2.58-2.72,0-1.57-1.15-2.72-2.58-2.72s-2.58,1.29-2.58,2.72c0,1.57,1.15,2.72,2.58,2.72Z"/>
          <path class="st4" d="M908.76,298.95c1.72,0,3.15-1.57,3.15-3.44s-1.43-3.44-3.15-3.44-3.15,1.57-3.15,3.44,1.43,3.44,3.15,3.44Z"/>
          <path class="st4" d="M916.06,299.66c2.15,0,3.87-1.86,3.87-4.15s-1.72-4.15-3.87-4.15-3.87,1.86-3.87,4.15,1.72,4.15,3.87,4.15Z"/>
          <path class="st4" d="M923.36,300.38c2.43,0,4.44-2.15,4.44-4.87s-2-4.87-4.44-4.87-4.44,2.15-4.44,4.87,2,4.87,4.44,4.87Z"/>
          <path class="st4" d="M930.66,300.38c2.43,0,4.58-2.29,4.58-5.01s-2-5.01-4.58-5.01-4.58,2.29-4.58,5.01,2,5.01,4.58,5.01Z"/>
          <path class="st4" d="M937.96,300.38c2.43,0,4.58-2.29,4.58-5.01s-2-5.01-4.58-5.01c-2.43,0-4.58,2.29-4.58,5.01s2,5.01,4.58,5.01Z"/>
          <path class="st4" d="M945.41,300.38c2.43,0,4.58-2.29,4.58-5.01s-2-5.01-4.58-5.01c-2.43,0-4.58,2.29-4.58,5.01s2,5.01,4.58,5.01Z"/>
          <path class="st4" d="M952.71,300.38c2.43,0,4.58-2.29,4.58-5.01s-2-5.01-4.58-5.01c-2.43,0-4.58,2.29-4.58,5.01s2,5.01,4.58,5.01Z"/>
          <path class="st4" d="M960.01,300.38c2.43,0,4.58-2.29,4.58-5.01s-2-5.01-4.58-5.01-4.58,2.29-4.58,5.01,2,5.01,4.58,5.01Z"/>
          <path class="st4" d="M967.31,300.38c2.43,0,4.58-2.29,4.58-5.01s-2-5.01-4.58-5.01c-2.43,0-4.58,2.29-4.58,5.01s2,5.01,4.58,5.01Z"/>
          <path class="st4" d="M974.61,299.95c2.29,0,4.01-2,4.01-4.44s-1.86-4.44-4.01-4.44c-2.29,0-4.01,2-4.01,4.44s1.86,4.44,4.01,4.44Z"/>
          <path class="st4" d="M982.06,299.23c1.86,0,3.44-1.72,3.44-3.72s-1.57-3.72-3.44-3.72-3.44,1.72-3.44,3.72,1.57,3.72,3.44,3.72Z"/>
          <path class="st4" d="M989.36,298.52c1.57,0,2.72-1.29,2.72-3.01s-1.29-3.01-2.72-3.01c-1.57,0-2.72,1.29-2.72,3.01s1.29,3.01,2.72,3.01Z"/>
          <path class="st4" d="M996.66,297.8c1.15,0,2.15-1,2.15-2.29s-1-2.29-2.15-2.29-2.15,1-2.15,2.29,1,2.29,2.15,2.29Z"/>
          <path class="st4" d="M1003.96,297.09c.86,0,1.43-.72,1.43-1.57s-.72-1.57-1.43-1.57c-.86,0-1.43.72-1.43,1.57s.72,1.57,1.43,1.57Z"/>
          <path class="st4" d="M1011.26,296.37c.43,0,.86-.43.86-1s-.43-1-.86-1-.86.43-.86,1,.43,1,.86,1Z"/>
          <path class="st4" d="M1018.56,295.65s.29,0,.29-.29,0-.29-.29-.29-.29,0-.29.29,0,.29.29.29Z"/>
          <path class="st4" d="M879.41,304.1c.29,0,.57-.29.57-.72s-.29-.72-.57-.72-.57.29-.57.72.29.72.57.72Z"/>
          <path class="st4" d="M886.71,304.82c.72,0,1.29-.57,1.29-1.29s-.57-1.43-1.29-1.43-1.29.57-1.29,1.43.57,1.29,1.29,1.29Z"/>
          <path class="st4" d="M894.01,305.53c1,0,1.86-.86,1.86-2s-.86-2-1.86-2-1.86.86-1.86,2,.86,2,1.86,2Z"/>
          <path class="st4" d="M901.46,306.25c1.43,0,2.43-1.29,2.43-2.72s-1.15-2.72-2.43-2.72-2.43,1.29-2.43,2.72c0,1.57,1.15,2.72,2.43,2.72Z"/>
          <path class="st4" d="M908.76,306.96c1.72,0,3.15-1.57,3.15-3.44s-1.43-3.44-3.15-3.44-3.15,1.57-3.15,3.44,1.43,3.44,3.15,3.44Z"/>
          <path class="st4" d="M916.06,307.68c2.15,0,3.72-1.86,3.72-4.15s-1.72-4.15-3.72-4.15-3.72,1.86-3.72,4.15,1.72,4.15,3.72,4.15Z"/>
          <path class="st4" d="M923.36,308.25c2.43,0,4.44-2.15,4.44-4.87s-2-4.87-4.44-4.87-4.44,2.15-4.44,4.87,2,4.87,4.44,4.87Z"/>
          <path class="st4" d="M930.66,308.4c2.43,0,4.58-2.29,4.58-5.01s-2-5.01-4.58-5.01c-2.43,0-4.58,2.29-4.58,5.01s2,5.01,4.58,5.01Z"/>
          <path class="st4" d="M937.96,308.4c2.43,0,4.58-2.29,4.58-5.01s-2-5.01-4.58-5.01c-2.43,0-4.58,2.29-4.58,5.01s2,5.01,4.58,5.01Z"/>
          <path class="st4" d="M945.41,308.4c2.43,0,4.58-2.29,4.58-5.01s-2-5.01-4.58-5.01c-2.43,0-4.58,2.29-4.58,5.01s2,5.01,4.58,5.01Z"/>
          <path class="st4" d="M952.71,308.4c2.43,0,4.58-2.29,4.58-5.01s-2-5.01-4.58-5.01c-2.43,0-4.58,2.29-4.58,5.01s2,5.01,4.58,5.01Z"/>
          <path class="st4" d="M960.01,308.4c2.43,0,4.58-2.29,4.58-5.01s-2-5.01-4.58-5.01-4.58,2.29-4.58,5.01,2,5.01,4.58,5.01Z"/>
          <path class="st4" d="M967.31,308.4c2.43,0,4.58-2.29,4.58-5.01s-2-5.01-4.58-5.01c-2.43,0-4.58,2.29-4.58,5.01s2,5.01,4.58,5.01Z"/>
          <path class="st4" d="M974.61,307.82c2.15,0,4.01-2,4.01-4.29,0-2.43-1.72-4.29-4.01-4.29s-4.01,2-4.01,4.29,1.72,4.29,4.01,4.29Z"/>
          <path class="st4" d="M982.06,307.11c1.86,0,3.29-1.57,3.29-3.72,0-2-1.43-3.72-3.29-3.72s-3.29,1.57-3.29,3.72c0,2,1.43,3.72,3.29,3.72Z"/>
          <path class="st4" d="M989.36,306.53c1.57,0,2.72-1.29,2.72-3.01s-1.15-3.01-2.72-3.01c-1.43,0-2.72,1.29-2.72,3.01s1.29,3.01,2.72,3.01Z"/>
          <path class="st4" d="M996.66,305.82c1.15,0,2.15-1,2.15-2.29s-1-2.29-2.15-2.29-2.15,1-2.15,2.29,1,2.29,2.15,2.29Z"/>
          <path class="st4" d="M1003.96,305.1c.86,0,1.43-.72,1.43-1.57s-.72-1.57-1.43-1.57-1.43.72-1.43,1.57.72,1.57,1.43,1.57Z"/>
          <path class="st4" d="M1011.26,304.39c.43,0,.86-.43.86-.86,0-.57-.43-.86-.86-.86s-.86.43-.86.86c0,.57.43.86.86.86Z"/>
          <path class="st4" d="M1018.56,303.67s.14,0,.14-.14,0-.14-.14-.14-.14,0-.14.14,0,.14.14.14Z"/>
          <path class="st4" d="M879.41,312.12c.29,0,.57-.29.57-.57s-.29-.57-.57-.57-.57.29-.57.57.29.57.57.57Z"/>
          <path class="st4" d="M886.71,312.83c.57,0,1.15-.57,1.15-1.29s-.57-1.29-1.15-1.29-1.15.57-1.15,1.29.57,1.29,1.15,1.29Z"/>
          <path class="st4" d="M894.01,313.41c1,0,1.72-.86,1.72-2s-.86-2-1.72-2c-1,0-1.72.86-1.72,2,0,1,.86,2,1.72,2Z"/>
          <path class="st4" d="M901.46,314.12c1.29,0,2.43-1.15,2.43-2.58s-1-2.58-2.43-2.58c-1.29,0-2.43,1.15-2.43,2.58s1,2.58,2.43,2.58Z"/>
          <path class="st4" d="M908.76,314.84c1.72,0,3.01-1.43,3.01-3.29s-1.29-3.29-3.01-3.29-3.01,1.43-3.01,3.29,1.29,3.29,3.01,3.29Z"/>
          <path class="st4" d="M916.06,315.41c2,0,3.58-1.72,3.58-3.87s-1.57-3.87-3.58-3.87-3.58,1.72-3.58,3.87,1.57,3.87,3.58,3.87Z"/>
          <path class="st4" d="M923.36,316.13c2.29,0,4.15-2,4.15-4.58s-1.86-4.58-4.15-4.58-4.15,2-4.15,4.58,1.86,4.58,4.15,4.58Z"/>
          <path class="st4" d="M930.66,316.56c2.43,0,4.58-2.29,4.58-5.01s-2-5.01-4.58-5.01c-2.43,0-4.58,2.29-4.58,5.01s2,5.01,4.58,5.01Z"/>
          <path class="st4" d="M937.96,316.56c2.43,0,4.58-2.29,4.58-5.01s-2-5.01-4.58-5.01-4.58,2.29-4.58,5.01,2,5.01,4.58,5.01Z"/>
          <path class="st4" d="M945.41,316.56c2.43,0,4.58-2.29,4.58-5.01s-2-5.01-4.58-5.01c-2.43,0-4.58,2.29-4.58,5.01s2,5.01,4.58,5.01Z"/>
          <path class="st4" d="M952.71,316.56c2.43,0,4.58-2.29,4.58-5.01s-2-5.01-4.58-5.01c-2.43,0-4.58,2.29-4.58,5.01s2,5.01,4.58,5.01Z"/>
          <path class="st4" d="M960.01,316.56c2.43,0,4.58-2.29,4.58-5.01s-2-5.01-4.58-5.01-4.58,2.29-4.58,5.01,2,5.01,4.58,5.01Z"/>
          <path class="st4" d="M967.31,316.27c2.43,0,4.29-2.15,4.29-4.72s-2-4.72-4.29-4.72c-2.43,0-4.29,2.15-4.29,4.72s2,4.72,4.29,4.72Z"/>
          <path class="st4" d="M974.61,315.7c2,0,3.72-1.86,3.72-4.15s-1.72-4.15-3.72-4.15-3.72,1.86-3.72,4.15,1.72,4.15,3.72,4.15Z"/>
          <path class="st4" d="M982.06,314.98c1.72,0,3.15-1.57,3.15-3.44s-1.43-3.44-3.15-3.44-3.15,1.57-3.15,3.44,1.43,3.44,3.15,3.44Z"/>
          <path class="st4" d="M989.36,314.41c1.43,0,2.58-1.29,2.58-2.86s-1.15-2.86-2.58-2.86-2.58,1.29-2.58,2.86,1.15,2.86,2.58,2.86Z"/>
          <path class="st4" d="M996.66,313.69c1.15,0,2-1,2-2.15s-.86-2.15-2-2.15-2,1-2,2.15.86,2.15,2,2.15Z"/>
          <path class="st4" d="M1003.96,312.98c.72,0,1.29-.72,1.29-1.43,0-.86-.57-1.43-1.29-1.43s-1.43.72-1.43,1.43c0,.86.57,1.43,1.43,1.43Z"/>
          <path class="st4" d="M1011.26,312.26c.43,0,.72-.43.72-.86s-.29-.86-.72-.86-.72.43-.72.86.29.86.72.86Z"/>
          <path class="st4" d="M1018.56,311.69h0Z"/>
          <path class="st4" d="M879.41,319.99c.14,0,.43-.14.43-.43s-.14-.43-.43-.43-.43.14-.43.43.14.43.43.43Z"/>
          <path class="st4" d="M886.71,320.56c.57,0,1-.43,1-1s-.43-1-1-1-1,.43-1,1,.43,1,1,1Z"/>
          <path class="st4" d="M894.01,321.28c.86,0,1.57-.72,1.57-1.72s-.72-1.72-1.57-1.72-1.57.72-1.57,1.72.72,1.72,1.57,1.72Z"/>
          <path class="st4" d="M901.46,321.85c1.15,0,2.15-1,2.15-2.29s-1-2.29-2.15-2.29-2.15,1-2.15,2.29,1,2.29,2.15,2.29Z"/>
          <path class="st4" d="M908.76,322.57c1.57,0,2.72-1.29,2.72-3.01s-1.29-3.01-2.72-3.01c-1.57,0-2.72,1.29-2.72,3.01s1.29,3.01,2.72,3.01Z"/>
          <path class="st4" d="M916.06,323.14c1.86,0,3.29-1.57,3.29-3.58s-1.43-3.58-3.29-3.58-3.29,1.57-3.29,3.58,1.43,3.58,3.29,3.58Z"/>
          <path class="st4" d="M923.36,323.71c2,0,3.72-1.86,3.72-4.15s-1.72-4.15-3.72-4.15c-2.15,0-3.72,1.86-3.72,4.15s1.72,4.15,3.72,4.15Z"/>
          <path class="st4" d="M930.66,324.14c2.29,0,4.15-2,4.15-4.58s-1.86-4.58-4.15-4.58-4.15,2-4.15,4.58,1.86,4.58,4.15,4.58Z"/>
          <path class="st4" d="M937.96,324.57c2.43,0,4.58-2.29,4.58-5.01s-2-5.01-4.58-5.01c-2.43,0-4.58,2.29-4.58,5.01s2,5.01,4.58,5.01Z"/>
          <path class="st4" d="M945.41,324.57c2.43,0,4.58-2.29,4.58-5.01s-2-5.01-4.58-5.01c-2.43,0-4.58,2.29-4.58,5.01s2,5.01,4.58,5.01Z"/>
          <path class="st4" d="M952.71,324.57c2.43,0,4.58-2.29,4.58-5.01s-2-5.01-4.58-5.01c-2.43,0-4.58,2.29-4.58,5.01s2,5.01,4.58,5.01Z"/>
          <path class="st4" d="M960.01,324.29c2.43,0,4.29-2.15,4.29-4.72s-2-4.72-4.29-4.72-4.29,2.15-4.29,4.72,2,4.72,4.29,4.72Z"/>
          <path class="st4" d="M967.31,323.86c2.15,0,3.87-1.86,3.87-4.29s-1.72-4.29-3.87-4.29-3.87,1.86-3.87,4.29,1.72,4.29,3.87,4.29Z"/>
          <path class="st4" d="M974.61,323.28c1.86,0,3.44-1.72,3.44-3.72,0-2.15-1.57-3.72-3.44-3.72s-3.44,1.72-3.44,3.72c0,2.15,1.57,3.72,3.44,3.72Z"/>
          <path class="st4" d="M982.06,322.71c1.57,0,2.86-1.43,2.86-3.15s-1.29-3.15-2.86-3.15-2.86,1.43-2.86,3.15,1.29,3.15,2.86,3.15Z"/>
          <path class="st4" d="M989.36,322.14c1.29,0,2.29-1.15,2.29-2.58s-1-2.58-2.29-2.58-2.29,1.15-2.29,2.58,1,2.58,2.29,2.58Z"/>
          <path class="st4" d="M996.66,321.42c1,0,1.72-.86,1.72-2,0-1-.86-2-1.72-2s-1.72.86-1.72,2c0,1,.86,2,1.72,2Z"/>
          <path class="st4" d="M1003.96,320.85c.72,0,1.15-.57,1.15-1.29s-.57-1.29-1.15-1.29-1.15.57-1.15,1.29.57,1.29,1.15,1.29Z"/>
          <path class="st4" d="M1011.26,320.13c.29,0,.57-.29.57-.57s-.29-.57-.57-.57-.57.29-.57.57.29.57.57.57Z"/>
          <path class="st4" d="M879.41,327.72v-.29s-.14,0-.14.14,0,.14.14.14Z"/>
          <path class="st4" d="M886.71,328.44c.43,0,.72-.29.72-.86,0-.43-.29-.86-.72-.86s-.72.43-.72.86.29.86.72.86Z"/>
          <path class="st4" d="M894.01,329.01c.72,0,1.29-.57,1.29-1.43,0-.72-.57-1.43-1.29-1.43s-1.29.57-1.29,1.43.57,1.43,1.29,1.43Z"/>
          <path class="st4" d="M901.46,329.58c1,0,1.86-.86,1.86-2s-.86-2-1.86-2-1.86.86-1.86,2,.86,2,1.86,2Z"/>
          <path class="st4" d="M908.76,330.16c1.29,0,2.43-1.15,2.43-2.58s-1-2.58-2.43-2.58c-1.29,0-2.43,1.15-2.43,2.58s1,2.58,2.43,2.58Z"/>
          <path class="st4" d="M916.06,330.73c1.57,0,2.86-1.43,2.86-3.15s-1.29-3.15-2.86-3.15-2.86,1.43-2.86,3.15,1.29,3.15,2.86,3.15Z"/>
          <path class="st4" d="M923.36,331.16c1.86,0,3.29-1.57,3.29-3.58s-1.43-3.58-3.29-3.58-3.29,1.57-3.29,3.58,1.43,3.58,3.29,3.58Z"/>
          <path class="st4" d="M930.66,331.59c2,0,3.72-1.86,3.72-4.01,0-2.29-1.72-4.01-3.72-4.01s-3.72,1.86-3.72,4.01c0,2.29,1.72,4.01,3.72,4.01Z"/>
          <path class="st4" d="M937.96,331.87c2.15,0,3.87-1.86,3.87-4.29s-1.72-4.29-3.87-4.29-3.87,1.86-3.87,4.29,1.72,4.29,3.87,4.29Z"/>
          <path class="st4" d="M945.41,332.02c2.29,0,4.01-2,4.01-4.44s-1.86-4.44-4.01-4.44c-2.29,0-4.01,2-4.01,4.44s1.86,4.44,4.01,4.44Z"/>
          <path class="st4" d="M952.71,332.02c2.15,0,4.01-2,4.01-4.44s-1.72-4.29-4.01-4.29c-2.15,0-4.01,2-4.01,4.29s1.72,4.44,4.01,4.44Z"/>
          <path class="st4" d="M960.01,331.73c2.15,0,3.72-1.86,3.72-4.15s-1.72-4.15-3.72-4.15c-2.15,0-3.72,1.86-3.72,4.15s1.72,4.15,3.72,4.15Z"/>
          <path class="st4" d="M967.31,331.3c1.86,0,3.44-1.72,3.44-3.72,0-2.15-1.57-3.72-3.44-3.72s-3.44,1.72-3.44,3.72c0,2.15,1.57,3.72,3.44,3.72Z"/>
          <path class="st4" d="M974.61,330.87c1.72,0,3.01-1.43,3.01-3.29s-1.29-3.29-3.01-3.29-3.01,1.43-3.01,3.29,1.29,3.29,3.01,3.29Z"/>
          <path class="st4" d="M982.06,330.3c1.43,0,2.58-1.29,2.58-2.72s-1.15-2.72-2.58-2.72-2.58,1.29-2.58,2.72c0,1.57,1.15,2.72,2.58,2.72Z"/>
          <path class="st4" d="M989.36,329.87c1.15,0,2-1,2-2.29s-.86-2.29-2-2.29-2,1-2,2.29.86,2.29,2,2.29Z"/>
          <path class="st4" d="M996.66,329.15c.86,0,1.43-.72,1.43-1.57s-.72-1.57-1.43-1.57-1.43.72-1.43,1.57.72,1.57,1.43,1.57Z"/>
          <path class="st4" d="M1003.96,328.58c.57,0,1-.43,1-1s-.43-1-1-1-1,.43-1,1,.43,1,1,1Z"/>
          <path class="st4" d="M1011.26,328.01c.14,0,.29-.14.29-.43s-.14-.43-.29-.43-.29.14-.29.43.14.43.29.43Z"/>
          <path class="st4" d="M886.71,336.17c.29,0,.43-.29.43-.43s-.14-.43-.43-.43-.43.29-.43.43.14.43.43.43Z"/>
          <path class="st4" d="M894.01,336.74c.57,0,1-.43,1-1s-.43-1-1-1-1,.43-1,1,.43,1,1,1Z"/>
          <path class="st4" d="M901.46,337.17c.86,0,1.43-.72,1.43-1.57s-.72-1.57-1.43-1.57-1.43.72-1.43,1.57.72,1.57,1.43,1.57Z"/>
          <path class="st4" d="M908.76,337.74c1.15,0,2-1,2-2.15s-.86-2.15-2-2.15-2,1-2,2.15.86,2.15,2,2.15Z"/>
          <path class="st4" d="M916.06,338.17c1.29,0,2.43-1.15,2.43-2.58s-1-2.58-2.43-2.58c-1.29,0-2.43,1.15-2.43,2.58s1.15,2.58,2.43,2.58Z"/>
          <path class="st4" d="M923.36,338.6c1.57,0,2.72-1.43,2.72-3.01,0-1.72-1.29-3.01-2.72-3.01-1.57,0-2.72,1.43-2.72,3.01s1.29,3.01,2.72,3.01Z"/>
          <path class="st4" d="M930.66,339.03c1.72,0,3.15-1.57,3.15-3.44s-1.43-3.44-3.15-3.44-3.15,1.57-3.15,3.44,1.43,3.44,3.15,3.44Z"/>
          <path class="st4" d="M937.96,339.17c1.86,0,3.29-1.57,3.29-3.58s-1.43-3.58-3.29-3.58-3.29,1.57-3.29,3.58,1.43,3.58,3.29,3.58Z"/>
          <path class="st4" d="M945.41,339.32c1.86,0,3.44-1.72,3.44-3.72s-1.57-3.72-3.44-3.72-3.44,1.72-3.44,3.72,1.57,3.72,3.44,3.72Z"/>
          <path class="st4" d="M952.71,339.32c1.86,0,3.29-1.72,3.29-3.72s-1.43-3.72-3.29-3.72-3.29,1.57-3.29,3.72c0,2,1.43,3.72,3.29,3.72Z"/>
          <path class="st4" d="M960.01,339.03c1.72,0,3.15-1.57,3.15-3.44s-1.43-3.44-3.15-3.44-3.15,1.57-3.15,3.44,1.43,3.44,3.15,3.44Z"/>
          <path class="st4" d="M967.31,338.75c1.57,0,2.86-1.43,2.86-3.15s-1.29-3.15-2.86-3.15-2.86,1.43-2.86,3.15,1.29,3.15,2.86,3.15Z"/>
          <path class="st4" d="M974.61,338.46c1.43,0,2.58-1.29,2.58-2.72,0-1.57-1.15-2.72-2.58-2.72s-2.58,1.29-2.58,2.72,1.15,2.72,2.58,2.72Z"/>
          <path class="st4" d="M982.06,337.89c1.15,0,2.15-1,2.15-2.29s-1-2.29-2.15-2.29-2.15,1-2.15,2.29,1,2.29,2.15,2.29Z"/>
          <path class="st4" d="M989.36,337.46c.86,0,1.72-.86,1.72-1.86s-.72-1.86-1.72-1.86-1.57.86-1.57,1.86.72,1.86,1.57,1.86Z"/>
          <path class="st4" d="M996.66,336.88c.57,0,1.15-.57,1.15-1.29s-.57-1.29-1.15-1.29-1.15.57-1.15,1.29.57,1.29,1.15,1.29Z"/>
          <path class="st4" d="M1003.96,336.31c.29,0,.57-.29.57-.72s-.29-.72-.57-.72-.57.29-.57.72.29.72.57.72Z"/>
          <path class="st4" d="M1011.26,335.74h0Z"/>
          <path class="st4" d="M886.71,343.76h0Z"/>
          <path class="st4" d="M894.01,344.33c.29,0,.57-.29.57-.72s-.29-.57-.57-.57-.57.29-.57.57.29.72.57.72Z"/>
          <path class="st4" d="M901.46,344.76c.57,0,1.15-.57,1.15-1.15s-.43-1.15-1.15-1.15-1.15.57-1.15,1.15.43,1.15,1.15,1.15Z"/>
          <path class="st4" d="M908.76,345.33c.86,0,1.57-.72,1.57-1.72s-.72-1.57-1.57-1.57-1.57.72-1.57,1.57.72,1.72,1.57,1.72Z"/>
          <path class="st4" d="M916.06,345.76c1,0,1.86-1,1.86-2.15s-.86-2.15-1.86-2.15-1.86,1-1.86,2.15.86,2.15,1.86,2.15Z"/>
          <path class="st4" d="M923.36,346.05c1.29,0,2.29-1.15,2.29-2.43s-1-2.43-2.29-2.43-2.29,1.15-2.29,2.43,1,2.43,2.29,2.43Z"/>
          <path class="st4" d="M930.66,346.33c1.43,0,2.43-1.29,2.43-2.72s-1.15-2.72-2.43-2.72c-1.43,0-2.43,1.29-2.43,2.72s1.15,2.72,2.43,2.72Z"/>
          <path class="st4" d="M937.96,346.62c1.43,0,2.72-1.29,2.72-3.01,0-1.57-1.15-3.01-2.72-3.01s-2.72,1.29-2.72,3.01,1.15,3.01,2.72,3.01Z"/>
          <path class="st4" d="M945.41,346.62c1.57,0,2.72-1.29,2.72-3.01s-1.29-3.01-2.72-3.01-2.72,1.29-2.72,3.01,1.29,3.01,2.72,3.01Z"/>
          <path class="st4" d="M952.71,346.62c1.43,0,2.72-1.29,2.72-3.01s-1.29-3.01-2.72-3.01-2.72,1.29-2.72,3.01,1.29,3.01,2.72,3.01Z"/>
          <path class="st4" d="M960.01,346.48c1.43,0,2.58-1.29,2.58-2.86s-1.15-2.86-2.58-2.86-2.58,1.29-2.58,2.86,1.15,2.86,2.58,2.86Z"/>
          <path class="st4" d="M967.31,346.19c1.29,0,2.29-1.15,2.29-2.58s-1-2.58-2.29-2.58-2.29,1.15-2.29,2.58,1,2.58,2.29,2.58Z"/>
          <path class="st4" d="M974.61,345.9c1.15,0,2-1,2-2.29s-.86-2.29-2-2.29-2,1-2,2.29.86,2.29,2,2.29Z"/>
          <path class="st4" d="M982.06,345.47c.86,0,1.72-.86,1.72-1.86s-.72-1.86-1.72-1.86-1.57.86-1.57,1.86.72,1.86,1.57,1.86Z"/>
          <path class="st4" d="M989.36,344.9c.72,0,1.29-.57,1.29-1.29s-.57-1.29-1.29-1.29-1.15.57-1.15,1.29.57,1.29,1.15,1.29Z"/>
          <path class="st4" d="M996.66,344.47c.43,0,.72-.43.72-.86s-.29-.86-.72-.86-.72.43-.72.86.29.86.72.86Z"/>
          <path class="st4" d="M1003.96,343.9s.29,0,.29-.29,0-.29-.29-.29-.29,0-.29.29,0,.29.29.29Z"/>
          <path class="st4" d="M894.01,351.77s.14,0,.14-.14,0-.14-.14-.14-.14,0-.14.14,0,.14.14.14Z"/>
          <path class="st4" d="M901.46,352.35c.29,0,.57-.29.57-.72s-.29-.72-.57-.72-.57.29-.57.72.29.72.57.72Z"/>
          <path class="st4" d="M908.76,352.77c.57,0,1-.57,1-1.15s-.43-1.15-1-1.15-1,.57-1,1.15.43,1.15,1,1.15Z"/>
          <path class="st4" d="M916.06,353.2c.72,0,1.43-.72,1.43-1.57s-.57-1.57-1.43-1.57-1.43.72-1.43,1.57.57,1.57,1.43,1.57Z"/>
          <path class="st4" d="M923.36,353.49c.86,0,1.72-.86,1.72-1.86s-.72-1.86-1.72-1.86c-.86,0-1.72.86-1.72,1.86s.72,1.86,1.72,1.86Z"/>
          <path class="st4" d="M930.66,353.78c1,0,1.86-1,1.86-2.15s-.86-2.15-1.86-2.15-1.86,1-1.86,2.15.86,2.15,1.86,2.15Z"/>
          <path class="st4" d="M937.96,353.92c1.15,0,2-1,2-2.29s-.86-2.29-2-2.29-2,1-2,2.29.86,2.29,2,2.29Z"/>
          <path class="st4" d="M945.41,353.92c1.15,0,2.15-1,2.15-2.29s-1-2.29-2.15-2.29-2.15,1-2.15,2.29,1,2.29,2.15,2.29Z"/>
          <path class="st4" d="M952.71,353.92c1.15,0,2.15-1,2.15-2.29s-1-2.29-2.15-2.29-2.15,1-2.15,2.29,1,2.29,2.15,2.29Z"/>
          <path class="st4" d="M960.01,353.78c1.15,0,2-1,2-2.15s-.86-2.15-2-2.15-2,1-2,2.15.86,2.15,2,2.15Z"/>
          <path class="st4" d="M967.31,353.63c1,0,1.72-.86,1.72-2s-.86-2-1.72-2-1.72.86-1.72,2,.86,2,1.72,2Z"/>
          <path class="st4" d="M974.61,353.35c.86,0,1.43-.72,1.43-1.57s-.72-1.57-1.43-1.57-1.43.72-1.43,1.57.72,1.57,1.43,1.57Z"/>
          <path class="st4" d="M982.06,352.92c.57,0,1.15-.57,1.15-1.29s-.57-1.29-1.15-1.29-1.15.57-1.15,1.29.57,1.29,1.15,1.29Z"/>
          <path class="st4" d="M989.36,352.49c.43,0,.72-.43.72-.86s-.29-.86-.72-.86-.72.43-.72.86.29.86.72.86Z"/>
          <path class="st4" d="M996.66,352.06c.14,0,.29-.14.29-.29s-.14-.29-.29-.29-.29.14-.29.29.14.29.29.29Z"/>
          <path class="st4" d="M901.46,359.79h0Z"/>
          <path class="st4" d="M908.76,360.22c.29,0,.57-.29.57-.57s-.29-.57-.57-.57-.57.29-.57.57.29.57.57.57Z"/>
          <path class="st4" d="M916.06,360.65c.43,0,.86-.43.86-.86,0-.57-.43-.86-.86-.86s-.86.43-.86.86c0,.57.43.86.86.86Z"/>
          <path class="st4" d="M923.36,360.93c.57,0,1.15-.57,1.15-1.15,0-.72-.43-1.15-1.15-1.15-.57,0-1.15.57-1.15,1.15s.43,1.15,1.15,1.15Z"/>
          <path class="st4" d="M930.66,361.08c.72,0,1.29-.57,1.29-1.43s-.57-1.43-1.29-1.43-1.29.57-1.29,1.43.57,1.43,1.29,1.43Z"/>
          <path class="st4" d="M937.96,361.22c.86,0,1.43-.72,1.43-1.57s-.72-1.57-1.43-1.57-1.43.72-1.43,1.57.57,1.57,1.43,1.57Z"/>
          <path class="st4" d="M945.41,361.36c.86,0,1.43-.72,1.43-1.57s-.72-1.57-1.43-1.57-1.43.72-1.43,1.57.72,1.57,1.43,1.57Z"/>
          <path class="st4" d="M952.71,361.36c.86,0,1.43-.72,1.43-1.57s-.72-1.57-1.43-1.57c-.86,0-1.43.72-1.43,1.57s.72,1.57,1.43,1.57Z"/>
          <path class="st4" d="M960.01,361.22c.72,0,1.43-.72,1.43-1.43,0-.86-.57-1.43-1.43-1.43s-1.43.72-1.43,1.43.57,1.43,1.43,1.43Z"/>
          <path class="st4" d="M967.31,360.93c.72,0,1.15-.57,1.15-1.29s-.57-1.29-1.15-1.29c-.72,0-1.15.57-1.15,1.29s.57,1.29,1.15,1.29Z"/>
          <path class="st4" d="M974.61,360.65c.57,0,1-.43,1-1s-.43-1-1-1-1,.43-1,1,.43,1,1,1Z"/>
          <path class="st4" d="M982.06,360.36c.29,0,.57-.29.57-.72s-.29-.72-.57-.72-.57.29-.57.72.29.72.57.72Z"/>
          <path class="st4" d="M989.36,359.93s.29,0,.29-.29,0-.29-.29-.29-.29,0-.29.29,0,.29.29.29Z"/>
          <path class="st4" d="M916.06,367.95s.29,0,.29-.29,0-.29-.29-.29-.29,0-.29.29,0,.29.29.29Z"/>
          <path class="st4" d="M923.36,368.24c.29,0,.57-.29.57-.57s-.29-.57-.57-.57-.57.29-.57.57.29.57.57.57Z"/>
          <path class="st4" d="M930.66,368.52c.43,0,.72-.29.72-.72s-.29-.72-.72-.72-.72.29-.72.72.29.72.72.72Z"/>
          <path class="st4" d="M937.96,368.67c.43,0,.86-.43.86-.86s-.43-.86-.86-.86-.86.43-.86.86.43.86.86.86Z"/>
          <path class="st4" d="M945.41,368.67c.43,0,.86-.43.86-1s-.43-1-.86-1-.86.43-.86,1,.43,1,.86,1Z"/>
          <path class="st4" d="M952.71,368.67c.43,0,.86-.43.86-.86s-.43-.86-.86-.86-.86.43-.86.86c0,.57.43.86.86.86Z"/>
          <path class="st4" d="M960.01,368.52c.43,0,.72-.43.72-.86s-.29-.86-.72-.86-.72.43-.72.86.29.86.72.86Z"/>
          <path class="st4" d="M967.31,368.38c.29,0,.57-.29.57-.57s-.29-.57-.57-.57-.57.29-.57.57.29.57.57.57Z"/>
          <path class="st4" d="M974.61,368.09c.14,0,.29-.14.29-.43,0-.14-.14-.43-.29-.43s-.29.14-.29.43c0,.14.14.43.29.43Z"/>
          <path class="st4" d="M982.06,367.81h0Z"/>
          <path class="st4" d="M930.66,375.82h0Z"/>
          <path class="st4" d="M937.96,375.97s.14,0,.14-.14,0-.14-.14-.14-.14,0-.14.14,0,.14.14.14Z"/>
          <path class="st4" d="M945.41,375.97s.29,0,.29-.29,0-.29-.29-.29-.29,0-.29.29,0,.29.29.29Z"/>
          <path class="st4" d="M952.71,375.97s.14,0,.14-.14,0-.14-.14-.14-.14,0-.14.14c0,0,0,.14.14.14Z"/>
          <path class="st4" d="M960.01,375.82h0Z"/>
        </g>
        <g>
          <path class="st3" d="M1126.79,291.22h0c0-6.87,0-15.6-8.45-15.6h-11.88c1.15-1.29,2.43-2.72,3.72-4.29l3.44-3.72c7.44-8.16,11.02-13.6,11.74-18.47l.29-10.59v-3.01c0-4.87-2.29-7.3-3.87-8.3-1.57-1.15-3.58-2-6.16-2.15h-10.45c-19.04.43-31.21.57-36.22.57h-7.59c-.43,0-1-.14-1.72-.14h-2.43l-.57-.57h-33.07l-1.15,1.29-6.73-.86c-.72,0-1.86,0-3.58-.14h-2.86c0-.14-.14-.14-.14-.14h-5.73c-4.01,0-7.3,0-10.31.29v-.29c-.14-.57-.43-1.15-.57-1.72,0-.29-.14-.43-.29-.72v-.29c-.29-.57-.43-1-.72-1.43-.57-1.29-1.29-2.29-1.72-3.15,0-.14-.14-.29-.29-.43-.14-.29-.43-.57-.57-.72,0,0,0-.14-.29-.29,0,0-.14-.29-.29-.29l-.14-.14h0c-.43-.57-1-1.15-1.43-1.72-4.29-4.44-9.88-7.59-16.32-9.31-6.3-1.72-13.17-1.86-20.61-.72-10.88,1.86-20.33,5.87-28.49,12.17-2,1.57-3.87,3.15-5.58,5.01-.72.72-1.29,1.43-2,2.15-.29.43-.57.72-1,1.15-1,1.15-1.86,2.29-2.72,3.44-.57.86-1.15,1.57-1.57,2.43-.29.43-.57.86-.72,1.29-.29.43-.43.86-.72,1.29s-.43.86-.72,1.29h0c0-.14-.29-.29-.43-.43h0s0-.29-.14-.43h0s-.14-.29-.29-.43c-.14-.29-.43-.72-.72-1s-.57-.72-.72-1.15c0,0-.29-.29-.29-.43-1.29-1.72-2.72-3.29-3.15-3.87-2.58-3.15-6.01-5.44-9.88-7.01-6.59-2.58-13.74-3.29-21.47-2-.57,0-1.15.14-1.72.29-.43,0-.86.14-1.43.29-.43,0-1,.29-1.43.43-.29,0-.57.14-.86.29-1,.29-2,.57-3.01,1-.43,0-.72.29-1.15.43-.14,0-.43,0-.57.29-.43.14-.86.29-1.15.43-.86.43-1.72.86-2.58,1.29-.29.14-.72.29-1,.57-.72.43-1.29.72-2,1.15-.29.14-.72.43-1,.57-.72.43-1.29.86-2,1.29-.29.14-.57.29-.72.57-.43.29-.72.57-1,.86-.43.29-.86.72-1.29,1.15-.43.29-.86.72-1.15,1h0c0-.14-.29-.43-.43-.57-1-1.29-3.44-3.58-7.73-3.58h-17.47l-24.19.29h-1.43c-5.15,0-13.74,0-13.74,8.16l-.29,62.13c0,4.58-.57,12.6,4.01,13.6,1.72.43,3.58.14,5.3.14h25.63c3.58-.43,7.59-3.44,7.59-9.02v-16.03c2.72,0,5.3-.29,7.87-.29,0,.57.14,1,.29,1.57v.72c0,.43.14.86.29,1.29h0c.29,1.15.57,2.43,1,3.58.14.57.43,1.15.57,1.72.14.57.43,1.15.57,1.72h0c.29.57.43,1.15.72,1.72s.43,1,.72,1.57c.43.86,1,1.72,1.43,2.58,0,.14.29.43.43.57.14.29.43.57.57.86.29.29.43.57.72,1v.14c.14.29.43.57.72.86.29.29.57.57.86,1,0,.14.29.29.43.43s.29.43.57.57c.29.29.57.57.86.86h0c.29.29.57.57.86.72.29.29.57.43.86.72.43.29.86.57,1.15.86,6.01,4.29,13.89,6.3,23.48,5.87,5.58-.29,11.31-1.72,17.04-4.29,6.44-2.72,11.6-6.73,15.46-11.74l2.43-3.58c1-1.43,2.72-4.58,2.72-4.58,0,0,.43.86.72,1.29,1.72,2.43,3.58,4.58,5.44,6.73,2,2.29,4.01,4.29,6.44,6.16,7.59,5.58,16.61,7.44,25.91,7.01,3.29-.14,8.3-.72,15.03-1.86,6.16-1,11.45-1.57,15.75-1.72,5.73-.29,13.74,1.86,19.33-1.29.57-.29,1.15-.86,1.72-1.43.43-.43.86-1,1.15-1.57,0-.14.29-.43.43-.57,7.01,4.72,15.89,7.01,26.63,7.01s21.19-2.72,27.92-8.16h0c0,.14,1.29,2.15,1.29,2.15,1.29,1.86,2.86,3.15,4.58,4.01,1.43.57,3.01.86,4.87.86l53.54-.43h1.15c2.58,0,4.58-.57,6.3-1.72,1.43-1,3.87-3.44,3.87-8.3v-7.73l-.29-.29Z"/>
          <g>
            <path class="st7" d="M836.89,229.52s-40.23,0-47.96.14c-1.72,0-1.29,2.72-1.29,2.72l-.29,59.27v5.01c0,2,.86,1,.86,1.15l25.48-.29c.57,0,.86-.57.86-1.43v-5.73l-.29-17.75c6.44-.14,12.45-.43,17.75-.72h3.01c.86,0,1.43-.14,1.86-.43.43-.29.57-1,.57-2v-15.03c-.86-.57-3.01-.29-6.59-.29s-9.02,0-16.61.43v-8.16h10.31c6.01,0,10.88-.14,14.32-.43,0-3.15.14-6.87.14-10.88v-3.58c0-.72,0-1.15-.43-1.43-.29-.43-.86-.57-1.72-.57Z"/>
            <path class="st7" d="M1009.4,229.66c-7.59,0-13.46,0-17.75.29h-1c-.29.72-.43,2.15-.43,5.3s0,4.72.29,4.72c0,10.59,0,22.05-.29,34.5.29,3.72,1.15,6.87,2.58,9.88,1.43,2.86,3.29,5.3,5.3,7.16,6.01,5.3,14.32,7.87,25.2,7.87s18.9-2.43,24.48-7.44c2-1.86,3.72-4.15,4.87-7.16,1.29-3.01,1.86-6.3,1.86-10.16v-22.91c0-8.88,0-15.32.43-20.9,0,0,0-1-1.29-.86h-25.91c-.29,0-.57.29-.57.57-.14,6.59,0,13.31.14,19.9v13.17c0,4.72.72,11.02-1.72,15.32-.72,1.43-2.29,1.86-3.72,1.86-3.44,0-5.15-3.01-5.15-8.88,0,0,0-35.65-.14-41.52,0-.43-.29-.72-.72-.72h-6.59.14Z"/>
            <path class="st7" d="M1119.34,292.65s0-8.59-.43-12.03c0-.72-.72-1.29-1.43-1.29l-27.2.29,5.15-6.16c2.43-2.86,5.44-6.59,9.31-11.17l3.44-3.72c6.01-6.59,9.31-11.45,9.73-14.32v-9.45h0v-3.01c0-1.15-.14-1.86-.57-2.15s-1.29-.57-2.29-.57c0,0-40.94.57-45.95.57h-8.73c-.43,0-.43.29-.43.29,0,3.72.14,14.75.43,16.46,0,.14,0,.43.29.43h.29c3.15,0,26.05-.29,26.05-.29-5.15,6.16-12.31,14.89-21.47,26.48l-6.73,7.87c-.14.29,0,2.15,0,2.43v10.88c0,1.43-.29,2.72,1.29,3.44.43.14,1,.29,1.86.29l53.54-.43h1.15c1,0,1.57,0,2-.43s.57-.86.57-1.86v-2.58h.14Z"/>
          </g>
          <path class="st3" d="M964.02,246.69l-.43,6.87v1c-.43,4.87-1.29,9.31-2.58,13.17-.57,1.57-1.72,3.15-3.58,4.87-1.86,1.72-4.15,2.72-7.01,3.01h-2.58l-.86.29h0c-3.72.29-6.44-.29-8.45-2-2-1.57-3.58-4.44-4.58-8.45-.43-1.72-.72-5.01-.57-9.73,1.43.29,3.15.29,5.3,0h1.72l1.15-.14c2.29-.29,4.15-.72,5.58-1.57s2.29-1.57,2.72-2.15c1-1.57,1.72-3.44,1.86-5.44v-.43l.29-2.86c0-2.58-.57-4.29-1.86-5.3-1.29-1-3.01-1.57-5.3-1.72-1.29,0-3.01,0-5.15.29-.72,0-1.43.29-2.15.43,1.15-2.29,2.58-4.15,4.15-5.44,2.29-1.86,4.72-3.01,7.44-3.29,2.72-.43,4.87-.29,6.59,0,2.86.57,5.01,2.29,6.59,5.01,1.57,2.72,2.29,7.3,2.15,13.6h-.43Z"/>
          <path class="st3" d="M877.26,246.12c-1.29-2.29-3.01-3.72-5.15-4.29-1.29-.29-3.01-.43-5.01,0-2,.29-3.87,1.15-5.58,2.72-1.15,1.15-2.15,2.58-3.01,4.44.43,0,.86-.14,1.29-.29,1.57-.14,2.86-.29,3.87-.14,1.72,0,3.01.57,4.01,1.43s1.43,2.43,1.43,4.44v2.29c-.14,0-.14.29-.14.29,0,1.72-.57,3.15-1.29,4.58-.29.57-1,1.15-2,1.86-1,.57-2.43,1-4.15,1.29h-2c-1.43.14-2.58.14-3.72,0,0,3.87.14,6.59.57,8.02.86,3.29,2,5.73,3.58,7.01s3.72,1.86,6.59,1.72h2.58c2.15-.14,4.01-1,5.3-2.43,1.43-1.43,2.29-2.86,2.58-4.15,1-3.15,1.57-6.87,1.86-11.02v-.86l.29-5.73c0-5.3-.57-9.02-1.86-11.31v.14ZM877.26,246.12c-1.29-2.29-3.01-3.72-5.15-4.29-1.29-.29-3.01-.43-5.01,0-2,.29-3.87,1.15-5.58,2.72-1.15,1.15-2.15,2.58-3.01,4.44.43,0,.86-.14,1.29-.29,1.57-.14,2.86-.29,3.87-.14,1.72,0,3.01.57,4.01,1.43s1.43,2.43,1.43,4.44v2.29c-.14,0-.14.29-.14.29,0,1.72-.57,3.15-1.29,4.58-.29.57-1,1.15-2,1.86-1,.57-2.43,1-4.15,1.29h-2c-1.43.14-2.58.14-3.72,0,0,3.87.14,6.59.57,8.02.86,3.29,2,5.73,3.58,7.01s3.72,1.86,6.59,1.72h2.58c2.15-.14,4.01-1,5.3-2.43,1.43-1.43,2.29-2.86,2.58-4.15,1-3.15,1.57-6.87,1.86-11.02v-.86l.29-5.73c0-5.3-.57-9.02-1.86-11.31v.14ZM994.8,266.02c6.44-37.36-6.3-50.25-6.3-50.25-.43-.57-1-1.15-1.43-1.72-4.29-4.44-9.88-7.59-16.32-9.31-6.3-1.72-13.17-2-20.61-.72-10.88,1.86-20.33,5.87-28.49,12.17-6.59,5.01-11.6,11.31-15.32,18.47.57-1.15-4.72-7.16-5.58-8.3-2.58-3.15-6.01-5.44-9.88-7.01-6.59-2.58-13.74-3.29-21.47-2-11.88,2-23.05,8.73-30.35,18.32-7.3,9.59-9.59,22.19-10.02,34.07-.43,14.03,2.58,30.49,14.6,39.08,6.01,4.29,13.89,6.3,23.48,5.87,5.58-.29,11.31-1.72,17.04-4.29,6.44-2.72,11.6-6.73,15.46-11.74l2.43-3.58c1-1.43,2.72-4.58,2.72-4.58,0,0,.43.86.72,1.29,1.72,2.43,3.58,4.58,5.44,6.73,2,2.29,4.01,4.29,6.44,6.16,7.59,5.58,16.61,7.44,25.91,7.01,3.29-.14,8.3-.72,15.03-1.86,6.16-1,11.45-1.57,15.75-1.72,5.73-.29,13.74,1.86,19.33-1.29,8.88-5.15,13.46-41.09,1.43-41.09v.29ZM896.02,285.63l-2.15,3.29c-2.86,3.87-6.87,6.87-12.03,9.16-5.01,2.29-10.02,3.58-14.75,3.87-8.16.57-14.6-1-19.61-4.58-8.3-5.73-12.45-16.32-12.45-31.92h0v-1c.43-4.01.86-7.59,1.43-10.74s1.43-6.16,2.58-9.02c2.86-6.44,7.01-11.6,12.31-15.6,5.44-4.01,11.31-6.59,17.75-7.59,6.59-1,12.6-.43,18.04,1.72,3.29,1.29,5.87,3.29,7.73,5.87,3.58,4.58,5.87,9.02,7.01,13.03,1.15,4.15,1.57,9.02,1.43,14.6-.29,12.45-2.72,22.05-7.44,28.77l.14.14ZM991.08,273.47v.57c0,.29,0,.72-.14,1.43v8.45c-.14,0-.29,1.43-.29,1.43v2.72l-.29,2v2.58c-.29.57-.72,1-1.43,1.43-4.72-.29-9.59-.29-14.32,0s-10.31,1-16.75,2.15c-6.44,1.15-11.02,1.72-14.03,2-22.91,1.43-36.65-17.61-36.22-40.08,0-6.01,1-11.45,2.58-16.46,2.86-9.31,8.02-16.89,15.6-22.62,6.87-5.3,14.89-8.73,24.19-10.16,6.16-1,11.88-.86,17.04.57,5.15,1.43,9.45,3.87,12.88,7.44,7.16,7.3,10.45,17.32,9.88,29.92-.14,4.01-1,8.16-2.72,12.74-1.57,4.44-3.72,8.45-6.3,12.17l3.15-.29h0l3.72-.43c2.58,0,3.87.57,3.72,2.15v.57l-.29-.29ZM872.25,241.83c-1.29-.29-3.01-.43-5.01,0-2,.29-3.87,1.15-5.58,2.72-1.15,1.15-2.15,2.58-3.01,4.44.43,0,.86-.14,1.29-.29,1.57-.14,2.86-.29,3.87-.14,1.72,0,3.01.57,4.01,1.43s1.43,2.43,1.43,4.44v2.29c-.14,0-.14.29-.14.29,0,1.72-.57,3.15-1.29,4.58-.29.57-1,1.15-2,1.86-1,.57-2.43,1-4.15,1.29h-2c-1.43.14-2.58.14-3.72,0,0,3.87.14,6.59.57,8.02.86,3.29,2,5.73,3.58,7.01s3.72,1.86,6.59,1.72h2.58c2.15-.14,4.01-1,5.3-2.43,1.43-1.43,2.29-2.86,2.58-4.15,1-3.15,1.57-6.87,1.86-11.02v-.86l.29-5.73c0-5.3-.57-9.02-1.86-11.31-1.29-2.29-3.01-3.72-5.15-4.29v.14Z"/>
          <g>
            <path class="st7" d="M879.13,257.43l-.29,5.73v.86c-.14,4.15-.86,7.73-1.86,11.02-.43,1.29-1.29,2.72-2.58,4.15-1.29,1.43-3.15,2.29-5.3,2.43h-2l-.57.14h0c-2.86.29-5.01-.29-6.59-1.72-1.57-1.29-2.72-3.72-3.58-7.01-.43-1.43-.57-4.15-.57-8.02,1,.14,2.29.14,3.72,0h2c1.72-.14,3.15-.57,4.15-1.29s1.72-1.29,2-1.86c.72-1.29,1.15-2.86,1.29-4.58v-2.72c.14-2.15-.29-3.58-1.29-4.44s-2.29-1.29-4.01-1.43c-1,0-2.29,0-3.87.14-.43,0-.86,0-1.29.29.86-1.86,1.86-3.29,3.01-4.44,1.72-1.57,3.58-2.43,5.58-2.72,2-.29,3.72-.29,5.01,0,2.15.57,3.87,2,5.15,4.29,1.29,2.29,1.86,6.16,1.86,11.31v-.14Z"/>
            <path class="st7" d="M964.02,246.69l-.43,6.87v1c-.43,4.87-1.29,9.31-2.58,13.17-.57,1.57-1.72,3.15-3.58,4.87-1.86,1.72-4.15,2.72-7.01,3.01h-2.58l-.86.29h0c-3.72.29-6.44-.29-8.45-2-2-1.57-3.58-4.44-4.58-8.45-.43-1.72-.72-5.01-.57-9.73,1.43.29,3.15.29,5.3,0h1.72l1.15-.14c2.29-.29,4.15-.72,5.58-1.57s2.29-1.57,2.72-2.15c1-1.57,1.72-3.44,1.86-5.44v-.43l.29-2.86c0-2.58-.57-4.29-1.86-5.3-1.29-1-3.01-1.57-5.3-1.72-1.29,0-3.01,0-5.15.29-.72,0-1.43.29-2.15.43,1.15-2.29,2.58-4.15,4.15-5.44,2.29-1.86,4.72-3.01,7.44-3.29,2.72-.43,4.87-.29,6.59,0,2.86.57,5.01,2.29,6.59,5.01,1.57,2.72,2.29,7.3,2.15,13.6h-.43Z"/>
            <path class="st7" d="M987.35,270.75l-3.72.43h0l-3.15.29c2.58-3.72,4.72-7.73,6.3-12.17,1.57-4.44,2.43-8.73,2.72-12.74.43-12.6-2.86-22.62-9.88-29.92-3.44-3.44-7.73-5.87-12.88-7.44-5.15-1.43-10.88-1.57-17.04-.57-9.31,1.43-17.32,4.87-24.19,10.16-7.59,5.73-12.74,13.31-15.6,22.62-1.57,5.01-2.43,10.59-2.58,16.46-.43,22.48,13.31,41.52,36.22,40.08,3.01-.14,7.73-.86,14.03-2,6.44-1.15,12.03-1.86,16.75-2.15,2.86-.14,5.87-.29,8.73-.14,1.43,0,3.01,0,4.44.14.86,0,1.86,0,2.29-.86,2.43-4.01,6.87-23.48-2.72-22.33l.29.14ZM964.02,246.69l-.43,6.87v1c-.43,4.87-1.29,9.31-2.58,13.17-.57,1.57-1.72,3.15-3.58,4.87-1.86,1.72-4.15,2.72-7.01,3.01h-2.58l-.86.29h0c-3.72.29-6.44-.29-8.45-2-2-1.57-3.58-4.44-4.58-8.45-.43-1.72-.72-5.01-.57-9.73,1.43.29,3.15.29,5.3,0h1.72l1.15-.14c2.29-.29,4.15-.72,5.58-1.57s2.29-1.57,2.72-2.15c1-1.57,1.72-3.44,1.86-5.44v-.43l.29-2.86c0-2.58-.57-4.29-1.86-5.3-1.29-1-3.01-1.57-5.3-1.72-1.29,0-3.01,0-5.15.29-.72,0-1.43.29-2.15.43,1.15-2.29,2.58-4.15,4.15-5.44,2.29-1.86,4.72-3.01,7.44-3.29,2.72-.43,4.87-.29,6.59,0,2.86.57,5.01,2.29,6.59,5.01,1.57,2.72,2.29,7.3,2.15,13.6h-.43Z"/>
            <path class="st7" d="M901.89,242.26c-2-7.73-7.16-15.89-14.75-18.9-5.44-2.15-11.45-2.72-18.04-1.72-6.44,1-12.31,3.58-17.75,7.59-5.3,4.01-9.45,9.16-12.31,15.6-1.15,2.86-2.15,5.87-2.58,9.02-.57,3.15-1,6.73-1.29,10.74v1c0,15.6,4.15,26.05,12.45,31.92,5.01,3.44,11.45,5.01,19.61,4.58,4.72-.43,9.73-1.72,14.75-3.87,5.15-2.29,9.16-5.44,12.03-9.16l2.15-3.29c4.72-6.73,7.16-16.46,7.44-28.77,0-5.58-.43-10.45-1.43-14.6l-.29-.14ZM878.84,263.16v.86c-.14,4.15-.86,7.73-1.86,11.02-.43,1.29-1.29,2.72-2.58,4.15-1.29,1.43-3.15,2.29-5.3,2.43h-2l-.57.14h0c-2.86.29-5.01-.29-6.59-1.72-1.57-1.29-2.72-3.72-3.58-7.01-.43-1.43-.57-4.15-.57-8.02,1,.14,2.29.14,3.72,0h2c1.72-.14,3.15-.57,4.15-1.29s1.72-1.29,2-1.86c.72-1.29,1.15-2.86,1.29-4.58v-2.72c.14-2.15-.29-3.58-1.29-4.44s-2.29-1.29-4.01-1.43c-1,0-2.29,0-3.87.14-.43,0-.86,0-1.29.29.86-1.86,1.86-3.29,3.01-4.44,1.72-1.57,3.58-2.43,5.58-2.72,2-.29,3.72-.29,5.01,0,2.15.57,3.87,2,5.15,4.29,1.29,2.29,1.86,6.16,1.86,11.31l-.29,5.73v-.14Z"/>
          </g>
          <path class="st3" d="M879.27,257.43c-.14,5.87-.57,11.88-2.15,17.47-.43,1.29-1.29,2.72-2.58,4.15-3.15,3.29-11.17,3.87-14.6,1-1.57-1.29-2.72-3.72-3.58-7.01-.43-1.43-.57-4.15-.57-8.02,0,.43,3.15,0,3.44,0,2.29-.29,4.72-.43,6.73-1.57,2.15-1.29,2.86-3.87,3.15-6.16.14-2.15.43-5.58-1.43-7.16-1-.86-2.29-1.29-4.01-1.43-1,0-2.29,0-3.87.14-.43,0-.86,0-1.29.29.86-1.86,1.86-3.29,3.01-4.44,1.72-1.57,3.58-2.43,5.58-2.72,2-.29,3.72-.29,5.01,0,2.15.57,3.87,2,5.15,4.29,1.72,3.29,2,7.01,2,10.59v.72-.14Z"/>
          <rect class="st5" x="990.79" y="225.08" width="124.98" height="2.72"/>
          <path class="st3" d="M964.3,246.69c-.43,7.01-1.15,14.32-3.29,21.04-1.43,4.29-5.58,7.16-10.02,7.73-4.01.57-9.16,1.15-12.45-1.57-2-1.57-3.58-4.44-4.58-8.45-.43-1.72-.72-5.01-.57-9.73,0,.57,9.02-.43,10.02-.57s2.43-.57,3.44-1.29c1.43-.86,2.29-1.57,2.72-2.15,1.43-2.29,1.86-5.01,2-7.73,0-2.15.14-4.72-1.72-6.3-1.29-1-3.01-1.57-5.3-1.72-1.29,0-3.01,0-5.15.29-.72,0-1.43.29-2.15.43,1.15-2.29,2.58-4.15,4.15-5.44,2.29-1.86,4.72-3.01,7.44-3.29,2.72-.43,4.87-.29,6.59,0,2.86.57,5.01,2.29,6.59,5.01,2.43,4.15,2.58,8.88,2.29,13.6v.14Z"/>
          <g>
            <path class="st9" d="M868.96,333.02c14.03,22.19,17.61,6.44,40.37,6.73,16.32.14,42.66-.29,38.37-16.46-4.29-16.32-27.63-30.64-53.25-24.62-21.9,5.15-32.35,23.62-25.48,34.36Z"/>
            <path class="st4" d="M895.16,344.9c-9.16,5.73-21.33,0-26.63-8.45-3.72-6.59-4.01-14.32-1.43-21.04.43-1.43,4.01-7.73,5.73-5.73.29.43.29,1-.14,1.43-1.57,1.29-2.58,3.15-3.29,5.15-3.44,10.45,1,22.33,11.88,25.63,3.87,1.29,8.16,1.15,11.02-1,2.72-2,5.73,2.15,2.86,4.01h0Z"/>
            <path class="st4" d="M894.3,339.32c-1.72-2.58-4.29-4.72-7.01-5.73-2.72-.86-5.58-.43-7.16,1.43-1.43,1.86-1.29,5.3.72,7.44,1.57,1.72,3.87,2.58,6.01,2.43s4.01-.72,5.87-1.57c.86-.43,1.86-.86,2.29-1.72.43-.86-.29-2.43-1.43-2.72"/>
            <g>
              <path class="st9" d="M935.96,301.38c13.46,2.72,26.2,7.01,26.77,21.33.43,11.6-16.18,23.62-28.35,19.18"/>
              <path class="st4" d="M936.68,297.66c10.31,1.29,22.19,4.44,27.63,14.46,6.01,11.6.57,23.33-10.16,29.06-6.01,3.29-13.89,4.72-20.04,1.43-.29-.14-.43-.72-.29-1s.43-.43.72-.43c6.01,1,11.88-1.43,16.32-4.87,4.01-3.15,7.87-8.02,7.73-13.03-.14-5.01-2.72-9.45-7.16-12.17-4.44-2.86-10.45-4.44-16.32-6.16-4.29-1.29-3.01-7.73,1.43-7.3h.14Z"/>
            </g>
            <path class="st4" d="M920.07,338.46c.72-3.58,3.01-7.16,6.59-9.31,3.72-2.15,9.16-2.72,13.6-.86,4.44,1.86,7.16,6.59,5.3,10.16-1.43,2.86-5.15,4.58-8.88,5.01-3.72.43-7.44,0-11.02-.43-1.72-.29-3.58-.43-4.87-1.57s-1.43-3.01,0-3.58"/>
            <g>
              <path class="st9" d="M942.83,310.69c-9.45-4.72-21.62-23.19-40.94-19.9-15.32,2.72-23.76,15.89-20.33,27.77"/>
              <path class="st4" d="M942.4,311.4c-9.45-5.01-16.46-13.74-26.63-17.32-9.31-3.58-20.76-1.15-27.63,6.01-4.58,4.72-6.87,11.6-5.3,18.18.14.72-.29,1.43-1,1.57s-1.29-.29-1.57-.86c-2.58-7.44-.29-15.89,5.01-21.62,7.87-8.59,21.19-11.31,31.92-6.87,7.01,2.72,12.6,7.73,17.89,12.74,2.58,2.43,5.3,4.87,8.16,6.59,1,.57.14,2.15-.86,1.57h0Z"/>
            </g>
            <g>
              <path class="st9" d="M889.86,334.88c.86,3.15,5.3,16.03,21.62,10.74,5.73-1.86,9.31-7.59,10.45-9.88"/>
              <path class="st4" d="M890.72,334.59c3.01,8.88,10.31,12.6,19.18,9.73,4.87-1.29,8.3-5.01,11.17-9.16.57-1,2.15-.14,1.72.86-2.86,7.44-9.59,12.17-17.47,12.31-8.16.72-14.89-5.58-16.32-13.31-.29-1.15,1.43-1.57,1.72-.43h0Z"/>
            </g>
          </g>
          <path class="st3" d="M882.42,302.81c0,7.16-9.16,12.88-20.61,12.88s-23.91-8.45-28.63-20.04l18.47,7.73,18.61,2.72,12.03-3.44.14.14Z"/>
        </g>
        <path class="st4" d="M890.72,353.49c-1.29,21.04-26.2,34.79-44.67,24.62,4.72,1,9.45,1.15,14.17.57,14.17-1.72,25.63-11.88,30.64-25.05h0l-.14-.14Z"/>
        <path class="st4" d="M936.25,341.61c1.86,7.44,3.15,15.46,7.3,22.05,4.01,6.3,10.74,10.16,18.18,11.45,7.3,1.57,14.75-.43,21.62-3.29,7.01-3.01,13.74-7.3,21.04-10.59,7.44-3.44,15.6-5.44,23.76-5.73,24.34-1.57,49.1,12.88,59.12,35.22l-1,.43c-15.32-27.77-51.39-39.23-79.88-25.48-10.45,4.87-21.04,12.45-33.07,14.32-12.31,2.29-26.63-3.29-32.5-14.75-3.72-7.44-4.15-15.6-4.58-23.62h0Z"/>
        <path class="st4" d="M1103.6,317.56c10.02,1.72,20.47-1.72,26.48-10.16,2-2.72,3.44-5.73,4.58-9.16,1.86,16.03-17.47,28.06-31.07,19.33h0Z"/>
        <path class="st4" d="M1104.17,324.72c15.32,1.57,33.07-3.15,38.65-19.33.86,18.75-24.05,27.63-38.65,19.33h0Z"/>
        <path class="st4" d="M924.36,347.19c1.29,11.02-2,30.21,6.01,38.65-3.58-1-5.58-4.58-7.01-7.73-3.87-9.88-2.29-21.04,1-30.78h0v-.14Z"/>
        <path class="st4" d="M970.75,372.39c21.76-9.45,43.52-34.36,69.15-22.33,1.43.86,2.86,1.72,4.15,2.86-12.03-6.3-25.77-3.01-37.22,2.86-11.74,5.73-22.91,14.17-36.08,16.61h0Z"/>
        <path class="st4" d="M819.86,327.15c15.32,4.15,21.62,26.2,39.51,23.48-3.58,2.29-8.3,2.29-12.31.86-12.31-4.15-17.04-17.18-27.06-24.34h-.14Z"/>
        <path class="st4" d="M724.66,361.22c12.17-31.92,51.25-42.09,81.31-31.92,7.3,2.43,14.46,5.87,20.19,11.17,2.86,2.58,5.58,5.3,8.3,8.02,15.6,17.04,34.21,15.89,46.24-4.15l5.15,2.86c-15.89,18.47-35.22,20.19-51.82,1.72-2.72-2.72-5.3-5.58-8.16-8.16-17.61-14.89-44.24-15.89-65.14-8.02-13.6,5.15-25.2,16.75-28.2,31.07l-8.16-2.43h0l.29-.14Z"/>
        <path class="st4" d="M769.32,396.01c-1.86-10.59-2-23.62,6.44-31.78,7.73-7.73,19.9-10.31,30.06-6.44-14.75-3.58-31.92,6.44-31.49,22.19,0,4.72,1,9.59,2.43,14.46l-7.3,1.57h-.14Z"/>
        <path class="st4" d="M1091,400.3s2-5.73,2.29-6.44c12.45-28.92,53.25-34.79,76.3-14.03-17.18-18.04-47.67-20.61-68-6.01-5.87,4.15-10.88,9.45-14.46,15.89-20.19-9.88-41.09-6.16-59.84,6.3l.29.43c4.87-2.43,9.88-4.58,14.89-6.01,13.89-4.29,28.92-2.29,41.09,5.3,1.15.72,7.3,4.44,7.3,4.44l.14.14Z"/>
        <g>
          <polygon class="st6" points="736.11 277.9 744.27 287.92 749.14 280.34 762.31 309.11 747.71 297.09 745.85 303.39 726.81 291.36 736.11 277.9"/>
          <path d="M736.11,277.76c3.01,2.58,6.59,5.87,9.31,9.16h-2.43c1.57-2.58,3.29-5.01,5.15-7.44l1.43-1.86.72,2c1.57,4.44,3.87,10.59,6.01,14.6,3.01,6.3,6.73,12.74,9.88,19.18-6.59-4.87-13.17-10.02-19.47-15.17l2.72-.86c-.72,2.86-1.57,5.73-2.43,8.59-7.3-4.72-14.6-9.59-21.76-14.6,3.44-4.72,7.44-9.31,11.02-13.74h0l-.14.14ZM736.11,278.19c-2.86,4.72-5.44,9.31-8.16,13.89l-.29-1.72c6.44,3.72,12.88,7.73,19.33,11.6l-2.58,1c.86-2.86,1.72-6.01,2.58-8.88,5.44,4.72,11.02,9.16,16.32,13.89l-2,1.57c-3.58-9.73-7.73-19.76-13.03-28.77l2.15.14c-1.43,2.72-3.01,5.3-4.72,7.73l-1.15,1.72c-2.86-3.29-5.87-8.45-8.16-12.31h0l-.29.14Z"/>
        </g>
        <g>
          <polygon class="st6" points="1164.15 233.81 1154.42 247.27 1146.12 238.82 1136.67 278.91 1152.41 260.01 1156.28 267.45 1177.47 247.12 1164.15 233.81"/>
          <path d="M1164.15,233.95c-3.15,6.01-5.58,11.02-9.31,16.32-3.44-3.29-6.73-6.73-9.73-10.45l2.58-.72c-1,3.29-2.15,6.59-3.01,9.88-3.01,9.88-4.44,20.19-6.3,30.35l-3.01-1.43c2.43-3.29,5.01-6.44,7.59-9.73,1.57-2,8.3-10.45,9.73-12.31.86,1.72,2.72,5.15,3.58,6.87.72,1.29,1.29,2.58,2,3.72l-3.58-.57c7.16-6.73,14.32-13.31,21.76-19.9v2.29c-4.01-4.44-8.3-9.73-12.31-14.32h0ZM1164.15,233.52c4.87,4.15,11.02,9.16,15.75,13.6-7.16,7.44-14.46,14.75-21.9,22.05l-2.15,2.15c-1.72-3.15-3.72-7.01-5.44-10.31l3.72.43c-6.59,7.73-14.46,16.89-21.19,24.34,2.43-8.88,5.58-18.04,7.87-27.06,2-7.59,3.01-15.32,4.29-23.05,3.72,3.29,7.44,6.73,10.74,10.31l-2.86.29c3.15-4.44,7.44-9.02,11.17-12.6h0v-.14Z"/>
        </g>
        <path class="st4" d="M601.26,374.53c-27.63-39.23-75.01-60.41-121.97-63.85-15.46-1.29-31.07-.86-46.38,1.43l-1.86-17.89c57.41-3.29,118.82,15.32,156.9,59.98,5.3,6.16,10.16,12.74,14.17,19.9l-.72.43h-.14Z"/>
        <path class="st4" d="M1461.35,264.02c-64.71-29.92-147.02-33.5-198.7,22.62-16.75,17.75-28.92,39.23-38.22,61.7l-1.43-.57c6.01-17.47,14.03-34.36,24.34-49.82,24.91-37.79,64.28-61.7,109.37-66.28,34.64-3.72,69.86,1.86,102.64,13.31,3.15,1.15,6.01,2.15,9.16,3.58l-7.3,15.46h.14Z"/>
        <path class="st4" d="M594.1,403.02c20.61-23.33,48.82-29.2,73.01-7.44l-.14.14c-5.44-3.87-11.31-6.87-17.47-8.59-18.32-5.3-36.08,4.87-46.81,19.33-.43.57-1,1.29-1.29,1.72l-7.3-5.3h0v.14Z"/>
        <path class="st4" d="M584.08,354.64l5.3,2.86,1.72.86s0-.14.14-.29c3.15-6.16,6.87-12.17,11.31-17.75,1.57-1.86,3.15-3.72,4.87-5.58,13.03-13.89,30.64-23.76,49.82-24.77,18.32-.57,36.93,6.59,50.96,18.04,8.73,7.44,15.32,16.89,21.76,26.34l1.29-.86c-3.72-6.73-7.59-13.6-12.17-19.9-9.31-13.03-23.05-22.48-37.79-28.2-38.65-15.6-79.88,6.3-101.93,38.94-.72,1.15-1.57,2.29-2.29,3.44l7.3,6.44-.29.43Z"/>
        <path class="st4" d="M599.97,410.04c-11.45-11.45-27.06-18.61-43.38-18.9h-.57c0-.14,0,.43,0-.43,0-.72,0-.14,0-.43h.72c13.6-1,27.49,2.43,39.23,9.73,2.72,1.72,5.44,3.72,7.87,5.58l-3.58,4.44h-.29Z"/>
        <path class="st4" d="M731.96,365.95c-15.46-6.59-32.93-7.3-48.67-1.29,0,0-.57.14-.72.29h0c0-.14.14.29-.14-.29-.29-.72,0-.14-.14-.29h0c.14,0,.43-.29.57-.29,11.6-5.73,24.91-8.02,37.79-6.3,4.44.57,8.88,1.72,13.03,2.86l-1.72,5.58h0v-.29Z"/>
        <path class="st4" d="M1142.68,403.74h.29l.57-.29c22.19-8.59,47.24-7.44,69,1.72,0,0,2.58-8.02,2.86-9.02,5.44-18.9,15.89-36.51,31.07-49.1,17.18-14.17,39.8-19.61,61.84-18.18v-1.15c-22.62-3.87-47.39-.43-66.85,12.74-18.9,12.74-33.07,32.07-40.94,53.4-19.47-3.29-40.08-.43-57.84,8.45-.29,0-.72.29-.86.43h0c0,.29-.29-.43.14.43.43,1,0,.29.29.43l.43.14Z"/>
        <path class="st4" d="M984.63,404.03c5.01-1.86,9.59-5.15,13.31-10.16.29-.43,3.87-5.87,3.72-5.87h-.14c-1.43,1.57-3.01,3.01-4.58,4.58-3.01,3.01-6.44,5.73-10.31,7.16-9.88,3.87-22.19,2.58-32.07-.86-8.88-3.01-18.61-9.88-22.48-20.47,4.29,11.31,12.6,19.04,22.05,23.33,10.02,4.44,21.04,5.87,30.49,2.29h0Z"/>
      </g>
      <g>
        <polygon class="st1" points="799.96 153.36 823.29 178.55 811.56 178.55 816.14 194.3 798.1 171.97 807.26 171.68 799.96 153.36"/>
        <g>
          <polygon class="st6" points="800.82 152.78 824.15 177.98 812.41 177.98 817 193.73 798.96 171.39 808.12 170.96 800.82 152.78"/>
          <path d="M800.68,152.64c7.87,8.16,16.89,16.03,24.34,24.62.72.72,0,2-.86,1.86-2,0-3.87-.14-5.87-.29l-5.87-.29.57-.86c.57,2.72,1.29,5.3,2,8.02.72,2.58,1.72,5.3,2.58,7.87.29.86-.86,1.43-1.29.72-6.44-7.16-12.6-14.46-18.61-21.9-.72-.86,0-2.29,1.15-2.29h9.02l-1,1.57c-2.29-6.16-4.01-12.88-6.3-18.9h0l.14-.14ZM800.82,152.78c2.58,6.3,5.73,11.74,8.3,17.75.29.72-.14,1.57-.86,1.57-3.01.29-6.16.57-9.16.72l1-2.29c6.01,7.44,11.88,15.03,17.47,22.76l-1.29.72c-1.15-5.3-2.58-10.74-4.44-15.89-.14-.43.14-.86.57-.86,3.44,0,8.3-.43,11.6-.43l-.86,2c-7.87-8.02-14.89-17.47-22.48-25.91h0l.14-.14Z"/>
        </g>
      </g>
    </g>
    <ellipse class="st10" cx="263.98" cy="439.24" rx="259.98" ry="212.16"/>
    <ellipse class="st10" cx="1559.99" cy="442.25" rx="229.63" ry="212.16"/>
    <path class="st4" d="M182.95,233.38c104.22-31.78,225.47,1.57,297.2,83.6-19.04-18.47-40.8-33.93-64.13-45.95-68.72-35.36-152.75-41.95-224.76-13.6l-8.3-24.05h0Z"/>
    <ellipse class="st10" cx="6" cy="362.22" rx="259.97" ry="212.16"/>
    <ellipse class="st10" cx="-134.72" cy="495.93" rx="259.97" ry="212.16"/>
    <ellipse class="st10" cx="2180.86" cy="262.01" rx="259.97" ry="212.16"/>
    <ellipse class="st10" cx="2251.87" cy="384.41" rx="259.97" ry="212.16"/>
    <path class="st4" d="M-153.47,173.54c106.8-48.82,248.38-48.1,341.43,29.06,35.36,29.78,62.42,69.29,76.88,112.52-19.61-48.1-54.11-88.9-97.78-116.24-91.76-55.69-214.45-47.1-306.79,2l-13.89-27.49h0l.14.14Z"/>
    <path class="st4" d="M1412.25,345.04c31.49-35.65,74.59-44.67,111.66-11.31l-.29.29c-8.3-5.87-17.32-10.45-26.77-13.03-27.92-8.02-55.12,7.44-71.58,29.49-.72.86-1.43,2-1.86,2.72l-11.31-8.16h.14Z"/>
    <path class="st4" d="M1421.27,355.64c-17.47-17.61-41.37-28.49-66.28-28.92h-1c0-.29,0,.57,0-.57s0-.29,0-.57h1c20.9-1.57,42.09,3.72,59.84,14.89,4.15,2.58,8.16,5.73,12.03,8.59l-5.58,6.73h0v-.14Z"/>
    <path class="st4" d="M225.61,338.03c-45.52-51.68-107.94-64.71-161.48-16.32l.29.43c11.88-8.45,25.05-15.17,38.65-18.9,40.37-11.6,79.6,10.74,103.36,42.66,1,1.29,2,2.86,2.72,3.87l16.32-11.74h.14Z"/>
    <path class="st4" d="M212.44,353.49c25.34-25.48,59.84-41.23,95.92-41.66h1.57c0-.43,0,.86,0-.86,0-1.57,0-.43,0-.86h-1.72c-30.21-2.29-60.99,5.3-86.61,21.47-6.01,3.72-11.88,8.16-17.47,12.31l8.02,9.73h0l.29-.14Z"/>
    <ellipse class="st10" cx="-303.22" cy="302.96" rx="254.53" ry="212.16"/>
    <path class="st4" d="M-521.82,157.36c109.23-101.5,295.19-102.21,404.28-.43,15.17,14.03,28.63,29.92,39.51,47.53-11.74-17.04-25.77-32.07-41.37-45.38-78.16-65.85-191.55-83.03-286.46-48.1-37.22,13.46-72.29,34.36-99.92,62.7l-16.18-16.32h.14Z"/>
    <path class="st4" d="M1936.2,160.08c86.18-104.79,240.94-141.44,362.76-85.18-120.83-44.38-265.13.14-337.71,104.65l-25.2-19.61h0l.14.14Z"/>
    <path class="st4" d="M1684.39,283.63c-77.45-67-202.43-63.42-277.3,7.73,73.01-78.31,203.28-88.47,289.18-22.76l-11.88,15.03h0Z"/>
    <ellipse class="st10" cx="1904.14" cy="372.96" rx="259.97" ry="212.16"/>
    <path class="st4" d="M1662.06,266.74c29.63-37.51,69.43-67.28,114.1-84.18,72.72-29.06,156.04-31.49,229.34-3.58-59.12-19.04-123.4-19.47-181.95-1.86-58.98,17.32-111.09,50.53-146.31,101.21l-15.17-11.6h0Z"/>
  </g>
</svg>