<?xml version="1.0" encoding="UTF-8"?>
<svg xmlns="http://www.w3.org/2000/svg" viewBox="0 0 403.76 227.3">
  <defs>
    <style>
      .cls-1 {
        fill: #010101;
      }

      .cls-2 {
        fill: #ffd517;
      }

      .cls-3 {
        fill: #1d1e1c;
      }

      .cls-4 {
        fill: #1d1d1b;
      }

      .cls-5 {
        fill: #1d1d1b;
      }

      .cls-6 {
        fill: #f197ad;
      }

      .cls-7 {
        fill: #1c1f24;
      }

      .cls-8 {
        fill: #ffd618;
      }

      .cls-9 {
        fill: #fff;
      }

      .cls-10 {
        fill: #f9d3cc;
      }

      .cls-11 {
        fill: #211f1f;
      }
    </style>
  </defs>
  <g id="Ebene_9" data-name="Ebene 9">
    <path class="cls-2" d="M282.89,94.41c-36.25,15.5-43.44,26.53-20.9,51.34-43.66-9.93-57.6-6.08-62.23,27.01-24.97-36.12-37.84-42.71-73.7-32.97,18.18-28.59,13.38-40.86-18.76-67.85,34.77,1.26,41.96-9.78,38.03-53.09,25.06,28.43,38.99,24.59,66.62-10.46,1.97,38.07,14.83,44.66,53.16,33.39-20.65,30.13-15.85,42.39,17.77,52.64"/>
    <path class="cls-1" d="M282.97,94.6c-1.36.64-2.73,1.27-4.08,1.93-1.35.65-2.7,1.32-4.04,1.99-1.35.66-2.68,1.37-4.01,2.06-1.31.73-2.64,1.44-3.93,2.2-.65.37-1.3.75-1.93,1.16-.64.4-1.28.78-1.9,1.2-1.26.82-2.48,1.69-3.67,2.6-1.18.92-2.32,1.88-3.38,2.92-.53.53-1.06,1.04-1.53,1.61-.24.28-.49.55-.72.84l-.66.88c-.84,1.19-1.59,2.46-2.05,3.82-.28.66-.4,1.37-.58,2.06-.09.71-.21,1.41-.19,2.13-.05.71.07,1.43.12,2.14.16.71.23,1.42.46,2.11l.3,1.05.39,1.03c.23.69.58,1.35.88,2.02.31.67.69,1.31,1.04,1.96.37.64.77,1.27,1.16,1.9l1.26,1.85c.43.6.89,1.2,1.33,1.8.92,1.18,1.85,2.35,2.84,3.48.96,1.15,1.99,2.24,2.99,3.36l3.19,3.53-4.57-.98c-3.27-.7-6.55-1.4-9.83-2-1.64-.32-3.29-.59-4.93-.87-1.65-.25-3.29-.53-4.94-.73-1.65-.23-3.3-.4-4.94-.56l-2.47-.2-2.46-.13c-1.64-.05-3.28-.05-4.9.02-.82.02-1.62.12-2.43.18-.8.08-1.6.21-2.39.32-1.57.31-3.14.64-4.61,1.21-1.5.5-2.89,1.24-4.21,2.07-1.32.85-2.48,1.91-3.58,3.04l-.77.92-.38.46-.35.5-.69.99-.62,1.05c-.44.68-.76,1.46-1.15,2.19-.34.76-.67,1.53-.98,2.3-.59,1.58-1.12,3.19-1.55,4.84-.44,1.65-.83,3.33-1.17,5.03-.34,1.69-.62,3.41-.89,5.13l-.66,4.2-2.34-3.39c-1.07-1.55-2.13-3.11-3.22-4.64l-3.27-4.59c-1.11-1.51-2.22-3.02-3.37-4.5-.57-.75-1.15-1.48-1.73-2.2-.59-.73-1.17-1.46-1.77-2.16-2.39-2.85-4.9-5.58-7.61-8.05-.68-.61-1.35-1.24-2.07-1.8l-1.06-.87-1.09-.82c-1.45-1.1-2.98-2.06-4.54-2.96-1.58-.86-3.2-1.65-4.89-2.26l-1.27-.46-1.29-.38c-.85-.28-1.74-.44-2.61-.65-.88-.18-1.77-.33-2.66-.46-.89-.08-1.79-.24-2.69-.27-.9-.05-1.8-.12-2.71-.11l-1.36-.02-1.36.05c-.91.02-1.82.1-2.72.18-.91.06-1.82.18-2.72.29-1.81.22-3.62.51-5.43.84-.9.16-1.8.34-2.7.53-.9.19-1.8.37-2.69.59-1.79.41-3.58.88-5.36,1.35l-1.54.4.87-1.39c.9-1.44,1.8-2.87,2.66-4.34.44-.72.85-1.47,1.26-2.2.42-.74.82-1.48,1.2-2.24.4-.75.78-1.5,1.13-2.28l.54-1.15.49-1.17c.35-.77.65-1.57.93-2.36.31-.79.55-1.6.8-2.4.27-.8.43-1.63.66-2.44.16-.82.34-1.65.46-2.48.1-.84.22-1.67.24-2.51.07-.84.04-1.68.01-2.51-.11-1.67-.33-3.33-.77-4.93-.39-1.62-1.02-3.16-1.68-4.68-.72-1.49-1.5-2.95-2.42-4.34l-.67-1.04-.73-1.01c-.48-.67-.98-1.33-1.51-1.97-.51-.66-1.04-1.29-1.58-1.91-.53-.64-1.08-1.26-1.65-1.86-1.11-1.23-2.28-2.4-3.44-3.57-4.72-4.65-9.76-8.95-14.88-13.15l-2.6-2.14,3.36.03c1.62.02,3.24.05,4.85.02,1.62,0,3.23-.09,4.83-.18,1.6-.1,3.2-.26,4.79-.47,1.58-.22,3.15-.5,4.69-.87.76-.21,1.54-.37,2.28-.64l1.12-.37c.36-.13.72-.29,1.09-.44,1.45-.57,2.81-1.33,4.09-2.19,1.27-.87,2.4-1.92,3.42-3.08.25-.29.47-.61.71-.92l.35-.46.31-.49.62-.99.54-1.05.27-.53.23-.55.46-1.11c.25-.77.53-1.51.75-2.3.43-1.57.79-3.17,1.02-4.81.13-.82.25-1.63.32-2.46.09-.83.18-1.66.22-2.49.13-1.66.17-3.35.2-5.03.09-6.74-.4-13.53-1.03-20.3l-.52-5.63,3.73,4.09c1.18,1.29,2.35,2.6,3.56,3.84.6.63,1.2,1.26,1.82,1.86.62.6,1.22,1.23,1.86,1.8,1.26,1.18,2.55,2.31,3.86,3.39.67.52,1.33,1.06,2.01,1.55.69.47,1.36.99,2.07,1.43.71.42,1.4.91,2.13,1.27l1.09.58c.36.19.74.34,1.11.51,1.48.69,3.01,1.14,4.54,1.48,1.55.29,3.1.41,4.66.3,1.55-.15,3.1-.4,4.61-.95,1.52-.48,2.99-1.2,4.44-1.97,1.44-.83,2.85-1.73,4.21-2.75,1.37-1.01,2.69-2.1,3.98-3.24,1.29-1.14,2.55-2.36,3.79-3.58l1.83-1.88,1.79-1.93c1.19-1.3,2.36-2.63,3.51-3.97,1.16-1.34,2.31-2.7,3.43-4.07,1.14-1.36,2.24-2.77,3.37-4.15l3.3-4.05.33,5.28c.11,1.69.18,3.39.33,5.07.13,1.69.32,3.36.52,5.03l.35,2.49.44,2.46c.16.81.35,1.62.52,2.43.18.8.42,1.58.62,2.38.22.79.49,1.55.73,2.33.29.75.57,1.51.88,2.24.35.71.63,1.47,1.03,2.13l.57,1.03c.2.33.42.64.63.97.4.67.92,1.22,1.38,1.83.24.29.52.55.78.82.26.27.52.55.82.78l.85.73.92.64.46.32.49.27.98.54c.7.27,1.36.64,2.09.85l1.08.36,1.11.27c1.49.37,3.04.54,4.59.67l2.35.08,2.38-.05,2.39-.17,2.39-.26c1.59-.22,3.19-.45,4.78-.75,1.6-.27,3.19-.64,4.77-.98,1.58-.36,3.17-.74,4.75-1.16,1.58-.39,3.16-.86,4.74-1.28l3.85-1.01-2.3,3.36c-.86,1.25-1.75,2.49-2.57,3.76-.85,1.26-1.66,2.55-2.46,3.83-.78,1.3-1.56,2.6-2.27,3.93-.37.66-.73,1.33-1.06,2.01-.34.67-.69,1.35-.98,2.04-.63,1.37-1.2,2.77-1.68,4.18-.24.71-.48,1.42-.65,2.14-.09.36-.2.72-.28,1.08l-.21,1.09c-.17.73-.19,1.46-.29,2.19-.03.36-.02.73-.04,1.09s-.03.73,0,1.09c.03,1.46.36,2.88.78,4.25.47,1.36,1.16,2.63,1.97,3.83.85,1.17,1.79,2.28,2.88,3.25.27.24.53.5.81.73l.86.68c.56.47,1.17.87,1.77,1.3,1.21.83,2.47,1.59,3.76,2.29.64.37,1.3.69,1.95,1.02.65.34,1.32.66,1.99.96,1.33.63,2.7,1.19,4.06,1.75,1.37.54,2.74,1.09,4.14,1.58,1.38.53,2.79.98,4.18,1.47l.48.17-.46.22ZM282.28,94.44c-1.24-.35-2.48-.69-3.7-1.09-1.42-.42-2.82-.89-4.23-1.38-1.39-.51-2.79-1.01-4.17-1.6-.69-.27-1.38-.56-2.06-.88-.68-.31-1.37-.6-2.03-.95-1.35-.66-2.67-1.38-3.95-2.19-.64-.42-1.29-.8-1.89-1.28l-.93-.68c-.3-.24-.59-.49-.89-.74-1.19-.98-2.26-2.13-3.24-3.38-.95-1.28-1.75-2.69-2.34-4.22-.53-1.54-.95-3.16-1.02-4.81-.05-.41-.05-.82-.05-1.23,0-.41,0-.82.01-1.23.09-.8.1-1.64.26-2.43l.2-1.2c.07-.4.18-.78.27-1.18.17-.79.4-1.56.64-2.32.47-1.53,1.03-3.02,1.65-4.47.29-.74.64-1.44.97-2.16.33-.72.67-1.42,1.04-2.11.7-1.41,1.47-2.77,2.23-4.13.78-1.34,1.57-2.69,2.4-4,.81-1.33,1.68-2.6,2.51-3.91l1.55,2.35c-1.59.47-3.18.97-4.78,1.39-1.6.46-3.21.87-4.82,1.28-1.62.38-3.24.78-4.88,1.09-1.63.34-3.28.62-4.94.87l-2.5.33-2.52.22-2.54.11c-.86-.01-1.71-.01-2.56-.04-1.71-.11-3.43-.26-5.14-.65l-1.28-.29-1.27-.39c-.86-.23-1.66-.64-2.5-.97l-1.2-.62-.6-.32-.57-.37c-.38-.26-.76-.5-1.13-.76l-1.07-.87c-.36-.28-.69-.6-1.01-.93-.32-.33-.66-.64-.97-.98-.58-.71-1.2-1.39-1.69-2.16-.26-.38-.53-.75-.77-1.13l-.68-1.18c-.48-.78-.82-1.62-1.23-2.43-.37-.82-.69-1.67-1.02-2.51-.28-.85-.58-1.7-.84-2.55-.23-.86-.49-1.72-.69-2.58-.19-.86-.4-1.73-.58-2.59l-.48-2.61-.39-2.61c-.22-1.74-.44-3.48-.58-5.23-.17-1.75-.26-3.48-.38-5.23l3.62,1.22c-1.13,1.41-2.23,2.84-3.38,4.24-1.13,1.41-2.29,2.8-3.47,4.18-1.18,1.37-2.38,2.73-3.61,4.07l-1.86,2-1.91,1.95c-1.3,1.28-2.61,2.55-3.99,3.76-1.37,1.21-2.79,2.38-4.28,3.48-1.48,1.11-3.04,2.11-4.66,3.04-1.65.87-3.35,1.7-5.17,2.26-1.79.62-3.69.94-5.59,1.09-1.91.11-3.82-.05-5.68-.43-1.84-.42-3.64-.99-5.32-1.79-.42-.2-.85-.38-1.26-.59l-1.22-.67c-.82-.42-1.57-.95-2.35-1.44-.78-.49-1.49-1.05-2.24-1.58-.73-.54-1.43-1.13-2.14-1.69-1.39-1.17-2.74-2.37-4.04-3.62-.67-.61-1.28-1.27-1.92-1.9-.64-.64-1.26-1.28-1.87-1.95-1.24-1.29-2.42-2.65-3.62-3.99l3.22-1.54c.56,6.87,1.01,13.77.84,20.75-.06,1.75-.13,3.5-.3,5.25-.06.87-.16,1.75-.28,2.63-.09.87-.23,1.75-.39,2.63-.28,1.75-.7,3.5-1.2,5.22-.25.86-.58,1.71-.88,2.56l-.55,1.25-.27.63-.32.6-.65,1.21-.75,1.15-.38.57-.42.54c-.29.36-.56.73-.86,1.07-1.23,1.35-2.59,2.57-4.08,3.55-1.49.97-3.06,1.8-4.69,2.39-.41.15-.81.31-1.22.45l-1.23.37c-.82.27-1.65.42-2.48.62-1.66.36-3.32.6-4.97.79-1.66.17-3.32.29-4.97.34-1.66.05-3.3.08-4.95.05-1.65-.01-3.28-.09-4.93-.16l.76-2.1c5.03,4.37,10.03,8.81,14.7,13.65,1.16,1.22,2.32,2.44,3.42,3.72.56.63,1.11,1.28,1.64,1.93.54.65,1.07,1.31,1.58,2,.52.67,1.02,1.36,1.5,2.07.49.69.96,1.41,1.41,2.14.92,1.45,1.72,2.99,2.46,4.55.68,1.6,1.31,3.23,1.71,4.95.45,1.7.66,3.46.75,5.23.02.88.05,1.77-.02,2.64-.02.88-.15,1.76-.26,2.63-.12.87-.31,1.73-.48,2.59-.23.84-.41,1.71-.69,2.53-.27.83-.52,1.67-.84,2.48-.3.82-.61,1.63-.97,2.42l-.51,1.19-.55,1.17c-.36.78-.74,1.56-1.15,2.32-.38.77-.78,1.53-1.21,2.28-.42.75-.82,1.51-1.27,2.24-.85,1.49-1.76,2.94-2.66,4.4l-.67-.99c1.79-.48,3.59-.96,5.39-1.39.9-.23,1.8-.44,2.71-.64.9-.22,1.81-.41,2.72-.59,1.82-.38,3.65-.7,5.49-.96.92-.13,1.84-.26,2.77-.34.93-.1,1.85-.19,2.79-.23l1.4-.09,1.4-.03c.93-.04,1.87,0,2.81.03.94,0,1.87.13,2.81.19.93.11,1.86.24,2.79.39.92.2,1.86.34,2.76.6l1.37.36,1.35.45c1.8.59,3.53,1.37,5.23,2.22,1.67.9,3.32,1.86,4.87,2.97l1.17.83,1.13.87c.76.57,1.48,1.2,2.2,1.81,2.89,2.49,5.55,5.23,8.08,8.07.64.7,1.25,1.43,1.87,2.15.62.72,1.23,1.45,1.83,2.19,1.21,1.47,2.38,2.97,3.55,4.47,1.15,1.51,2.31,3.02,3.41,4.57,1.13,1.53,2.21,3.09,3.32,4.64l-3,.8c.25-1.78.51-3.55.84-5.33.33-1.78.71-3.55,1.18-5.31.46-1.76,1.02-3.5,1.66-5.23.34-.86.7-1.71,1.08-2.55.43-.83.79-1.68,1.29-2.48l.71-1.21.8-1.16.4-.58.45-.54.91-1.09c1.29-1.37,2.72-2.61,4.29-3.62,1.57-.98,3.23-1.82,4.94-2.39,1.7-.63,3.45-.99,5.19-1.32.87-.11,1.74-.25,2.61-.33.87-.06,1.74-.16,2.6-.18,1.73-.07,3.46-.05,5.17.02l2.57.15,2.55.23c1.69.2,3.39.4,5.06.66,1.68.24,3.35.54,5.02.82,1.66.31,3.33.62,4.98.97,3.32.66,6.6,1.42,9.89,2.18l-1.38,2.56c-1-1.17-2.03-2.31-2.99-3.52-.99-1.18-1.93-2.42-2.85-3.67-.45-.64-.91-1.26-1.35-1.91l-1.28-1.98c-.4-.68-.8-1.36-1.19-2.06-.36-.71-.75-1.41-1.07-2.14-.31-.75-.67-1.46-.92-2.25l-.4-1.16-.31-1.2c-.24-.79-.31-1.64-.46-2.46-.04-.84-.15-1.68-.07-2.53,0-.85.17-1.69.31-2.53.22-.82.4-1.65.75-2.42.59-1.58,1.48-2.98,2.46-4.27l.75-.95c.25-.31.54-.59.81-.88.53-.6,1.11-1.13,1.69-1.66,1.17-1.05,2.4-2,3.66-2.9,1.26-.88,2.55-1.72,3.86-2.5.65-.41,1.32-.77,1.98-1.14.66-.38,1.33-.74,2-1.09,1.34-.72,2.7-1.38,4.06-2.05,1.37-.64,2.73-1.29,4.11-1.89,2.57-1.15,5.19-2.19,7.79-3.24"/>
  </g>
  <g id="Ebene_2" data-name="Ebene 2">
    <path class="cls-4" d="M214.14,116.26l-.4,6.4-.03.88c-.32,4.51-1.12,8.54-2.39,12.09-.48,1.44-1.56,2.95-3.23,4.55-1.66,1.58-3.83,2.5-6.5,2.74h-1.26l-1.13.09-.76.12h-.01c-3.39.29-6-.31-7.83-1.78s-3.23-4.06-4.2-7.75c-.44-1.61-.63-4.58-.56-8.94,1.3.21,2.91.21,4.84.01h-.01s.6-.09.6-.09l.89-.09,1-.07c2.1-.23,3.8-.69,5.09-1.42,1.29-.73,2.13-1.4,2.47-1.99.96-1.49,1.53-3.17,1.72-4.99v-.36l.24-2.59c.07-2.34-.49-3.99-1.68-4.93-1.18-.94-2.81-1.48-4.84-1.57-1.2-.08-2.78,0-4.72.25-.69.09-1.36.21-1.99.37,1.1-2.13,2.38-3.79,3.82-5,2.05-1.73,4.32-2.77,6.8-3.09,2.5-.33,4.51-.32,6.04.04,2.59.55,4.64,2.09,6.12,4.62,1.48,2.54,2.13,6.72,1.94,12.52Z"/>
    <path class="cls-4" d="M134.24,115.67c-1.17-2.13-2.74-3.43-4.73-3.91-1.17-.31-2.71-.35-4.62-.09s-3.6,1.09-5.16,2.51c-1.08,1-2.02,2.35-2.83,4.1.39-.08.76-.15,1.16-.2,1.49-.19,2.7-.24,3.62-.17,1.56.11,2.79.56,3.72,1.36.93.8,1.37,2.18,1.36,4.14l-.15,2.17v.29c-.12,1.53-.53,2.93-1.24,4.16-.27.51-.88,1.05-1.86,1.65-.97.59-2.26.97-3.87,1.14l-.76.05-.68.07-.45.07v.03c-1.32.15-2.45.15-3.38.01.01,3.59.19,6.05.55,7.38.8,3.1,1.9,5.28,3.32,6.52s3.43,1.77,6.02,1.54h.03s.57-.08.57-.08l.86-.08h.97c2.03-.19,3.68-.93,4.93-2.25,1.26-1.33,2.06-2.58,2.39-3.78.92-2.95,1.48-6.32,1.65-10.09v-.73l.23-5.33c.05-4.84-.49-8.34-1.66-10.47ZM134.24,115.67c-1.17-2.13-2.74-3.43-4.73-3.91-1.17-.31-2.71-.35-4.62-.09s-3.6,1.09-5.16,2.51c-1.08,1-2.02,2.35-2.83,4.1.39-.08.76-.15,1.16-.2,1.49-.19,2.7-.24,3.62-.17,1.56.11,2.79.56,3.72,1.36.93.8,1.37,2.18,1.36,4.14l-.15,2.17v.29c-.12,1.53-.53,2.93-1.24,4.16-.27.51-.88,1.05-1.86,1.65-.97.59-2.26.97-3.87,1.14l-.76.05-.68.07-.45.07v.03c-1.32.15-2.45.15-3.38.01.01,3.59.19,6.05.55,7.38.8,3.1,1.9,5.28,3.32,6.52s3.43,1.77,6.02,1.54h.03s.57-.08.57-.08l.86-.08h.97c2.03-.19,3.68-.93,4.93-2.25,1.26-1.33,2.06-2.58,2.39-3.78.92-2.95,1.48-6.32,1.65-10.09v-.73l.23-5.33c.05-4.84-.49-8.34-1.66-10.47ZM242.43,134.08c5.93-34.38-5.84-46.24-5.84-46.24-.45-.52-.88-1.06-1.37-1.57-4-4.1-9.1-6.98-15.1-8.62-5.79-1.57-12.18-1.78-18.99-.65-9.97,1.65-18.79,5.47-26.23,11.25-6.04,4.65-10.72,10.36-14.11,16.96.52-1.01-4.29-6.61-5.13-7.6-2.43-2.88-5.56-5.07-9.05-6.47-6.04-2.42-12.71-3.03-19.8-1.85-10.97,1.83-21.22,7.98-27.92,16.86-6.71,8.89-8.85,20.42-9.22,31.34-.43,12.86,2.35,28.07,13.5,36.07,5.59,4,12.79,5.85,21.59,5.45,5.12-.31,10.41-1.61,15.75-3.92,5.91-2.55,10.73-6.2,14.28-10.84l2.23-3.29c.91-1.34,2.54-4.19,2.54-4.19,0,0,.4.78.66,1.14,1.54,2.19,3.25,4.27,5.04,6.26,1.88,2.09,3.71,3.99,5.97,5.67,6.96,5.16,15.26,6.91,23.81,6.53,3.1-.15,7.61-.69,13.83-1.68,5.61-.89,10.49-1.45,14.48-1.64,5.33-.25,12.66,1.76,17.77-1.17,8.23-4.73,12.45-37.83,1.29-37.8ZM151.46,152.18l-1.99,3.02c-2.66,3.55-6.36,6.38-11.07,8.5-4.64,2.09-9.18,3.29-13.59,3.62-7.46.47-13.46-.94-18.06-4.16-7.69-5.32-11.48-15.07-11.45-29.39h-.01l.08-.98c.31-3.71.7-7.04,1.2-9.95.51-2.93,1.32-5.72,2.43-8.37,2.7-5.92,6.48-10.71,11.4-14.36,4.99-3.71,10.45-6.05,16.39-7.01,6.02-.97,11.57-.44,16.6,1.6,3.03,1.22,5.4,3.02,7.1,5.36,3.29,4.22,5.44,8.25,6.44,12.06,1,3.83,1.46,8.33,1.37,13.5-.21,11.44-2.5,20.31-6.82,26.57ZM239,140.94l-.03.53c-.04.25-.08.66-.11,1.26l-.08,1.94.03.68-.15,5.08-.11,1.36-.11,2.55-.12,1.82v.88l-.04,1.46c-.16.49-.57.92-1.25,1.28-4.42-.28-8.82-.27-13.19,0-4.34.28-9.5.94-15.45,1.98-5.88,1.02-10.17,1.62-12.97,1.8-21.11,1.29-33.8-16.19-33.4-36.96.11-5.48.88-10.55,2.33-15.19,2.66-8.57,7.43-15.51,14.4-20.83,6.3-4.87,13.71-8.01,22.26-9.38,5.71-.92,10.95-.73,15.67.59,4.77,1.33,8.74,3.59,11.85,6.8,6.53,6.72,9.59,15.93,9.14,27.56-.15,3.68-.96,7.58-2.45,11.69-1.48,4.08-3.43,7.82-5.87,11.19l2.85-.25v-.03s3.38-.4,3.38-.4c2.38-.11,3.54.56,3.48,2.01l-.08.59ZM129.5,111.76c-1.17-.31-2.71-.35-4.62-.09s-3.6,1.09-5.16,2.51c-1.08,1-2.02,2.35-2.83,4.1.39-.08.76-.15,1.16-.2,1.49-.19,2.7-.24,3.62-.17,1.56.11,2.79.56,3.72,1.36.93.8,1.37,2.18,1.36,4.14l-.15,2.17v.29c-.12,1.53-.53,2.93-1.24,4.16-.27.51-.88,1.05-1.86,1.65-.97.59-2.26.97-3.87,1.14l-.76.05-.68.07-.45.07v.03c-1.32.15-2.45.15-3.38.01.01,3.59.19,6.05.55,7.38.8,3.1,1.9,5.28,3.32,6.52s3.43,1.77,6.02,1.54h.03s.57-.08.57-.08l.86-.08h.97c2.03-.19,3.68-.93,4.93-2.25,1.26-1.33,2.06-2.58,2.39-3.78.92-2.95,1.48-6.32,1.65-10.09v-.73l.23-5.33c.05-4.84-.49-8.34-1.66-10.47-1.17-2.13-2.74-3.43-4.73-3.91Z"/>
    <g>
      <path class="cls-9" d="M135.9,126.14l-.23,5.33v.73c-.17,3.78-.73,7.14-1.65,10.09-.33,1.2-1.13,2.45-2.39,3.78-1.25,1.32-2.9,2.06-4.93,2.25h-.97l-.86.08-.57.09h-.03c-2.59.21-4.6-.32-6.02-1.56s-2.53-3.42-3.32-6.52c-.36-1.33-.53-3.79-.55-7.38.93.13,2.06.13,3.36-.01v-.03s.47-.07.47-.07l.68-.07.76-.05c1.61-.17,2.9-.56,3.87-1.14.98-.6,1.6-1.14,1.86-1.65.7-1.24,1.12-2.63,1.24-4.16v-.29l.15-2.17c.01-1.96-.43-3.34-1.36-4.14-.93-.8-2.17-1.25-3.72-1.36-.92-.07-2.13-.01-3.62.17-.4.05-.77.12-1.16.2.81-1.74,1.76-3.1,2.83-4.1,1.56-1.42,3.26-2.26,5.16-2.51s3.44-.21,4.62.09c1.99.48,3.56,1.78,4.73,3.91,1.17,2.13,1.72,5.63,1.66,10.47Z"/>
      <path class="cls-9" d="M214.14,116.26l-.4,6.4-.03.88c-.32,4.51-1.12,8.54-2.39,12.09-.48,1.44-1.56,2.95-3.23,4.55-1.66,1.58-3.83,2.5-6.5,2.74h-1.26l-1.13.09-.76.12h-.01c-3.39.29-6-.31-7.83-1.78s-3.23-4.06-4.2-7.75c-.44-1.61-.63-4.58-.56-8.94,1.3.21,2.91.21,4.84.01h-.01s.6-.09.6-.09l.89-.09,1-.07c2.1-.23,3.8-.69,5.09-1.42,1.29-.73,2.13-1.4,2.47-1.99.96-1.49,1.53-3.17,1.72-4.99v-.36l.24-2.59c.07-2.34-.49-3.99-1.68-4.93-1.18-.94-2.81-1.48-4.84-1.57-1.2-.08-2.78,0-4.72.25-.69.09-1.36.21-1.99.37,1.1-2.13,2.38-3.79,3.82-5,2.05-1.73,4.32-2.77,6.8-3.09,2.5-.33,4.51-.32,6.04.04,2.59.55,4.64,2.09,6.12,4.62,1.48,2.54,2.13,6.72,1.94,12.52Z"/>
      <path class="cls-9" d="M235.59,138.35l-3.39.4v.03s-2.83.25-2.83.25c2.43-3.36,4.39-7.1,5.87-11.19,1.49-4.11,2.3-8.01,2.45-11.69.45-11.62-2.61-20.84-9.14-27.56-3.11-3.21-7.08-5.47-11.85-6.8-4.72-1.32-9.96-1.5-15.67-.59-8.55,1.37-15.96,4.51-22.26,9.38-6.97,5.32-11.74,12.26-14.4,20.83-1.45,4.64-2.22,9.71-2.33,15.19-.4,20.77,12.29,38.25,33.4,36.96,2.79-.17,7.09-.77,12.97-1.8,5.96-1.04,11.12-1.7,15.45-1.98,2.67-.17,5.36-.23,8.04-.2,1.36.02,2.74.03,4.1.13.77.06,1.67-.06,2.11-.78,2.23-3.66,6.29-21.63-2.5-20.6ZM214.14,116.26l-.4,6.4-.03.88c-.32,4.51-1.12,8.54-2.39,12.09-.48,1.44-1.56,2.95-3.23,4.55-1.66,1.58-3.83,2.5-6.5,2.74h-1.26l-1.13.09-.76.12h-.01c-3.39.29-6-.31-7.83-1.78s-3.23-4.06-4.2-7.75c-.44-1.61-.63-4.58-.56-8.94,1.3.21,2.91.21,4.84.01h-.01s.6-.09.6-.09l.89-.09,1-.07c2.1-.23,3.8-.69,5.09-1.42,1.29-.73,2.13-1.4,2.47-1.99.96-1.49,1.53-3.17,1.72-4.99v-.36l.24-2.59c.07-2.34-.49-3.99-1.68-4.93-1.18-.94-2.81-1.48-4.84-1.57-1.2-.08-2.78,0-4.72.25-.69.09-1.36.21-1.99.37,1.1-2.13,2.38-3.79,3.82-5,2.05-1.73,4.32-2.77,6.8-3.09,2.5-.33,4.51-.32,6.04.04,2.59.55,4.64,2.09,6.12,4.62,1.48,2.54,2.13,6.72,1.94,12.52Z"/>
      <path class="cls-9" d="M156.91,112.11c-1.84-7.06-6.55-14.6-13.54-17.42-5.03-2.03-10.57-2.57-16.6-1.6-5.93.96-11.4,3.3-16.39,7.01-4.92,3.66-8.7,8.45-11.4,14.36-1.12,2.65-1.93,5.44-2.43,8.37-.49,2.91-.89,6.24-1.2,9.95,0,0-.08.98-.07.98-.03,14.32,3.76,24.07,11.45,29.39,4.6,3.22,10.6,4.63,18.06,4.16,4.42-.33,8.95-1.53,13.59-3.62,4.71-2.11,8.41-4.95,11.07-8.5l1.99-3.02c4.32-6.26,6.61-15.14,6.82-26.57.09-5.17-.37-9.67-1.37-13.5ZM135.67,131.47v.73c-.17,3.78-.73,7.14-1.65,10.09-.33,1.2-1.13,2.45-2.39,3.78-1.25,1.32-2.9,2.06-4.93,2.25h-.97l-.86.08-.57.09h-.03c-2.59.21-4.6-.32-6.02-1.56s-2.53-3.42-3.32-6.52c-.36-1.33-.53-3.79-.55-7.38.93.13,2.06.13,3.36-.01v-.03s.47-.07.47-.07l.68-.07.76-.05c1.61-.17,2.9-.56,3.87-1.14.98-.6,1.6-1.14,1.86-1.65.7-1.24,1.12-2.63,1.24-4.16v-.29l.15-2.17c.01-1.96-.43-3.34-1.36-4.14-.93-.8-2.17-1.25-3.72-1.36-.92-.07-2.13-.01-3.62.17-.4.05-.77.12-1.16.2.81-1.74,1.76-3.1,2.83-4.1,1.56-1.42,3.26-2.26,5.16-2.51s3.44-.21,4.62.09c1.99.48,3.56,1.78,4.73,3.91,1.17,2.13,1.72,5.63,1.66,10.47l-.23,5.33Z"/>
    </g>
    <path class="cls-4" d="M136.03,126.14c-.17,5.4-.56,10.94-2.01,16.15-.33,1.2-1.13,2.45-2.39,3.78-2.85,3-10.22,3.62-13.39.86-1.42-1.24-2.53-3.42-3.32-6.52-.36-1.33-.53-3.79-.55-7.38,0,.41,2.88,0,3.18-.04,2.06-.26,4.42-.44,6.24-1.51,1.97-1.17,2.68-3.5,2.89-5.66.2-2.03.43-5.1-1.28-6.57-.93-.8-2.17-1.25-3.72-1.36-.92-.07-2.13-.01-3.62.17-.4.05-.77.12-1.16.2.81-1.74,1.76-3.1,2.83-4.1,1.56-1.42,3.26-2.26,5.16-2.51s3.44-.21,4.62.09c1.99.48,3.56,1.78,4.73,3.91,1.63,2.97,1.91,6.48,1.81,9.81,0,.22-.01.44-.02.66Z"/>
    <path class="cls-4" d="M214.36,116.27c-.41,6.45-.99,13.19-3.04,19.35-1.33,4-5.19,6.54-9.2,7.15-3.66.56-8.45,1.05-11.54-1.43-1.84-1.48-3.23-4.06-4.2-7.75-.44-1.61-.63-4.58-.56-8.94,0,.52,8.28-.33,9.23-.54,1.1-.24,2.19-.57,3.17-1.13,1.29-.73,2.13-1.4,2.47-1.99,1.36-2.11,1.74-4.63,1.87-7.08.11-2.01.15-4.4-1.6-5.79-1.18-.94-2.81-1.48-4.84-1.57-1.2-.08-2.78,0-4.72.25-.69.09-1.36.21-1.99.37,1.1-2.13,2.38-3.79,3.82-5,2.05-1.73,4.32-2.77,6.8-3.09,2.5-.33,4.51-.32,6.04.04,2.59.55,4.64,2.09,6.12,4.62,2.21,3.79,2.44,8.18,2.17,12.53Z"/>
    <g>
      <path class="cls-6" d="M378.37,169.73c.05,0,.09-.04.09-.11,0-.05-.04-.1-.09-.1s-.1.05-.1.1c0,.06.05.11.1.11"/>
      <path class="cls-6" d="M378.37,182.84c.26,0,.48-.24.48-.53s-.22-.53-.48-.53-.49.23-.49.53.22.53.49.53"/>
      <path class="cls-6" d="M378.37,195.8c.41,0,.73-.36.73-.8s-.33-.82-.73-.82-.75.37-.75.82.34.8.75.8"/>
      <path class="cls-6" d="M378.37,208.7c.51,0,.93-.46.93-1.02s-.42-1.02-.93-1.02-.93.46-.93,1.02.42,1.02.93,1.02"/>
      <path class="cls-6" d="M378.37,221.45c.55,0,.99-.49.99-1.09s-.44-1.09-.99-1.09-1,.49-1,1.09.44,1.09,1,1.09"/>
    </g>
    <g>
      <path class="cls-3" d="M377.34,154.31l.05.02c0-6.97,0-15.64-8.43-15.64l-11.88.15c1.15-1.38,2.42-2.87,3.74-4.41l3.44-3.76c7.53-8.18,11.05-13.71,11.76-18.49l.22-10.58v-.28l.09-2.79c0-4.85-2.45-7.34-3.9-8.39-1.59-1.14-3.56-1.97-6.12-2.13-.22-.02-.45.13-.69.13l-9.75.13c-19.06.31-31.28.45-36.31.45h-7.55c-.5-.12-1.06-.17-1.67-.17l-2.42.1-.63-.63h-33.18l-1.09,1.27-6.72-.87c-.66-.08-1.86-.14-3.62-.19-.73-.02-1.27-.03-1.44-.04l-1.48-.17-.19-.02c-2.02,0-3.92.01-5.72.02-3.96.04-7.4.12-10.31.24-.03-.08-.05-.16-.09-.24-.21-.6-.42-1.17-.63-1.7-.1-.24-.2-.48-.29-.71-.03-.08-.07-.16-.1-.24-.22-.51-.45-1-.66-1.45-.62-1.31-1.23-2.34-1.74-3.14-.11-.16-.21-.32-.31-.46-.19-.27-.36-.52-.52-.73-.08-.1-.14-.19-.22-.27-.1-.13-.19-.24-.26-.33-.05-.08-.11-.13-.15-.17-.08-.09-.12-.13-.12-.13-.49-.57-.96-1.17-1.49-1.71-4.36-4.47-9.91-7.61-16.44-9.39-6.31-1.71-13.28-1.94-20.7-.71-10.86,1.8-20.47,5.96-28.57,12.26-2,1.55-3.88,3.2-5.61,4.97-.7.7-1.36,1.42-2.02,2.16-.33.36-.64.74-.96,1.11-.95,1.13-1.84,2.29-2.69,3.49-.57.8-1.11,1.61-1.63,2.44-.26.41-.51.83-.76,1.25-.25.41-.5.84-.74,1.27-.24.42-.47.86-.7,1.3h-.01c-.14-.16-.27-.31-.42-.46,0-.01-.01-.02-.02-.03-.07-.13-.13-.27-.21-.41,0-.01,0-.02-.01-.03-.09-.14-.16-.28-.26-.44-.19-.32-.41-.66-.66-1.02-.24-.35-.51-.72-.78-1.09-.11-.14-.22-.29-.33-.45-1.31-1.7-2.71-3.34-3.14-3.86-2.65-3.14-6.06-5.52-9.86-7.05-6.58-2.64-13.86-3.31-21.58-2.02-.57.1-1.12.2-1.68.32-.46.09-.92.2-1.37.31-.48.11-.95.23-1.42.36-.31.08-.61.16-.92.25-1.02.29-2.04.63-3.03,1-.37.13-.75.27-1.12.42-.21.07-.4.14-.59.23-.4.15-.8.33-1.19.5-.9.39-1.79.81-2.65,1.26-.34.16-.68.34-1.01.52-.66.36-1.32.73-1.97,1.13-.33.19-.65.39-.97.6-.69.44-1.36.88-2.03,1.36-.26.17-.51.35-.76.53-.36.26-.71.53-1.06.81-.45.35-.89.71-1.33,1.08-.4.33-.8.68-1.18,1.01-.04.03-.09.07-.12.11-.13-.21-.26-.42-.39-.59-1.01-1.33-3.38-3.58-7.78-3.58l-.93.04-16.72-.17-24.33.24-1.44-.07c-5.14,0-13.75,0-13.75,8.2,0,0-.27,62.39-.27,62.41-.02,4.64-.61,12.62,4.01,13.64,1.72.39,3.61.21,5.26.19,2.58-.02,5.15-.05,7.74-.07,5.03-.03,10.06-.03,15.09-.08.71,0,1.41,0,2.11-.01l.78-.04c3.66-.41,7.62-3.41,7.62-9.04v-3.99l.04-1.88-.19-10.27c2.76-.1,5.36-.22,7.88-.34.09.53.17,1.07.28,1.6.04.24.1.49.14.74.09.45.19.88.28,1.33,0,.01,0,.03.01.04.28,1.22.6,2.43.97,3.62.19.59.37,1.19.58,1.77.2.57.41,1.12.63,1.68.01.04.02.08.04.11.22.57.46,1.11.71,1.67.23.52.48,1.04.74,1.55.46.9.96,1.79,1.49,2.65.12.2.24.39.36.58.19.28.37.56.56.83.22.32.45.63.69.95.04.05.09.11.12.16.21.28.42.56.65.83.26.33.53.63.81.95.13.15.27.31.41.46.17.19.35.37.52.56.29.31.59.6.9.89.03.03.05.05.09.09.28.26.58.52.87.77.27.24.53.47.82.69.39.32.81.62,1.22.93,6.09,4.36,13.94,6.37,23.52,5.94,5.58-.34,11.34-1.75,17.15-4.27,6.44-2.79,11.7-6.76,15.57-11.81l2.43-3.58c.99-1.46,2.77-4.57,2.77-4.57,0,0,.44.85.72,1.24,1.68,2.39,3.54,4.64,5.49,6.82,2.05,2.28,4.05,4.35,6.5,6.18,7.58,5.62,16.63,7.53,25.95,7.1,3.37-.15,8.28-.75,15.07-1.82,6.11-.97,11.43-1.58,15.78-1.79,5.81-.27,13.79,1.92,19.36-1.27.6-.35,1.19-.83,1.73-1.44.42-.46.83-.97,1.22-1.55.13-.2.25-.39.38-.6,6.99,4.69,15.94,7.1,26.69,7.1,12.18,0,21.21-2.79,28.03-8.2v.17l1.34,1.95c1.27,1.87,2.82,3.23,4.61,3.98,1.38.59,3,.88,4.95.88l53.7-.45h1.17c2.55,0,4.61-.56,6.3-1.71,1.47-1,3.91-3.38,3.9-8.38l-.09-7.71Z"/>
      <g>
        <path class="cls-9" d="M86.3,92.4s-40.34-.13-48.2.19c-1.74.07-1.33,2.74-1.33,2.74l-.26,59.44c0,1.38-.07,3.06-.07,5.03,0,1.62.87,1.03.93,1.2l25.65-.22c.54-.06.81-.54.81-1.43v-4.22l.04-1.52-.32-17.85c6.52-.14,12.46-.36,17.81-.67l2.42.09h.58c.81,0,1.41-.16,1.8-.49.39-.33.58-.99.58-1.97v-15.03c-.8-.54-2.98-.28-6.59-.28s-9.08.05-16.64.41c-.09-.99-.13-2-.13-3.04l.09-3.94v-1.3l10.36-.04c6.07,0,10.85-.14,14.35-.45.12-3.2.17-6.84.17-10.94l.04-.26v-3.37c.01-.7-.12-1.11-.41-1.49-.29-.38-.84-.57-1.68-.57Z"/>
        <path class="cls-9" d="M259.46,92.52c-7.59,0-13.48.02-17.87.27h-.94c-.28.74-.41,2.11-.41,5.26s.07,4.71.22,4.71c0,10.61-.07,22.17-.22,34.66.3,3.67,1.17,6.97,2.62,9.88,1.45,2.93,3.25,5.29,5.36,7.12,6,5.26,14.42,7.9,25.24,7.9s19-2.51,24.53-7.54c2.03-1.83,3.67-4.22,4.91-7.17,1.23-2.97,1.85-6.38,1.85-10.23l.13-12.61-.04-2.65v-7.71c0-8.88.12-15.34.36-20.99,0,0,.12-1.05-1.26-.9-5.78-.09-14.73.05-26.04.05-.33,0-.63.25-.64.58-.19,6.65.1,13.36.16,20.01.04,4.43.08,8.86.11,13.29.04,4.77.72,11-1.68,15.44-.77,1.44-2.23,1.93-3.7,1.93-3.46,0-5.2-2.99-5.2-8.97,0,0,.03-35.84-.17-41.72-.01-.37-.31-.65-.68-.65l-6.67.04Z"/>
        <path class="cls-9" d="M369.89,155.8s-.03-8.69-.47-12.01c-.1-.73-.73-1.27-1.47-1.26l-27.28.35,5.12-6.23c2.39-2.94,5.52-6.67,9.38-11.22l3.45-3.77c6.1-6.64,9.38-11.45,9.82-14.43v-.58l.13-8.97v-.06s-.01-.45-.01-.45l.09-2.51c0-1.1-.25-1.83-.72-2.17-.48-.35-1.23-.54-2.25-.57,0,0-41.07.58-46.17.58h-8.81c-.43-.05-.47.3-.47.3.11,3.76.18,14.84.48,16.47.04.2.1.41.29.49.08.04.18.04.27.04,3.21.01,26.17-.35,26.17-.35-5.12,6.13-12.3,15-21.58,26.59,0,0-6.82,7.95-6.82,7.95-.18.22-.09,2.1-.08,2.41.05,1.15.08,2.31.1,3.47.03,1.55.05,3.1.06,4.65,0,.95.01,1.9.01,2.85,0,1.41-.28,2.72,1.31,3.43.42.19,1.04.28,1.88.28l53.78-.45h1.16c.96,0,1.62-.13,2-.38s.57-.86.57-1.81l.07-2.64Z"/>
      </g>
      <path class="cls-3" d="M213.98,109.66l-.43,6.97-.03.96c-.35,4.91-1.22,9.3-2.61,13.17-.52,1.57-1.7,3.22-3.52,4.96-1.81,1.72-4.17,2.72-7.09,2.99h-1.38l-1.23.1-.83.13h-.01c-3.7.32-6.54-.33-8.54-1.94-2-1.61-3.52-4.42-4.58-8.45-.48-1.75-.68-4.98-.61-9.74,1.42.23,3.17.23,5.27.01h-.01s.65-.1.65-.1l.97-.1,1.09-.07c2.29-.25,4.14-.75,5.55-1.55,1.41-.8,2.32-1.52,2.7-2.17,1.04-1.62,1.67-3.45,1.87-5.43v-.39l.26-2.83c.07-2.55-.54-4.35-1.83-5.38-1.29-1.03-3.06-1.61-5.27-1.71-1.3-.09-3.03,0-5.14.28-.75.1-1.48.23-2.17.41,1.2-2.32,2.59-4.13,4.16-5.45,2.23-1.88,4.71-3.01,7.4-3.36,2.72-.36,4.91-.35,6.58.04,2.83.59,5.06,2.28,6.67,5.03,1.61,2.77,2.32,7.32,2.12,13.64Z"/>
      <path class="cls-3" d="M126.92,109.02c-1.28-2.32-2.99-3.74-5.16-4.26-1.28-.33-2.96-.38-5.03-.1-2.07.28-3.93,1.19-5.62,2.74-1.17,1.09-2.2,2.56-3.09,4.46.42-.09.83-.16,1.26-.22,1.62-.2,2.94-.26,3.94-.19,1.7.12,3.04.61,4.06,1.48,1.01.87,1.49,2.38,1.48,4.51l-.16,2.36v.32c-.13,1.67-.58,3.19-1.35,4.54-.29.55-.96,1.14-2.03,1.8-1.06.64-2.46,1.06-4.22,1.25l-.83.06-.74.07-.49.07v.03c-1.43.16-2.67.16-3.68.01.01,3.91.2,6.59.59,8.04.87,3.38,2.07,5.75,3.62,7.1,1.55,1.35,3.74,1.93,6.56,1.68h.03s.62-.09.62-.09l.94-.09h1.06c2.22-.2,4.01-1.01,5.38-2.45,1.38-1.45,2.25-2.81,2.61-4.12,1-3.22,1.61-6.88,1.8-11v-.8l.25-5.81c.06-5.27-.54-9.09-1.81-11.4ZM126.92,109.02c-1.28-2.32-2.99-3.74-5.16-4.26-1.28-.33-2.96-.38-5.03-.1-2.07.28-3.93,1.19-5.62,2.74-1.17,1.09-2.2,2.56-3.09,4.46.42-.09.83-.16,1.26-.22,1.62-.2,2.94-.26,3.94-.19,1.7.12,3.04.61,4.06,1.48,1.01.87,1.49,2.38,1.48,4.51l-.16,2.36v.32c-.13,1.67-.58,3.19-1.35,4.54-.29.55-.96,1.14-2.03,1.8-1.06.64-2.46,1.06-4.22,1.25l-.83.06-.74.07-.49.07v.03c-1.43.16-2.67.16-3.68.01.01,3.91.2,6.59.59,8.04.87,3.38,2.07,5.75,3.62,7.1,1.55,1.35,3.74,1.93,6.56,1.68h.03s.62-.09.62-.09l.94-.09h1.06c2.22-.2,4.01-1.01,5.38-2.45,1.38-1.45,2.25-2.81,2.61-4.12,1-3.22,1.61-6.88,1.8-11v-.8l.25-5.81c.06-5.27-.54-9.09-1.81-11.4ZM244.8,129.08c6.46-37.46-6.36-50.38-6.36-50.38-.49-.57-.96-1.16-1.49-1.71-4.36-4.46-9.91-7.61-16.45-9.39-6.3-1.71-13.27-1.94-20.69-.71-10.87,1.8-20.48,5.96-28.58,12.26-6.58,5.07-11.68,11.29-15.37,18.48.56-1.1-4.68-7.2-5.59-8.28-2.65-3.14-6.05-5.52-9.86-7.05-6.58-2.64-13.85-3.3-21.58-2.01-11.95,2-23.12,8.7-30.42,18.37-7.31,9.68-9.65,22.25-10.04,34.15-.46,14.01,2.56,30.58,14.71,39.29,6.09,4.36,13.94,6.38,23.52,5.94,5.58-.33,11.35-1.75,17.16-4.27,6.43-2.78,11.69-6.75,15.56-11.81,0,0,2.43-3.58,2.43-3.58.99-1.46,2.76-4.57,2.76-4.57,0,0,.44.85.72,1.24,1.68,2.39,3.54,4.65,5.5,6.82,2.05,2.28,4.05,4.35,6.51,6.18,7.58,5.63,16.63,7.53,25.95,7.11,3.38-.16,8.29-.75,15.07-1.83,6.12-.97,11.43-1.58,15.78-1.78,5.81-.28,13.8,1.91,19.36-1.28,8.97-5.16,13.56-41.21,1.41-41.18ZM145.68,148.8l-2.17,3.29c-2.9,3.87-6.93,6.96-12.06,9.26-5.06,2.28-10,3.58-14.81,3.94-8.13.51-14.66-1.03-19.68-4.54-8.38-5.8-12.51-16.42-12.48-32.03h-.01l.09-1.07c.33-4.04.77-7.67,1.3-10.84.55-3.19,1.43-6.23,2.65-9.11,2.94-6.45,7.06-11.67,12.42-15.65,5.43-4.04,11.39-6.59,17.85-7.64,6.56-1.06,12.61-.48,18.08,1.74,3.3,1.33,5.88,3.29,7.74,5.84,3.58,4.59,5.93,8.98,7.01,13.14,1.09,4.17,1.59,9.07,1.49,14.71-.23,12.46-2.72,22.13-7.43,28.95ZM241.06,136.55l-.03.58c-.04.28-.09.72-.12,1.38l-.09,2.12.03.74-.16,5.54-.12,1.48-.12,2.78-.13,1.99v.96l-.04,1.59c-.17.54-.62,1-1.36,1.39-4.81-.3-9.61-.29-14.37,0-4.72.3-10.35,1.03-16.84,2.16-6.41,1.12-11.09,1.77-14.13,1.96-23,1.41-36.82-17.64-36.39-40.27.12-5.97.96-11.49,2.54-16.55,2.9-9.33,8.1-16.9,15.69-22.69,6.87-5.3,14.94-8.72,24.26-10.22,6.22-1,11.93-.8,17.07.64,5.2,1.45,9.52,3.91,12.91,7.4,7.12,7.32,10.45,17.36,9.96,30.03-.16,4.01-1.04,8.26-2.67,12.74-1.61,4.45-3.74,8.52-6.39,12.19l3.1-.28v-.03s3.68-.43,3.68-.43c2.59-.12,3.85.61,3.8,2.19l-.09.64ZM121.76,104.76c-1.28-.33-2.96-.38-5.03-.1-2.07.28-3.93,1.19-5.62,2.74-1.17,1.09-2.2,2.56-3.09,4.46.42-.09.83-.16,1.26-.22,1.62-.2,2.94-.26,3.94-.19,1.7.12,3.04.61,4.06,1.48,1.01.87,1.49,2.38,1.48,4.51l-.16,2.36v.32c-.13,1.67-.58,3.19-1.35,4.54-.29.55-.96,1.14-2.03,1.8-1.06.64-2.46,1.06-4.22,1.25l-.83.06-.74.07-.49.07v.03c-1.43.16-2.67.16-3.68.01.01,3.91.2,6.59.59,8.04.87,3.38,2.07,5.75,3.62,7.1,1.55,1.35,3.74,1.93,6.56,1.68h.03s.62-.09.62-.09l.94-.09h1.06c2.22-.2,4.01-1.01,5.38-2.45,1.38-1.45,2.25-2.81,2.61-4.12,1-3.22,1.61-6.88,1.8-11v-.8l.25-5.81c.06-5.27-.54-9.09-1.81-11.4-1.28-2.32-2.99-3.74-5.16-4.26Z"/>
      <g>
        <path class="cls-9" d="M128.73,120.43l-.25,5.81v.8c-.19,4.12-.8,7.78-1.8,11-.36,1.3-1.23,2.67-2.61,4.12-1.36,1.43-3.16,2.25-5.38,2.45h-1.06l-.94.09-.62.1h-.03c-2.83.23-5.01-.35-6.56-1.7-1.55-1.35-2.75-3.72-3.62-7.1-.39-1.45-.58-4.13-.59-8.04,1.01.14,2.25.14,3.67-.01v-.03s.51-.07.51-.07l.74-.07.83-.06c1.75-.19,3.16-.61,4.22-1.25,1.07-.65,1.74-1.25,2.03-1.8.77-1.35,1.22-2.87,1.35-4.54v-.32l.16-2.36c.01-2.13-.46-3.64-1.48-4.51-1.01-.87-2.36-1.36-4.06-1.48-1-.07-2.32-.01-3.94.19-.43.06-.84.13-1.26.22.88-1.9,1.91-3.38,3.09-4.46,1.7-1.55,3.55-2.46,5.62-2.74,2.07-.28,3.75-.23,5.03.1,2.17.52,3.88,1.94,5.16,4.26,1.28,2.32,1.87,6.13,1.81,11.4Z"/>
        <path class="cls-9" d="M213.98,109.66l-.43,6.97-.03.96c-.35,4.91-1.22,9.3-2.61,13.17-.52,1.57-1.7,3.22-3.52,4.96-1.81,1.72-4.17,2.72-7.09,2.99h-1.38l-1.23.1-.83.13h-.01c-3.7.32-6.54-.33-8.54-1.94-2-1.61-3.52-4.42-4.58-8.45-.48-1.75-.68-4.98-.61-9.74,1.42.23,3.17.23,5.27.01h-.01s.65-.1.65-.1l.97-.1,1.09-.07c2.29-.25,4.14-.75,5.55-1.55,1.41-.8,2.32-1.52,2.7-2.17,1.04-1.62,1.67-3.45,1.87-5.43v-.39l.26-2.83c.07-2.55-.54-4.35-1.83-5.38-1.29-1.03-3.06-1.61-5.27-1.71-1.3-.09-3.03,0-5.14.28-.75.1-1.48.23-2.17.41,1.2-2.32,2.59-4.13,4.16-5.45,2.23-1.88,4.71-3.01,7.4-3.36,2.72-.36,4.91-.35,6.58.04,2.83.59,5.06,2.28,6.67,5.03,1.61,2.77,2.32,7.32,2.12,13.64Z"/>
        <path class="cls-9" d="M237.35,133.73s-3.7.43-3.7.43v.03s-3.09.28-3.09.28c2.65-3.67,4.78-7.74,6.39-12.19,1.62-4.48,2.51-8.72,2.67-12.74.49-12.67-2.84-22.71-9.96-30.03-3.39-3.49-7.71-5.96-12.91-7.4-5.14-1.43-10.85-1.64-17.07-.64-9.32,1.49-17.39,4.91-24.26,10.22-7.59,5.8-12.8,13.36-15.69,22.69-1.58,5.06-2.42,10.58-2.54,16.55-.43,22.63,13.39,41.68,36.39,40.27,3.04-.19,7.72-.84,14.13-1.96,6.49-1.13,12.11-1.85,16.84-2.16,2.91-.19,5.84-.25,8.76-.21,1.48.02,2.98.03,4.46.15.84.07,1.82-.07,2.3-.85,2.43-3.99,6.86-23.57-2.72-22.44ZM213.98,109.66l-.43,6.97-.03.96c-.35,4.91-1.22,9.3-2.61,13.17-.52,1.57-1.7,3.22-3.52,4.96-1.81,1.72-4.17,2.72-7.09,2.99h-1.38l-1.23.1-.83.13h-.01c-3.7.32-6.54-.33-8.54-1.94-2-1.61-3.52-4.42-4.58-8.45-.48-1.75-.68-4.98-.61-9.74,1.42.23,3.17.23,5.27.01h-.01s.65-.1.65-.1l.97-.1,1.09-.07c2.29-.25,4.14-.75,5.55-1.55,1.41-.8,2.32-1.52,2.7-2.17,1.04-1.62,1.67-3.45,1.87-5.43v-.39l.26-2.83c.07-2.55-.54-4.35-1.83-5.38-1.29-1.03-3.06-1.61-5.27-1.71-1.3-.09-3.03,0-5.14.28-.75.1-1.48.23-2.17.41,1.2-2.32,2.59-4.13,4.16-5.45,2.23-1.88,4.71-3.01,7.4-3.36,2.72-.36,4.91-.35,6.58.04,2.83.59,5.06,2.28,6.67,5.03,1.61,2.77,2.32,7.32,2.12,13.64Z"/>
        <path class="cls-9" d="M151.63,105.14c-2-7.69-7.14-15.9-14.75-18.98-5.48-2.22-11.52-2.8-18.08-1.74-6.46,1.04-12.42,3.59-17.85,7.64-5.36,3.99-9.48,9.2-12.42,15.65-1.22,2.88-2.1,5.93-2.65,9.11-.54,3.17-.97,6.8-1.3,10.84,0,0-.09,1.07-.07,1.07-.03,15.61,4.1,26.23,12.48,32.03,5.01,3.51,11.55,5.04,19.68,4.54,4.81-.36,9.75-1.67,14.81-3.94,5.13-2.3,9.16-5.39,12.06-9.26l2.17-3.29c4.71-6.83,7.2-16.49,7.43-28.95.1-5.64-.41-10.53-1.49-14.71ZM128.48,126.24v.8c-.19,4.12-.8,7.78-1.8,11-.36,1.3-1.23,2.67-2.61,4.12-1.36,1.43-3.16,2.25-5.38,2.45h-1.06l-.94.09-.62.1h-.03c-2.83.23-5.01-.35-6.56-1.7-1.55-1.35-2.75-3.72-3.62-7.1-.39-1.45-.58-4.13-.59-8.04,1.01.14,2.25.14,3.67-.01v-.03s.51-.07.51-.07l.74-.07.83-.06c1.75-.19,3.16-.61,4.22-1.25,1.07-.65,1.74-1.25,2.03-1.8.77-1.35,1.22-2.87,1.35-4.54v-.32l.16-2.36c.01-2.13-.46-3.64-1.48-4.51-1.01-.87-2.36-1.36-4.06-1.48-1-.07-2.32-.01-3.94.19-.43.06-.84.13-1.26.22.88-1.9,1.91-3.38,3.09-4.46,1.7-1.55,3.55-2.46,5.62-2.74,2.07-.28,3.75-.23,5.03.1,2.17.52,3.88,1.94,5.16,4.26,1.28,2.32,1.87,6.13,1.81,11.4l-.25,5.81Z"/>
      </g>
      <path class="cls-3" d="M128.87,120.43c-.18,5.88-.61,11.92-2.19,17.6-.36,1.3-1.23,2.67-2.61,4.12-3.1,3.26-11.14,3.94-14.59.94-1.55-1.35-2.75-3.72-3.62-7.1-.39-1.45-.58-4.13-.59-8.04,0,.45,3.14,0,3.46-.05,2.24-.28,4.81-.48,6.8-1.65,2.15-1.27,2.92-3.82,3.15-6.16.22-2.21.47-5.55-1.4-7.16-1.01-.87-2.36-1.36-4.06-1.48-1-.07-2.32-.01-3.94.19-.43.06-.84.13-1.26.22.88-1.9,1.91-3.38,3.09-4.46,1.7-1.55,3.55-2.46,5.62-2.74,2.07-.28,3.75-.23,5.03.1,2.17.52,3.88,1.94,5.16,4.26,1.78,3.24,2.08,7.06,1.98,10.69,0,.24-.01.48-.02.72Z"/>
      <rect class="cls-7" x="240.84" y="88.02" width="125.46" height="2.66"/>
      <path class="cls-3" d="M214.22,109.67c-.44,7.03-1.08,14.37-3.32,21.08-1.45,4.36-5.65,7.13-10.02,7.79-3.98.61-9.21,1.14-12.57-1.56-2-1.61-3.52-4.42-4.58-8.45-.48-1.75-.68-4.98-.61-9.74,0,.57,9.02-.36,10.06-.58,1.2-.26,2.39-.62,3.46-1.23,1.41-.8,2.32-1.52,2.7-2.17,1.48-2.3,1.89-5.04,2.04-7.72.12-2.19.16-4.8-1.74-6.31-1.29-1.03-3.06-1.61-5.27-1.71-1.3-.09-3.03,0-5.14.28-.75.1-1.48.23-2.17.41,1.2-2.32,2.59-4.13,4.16-5.45,2.23-1.88,4.71-3.01,7.4-3.36,2.72-.36,4.91-.35,6.58.04,2.83.59,5.06,2.28,6.67,5.03,2.41,4.13,2.66,8.91,2.36,13.65Z"/>
      <g>
        <path class="cls-10" d="M118.57,196.37c14.15,22.21,17.71,6.51,40.48,6.72,16.33.15,42.8-.31,38.51-16.49-4.32-16.33-27.74-30.75-53.4-24.75-22.02,5.15-32.5,23.69-25.6,34.52Z"/>
        <path class="cls-4" d="M144.78,208.27c-9.21,5.78-21.41.06-26.66-8.43-3.69-6.4-3.99-14.37-1.38-21.19.39-1.33,4.08-7.75,5.73-5.78.34.44.25,1.07-.17,1.41-1.55,1.31-2.63,3.2-3.32,5.22-1.98,5.95-1.32,13.32,2.08,18.48,3.47,4.97,9.69,8.41,15.76,8.03,1.93-.14,3.72-.76,5.11-1.81,2.75-1.96,5.64,2.13,2.86,4.07h0Z"/>
        <path class="cls-5" d="M143.94,202.59c-1.78-2.58-4.3-4.8-7.08-5.75-2.73-.93-5.65-.47-7.13,1.47-1.46,1.9-1.22,5.28.77,7.49,1.59,1.76,3.95,2.54,6.02,2.51,2.11-.03,4-.79,5.89-1.54.92-.37,1.91-.8,2.28-1.72.38-.93-.28-2.49-1.39-2.67"/>
        <g>
          <path class="cls-10" d="M185.73,164.49c13.56,2.73,26.34,7,26.9,21.44.45,11.62-16.18,23.66-28.41,19.23"/>
          <path class="cls-4" d="M186.46,160.84c10.36,1.28,22.26,4.42,27.74,14.49,5.95,11.79.74,23.2-10.17,29.15-6,3.31-13.87,4.72-20.07,1.38-.73-.4-.31-1.54.5-1.38,3.04.53,6.04.2,8.81-.73,7.25-2.48,15.19-9.23,15.31-17.18-.16-5.07-2.7-9.47-7.18-12.17-4.51-2.83-10.44-4.48-16.42-6.24-4.34-1.34-3.03-7.77,1.47-7.32h0Z"/>
        </g>
        <path class="cls-5" d="M169.77,201.72c.75-3.63,2.95-7.13,6.65-9.27,3.78-2.19,9.27-2.76,13.66-.86,4.47,1.93,7.12,6.55,5.29,10.18-1.42,2.84-5.11,4.54-8.86,5.05-3.68.5-7.48.03-11.13-.43-1.74-.22-3.61-.49-4.89-1.52s-1.46-3.06.09-3.59"/>
        <g>
          <path class="cls-10" d="M192.65,173.84c-9.42-4.73-21.71-23.3-41.14-19.93-15.44,2.68-23.8,15.88-20.35,27.91"/>
          <path class="cls-4" d="M192.24,174.67c-8.07-4.07-14.06-11.26-22.1-15.31-10.12-6.04-24.18-4.73-32.37,3.85-4.6,4.7-6.88,11.66-5.32,18.25.38,1.63-2.02,2.32-2.57.74-4.06-11.54,3.5-24.06,14.45-28.35,16.14-6.69,29.14,1.6,40.58,12.52,2.64,2.42,5.25,4.89,8.16,6.65,1,.56.24,2.14-.83,1.65h0Z"/>
        </g>
        <g>
          <path class="cls-10" d="M139.44,198.11c.87,3.1,5.25,16.13,21.68,10.75,5.78-1.89,9.32-7.65,10.47-9.96"/>
          <path class="cls-4" d="M140.33,197.86c2.08,6.4,7.42,11.41,14.39,10.68,7.08-.35,12.23-4.12,15.99-10.07.6-1.02,2.21-.22,1.75.88-3.01,7.62-9.32,12.02-17.58,12.35-8.38.62-14.75-5.49-16.34-13.33-.25-1.12,1.41-1.59,1.78-.5h0Z"/>
        </g>
      </g>
      <path class="cls-3" d="M132.07,165.96c0,7.14-9.25,12.92-20.67,12.92s-23.94-8.44-28.76-20.08l18.59,7.83,18.75,2.75,12.08-3.42Z"/>
    </g>
    <g>
      <g>
        <g>
          <path d="M247.35,67.57c-.89,0-1.67-.64-1.83-1.53-.17-.95.41-1.87,1.33-2.13l31.64-8.85c.17-.05.33-.07.5-.07.45,0,.9.17,1.24.47.47.42.7,1.06.6,1.69l-.98,6.13c-.13.84-.83,1.49-1.68,1.56l-30.66,2.71c-.06,0-.11,0-.17,0Z"/>
          <path class="cls-11" d="M278.99,56.85h0M278.99,56.85l-.98,6.13-30.66,2.71,31.64-8.85M278.99,53.12c-.05,0-.11,0-.17,0-.32.01-.63.07-.92.16l-31.56,8.82c-1.86.52-3.01,2.37-2.67,4.27.33,1.79,1.88,3.06,3.67,3.06.11,0,.22,0,.33-.01l30.66-2.71c1.7-.15,3.09-1.44,3.36-3.13l.96-5.98c.05-.24.07-.49.07-.74,0-2.05-1.65-3.71-3.69-3.73-.01,0-.03,0-.04,0h0ZM278.99,60.59h0,0Z"/>
        </g>
        <g>
          <path d="M227.03,64.57c-.43,0-.87-.15-1.22-.45-.72-.62-.86-1.69-.32-2.47l26.66-38.82c.35-.51.93-.81,1.54-.81.04,0,.09,0,.13,0l13.85.99c.74.05,1.38.54,1.63,1.24.25.7.06,1.48-.49,1.99l-40.51,37.83c-.36.33-.82.5-1.27.5Z"/>
          <path class="cls-11" d="M253.68,23.88l3,.21,10.85.78-40.51,37.83,26.66-38.82M253.68,20.15c-1.22,0-2.38.6-3.08,1.62l-26.66,38.82c-1.08,1.57-.8,3.7.64,4.94.7.6,1.57.9,2.44.9.92,0,1.83-.34,2.55-1.01l40.51-37.83c1.09-1.01,1.47-2.57.97-3.97-.5-1.4-1.77-2.37-3.25-2.48l-10.85-.78-3-.21c-.09,0-.18,0-.27,0h0Z"/>
        </g>
      </g>
      <g>
        <polygon class="cls-9" points="247.35 64.69 278.01 61.98 278.99 55.84 247.35 64.69"/>
        <polygon class="cls-9" points="225.97 62.11 266.48 24.28 255.63 23.51 252.63 23.29 225.97 62.11"/>
      </g>
    </g>
    <g>
      <g>
        <g>
          <path d="M154.59,69.47l-30.01-2.66c-.85-.08-1.54-.72-1.68-1.56l-.96-6c-.1-.63.13-1.26.6-1.69.35-.31.79-.47,1.24-.47.17,0,.34.02.5.07l30.97,8.66c.93.26,1.51,1.18,1.33,2.13-.16.89-.94,1.53-1.84,1.53-.05,0-.11,0-.17,0Z"/>
          <path class="cls-11" d="M123.78,58.95l30.97,8.66-30.01-2.66-.96-6M123.78,55.22c-.91,0-1.79.33-2.49.95-.95.85-1.4,2.12-1.2,3.38l.96,6c.27,1.69,1.65,2.98,3.36,3.13l30.01,2.66c.11,0,.22.01.33.01,1.79,0,3.34-1.28,3.67-3.06.35-1.9-.81-3.75-2.67-4.27l-30.97-8.66c-.33-.09-.67-.14-1.01-.14h0Z"/>
        </g>
        <g>
          <path d="M174.66,66.54c-.46,0-.92-.17-1.27-.5l-39.66-37.03c-.54-.51-.73-1.29-.49-1.99s.89-1.19,1.63-1.24l13.56-.97s.09,0,.13,0c.61,0,1.19.3,1.54.81l26.1,38c.54.79.4,1.85-.32,2.47-.35.3-.78.45-1.22.45Z"/>
          <path class="cls-11" d="M148.56,26.67l26.1,38-39.66-37.03,10.62-.76,2.94-.21M148.56,22.94c-.09,0-.18,0-.27,0l-2.94.21-10.62.76c-1.48.11-2.76,1.08-3.25,2.48-.5,1.4-.11,2.96.97,3.97l39.66,37.03c.72.67,1.63,1.01,2.55,1.01.87,0,1.73-.3,2.44-.9,1.44-1.24,1.72-3.37.64-4.94l-26.1-38c-.7-1.02-1.85-1.62-3.08-1.62h0Z"/>
        </g>
      </g>
      <g>
        <polygon class="cls-9" points="154.76 66.62 124.74 63.96 123.78 57.96 154.76 66.62"/>
        <polygon class="cls-9" points="175.69 64.1 136.03 27.06 146.66 26.3 149.59 26.09 175.69 64.1"/>
      </g>
    </g>
    <g>
      <polygon class="cls-11" points="200.95 56.14 190.68 60.75 194.47 51.38 186.41 42.6 197.34 43.57 203.01 32.74 206.64 43.69 219.93 43.69 208.56 51.03 211.19 62.34 200.95 56.14"/>
      <polygon class="cls-8" points="197.9 44.22 201.97 36.44 204.54 44.22 213.75 44.22 205.82 49.34 207.75 57.64 200.47 53.22 193.4 56.4 195.97 50.04 189.97 43.51 197.9 44.22"/>
    </g>
  </g>
</svg>