<?xml version="1.0" encoding="UTF-8"?>
<svg id="Ebene_5" data-name="Ebene 5" xmlns="http://www.w3.org/2000/svg" viewBox="0 0 384.76 163.48">
  <defs>
    <style>
      .cls-1 {
        fill: #1d1d1b;
      }

      .cls-2 {
        fill: #fff;
      }
    </style>
  </defs>
  <path class="cls-1" d="M320.8,104.85c0-4.81,0-10.79-5.82-10.79l-8.2.11c.8-.96,1.67-1.98,2.58-3.05l2.38-2.59c5.19-5.65,7.62-9.46,8.11-12.76l.15-7.3v-.2s.06-1.92.06-1.92c0-3.35-1.69-5.07-2.69-5.79-1.2-.86-2.7-1.33-4.7-1.38l-6.73.09c-13.15.21-21.59.31-25.06.31h-5.21c-.35-.08-.73-.12-1.15-.12l-1.67.07-.5-.5-2.14-.03c-4.06-.06-10.09-.09-18.09-.09h-2.45l-.9,1.06-4.64-.6c-.46-.05-1.29-.1-2.5-.13-.5-.01-.88-.02-.99-.03l-1.15-.13c-5.23,0-9.45.08-12.55.25h-4.22l-1.26,3.49c-.32.88-.53,2-.58,4.56-.28-.34-.54-.69-.84-1.02-2.46-2.72-5.56-4.87-9.22-6.38-3.57-1.48-7.54-2.23-11.81-2.23-6.39,0-12.12,1.45-17.02,4.29-4.06,2.33-7.22,5.47-9.51,9.36-.89-1.52-1.94-3.06-3.2-4.64-1.76-2.33-4.15-4.25-7.12-5.71-4.45-2.19-9.42-3.3-14.79-3.3s-10.47,1.18-15.14,3.51c-2.09,1.04-3.94,2.35-5.65,3.82-.15-1.67-.76-2.87-1.31-3.59-.7-.92-2.33-2.47-5.37-2.47l-.64.03-11.54-.12-16.79.16-.99-.04c-3.55,0-9.49,0-9.49,5.66,0,0-.19,43.05-.19,43.07-.01,3.2-.42,8.7,2.77,9.41,1.19.27,2.49.14,3.63.13,1.78-.02,3.56-.04,5.34-.05,3.47-.02,6.94-.02,10.41-.05.49,0,.97,0,1.46-.01l.54-.03c2.53-.28,5.26-2.35,5.26-6.24v-2.75s.03-1.3.03-1.3l-.13-7.09c2.46-.09,4.79-.19,6.97-.31,0,0,2.02.06,2.07.05,1.86,6.05,5.32,10.76,10.36,14.03,4.63,3.04,10.49,4.58,17.47,4.58,3.99-.05,8.06-.77,12.08-2.16,4.39-1.51,7.89-3.77,10.42-6.7l1.57-2.07c.66-.84,1.24-1.75,1.78-2.7.23.41.42.87.67,1.26l2.38,2.55c1.5,1.93,3.18,3.62,5.03,5.03l2.76,1.84s.1.05.14.08c3.79,2.15,8.38,3.24,13.64,3.24,2.03,0,4.94-.21,8.9-.65,3.53-.39,6.56-.59,9.01-.59s4.89.15,7.3.45l1.53.19,1.39-.66c1.77-.84,3.03-2.27,3.53-4.03l.2-.71v-.52c5.06,4.14,11.87,6.27,20.28,6.27s14.64-1.92,19.35-5.66v.12l.92,1.35c.88,1.29,1.95,2.22,3.18,2.74.96.41,2.07.61,3.42.61l37.06-.31h.8c1.76,0,3.18-.38,4.35-1.18,1.01-.69,2.7-2.33,2.69-5.78l-.06-5.32Z"/>
  <g>
    <path class="cls-2" d="M121.36,63.16l-.03,2.88c0,2.83-.04,5.34-.12,7.55-2.41.21-5.71.31-9.9.31l-7.15.03v.9l-.06,2.72c0,.72.03,1.42.09,2.1,5.16-.43,8.98-.65,11.47-.65s4.01.19,4.56.56v10.37c0,.68-.13,1.13-.4,1.36s-.68.34-1.24.34h-.4l-1.67-.06c-3.69.21-7.79.36-12.29.46l.22,12.32-.03,1.05v2.91c0,.62-.19.95-.56.99l-17.7.15c-.04-.12-.64.29-.64-.83,0-1.36.05-2.52.05-3.47l.18-41.23s-.28-1.84.92-1.89c5.42-.22,33.26-.36,33.26-.36.58,0,.96.13,1.16.39s.29.62.29,1.1Z"/>
    <path class="cls-2" d="M122.29,85.16l.06-.68c.25-2.58.58-4.86.99-6.85.41-1.99,1.08-3.85,2.01-5.59,2.21-3.82,5.29-6.71,9.24-8.68,3.95-1.97,8.21-2.96,12.78-2.96s8.72.92,12.46,2.75c2.23,1.09,3.97,2.48,5.23,4.15,2.41,3.01,4,5.79,4.77,8.32.76,2.54,1.15,5.47,1.15,8.79,0,7.39-1.53,13.02-4.58,16.9l-1.42,1.89c-1.92,2.23-4.63,3.95-8.14,5.15-3.51,1.21-6.98,1.83-10.43,1.87-5.9,0-10.74-1.24-14.51-3.71-6.4-4.15-9.59-11.26-9.59-21.35Z"/>
    <path class="cls-2" d="M219.43,97.1l2.01-.06c1.4.06,2.1.52,2.1,1.36l-.03.34v.31c-.02.14-.03.39-.03.74v1.15l.03.4.03,3-.03.8v1.52l-.03,1.08.03.53v.87c-.08.29-.32.53-.71.71-2.64-.33-5.29-.5-7.95-.5s-5.86.21-9.59.62c-3.73.41-6.51.62-8.33.62-14.17,0-23.3-11.9-23.3-25.28,0-3.51.47-6.68,1.42-9.53,1.73-5.2,4.92-9.13,9.56-11.79,4.13-2.39,8.92-3.59,14.39-3.59,3.59,0,6.85.61,9.79,1.83,2.94,1.22,5.38,2.9,7.32,5.04,4.02,4.46,6.03,10.06,6.03,16.8,0,2.15-.39,4.38-1.18,6.72-.78,2.33-1.87,4.44-3.25,6.31h1.7Z"/>
    <path class="cls-2" d="M270.77,84.45l-.09,8.7c0,2.66-.43,5.01-1.28,7.06-.86,2.04-1.99,3.69-3.39,4.95-3.82,3.47-9.46,5.2-16.93,5.2s-13.28-1.82-17.42-5.45c-1.46-1.26-2.7-2.89-3.7-4.91-1-2.01-1.6-4.29-1.81-6.82.1-8.62.15-16.6.15-23.92-.1,0-.15-1.08-.15-3.25s.09-3.51.28-4.02h.65c3.03-.17,7.17-.25,12.41-.25.37.08,1.05.13,2.03.15s1.66.05,2.03.09l.96.12c.14,4.08.24,9.71.28,16.87l-.19,12.44c0,4.13,1.2,6.19,3.59,6.19,1.01,0,1.86-.44,2.55-1.33.69-.89,1.06-1.89,1.1-3l.12-.31.09-10.43.03-.93c0-4.79-.06-9.41-.19-13.86l-.06-2.26c-.04-.91-.06-1.72-.06-2.44s.11-1.22.34-1.49c7.96,0,13.97.03,18.01.09.14.14.33.28.56.4h-.03l.34.22c-.17,3.9-.25,8.91-.25,15.04v5.32l.03,1.83Z"/>
    <path class="cls-2" d="M314.71,65.76l-.09,6.19v.4c-.31,2.06-2.57,5.38-6.78,9.96l-2.38,2.6c-2.66,3.14-4.82,5.71-6.47,7.74l-3.53,4.3h1.64l17.95-.25c.31,0,.46,1.84.46,5.51v3.47l.06,2.01c0,.66-.13,1.08-.39,1.25s-.72.26-1.38.26h-.8l-37.11.31c-.58,0-1.01-.06-1.3-.19s-.59-.41-.9-.87c0-5.63-.07-9.14-.22-10.52l.5-.4,4.36-5.29c6.4-8,11.36-14.12,14.89-18.35l-9.13.09-2.29.06c-2.25.06-4.51.09-6.78.09-.23-.12-.32-.43-.29-.93.03-.5.03-.89-.02-1.18v-.59l.03-.25v-1.83l-.28-7.09.03-.19s.13.04.28.12h6.08c3.52,0,11.9-.1,25.14-.31l6.72-.09c.7.02,1.22.15,1.55.39s.5.74.5,1.5l-.06,1.73v.31Z"/>
    <path class="cls-1" d="M146.57,97.51l.4-.02h.6l.67.05c1.41,0,2.54-.37,3.39-1.1.85-.73,1.39-1.45,1.61-2.15.6-1.72.95-3.71,1.04-5.95v-.44l.1-3.17c0-2.88-.4-4.99-1.21-6.34-.81-1.35-1.89-2.24-3.26-2.68-.81-.28-1.86-.41-3.17-.41s-2.5.37-3.58,1.11-1.96,1.97-2.65,3.69-1.04,3.91-1.04,6.56.15,4.44.44,5.39c.58,1.95,1.38,3.35,2.4,4.19,1.02.85,2.43,1.27,4.25,1.27Z"/>
    <path class="cls-1" d="M198.22,97.51l.4-.02h.6l.67.05c1.41,0,2.54-.37,3.39-1.1s1.39-1.45,1.61-2.15c.6-1.72.95-3.71,1.04-5.95v-.44l.1-3.17c0-2.88-.4-4.99-1.21-6.34-.81-1.35-1.89-2.24-3.26-2.68-.81-.28-1.86-.41-3.17-.41s-2.5.37-3.58,1.11c-1.07.74-1.96,1.97-2.65,3.69-.69,1.72-1.04,3.91-1.04,6.56s.15,4.44.44,5.39c.58,1.95,1.38,3.35,2.4,4.19,1.02.85,2.43,1.27,4.25,1.27Z"/>
    <path class="cls-2" d="M193.76,87.69h.32s.48,0,.48,0l.54.02c1.12,0,2.03-.15,2.7-.45.68-.3,1.11-.59,1.29-.87.48-.7.76-1.51.83-2.42v-.18l.08-1.29c0-1.17-.32-2.03-.96-2.58-.64-.55-1.51-.91-2.6-1.09-.64-.11-1.49-.17-2.53-.17s-1.99.15-2.85.45c-.86.3-1.56.8-2.12,1.51-.55.7-.83,1.59-.83,2.67s.12,1.81.35,2.2c.46.79,1.1,1.36,1.91,1.71s1.94.52,3.39.52Z"/>
    <path class="cls-2" d="M141.88,87.69h.32s.48,0,.48,0l.54.02c1.12,0,2.03-.15,2.7-.45s1.11-.59,1.29-.87c.48-.7.76-1.51.83-2.42v-.18l.08-1.29c0-1.17-.32-2.03-.96-2.58s-1.51-.91-2.6-1.09c-.64-.11-1.49-.17-2.53-.17s-1.99.15-2.85.45c-.86.3-1.56.8-2.12,1.51-.55.7-.83,1.59-.83,2.67s.12,1.81.35,2.2c.46.79,1.1,1.36,1.91,1.71.81.34,1.94.52,3.39.52Z"/>
  </g>
  <path class="cls-1" d="M229.3,87.43c4.46-25.85-4.39-34.77-4.39-34.77-.34-.39-.66-.8-1.03-1.18-3.01-3.08-6.84-5.25-11.35-6.48-4.35-1.18-9.16-1.34-14.28-.49-7.5,1.24-14.13,4.11-19.72,8.46-4.54,3.5-8.06,7.79-10.61,12.75-.92-1.67-2-3.33-3.31-5-1.81-2.47-4.29-4.35-7.35-5.58-4.54-1.82-9.56-2.28-14.89-1.39-5.24.87-10.13,3-14.54,6.3-1.94,1.46-3.67,3.16-5.24,5.03-2.5,2.96-4.23,5.2-5.5,9.26-4.54,14.56-4.07,34.47,7.51,42.77,4.2,3.01,9.62,4.4,16.23,4.1,3.85-.23,7.83-1.21,11.84-2.95,4.44-1.92,8.07-4.66,10.74-8.15l1.68-2.47c.71-1,1.34-2.1,1.93-3.24.24.46.42.97.68,1.41l2.46,2.77c1.55,2.13,3.31,3.97,5.27,5.49l2.94,1.98c.05.03.1.06.16.09,4.1,2.3,9.18,3.35,15.15,3.08,2.33-.11,5.72-.52,10.4-1.26,4.22-.67,7.89-1.09,10.89-1.23,4.01-.19,9.52,1.32,13.36-.88,6.19-3.56,9.36-28.44.97-28.42ZM233.26,40.81"/>
  <g>
    <path class="cls-2" d="M118.66,87.19l.06-.74c.23-2.79.53-5.29.9-7.48.38-2.2.99-4.3,1.83-6.29,2.03-4.45,4.87-8.05,8.57-10.8,3.75-2.79,7.86-4.55,12.32-5.27,4.53-.73,8.7-.33,12.48,1.2,2.28.92,4.06,2.27,5.34,4.03,2.47,3.17,4.09,6.2,4.84,9.07.75,2.88,1.1,6.26,1.03,10.15-.16,8.6-1.88,15.27-5.13,19.98l-1.5,2.27c-2,2.67-4.78,4.8-8.32,6.39-3.49,1.57-6.9,2.47-10.22,2.72-5.61.35-10.12-.71-13.58-3.13-5.78-4-8.63-11.33-8.61-22.1Z"/>
    <path class="cls-2" d="M221.61,90.94l2.55-.3c1.79-.08,2.66.42,2.62,1.51l-.06.44-.02.4c-.03.19-.06.5-.08.95l-.06,1.46.02.51-.11,3.82-.08,1.02-.08,1.92-.09,1.37v.66s-.03,1.1-.03,1.1c-.12.37-.43.69-.94.96-3.32-.21-6.63-.2-9.92,0-3.26.21-7.14.71-11.62,1.49-4.42.77-7.65,1.22-9.75,1.35-15.87.97-25.41-12.17-25.11-27.79.08-4.12.66-7.93,1.75-11.42,2-6.44,5.59-11.66,10.83-15.66,4.74-3.66,10.31-6.02,16.74-7.05,4.29-.69,8.23-.55,11.78.44,3.59,1,6.57,2.7,8.91,5.11,4.91,5.05,7.21,11.98,6.87,20.72-.11,2.77-.72,5.7-1.84,8.79-1.11,3.07-2.58,5.88-4.41,8.41l2.14-.19Z"/>
    <path class="cls-1" d="M140.47,98.27l.43-.07.65-.06h.73c1.53-.14,2.77-.7,3.71-1.69.95-1,1.55-1.94,1.8-2.84.69-2.22,1.11-4.75,1.24-7.59v-.55s.17-4.01.17-4.01c.04-3.64-.37-6.27-1.25-7.87s-2.06-2.58-3.56-2.94c-.88-.23-2.04-.26-3.47-.07s-2.71.82-3.88,1.89c-1.16,1.07-2.12,2.72-2.87,4.94-.75,2.22-1.14,4.96-1.16,8.22-.02,3.25.11,5.44.41,6.57.6,2.33,1.43,3.97,2.5,4.9s2.58,1.33,4.53,1.16Z"/>
    <path class="cls-1" d="M196.22,94.23l.57-.09.85-.07h.95c2.01-.18,3.64-.87,4.89-2.06,1.26-1.2,2.07-2.34,2.43-3.42.96-2.67,1.56-5.7,1.8-9.09l.02-.66.3-4.81c.14-4.36-.35-7.5-1.46-9.41-1.11-1.9-2.65-3.06-4.6-3.47-1.15-.27-2.66-.28-4.54-.03-1.86.24-3.57,1.02-5.11,2.32-1.54,1.29-2.82,3.28-3.86,5.95-1.03,2.66-1.59,5.94-1.7,9.83-.1,3.89.03,6.5.4,7.84.73,2.78,1.78,4.72,3.16,5.83s3.34,1.56,5.89,1.34Z"/>
    <path class="cls-2" d="M190.37,80.34l.45-.06.67-.07.75-.05c1.58-.17,2.86-.52,3.83-1.07.97-.55,1.6-1.05,1.86-1.5.72-1.12,1.15-2.38,1.29-3.75v-.27s.18-1.95.18-1.95c.05-1.76-.37-3-1.26-3.71-.89-.71-2.11-1.11-3.64-1.18-.9-.06-2.09,0-3.55.19s-2.79.57-3.99,1.16c-1.2.59-2.19,1.45-2.97,2.57s-1.2,2.47-1.24,4.06.09,2.63.4,3.16c.61,1.09,1.46,1.83,2.56,2.22,1.11.39,2.66.47,4.67.26Z"/>
    <path class="cls-2" d="M135.55,86.62l.34-.05.51-.05.57-.04c1.21-.13,2.18-.42,2.91-.86.74-.45,1.2-.86,1.4-1.24.53-.93.84-1.98.93-3.13v-.22s.11-1.63.11-1.63c.01-1.47-.32-2.51-1.02-3.11s-1.63-.94-2.8-1.02c-.69-.05-1.6-.01-2.72.13-1.11.14-2.13.45-3.04.94s-1.66,1.19-2.24,2.13c-.59.93-.88,2.06-.89,3.39,0,1.32.11,2.21.35,2.65.48.92,1.15,1.55,2,1.88s2.05.42,3.58.25Z"/>
  </g>
</svg>