<?xml version="1.0" encoding="UTF-8"?>
<svg id="Ebene_6" data-name="Ebene 6" xmlns="http://www.w3.org/2000/svg" viewBox="0 0 387.95 388.52">
  <defs>
    <style>
      .cls-1 {
        fill: #c9e8fb;
      }

      .cls-2 {
        fill: #1d1d1b;
      }

      .cls-3 {
        fill: #1d1d1b;
      }

      .cls-4 {
        fill: #ffd618;
      }

      .cls-5 {
        fill: #fff;
      }

      .cls-6 {
        fill: #f7d1ca;
      }

      .cls-7 {
        fill: #211f1f;
      }

      .cls-8 {
        stroke: #000;
        stroke-miterlimit: 10;
        stroke-width: 13px;
      }
    </style>
  </defs>
  <g>
    <circle class="cls-1" cx="193.06" cy="194.04" r="187.09"/>
    <path class="cls-2" d="M380.8,194.04c.32,71.9-39.73,142.73-105.32,174.26-108.35,52.85-236.21-14.34-266.43-128.17C-33.1,82.1,128.43-51.5,275.68,19.35c65.41,32.06,105.6,102.57,105.12,174.69h0ZM379.5,194.04c.31-61.48-33.76-118.84-85.55-151.01C191.8-21.51,56.22,25.61,18.67,141.14c-13.17,39.97-12.32,84.46,3.56,123.66,37.3,94.69,148.11,134.79,240.23,96.79,68.09-27.13,117.64-93.08,117.04-167.54h0Z"/>
  </g>
  <g>
    <path class="cls-3" d="M124.33,159.47s.06-.05.05-.1-.05-.07-.09-.06-.07.05-.06.1.06.07.1.06Z"/>
    <path class="cls-3" d="M133.18,157.68c.2-.05.32-.27.27-.49s-.26-.36-.46-.31-.32.27-.27.49.26.36.46.31Z"/>
    <path class="cls-3" d="M141.99,155.78c.31-.07.5-.41.41-.75-.08-.34-.4-.55-.71-.47s-.49.4-.41.74.4.55.71.48Z"/>
    <path class="cls-3" d="M150.79,153.83c.39-.09.62-.51.52-.94-.1-.42-.5-.7-.89-.6s-.62.52-.52.94c.1.43.5.7.89.6Z"/>
    <path class="cls-3" d="M159.58,151.77c.42-.1.66-.55.55-1.01-.11-.46-.54-.74-.95-.64s-.67.55-.56,1.01c.11.46.54.74.95.64Z"/>
    <path class="cls-3" d="M168.33,149.63c.4-.1.64-.53.54-.98-.11-.44-.52-.72-.92-.63s-.64.54-.54.98c.11.44.52.72.92.62Z"/>
    <path class="cls-3" d="M177.07,147.41c.35-.09.56-.46.46-.85-.09-.38-.44-.62-.8-.54-.35.08-.56.46-.46.84.09.38.45.63.8.54Z"/>
    <path class="cls-3" d="M185.79,145.08c.24-.06.39-.32.32-.59-.06-.26-.32-.43-.56-.37s-.38.32-.32.59c.06.26.31.43.55.38Z"/>
    <path class="cls-3" d="M194.48,142.68c.09-.02.15-.13.13-.23s-.12-.17-.22-.14-.15.12-.12.23.12.17.21.15Z"/>
    <path class="cls-3" d="M117.97,171.54c.21-.05.34-.29.28-.52s-.28-.38-.49-.33-.34.28-.28.52.28.39.49.34Z"/>
    <path class="cls-3" d="M126.83,169.82c.42-.1.67-.55.56-1.01s-.54-.74-.95-.64c-.42.1-.66.55-.56,1.01.11.46.54.74.95.64Z"/>
    <path class="cls-3" d="M135.68,168.08c.6-.14.96-.8.8-1.46-.16-.66-.78-1.08-1.38-.93-.61.15-.96.8-.8,1.46.16.66.78,1.08,1.38.93Z"/>
    <path class="cls-3" d="M144.51,166.21c.73-.18,1.16-.96.96-1.76-.19-.8-.93-1.3-1.66-1.12s-1.16.96-.96,1.75c.19.79.93,1.3,1.66,1.12Z"/>
    <path class="cls-3" d="M153.31,164.26c.8-.19,1.29-1.07,1.08-1.95s-1.04-1.44-1.85-1.24-1.29,1.07-1.08,1.95c.21.89,1.04,1.44,1.85,1.25Z"/>
    <path class="cls-3" d="M162.1,162.23c.84-.2,1.35-1.12,1.12-2.05s-1.09-1.51-1.93-1.31-1.35,1.12-1.13,2.05,1.09,1.52,1.94,1.31Z"/>
    <path class="cls-3" d="M170.85,160.06c.82-.2,1.31-1.09,1.09-1.98s-1.06-1.46-1.87-1.26-1.31,1.08-1.09,1.98c.22.9,1.05,1.47,1.87,1.27Z"/>
    <path class="cls-3" d="M179.59,157.84c.77-.18,1.22-1.01,1.02-1.85s-.99-1.37-1.75-1.18c-.77.18-1.22,1.02-1.02,1.85.2.84.99,1.37,1.75,1.18Z"/>
    <path class="cls-3" d="M188.3,155.48c.64-.16,1.03-.85.86-1.56-.17-.7-.83-1.15-1.47-1s-1.03.86-.86,1.56.83,1.15,1.48,1Z"/>
    <path class="cls-3" d="M196.99,153.05c.49-.12.77-.64.64-1.17-.13-.53-.62-.87-1.1-.75s-.77.64-.64,1.17c.13.53.62.87,1.11.75Z"/>
    <path class="cls-3" d="M205.66,150.57c.3-.07.47-.39.39-.72-.08-.32-.38-.53-.68-.45s-.47.39-.39.71c.08.33.38.53.67.46Z"/>
    <path class="cls-3" d="M214.31,147.97c.05-.01.09-.07.07-.13s-.07-.09-.12-.08c-.05.01-.08.07-.07.13s.07.1.12.08Z"/>
    <path class="cls-3" d="M102.66,184.97s.02-.02.02-.03c0-.01-.02-.02-.03-.02s-.02.02-.02.03c0,.02.02.02.03.02Z"/>
    <path class="cls-3" d="M111.55,183.41c.29-.07.47-.39.4-.72-.08-.32-.38-.52-.68-.45s-.47.39-.4.71.38.53.68.46Z"/>
    <path class="cls-3" d="M120.45,181.83c.56-.14.9-.75.75-1.37-.15-.62-.73-1.01-1.29-.87s-.9.75-.75,1.36c.15.62.73,1.01,1.29.87Z"/>
    <path class="cls-3" d="M129.32,180.17c.79-.19,1.27-1.05,1.06-1.92-.21-.87-1.02-1.41-1.81-1.22-.79.19-1.27,1.05-1.06,1.91s1.02,1.42,1.81,1.23Z"/>
    <path class="cls-3" d="M138.18,178.43c.98-.24,1.56-1.3,1.3-2.38s-1.26-1.75-2.24-1.51-1.57,1.3-1.31,2.37c.26,1.08,1.27,1.76,2.24,1.52Z"/>
    <path class="cls-3" d="M147.01,176.61c1.13-.27,1.8-1.49,1.5-2.73-.3-1.24-1.45-2.02-2.58-1.74s-1.8,1.49-1.5,2.73c.3,1.24,1.45,2.02,2.58,1.74Z"/>
    <path class="cls-3" d="M155.82,174.69c1.22-.3,1.95-1.62,1.63-2.96-.32-1.34-1.57-2.18-2.8-1.89-1.22.29-1.95,1.62-1.63,2.95.32,1.34,1.57,2.19,2.79,1.89Z"/>
    <path class="cls-3" d="M164.61,172.65c1.26-.3,2.01-1.67,1.68-3.06-.33-1.38-1.63-2.26-2.89-1.95-1.26.3-2.02,1.67-1.68,3.06.33,1.39,1.63,2.26,2.89,1.95Z"/>
    <path class="cls-3" d="M173.36,170.49c1.24-.3,1.97-1.64,1.64-2.99-.33-1.35-1.59-2.21-2.83-1.91s-1.97,1.64-1.64,2.99c.33,1.35,1.59,2.21,2.83,1.91Z"/>
    <path class="cls-3" d="M182.1,168.24c1.17-.28,1.87-1.55,1.56-2.83-.31-1.28-1.5-2.09-2.67-1.81-1.17.28-1.87,1.55-1.56,2.83.31,1.28,1.51,2.09,2.68,1.81Z"/>
    <path class="cls-3" d="M190.8,165.86c1.03-.25,1.65-1.37,1.38-2.5s-1.33-1.85-2.36-1.6c-1.03.25-1.65,1.37-1.38,2.5s1.33,1.85,2.37,1.6Z"/>
    <path class="cls-3" d="M199.48,163.4c.86-.21,1.37-1.14,1.14-2.08-.23-.94-1.11-1.54-1.96-1.33-.86.21-1.37,1.14-1.14,2.08.23.94,1.11,1.54,1.97,1.33Z"/>
    <path class="cls-3" d="M208.14,160.86c.65-.16,1.03-.86.86-1.56-.17-.7-.83-1.15-1.47-.99s-1.03.85-.86,1.55c.17.71.84,1.15,1.48,1Z"/>
    <path class="cls-3" d="M216.78,158.24c.39-.09.62-.51.52-.94-.1-.42-.5-.7-.89-.6-.39.09-.62.52-.51.94.1.43.5.7.89.6Z"/>
    <path class="cls-3" d="M225.42,155.57c.1-.03.17-.14.14-.26s-.14-.19-.25-.16-.17.14-.14.26.14.2.25.17Z"/>
    <path class="cls-3" d="M105.1,195.13c.29-.07.47-.39.4-.71s-.38-.53-.68-.46-.47.39-.4.72.38.53.68.45Z"/>
    <path class="cls-3" d="M114.02,193.65c.62-.15.99-.82.82-1.49s-.8-1.11-1.41-.96c-.62.15-.98.82-.82,1.5.16.68.8,1.1,1.41.95Z"/>
    <path class="cls-3" d="M122.92,192.1c.9-.22,1.44-1.19,1.2-2.18s-1.16-1.61-2.06-1.39-1.44,1.19-1.2,2.18c.24.98,1.16,1.61,2.06,1.39Z"/>
    <path class="cls-3" d="M131.81,190.5c1.15-.28,1.84-1.53,1.54-2.79-.31-1.27-1.49-2.06-2.64-1.78s-1.84,1.53-1.54,2.79c.3,1.26,1.49,2.06,2.64,1.79Z"/>
    <path class="cls-3" d="M140.67,188.78c1.36-.33,2.16-1.8,1.8-3.28-.36-1.49-1.75-2.43-3.1-2.1-1.35.33-2.16,1.8-1.81,3.28.36,1.48,1.75,2.43,3.1,2.1Z"/>
    <path class="cls-3" d="M149.51,186.99c1.51-.37,2.42-2.01,2.02-3.67s-1.96-2.72-3.47-2.35c-1.52.37-2.42,2.01-2.02,3.67.4,1.66,1.95,2.71,3.47,2.35Z"/>
    <path class="cls-3" d="M158.34,185.12c1.64-.4,2.61-2.17,2.18-3.96-.43-1.8-2.11-2.93-3.75-2.53-1.64.39-2.61,2.17-2.18,3.96.43,1.79,2.11,2.93,3.75,2.54Z"/>
    <path class="cls-3" d="M167.12,183.08c1.68-.4,2.68-2.23,2.23-4.06-.44-1.84-2.16-3-3.84-2.6-1.68.41-2.68,2.23-2.24,4.06.44,1.84,2.16,3,3.84,2.6Z"/>
    <path class="cls-3" d="M175.88,180.91c1.65-.4,2.64-2.19,2.2-4-.44-1.81-2.13-2.95-3.78-2.56s-2.64,2.19-2.2,4c.44,1.81,2.13,2.95,3.78,2.55Z"/>
    <path class="cls-3" d="M184.6,178.64c1.57-.38,2.51-2.08,2.09-3.8-.42-1.72-2.03-2.81-3.6-2.43-1.57.38-2.51,2.08-2.09,3.8.41,1.72,2.02,2.81,3.59,2.43Z"/>
    <path class="cls-3" d="M193.3,176.23c1.42-.34,2.27-1.89,1.9-3.44-.38-1.56-1.83-2.54-3.26-2.2s-2.27,1.88-1.9,3.44,1.84,2.54,3.26,2.2Z"/>
    <path class="cls-3" d="M201.97,173.72c1.22-.29,1.95-1.62,1.63-2.96-.32-1.34-1.58-2.19-2.8-1.89-1.22.29-1.95,1.62-1.63,2.96.32,1.34,1.57,2.19,2.79,1.89Z"/>
    <path class="cls-3" d="M210.62,171.13c.98-.24,1.57-1.3,1.31-2.37s-1.26-1.75-2.25-1.51c-.98.24-1.56,1.3-1.3,2.37.26,1.07,1.26,1.75,2.24,1.52Z"/>
    <path class="cls-3" d="M219.25,168.49c.71-.17,1.14-.94.95-1.72-.19-.78-.92-1.27-1.63-1.1-.71.17-1.13.94-.95,1.72.19.78.92,1.27,1.63,1.1Z"/>
    <path class="cls-3" d="M227.87,165.76c.4-.1.64-.53.53-.97-.11-.44-.52-.72-.92-.63s-.64.54-.53.98c.11.44.51.72.92.62Z"/>
    <path class="cls-3" d="M236.49,163.01c.08-.02.13-.1.11-.19s-.1-.15-.18-.13-.13.11-.11.2.11.14.19.12Z"/>
    <path class="cls-3" d="M98.62,206.69c.21-.05.34-.28.28-.52-.06-.23-.28-.38-.49-.33s-.34.28-.29.52.28.38.49.33Z"/>
    <path class="cls-3" d="M107.55,205.27c.56-.14.9-.75.75-1.36-.15-.62-.73-1.01-1.29-.87s-.9.75-.75,1.37c.15.62.73,1.01,1.29.87Z"/>
    <path class="cls-3" d="M116.47,203.82c.9-.22,1.44-1.19,1.2-2.18-.24-.99-1.16-1.61-2.06-1.39-.9.22-1.44,1.19-1.2,2.18s1.16,1.61,2.06,1.39Z"/>
    <path class="cls-3" d="M125.39,202.32c1.21-.29,1.93-1.6,1.61-2.92s-1.56-2.16-2.76-1.87c-1.21.29-1.93,1.6-1.61,2.93s1.56,2.16,2.77,1.87Z"/>
    <path class="cls-3" d="M134.28,200.74c1.48-.36,2.36-1.95,1.97-3.57-.39-1.62-1.9-2.64-3.38-2.29-1.48.36-2.36,1.96-1.97,3.58.39,1.62,1.9,2.64,3.38,2.28Z"/>
    <path class="cls-3" d="M143.16,199.1c1.72-.41,2.74-2.27,2.29-4.16-.45-1.88-2.21-3.07-3.93-2.66s-2.75,2.28-2.29,4.16c.45,1.89,2.22,3.07,3.94,2.66Z"/>
    <path class="cls-3" d="M152.02,197.39c1.92-.46,3.07-2.55,2.56-4.65s-2.47-3.43-4.4-2.97c-1.92.46-3.06,2.54-2.56,4.64.51,2.1,2.47,3.44,4.39,2.97Z"/>
    <path class="cls-3" d="M160.85,195.54c2.06-.5,3.28-2.72,2.74-4.97s-2.64-3.67-4.7-3.18c-2.05.5-3.28,2.72-2.74,4.97.54,2.25,2.65,3.67,4.7,3.18Z"/>
    <path class="cls-3" d="M169.64,193.51c2.09-.51,3.34-2.78,2.79-5.07-.55-2.29-2.7-3.74-4.79-3.24s-3.34,2.77-2.79,5.07c.55,2.29,2.7,3.74,4.79,3.24Z"/>
    <path class="cls-3" d="M178.4,191.37c2.08-.5,3.32-2.75,2.77-5.03-.55-2.28-2.68-3.72-4.76-3.22-2.08.5-3.32,2.76-2.77,5.04.55,2.28,2.68,3.72,4.76,3.22Z"/>
    <path class="cls-3" d="M187.11,189.04c1.97-.48,3.15-2.61,2.63-4.78-.52-2.16-2.55-3.53-4.52-3.05-1.97.48-3.15,2.61-2.63,4.78.52,2.16,2.54,3.53,4.52,3.05Z"/>
    <path class="cls-3" d="M195.79,186.58c1.8-.43,2.87-2.38,2.4-4.35-.48-1.97-2.32-3.22-4.12-2.79-1.8.43-2.87,2.38-2.4,4.36s2.32,3.21,4.12,2.78Z"/>
    <path class="cls-3" d="M204.45,184.02c1.57-.38,2.51-2.08,2.09-3.8-.42-1.72-2.02-2.81-3.6-2.43-1.57.38-2.51,2.08-2.09,3.8.41,1.72,2.02,2.81,3.59,2.43Z"/>
    <path class="cls-3" d="M213.09,181.37c1.31-.31,2.08-1.73,1.74-3.15-.34-1.43-1.67-2.33-2.98-2.01-1.3.31-2.07,1.72-1.73,3.15.34,1.43,1.68,2.33,2.98,2.02Z"/>
    <path class="cls-3" d="M221.7,178.65c.99-.24,1.59-1.32,1.33-2.41-.26-1.09-1.28-1.77-2.28-1.54-.99.24-1.59,1.31-1.32,2.4.26,1.09,1.28,1.78,2.27,1.54Z"/>
    <path class="cls-3" d="M230.32,175.92c.69-.17,1.09-.91.91-1.65s-.88-1.23-1.56-1.06c-.68.16-1.09.91-.91,1.66s.88,1.22,1.56,1.06Z"/>
    <path class="cls-3" d="M238.92,173.12c.33-.08.53-.45.44-.81-.09-.37-.43-.6-.77-.52-.34.08-.54.45-.45.81.09.36.43.6.77.52Z"/>
    <path class="cls-3" d="M92.08,218.05s.06-.05.05-.1c-.01-.04-.05-.07-.09-.06s-.07.05-.06.1c.01.05.05.07.09.06Z"/>
    <path class="cls-3" d="M101.03,216.69c.42-.1.66-.55.55-1.01-.11-.45-.53-.74-.95-.64s-.67.55-.56,1.01c.11.46.54.74.96.64Z"/>
    <path class="cls-3" d="M109.97,215.32c.79-.19,1.26-1.05,1.06-1.92-.21-.87-1.02-1.41-1.81-1.22-.79.19-1.27,1.05-1.06,1.92.21.87,1.03,1.42,1.82,1.23Z"/>
    <path class="cls-3" d="M118.91,213.93c1.15-.28,1.84-1.53,1.54-2.8-.3-1.26-1.49-2.06-2.64-1.79s-1.84,1.53-1.54,2.79,1.49,2.07,2.64,1.79Z"/>
    <path class="cls-3" d="M127.83,212.45c1.48-.36,2.36-1.95,1.97-3.57-.39-1.62-1.9-2.64-3.38-2.29-1.48.36-2.36,1.96-1.97,3.57.39,1.62,1.9,2.64,3.38,2.28Z"/>
    <path class="cls-3" d="M136.75,210.98c1.8-.43,2.87-2.38,2.4-4.35-.48-1.97-2.32-3.21-4.12-2.78-1.8.43-2.87,2.38-2.4,4.35.48,1.97,2.32,3.22,4.12,2.78Z"/>
    <path class="cls-3" d="M145.65,209.43c2.08-.5,3.32-2.76,2.77-5.04-.55-2.28-2.68-3.72-4.76-3.22-2.08.5-3.32,2.76-2.77,5.04.55,2.28,2.68,3.72,4.76,3.22Z"/>
    <path class="cls-3" d="M154.52,207.77c2.31-.56,3.69-3.06,3.08-5.59-.61-2.53-2.98-4.13-5.29-3.57-2.31.56-3.69,3.06-3.08,5.59.61,2.53,2.98,4.13,5.29,3.57Z"/>
    <ellipse class="cls-3" cx="162.18" cy="201.07" rx="4.58" ry="5.01" transform="translate(-42.61 43.61) rotate(-13.55)"/>
    <path class="cls-3" d="M172.16,203.96c2.52-.61,4.03-3.34,3.36-6.11-.67-2.76-3.25-4.52-5.78-3.91-2.52.61-4.03,3.35-3.36,6.11.67,2.77,3.25,4.51,5.78,3.9Z"/>
    <path class="cls-3" d="M180.9,201.77c2.48-.6,3.97-3.29,3.31-6.01-.66-2.72-3.2-4.44-5.69-3.84-2.48.6-3.96,3.29-3.31,6.01.66,2.72,3.2,4.44,5.68,3.84Z"/>
    <path class="cls-3" d="M189.61,199.42c2.36-.57,3.77-3.13,3.15-5.72-.62-2.59-3.05-4.23-5.41-3.66-2.36.57-3.77,3.13-3.15,5.72.62,2.59,3.04,4.23,5.41,3.66Z"/>
    <path class="cls-3" d="M198.28,196.91c2.16-.52,3.45-2.86,2.88-5.23-.57-2.37-2.79-3.86-4.95-3.34-2.16.52-3.45,2.86-2.88,5.23.57,2.37,2.79,3.87,4.95,3.35Z"/>
    <path class="cls-3" d="M206.92,194.26c1.89-.46,3.02-2.51,2.52-4.58-.5-2.07-2.44-3.38-4.33-2.93-1.89.46-3.02,2.51-2.52,4.58s2.44,3.39,4.33,2.93Z"/>
    <path class="cls-3" d="M215.54,191.54c1.59-.38,2.53-2.1,2.11-3.83-.42-1.73-2.04-2.83-3.63-2.45-1.59.38-2.53,2.1-2.11,3.83.42,1.74,2.04,2.83,3.62,2.45Z"/>
    <path class="cls-3" d="M224.15,188.79c1.26-.3,2.02-1.67,1.68-3.06s-1.63-2.26-2.89-1.95-2.02,1.67-1.68,3.05,1.63,2.26,2.89,1.96Z"/>
    <path class="cls-3" d="M232.75,185.98c.91-.22,1.45-1.21,1.21-2.21-.24-1-1.18-1.63-2.09-1.41s-1.45,1.21-1.21,2.21c.24,1,1.18,1.63,2.09,1.41Z"/>
    <path class="cls-3" d="M241.34,183.14c.55-.13.88-.73.73-1.33-.14-.6-.71-.98-1.26-.85s-.88.73-.74,1.33c.15.61.71.98,1.26.85Z"/>
    <path class="cls-3" d="M249.92,180.26c.16-.04.25-.21.21-.39s-.21-.29-.36-.25-.26.21-.22.39.21.29.37.25Z"/>
    <path class="cls-3" d="M94.48,227.98c.2-.05.32-.27.27-.49s-.26-.36-.46-.31-.33.27-.27.49c.05.22.26.36.46.31Z"/>
    <path class="cls-3" d="M103.43,226.66c.6-.15.96-.8.8-1.46-.16-.66-.78-1.08-1.38-.93s-.96.8-.8,1.46c.16.66.78,1.08,1.38.94Z"/>
    <path class="cls-3" d="M112.38,225.3c.98-.24,1.56-1.3,1.31-2.37-.26-1.07-1.26-1.75-2.24-1.52-.98.24-1.56,1.3-1.31,2.37s1.26,1.75,2.24,1.52Z"/>
    <path class="cls-3" d="M121.32,223.93c1.36-.33,2.16-1.79,1.81-3.28-.36-1.48-1.75-2.42-3.1-2.1s-2.16,1.8-1.81,3.28c.36,1.49,1.75,2.43,3.1,2.1Z"/>
    <path class="cls-3" d="M130.26,222.54c1.72-.41,2.74-2.27,2.29-4.16s-2.21-3.07-3.93-2.66c-1.72.41-2.75,2.28-2.29,4.16.45,1.89,2.22,3.07,3.94,2.66Z"/>
    <path class="cls-3" d="M139.2,221.14c2.08-.5,3.32-2.75,2.77-5.03-.55-2.28-2.68-3.72-4.76-3.22-2.08.5-3.32,2.76-2.77,5.04s2.68,3.72,4.76,3.22Z"/>
    <path class="cls-3" d="M148.11,219.64c2.39-.58,3.81-3.16,3.18-5.78-.63-2.62-3.08-4.27-5.47-3.7-2.39.58-3.82,3.16-3.18,5.78.63,2.62,3.08,4.28,5.47,3.7Z"/>
    <path class="cls-3" d="M157.01,218.09c2.67-.64,4.27-3.54,3.56-6.47-.71-2.92-3.44-4.78-6.12-4.13-2.67.64-4.26,3.54-3.56,6.46.71,2.93,3.44,4.78,6.11,4.14Z"/>
    <path class="cls-3" d="M165.87,216.35c2.86-.69,4.57-3.79,3.81-6.92-.75-3.13-3.69-5.11-6.55-4.42-2.86.69-4.56,3.79-3.81,6.92.76,3.13,3.68,5.12,6.54,4.43Z"/>
    <path class="cls-3" d="M174.67,214.39c2.94-.71,4.69-3.89,3.92-7.11-.78-3.22-3.79-5.26-6.73-4.55s-4.7,3.9-3.92,7.11c.78,3.22,3.79,5.26,6.73,4.55Z"/>
    <path class="cls-3" d="M183.42,212.2c2.9-.7,4.63-3.84,3.86-7.02s-3.74-5.19-6.64-4.49c-2.9.7-4.63,3.84-3.86,7.02.77,3.18,3.74,5.19,6.64,4.49Z"/>
    <path class="cls-3" d="M192.11,209.77c2.74-.66,4.37-3.63,3.65-6.63-.72-3-3.53-4.9-6.27-4.24-2.74.66-4.37,3.63-3.65,6.63.72,3,3.53,4.9,6.27,4.24Z"/>
    <path class="cls-3" d="M200.75,207.15c2.48-.6,3.97-3.29,3.31-6.01-.66-2.72-3.2-4.44-5.69-3.84-2.48.6-3.96,3.29-3.31,6.01.66,2.72,3.2,4.44,5.68,3.84Z"/>
    <path class="cls-3" d="M209.38,204.45c2.19-.53,3.49-2.9,2.92-5.3-.58-2.4-2.82-3.91-5.01-3.38s-3.49,2.9-2.91,5.29c.58,2.4,2.82,3.91,5,3.39Z"/>
    <path class="cls-3" d="M217.97,201.64c1.84-.44,2.94-2.44,2.45-4.45-.49-2.02-2.37-3.29-4.21-2.85-1.84.44-2.93,2.43-2.45,4.45.49,2.02,2.37,3.29,4.21,2.85Z"/>
    <path class="cls-3" d="M226.57,198.81c1.48-.36,2.36-1.96,1.97-3.58-.39-1.62-1.9-2.64-3.38-2.28s-2.35,1.96-1.96,3.57c.39,1.62,1.9,2.64,3.38,2.29Z"/>
    <path class="cls-3" d="M235.16,195.98c1.11-.27,1.78-1.48,1.48-2.7s-1.44-1.99-2.55-1.72c-1.11.27-1.78,1.47-1.49,2.7.29,1.22,1.44,1.99,2.55,1.73Z"/>
    <path class="cls-3" d="M243.74,193.1c.72-.17,1.15-.96.96-1.76s-.94-1.3-1.66-1.12-1.16.96-.97,1.76c.19.79.94,1.3,1.66,1.12Z"/>
    <path class="cls-3" d="M252.32,190.21c.33-.08.53-.44.45-.81s-.43-.6-.77-.52-.54.45-.45.81c.09.37.43.6.77.52Z"/>
    <path class="cls-3" d="M96.84,237.79c.31-.07.49-.41.41-.74-.08-.34-.4-.56-.7-.48s-.5.41-.41.75c.08.34.4.55.71.47Z"/>
    <path class="cls-3" d="M105.81,236.51c.72-.17,1.16-.96.96-1.75-.19-.8-.93-1.3-1.66-1.13-.73.18-1.16.96-.97,1.76s.94,1.29,1.66,1.12Z"/>
    <path class="cls-3" d="M114.76,235.19c1.13-.27,1.8-1.49,1.5-2.73-.3-1.24-1.45-2.02-2.58-1.74s-1.8,1.49-1.5,2.73c.3,1.23,1.45,2.01,2.58,1.74Z"/>
    <path class="cls-3" d="M123.71,233.85c1.52-.37,2.42-2.01,2.02-3.67-.4-1.67-1.96-2.71-3.47-2.35-1.52.37-2.42,2-2.02,3.67.4,1.66,1.96,2.71,3.47,2.35Z"/>
    <path class="cls-3" d="M132.67,232.54c1.92-.46,3.06-2.54,2.56-4.65-.51-2.11-2.48-3.43-4.39-2.97s-3.06,2.54-2.56,4.65c.51,2.1,2.47,3.43,4.39,2.97Z"/>
    <path class="cls-3" d="M141.62,231.2c2.31-.56,3.69-3.06,3.08-5.59-.61-2.53-2.98-4.13-5.29-3.57-2.31.56-3.69,3.06-3.08,5.59.61,2.53,2.98,4.13,5.29,3.57Z"/>
    <path class="cls-3" d="M150.56,229.8c2.67-.64,4.26-3.54,3.56-6.46s-3.44-4.78-6.11-4.13c-2.67.64-4.26,3.54-3.56,6.47.71,2.93,3.44,4.78,6.11,4.13Z"/>
    <path class="cls-3" d="M159.48,228.33c2.99-.72,4.78-3.96,3.99-7.24-.79-3.28-3.86-5.36-6.85-4.64-2.99.72-4.78,3.97-3.99,7.25.79,3.28,3.86,5.35,6.85,4.63Z"/>
    <path class="cls-3" d="M168.25,226.22c3-.72,4.78-3.96,3.99-7.24-.79-3.28-3.85-5.36-6.85-4.64-2.99.72-4.78,3.97-3.99,7.25.79,3.28,3.86,5.35,6.85,4.63Z"/>
    <path class="cls-3" d="M177.01,224.1c2.99-.72,4.78-3.96,3.99-7.24-.79-3.28-3.86-5.36-6.85-4.64-3,.72-4.78,3.97-3.99,7.25.79,3.28,3.85,5.35,6.85,4.63Z"/>
    <path class="cls-3" d="M185.78,221.99c3-.72,4.78-3.96,3.99-7.24s-3.86-5.36-6.85-4.64c-2.99.72-4.78,3.97-3.99,7.25.79,3.28,3.85,5.35,6.85,4.63Z"/>
    <path class="cls-3" d="M194.54,219.88c2.99-.72,4.78-3.96,3.99-7.24-.79-3.28-3.86-5.36-6.86-4.64-3,.72-4.78,3.97-3.99,7.25.79,3.28,3.85,5.35,6.85,4.63Z"/>
    <path class="cls-3" d="M203.21,217.34c2.78-.67,4.44-3.69,3.71-6.73-.73-3.04-3.59-4.97-6.37-4.3-2.78.67-4.44,3.68-3.7,6.73.73,3.04,3.58,4.97,6.36,4.3Z"/>
    <path class="cls-3" d="M211.81,214.53c2.43-.59,3.88-3.22,3.24-5.88-.64-2.66-3.13-4.35-5.56-3.76-2.43.59-3.88,3.22-3.24,5.88.64,2.66,3.13,4.34,5.56,3.76Z"/>
    <path class="cls-3" d="M220.39,211.68c2.06-.5,3.28-2.72,2.74-4.97-.54-2.25-2.65-3.67-4.7-3.18s-3.28,2.72-2.74,4.97c.54,2.25,2.65,3.67,4.7,3.18Z"/>
    <path class="cls-3" d="M228.96,208.76c1.65-.4,2.64-2.19,2.21-4-.44-1.81-2.13-2.95-3.79-2.55-1.65.4-2.64,2.19-2.2,4,.44,1.81,2.13,2.95,3.78,2.55Z"/>
    <path class="cls-3" d="M237.54,205.88c1.26-.3,2.02-1.67,1.68-3.05-.33-1.38-1.63-2.26-2.89-1.95-1.26.3-2.02,1.67-1.68,3.06.33,1.38,1.63,2.25,2.89,1.95Z"/>
    <path class="cls-3" d="M246.12,202.97c.86-.21,1.37-1.14,1.14-2.08-.23-.94-1.11-1.54-1.97-1.33-.86.21-1.37,1.14-1.15,2.08s1.11,1.53,1.97,1.33Z"/>
    <path class="cls-3" d="M254.69,200.05c.46-.11.73-.61.61-1.1-.12-.5-.59-.82-1.04-.71-.46.11-.73.61-.61,1.11s.59.81,1.05.7Z"/>
    <path class="cls-3" d="M263.26,197.12s.06-.05.05-.1c-.01-.05-.05-.08-.09-.07s-.06.05-.05.1c.01.04.05.07.09.06Z"/>
    <path class="cls-3" d="M99.2,247.56c.39-.09.62-.51.52-.94s-.5-.7-.89-.61-.62.52-.52.95.5.69.89.6Z"/>
    <path class="cls-3" d="M108.16,246.27c.8-.19,1.28-1.07,1.07-1.95-.21-.89-1.04-1.44-1.84-1.25-.81.19-1.29,1.07-1.08,1.95.21.88,1.04,1.44,1.85,1.25Z"/>
    <path class="cls-3" d="M117.12,244.98c1.22-.29,1.95-1.62,1.63-2.95-.32-1.34-1.57-2.19-2.79-1.89-1.22.29-1.95,1.62-1.63,2.96.32,1.34,1.58,2.18,2.8,1.89Z"/>
    <path class="cls-3" d="M126.09,243.7c1.64-.4,2.61-2.17,2.18-3.96-.43-1.8-2.11-2.93-3.75-2.54-1.64.4-2.61,2.17-2.18,3.96.43,1.79,2.11,2.93,3.75,2.53Z"/>
    <path class="cls-3" d="M135.05,242.41c2.05-.49,3.28-2.72,2.74-4.97-.54-2.25-2.65-3.67-4.7-3.18-2.05.5-3.28,2.72-2.74,4.97.54,2.25,2.65,3.67,4.7,3.18Z"/>
    <path class="cls-3" d="M144.01,241.09c2.46-.59,3.92-3.26,3.27-5.94-.65-2.69-3.16-4.4-5.62-3.8-2.46.59-3.92,3.25-3.27,5.95.65,2.69,3.17,4.39,5.62,3.8Z"/>
    <path class="cls-3" d="M152.97,239.78c2.86-.69,4.56-3.78,3.81-6.92-.76-3.13-3.68-5.12-6.54-4.43-2.86.69-4.57,3.79-3.81,6.92.76,3.13,3.69,5.11,6.55,4.42Z"/>
    <path class="cls-3" d="M161.8,237.93c2.99-.72,4.78-3.96,3.99-7.24-.79-3.28-3.85-5.36-6.85-4.63-2.99.72-4.78,3.97-3.99,7.25.79,3.28,3.86,5.35,6.85,4.63Z"/>
    <path class="cls-3" d="M170.56,235.82c3-.72,4.78-3.96,3.99-7.24-.79-3.28-3.85-5.36-6.85-4.63-2.99.72-4.78,3.97-3.99,7.25.79,3.28,3.86,5.35,6.85,4.63Z"/>
    <path class="cls-3" d="M179.33,233.71c2.99-.72,4.78-3.96,3.99-7.24s-3.86-5.36-6.85-4.63c-3,.72-4.78,3.97-3.99,7.25.79,3.28,3.85,5.35,6.85,4.63Z"/>
    <path class="cls-3" d="M188.09,231.6c3-.72,4.78-3.96,3.99-7.24-.79-3.28-3.85-5.36-6.85-4.63-2.99.72-4.78,3.97-3.99,7.25.79,3.28,3.85,5.35,6.85,4.63Z"/>
    <path class="cls-3" d="M196.86,229.48c2.99-.72,4.78-3.96,3.99-7.24-.79-3.28-3.86-5.36-6.85-4.63-3,.72-4.78,3.97-3.99,7.25.79,3.28,3.85,5.35,6.85,4.63Z"/>
    <path class="cls-3" d="M205.62,227.37c2.99-.72,4.78-3.97,3.99-7.25-.79-3.28-3.86-5.35-6.86-4.63-2.99.72-4.78,3.97-3.99,7.25.79,3.28,3.86,5.35,6.85,4.63Z"/>
    <path class="cls-3" d="M214.2,224.45c2.59-.63,4.14-3.43,3.46-6.27-.68-2.84-3.34-4.64-5.93-4.01-2.59.62-4.13,3.43-3.45,6.27.68,2.84,3.34,4.63,5.93,4Z"/>
    <path class="cls-3" d="M222.77,221.55c2.19-.53,3.49-2.9,2.92-5.3-.58-2.4-2.82-3.91-5.01-3.39-2.19.53-3.49,2.9-2.91,5.3.58,2.4,2.82,3.91,5,3.39Z"/>
    <path class="cls-3" d="M231.34,218.61c1.77-.43,2.83-2.35,2.37-4.29-.47-1.94-2.29-3.17-4.06-2.74s-2.83,2.35-2.36,4.29c.47,1.94,2.29,3.17,4.06,2.74Z"/>
    <path class="cls-3" d="M239.9,215.66c1.35-.33,2.16-1.79,1.81-3.28-.36-1.49-1.75-2.43-3.1-2.1-1.35.33-2.16,1.8-1.8,3.28.36,1.48,1.75,2.42,3.1,2.09Z"/>
    <path class="cls-3" d="M248.48,212.75c.95-.23,1.52-1.26,1.27-2.3-.25-1.04-1.23-1.7-2.18-1.48-.95.23-1.53,1.26-1.27,2.31s1.23,1.7,2.18,1.47Z"/>
    <path class="cls-3" d="M257.05,209.82c.54-.13.85-.71.71-1.3s-.69-.96-1.23-.83-.86.71-.72,1.3.7.96,1.23.83Z"/>
    <path class="cls-3" d="M265.6,206.85c.1-.03.17-.14.14-.26s-.14-.19-.25-.17c-.11.03-.17.14-.14.26s.14.19.25.16Z"/>
    <path class="cls-3" d="M101.52,257.22c.42-.1.66-.55.55-1.01-.11-.46-.53-.75-.95-.65s-.67.55-.56,1.01c.11.45.54.74.95.64Z"/>
    <path class="cls-3" d="M110.49,255.95c.84-.2,1.35-1.12,1.12-2.04s-1.09-1.51-1.93-1.31c-.85.21-1.35,1.13-1.13,2.05.22.93,1.09,1.51,1.94,1.31Z"/>
    <path class="cls-3" d="M119.46,254.67c1.26-.3,2.01-1.67,1.68-3.05s-1.63-2.26-2.89-1.95c-1.26.3-2.01,1.67-1.68,3.05.33,1.38,1.63,2.26,2.89,1.95Z"/>
    <path class="cls-3" d="M128.42,253.38c1.68-.4,2.68-2.22,2.24-4.06-.44-1.84-2.16-3-3.84-2.6s-2.68,2.22-2.24,4.06c.44,1.84,2.16,3,3.84,2.6Z"/>
    <path class="cls-3" d="M137.39,252.09c2.09-.5,3.34-2.77,2.79-5.06-.55-2.3-2.7-3.75-4.79-3.24s-3.35,2.77-2.79,5.07c.55,2.29,2.7,3.74,4.79,3.24Z"/>
    <path class="cls-3" d="M146.36,250.83c2.52-.61,4.03-3.34,3.36-6.11-.67-2.76-3.25-4.52-5.78-3.91-2.52.61-4.03,3.35-3.36,6.11.67,2.76,3.25,4.51,5.77,3.91Z"/>
    <path class="cls-3" d="M155.32,249.55c2.94-.71,4.69-3.89,3.92-7.12-.78-3.22-3.79-5.26-6.73-4.55-2.94.71-4.69,3.9-3.92,7.12.78,3.22,3.79,5.26,6.73,4.55Z"/>
    <path class="cls-3" d="M164.11,247.54c2.99-.72,4.78-3.96,3.99-7.24-.79-3.28-3.85-5.35-6.85-4.63-2.99.72-4.78,3.96-3.99,7.24s3.86,5.35,6.85,4.63Z"/>
    <path class="cls-3" d="M172.88,245.42c3-.72,4.78-3.96,3.99-7.24-.79-3.28-3.85-5.35-6.85-4.63-2.99.72-4.78,3.96-3.99,7.24.79,3.28,3.86,5.35,6.85,4.63Z"/>
    <path class="cls-3" d="M181.64,243.31c2.99-.72,4.78-3.96,3.99-7.24-.79-3.28-3.86-5.35-6.85-4.63s-4.78,3.96-3.99,7.24c.79,3.28,3.85,5.35,6.85,4.63Z"/>
    <path class="cls-3" d="M190.41,241.2c3-.72,4.78-3.96,3.99-7.24-.79-3.28-3.85-5.35-6.85-4.63-2.99.72-4.78,3.96-3.99,7.24s3.85,5.35,6.85,4.63Z"/>
    <path class="cls-3" d="M199.17,239.08c2.99-.72,4.78-3.96,3.99-7.24-.79-3.28-3.86-5.35-6.85-4.63s-4.78,3.96-3.99,7.25c.79,3.28,3.85,5.35,6.85,4.63Z"/>
    <path class="cls-3" d="M207.94,236.97c2.99-.72,4.78-3.97,3.99-7.25-.79-3.28-3.86-5.35-6.86-4.63-2.99.72-4.78,3.96-3.99,7.24.79,3.28,3.86,5.35,6.85,4.63Z"/>
    <path class="cls-3" d="M216.55,234.22c2.67-.64,4.27-3.54,3.56-6.47-.71-2.93-3.44-4.78-6.12-4.13s-4.27,3.54-3.56,6.47c.71,2.93,3.45,4.78,6.11,4.13Z"/>
    <path class="cls-3" d="M225.11,231.25c2.24-.54,3.58-2.97,2.99-5.42-.59-2.46-2.89-4.01-5.13-3.47s-3.58,2.97-2.99,5.43c.59,2.46,2.89,4.01,5.13,3.47Z"/>
    <path class="cls-3" d="M233.68,228.31c1.83-.44,2.92-2.42,2.43-4.42s-2.35-3.27-4.18-2.83c-1.82.44-2.91,2.42-2.43,4.42.48,2,2.35,3.26,4.18,2.82Z"/>
    <path class="cls-3" d="M242.24,225.35c1.4-.34,2.23-1.85,1.86-3.38-.37-1.53-1.8-2.5-3.2-2.16s-2.23,1.85-1.86,3.38c.37,1.53,1.8,2.5,3.2,2.16Z"/>
    <path class="cls-3" d="M250.81,222.41c.98-.24,1.56-1.3,1.3-2.37s-1.26-1.75-2.24-1.52c-.98.24-1.57,1.3-1.31,2.37.26,1.07,1.26,1.75,2.25,1.51Z"/>
    <path class="cls-3" d="M259.37,219.47c.56-.14.9-.74.75-1.36-.15-.62-.73-1.01-1.29-.88s-.9.75-.75,1.37c.15.62.73,1.01,1.29.87Z"/>
    <path class="cls-3" d="M267.94,216.54c.15-.04.23-.19.19-.36s-.19-.27-.33-.23-.24.2-.2.36c.04.16.19.27.34.23Z"/>
    <path class="cls-3" d="M103.83,266.79c.4-.1.64-.53.54-.97-.11-.44-.52-.72-.92-.62-.4.1-.64.53-.54.98.11.44.52.72.92.62Z"/>
    <path class="cls-3" d="M112.8,265.5c.82-.2,1.3-1.08,1.09-1.98-.22-.9-1.05-1.47-1.87-1.27s-1.31,1.09-1.09,1.99,1.06,1.46,1.88,1.27Z"/>
    <path class="cls-3" d="M121.76,264.22c1.23-.3,1.97-1.64,1.65-2.99-.33-1.36-1.59-2.21-2.83-1.91-1.24.3-1.97,1.63-1.64,2.99.33,1.35,1.59,2.21,2.82,1.91Z"/>
    <path class="cls-3" d="M130.72,262.93c1.65-.4,2.64-2.19,2.2-4-.44-1.81-2.13-2.95-3.78-2.56-1.65.4-2.64,2.19-2.2,4,.44,1.81,2.13,2.95,3.78,2.55Z"/>
    <path class="cls-3" d="M139.69,261.67c2.08-.5,3.32-2.76,2.77-5.04-.55-2.28-2.68-3.72-4.76-3.22-2.08.5-3.32,2.76-2.77,5.04.55,2.28,2.68,3.72,4.76,3.22Z"/>
    <path class="cls-3" d="M148.65,260.35c2.48-.6,3.96-3.29,3.31-6.01-.66-2.72-3.2-4.44-5.68-3.84s-3.97,3.29-3.31,6.01c.66,2.72,3.2,4.44,5.69,3.84Z"/>
    <path class="cls-3" d="M157.62,259.07c2.9-.7,4.63-3.84,3.86-7.02s-3.73-5.19-6.64-4.49c-2.9.7-4.63,3.84-3.86,7.02s3.74,5.19,6.63,4.49Z"/>
    <path class="cls-3" d="M166.43,257.14c2.99-.72,4.78-3.96,3.99-7.24-.79-3.28-3.85-5.36-6.85-4.63-2.99.72-4.78,3.96-3.99,7.25.79,3.28,3.86,5.35,6.85,4.63Z"/>
    <path class="cls-3" d="M175.19,255.03c3-.72,4.78-3.96,3.99-7.24-.79-3.28-3.85-5.36-6.85-4.63-2.99.72-4.78,3.96-3.99,7.25.79,3.28,3.86,5.35,6.85,4.63Z"/>
    <path class="cls-3" d="M183.96,252.91c2.99-.72,4.78-3.96,3.99-7.24-.79-3.28-3.86-5.35-6.85-4.63-3,.72-4.78,3.96-3.99,7.25.79,3.28,3.85,5.35,6.85,4.63Z"/>
    <path class="cls-3" d="M192.72,250.8c3-.72,4.78-3.96,3.99-7.24-.79-3.28-3.85-5.36-6.85-4.63-2.99.72-4.78,3.96-3.99,7.25s3.85,5.35,6.85,4.63Z"/>
    <path class="cls-3" d="M201.49,248.69c2.99-.72,4.78-3.96,3.99-7.24-.79-3.28-3.86-5.35-6.85-4.63-3,.72-4.78,3.96-3.99,7.25.79,3.28,3.85,5.35,6.85,4.63Z"/>
    <path class="cls-3" d="M210.25,246.57c2.99-.72,4.78-3.96,3.99-7.24-.79-3.28-3.86-5.35-6.86-4.63-2.99.72-4.78,3.96-3.99,7.25.79,3.28,3.86,5.35,6.85,4.63Z"/>
    <path class="cls-3" d="M218.85,243.74c2.63-.63,4.2-3.49,3.51-6.37-.7-2.88-3.39-4.7-6.02-4.07-2.63.63-4.2,3.48-3.5,6.37.7,2.88,3.39,4.71,6.02,4.07Z"/>
    <path class="cls-3" d="M227.41,240.8c2.21-.53,3.54-2.93,2.95-5.36-.58-2.43-2.86-3.96-5.07-3.43-2.22.53-3.53,2.93-2.95,5.36.58,2.43,2.85,3.96,5.07,3.42Z"/>
    <path class="cls-3" d="M235.98,237.86c1.8-.43,2.87-2.38,2.4-4.35-.47-1.97-2.31-3.22-4.12-2.79-1.8.43-2.87,2.39-2.39,4.36.47,1.97,2.32,3.21,4.11,2.78Z"/>
    <path class="cls-3" d="M244.55,234.93c1.38-.33,2.21-1.83,1.84-3.35-.37-1.52-1.78-2.47-3.16-2.14-1.38.33-2.21,1.83-1.84,3.35.36,1.51,1.78,2.47,3.17,2.14Z"/>
    <path class="cls-3" d="M253.11,231.99c.96-.23,1.54-1.27,1.29-2.34s-1.25-1.73-2.21-1.5-1.55,1.28-1.29,2.34c.26,1.06,1.25,1.72,2.21,1.49Z"/>
    <path class="cls-3" d="M261.68,229.05c.55-.13.88-.73.73-1.33-.15-.6-.71-.98-1.26-.85s-.88.73-.73,1.33c.15.6.71.98,1.26.85Z"/>
    <path class="cls-3" d="M270.24,226.09c.12-.03.19-.16.16-.29s-.16-.22-.28-.19-.19.16-.16.29.15.22.28.19Z"/>
    <path class="cls-3" d="M106.12,276.29c.35-.08.55-.46.46-.84-.09-.38-.45-.62-.8-.54s-.56.46-.46.84.44.62.8.54Z"/>
    <path class="cls-3" d="M115.09,275c.76-.18,1.22-1.01,1.02-1.85-.2-.84-.99-1.37-1.75-1.18s-1.22,1.01-1.02,1.85.99,1.37,1.75,1.18Z"/>
    <path class="cls-3" d="M124.04,273.69c1.17-.28,1.86-1.55,1.55-2.83s-1.5-2.09-2.67-1.81-1.87,1.55-1.56,2.83c.31,1.28,1.51,2.09,2.67,1.81Z"/>
    <path class="cls-3" d="M133,272.38c1.57-.38,2.5-2.08,2.09-3.8-.41-1.72-2.02-2.81-3.59-2.43-1.57.38-2.51,2.08-2.1,3.8.41,1.72,2.03,2.81,3.6,2.43Z"/>
    <path class="cls-3" d="M141.96,271.06c1.97-.48,3.15-2.62,2.63-4.78-.52-2.16-2.54-3.53-4.52-3.05-1.98.48-3.15,2.61-2.63,4.78.52,2.16,2.54,3.53,4.52,3.05Z"/>
    <path class="cls-3" d="M150.91,269.72c2.36-.57,3.77-3.13,3.15-5.72-.62-2.59-3.05-4.22-5.41-3.65-2.36.57-3.77,3.13-3.15,5.72.62,2.59,3.05,4.22,5.41,3.66Z"/>
    <path class="cls-3" d="M159.85,268.35c2.74-.66,4.37-3.63,3.65-6.63-.72-3-3.53-4.9-6.26-4.24-2.74.66-4.37,3.63-3.65,6.63s3.53,4.9,6.27,4.24Z"/>
    <path class="cls-3" d="M168.74,266.75c2.99-.72,4.78-3.97,3.99-7.25-.79-3.28-3.85-5.36-6.85-4.63-2.99.72-4.78,3.97-3.99,7.25.79,3.28,3.86,5.36,6.85,4.64Z"/>
    <path class="cls-3" d="M177.51,264.63c3-.72,4.78-3.97,3.99-7.25-.79-3.28-3.85-5.36-6.85-4.63s-4.78,3.97-3.99,7.25,3.86,5.36,6.85,4.64Z"/>
    <path class="cls-3" d="M186.27,262.52c2.99-.72,4.78-3.97,3.99-7.25-.79-3.28-3.86-5.35-6.85-4.63s-4.78,3.97-3.99,7.25c.79,3.28,3.85,5.36,6.85,4.64Z"/>
    <path class="cls-3" d="M195.04,260.41c3-.72,4.78-3.97,3.99-7.25-.79-3.28-3.85-5.36-6.85-4.63s-4.78,3.97-3.99,7.25c.79,3.28,3.86,5.36,6.85,4.64Z"/>
    <path class="cls-3" d="M203.81,258.29c2.99-.72,4.78-3.97,3.99-7.25-.79-3.28-3.86-5.35-6.85-4.63-3,.72-4.78,3.97-3.99,7.25.79,3.28,3.85,5.36,6.85,4.64Z"/>
    <path class="cls-3" d="M212.51,255.91c2.86-.69,4.57-3.79,3.81-6.92-.76-3.13-3.69-5.11-6.55-4.42-2.86.69-4.57,3.79-3.81,6.92.76,3.13,3.69,5.11,6.54,4.42Z"/>
    <path class="cls-3" d="M221.09,253.05c2.48-.6,3.97-3.29,3.31-6.01-.66-2.72-3.2-4.44-5.69-3.84-2.48.6-3.96,3.29-3.31,6.01.66,2.72,3.2,4.44,5.68,3.84Z"/>
    <path class="cls-3" d="M229.67,250.17c2.1-.51,3.35-2.77,2.79-5.07s-2.7-3.74-4.79-3.24c-2.09.5-3.34,2.77-2.79,5.06.55,2.29,2.7,3.74,4.79,3.24Z"/>
    <path class="cls-3" d="M238.25,247.28c1.71-.41,2.72-2.26,2.27-4.13s-2.2-3.05-3.91-2.64c-1.7.41-2.72,2.26-2.27,4.13.45,1.87,2.2,3.05,3.9,2.64Z"/>
    <path class="cls-3" d="M246.82,244.37c1.3-.31,2.08-1.73,1.73-3.15-.34-1.42-1.68-2.33-2.98-2.02-1.3.31-2.08,1.73-1.73,3.15.34,1.43,1.68,2.33,2.98,2.02Z"/>
    <path class="cls-3" d="M255.4,241.46c.9-.22,1.43-1.19,1.19-2.18-.24-.99-1.16-1.61-2.05-1.39-.9.22-1.44,1.19-1.2,2.18.24.99,1.16,1.61,2.06,1.39Z"/>
    <path class="cls-3" d="M263.96,238.52c.48-.12.77-.64.64-1.17-.13-.53-.62-.86-1.1-.75s-.77.64-.64,1.17c.13.53.62.87,1.11.75Z"/>
    <path class="cls-3" d="M272.53,235.58c.06-.02.1-.09.09-.16s-.09-.12-.15-.1c-.07.02-.11.09-.09.16s.09.12.16.1Z"/>
    <path class="cls-3" d="M108.38,285.68c.24-.06.39-.32.32-.58s-.31-.43-.55-.37-.39.32-.32.58.31.43.55.37Z"/>
    <path class="cls-3" d="M117.34,284.37c.64-.16,1.03-.85.86-1.56s-.83-1.15-1.47-1c-.65.16-1.03.85-.86,1.56s.83,1.15,1.48,1Z"/>
    <path class="cls-3" d="M126.29,283.02c1.03-.25,1.65-1.37,1.38-2.5s-1.33-1.85-2.37-1.6c-1.03.25-1.65,1.37-1.38,2.5.27,1.13,1.33,1.85,2.37,1.6Z"/>
    <path class="cls-3" d="M135.25,281.68c1.42-.34,2.27-1.89,1.9-3.45-.38-1.56-1.84-2.54-3.26-2.2-1.42.34-2.27,1.89-1.9,3.44.38,1.56,1.84,2.55,3.26,2.2Z"/>
    <path class="cls-3" d="M144.19,280.32c1.8-.43,2.87-2.39,2.4-4.36-.47-1.97-2.32-3.22-4.12-2.78-1.8.43-2.87,2.38-2.4,4.35.47,1.97,2.32,3.22,4.12,2.79Z"/>
    <path class="cls-3" d="M153.13,278.92c2.16-.52,3.45-2.86,2.88-5.23-.57-2.37-2.79-3.86-4.95-3.34-2.16.52-3.45,2.87-2.88,5.23.57,2.37,2.79,3.86,4.95,3.34Z"/>
    <path class="cls-3" d="M162.05,277.45c2.48-.6,3.96-3.29,3.31-6.01-.66-2.72-3.2-4.44-5.68-3.84-2.48.6-3.97,3.29-3.31,6.01.66,2.72,3.2,4.44,5.69,3.84Z"/>
    <path class="cls-3" d="M170.95,275.92c2.78-.67,4.44-3.68,3.7-6.72-.73-3.04-3.58-4.97-6.36-4.3-2.78.67-4.43,3.68-3.7,6.72.73,3.04,3.58,4.97,6.36,4.3Z"/>
    <path class="cls-3" d="M179.82,274.24c3-.72,4.78-3.97,3.99-7.25-.79-3.28-3.85-5.35-6.85-4.63-2.99.72-4.78,3.96-3.99,7.24.79,3.28,3.86,5.36,6.85,4.64Z"/>
    <path class="cls-3" d="M188.59,272.12c2.99-.72,4.78-3.97,3.99-7.25-.79-3.28-3.86-5.35-6.85-4.63-3,.72-4.78,3.96-3.99,7.24.79,3.28,3.85,5.36,6.85,4.64Z"/>
    <path class="cls-3" d="M197.35,270.01c3-.72,4.78-3.97,3.99-7.25-.79-3.28-3.85-5.35-6.85-4.63-2.99.72-4.78,3.96-3.99,7.24.79,3.28,3.86,5.36,6.85,4.64Z"/>
    <path class="cls-3" d="M206.06,267.63c2.86-.69,4.57-3.79,3.81-6.92-.76-3.13-3.69-5.11-6.55-4.42-2.86.69-4.56,3.79-3.81,6.92.76,3.14,3.68,5.12,6.54,4.42Z"/>
    <path class="cls-3" d="M214.69,264.98c2.59-.62,4.14-3.43,3.46-6.27-.68-2.84-3.34-4.63-5.93-4.01-2.59.62-4.13,3.44-3.45,6.27.68,2.84,3.34,4.63,5.93,4.01Z"/>
    <path class="cls-3" d="M223.3,262.23c2.27-.55,3.62-3,3.02-5.49-.6-2.49-2.92-4.06-5.19-3.51-2.27.55-3.62,3-3.02,5.49.6,2.49,2.93,4.06,5.19,3.51Z"/>
    <path class="cls-3" d="M231.9,259.43c1.92-.46,3.07-2.54,2.56-4.65-.51-2.1-2.47-3.43-4.39-2.97-1.92.46-3.06,2.54-2.55,4.65s2.47,3.43,4.39,2.97Z"/>
    <path class="cls-3" d="M240.49,256.57c1.54-.37,2.47-2.05,2.06-3.74-.41-1.69-1.99-2.76-3.53-2.39-1.54.37-2.46,2.04-2.05,3.74.41,1.69,1.99,2.76,3.53,2.39Z"/>
    <path class="cls-3" d="M249.07,253.71c1.17-.28,1.86-1.55,1.55-2.83-.31-1.28-1.5-2.09-2.67-1.81-1.17.28-1.86,1.55-1.55,2.83.31,1.28,1.5,2.09,2.67,1.81Z"/>
    <path class="cls-3" d="M257.65,250.82c.77-.19,1.24-1.03,1.03-1.88s-1-1.39-1.78-1.21c-.78.19-1.24,1.03-1.04,1.88.21.85,1,1.39,1.78,1.2Z"/>
    <path class="cls-3" d="M266.23,247.91c.37-.09.6-.5.5-.91-.1-.41-.49-.67-.86-.58-.38.09-.6.5-.5.91.1.41.48.67.86.58Z"/>
    <path class="cls-3" d="M110.63,294.99c.1-.02.15-.12.12-.23s-.12-.17-.21-.14-.15.12-.13.23.12.17.22.15Z"/>
    <path class="cls-3" d="M119.58,293.65c.48-.12.77-.64.64-1.17-.13-.53-.62-.86-1.1-.75-.49.12-.77.64-.64,1.17.13.53.62.86,1.1.75Z"/>
    <path class="cls-3" d="M128.52,292.28c.86-.21,1.37-1.13,1.14-2.08-.23-.94-1.11-1.53-1.96-1.33-.86.21-1.37,1.14-1.14,2.08.23.94,1.1,1.53,1.96,1.33Z"/>
    <path class="cls-3" d="M137.46,290.89c1.22-.29,1.95-1.62,1.63-2.96-.32-1.34-1.57-2.18-2.79-1.89-1.22.29-1.95,1.62-1.63,2.95.32,1.34,1.57,2.19,2.79,1.89Z"/>
    <path class="cls-3" d="M146.4,289.47c1.57-.38,2.5-2.08,2.09-3.8-.41-1.72-2.02-2.81-3.59-2.43-1.57.38-2.51,2.08-2.09,3.8.41,1.72,2.03,2.81,3.6,2.43Z"/>
    <path class="cls-3" d="M155.31,287.99c1.89-.46,3.02-2.51,2.52-4.58-.5-2.07-2.44-3.38-4.33-2.93s-3.02,2.51-2.52,4.58,2.44,3.38,4.33,2.93Z"/>
    <path class="cls-3" d="M164.22,286.47c2.19-.53,3.49-2.9,2.92-5.3-.58-2.39-2.82-3.91-5.01-3.39-2.19.53-3.49,2.9-2.92,5.3.58,2.4,2.82,3.92,5.01,3.39Z"/>
    <path class="cls-3" d="M173.1,284.83c2.43-.59,3.88-3.22,3.24-5.88-.64-2.66-3.13-4.34-5.56-3.76s-3.88,3.22-3.24,5.88c.64,2.66,3.13,4.35,5.56,3.76Z"/>
    <path class="cls-3" d="M181.94,283.04c2.59-.63,4.13-3.43,3.45-6.27-.68-2.84-3.33-4.63-5.93-4.01-2.59.62-4.14,3.43-3.45,6.27.68,2.84,3.34,4.63,5.93,4.01Z"/>
    <path class="cls-3" d="M190.75,281.08c2.67-.64,4.27-3.54,3.56-6.47-.71-2.93-3.44-4.78-6.11-4.13s-4.27,3.54-3.56,6.47c.71,2.93,3.44,4.78,6.12,4.13Z"/>
    <path class="cls-3" d="M199.5,278.9c2.63-.63,4.2-3.49,3.5-6.37-.69-2.88-3.39-4.7-6.02-4.07-2.63.63-4.2,3.48-3.5,6.37.7,2.88,3.39,4.71,6.02,4.08Z"/>
    <path class="cls-3" d="M208.19,276.49c2.48-.6,3.97-3.29,3.31-6.01-.66-2.72-3.2-4.44-5.69-3.84-2.48.6-3.96,3.29-3.31,6.01.66,2.72,3.2,4.44,5.68,3.84Z"/>
    <path class="cls-3" d="M216.85,273.95c2.27-.55,3.62-3,3.02-5.49-.6-2.49-2.92-4.06-5.19-3.51-2.27.55-3.62,3-3.02,5.49.6,2.49,2.92,4.06,5.19,3.51Z"/>
    <path class="cls-3" d="M225.49,271.28c1.99-.48,3.17-2.63,2.64-4.81s-2.55-3.55-4.54-3.07c-1.99.48-3.17,2.63-2.65,4.81.52,2.18,2.56,3.56,4.55,3.08Z"/>
    <path class="cls-3" d="M234.1,268.55c1.68-.4,2.68-2.22,2.24-4.06-.44-1.84-2.16-3-3.84-2.59-1.68.4-2.68,2.22-2.24,4.06.44,1.84,2.16,3,3.84,2.6Z"/>
    <path class="cls-3" d="M242.71,265.77c1.35-.32,2.15-1.78,1.79-3.25-.35-1.47-1.73-2.4-3.07-2.07-1.34.32-2.14,1.77-1.79,3.25.35,1.47,1.73,2.4,3.07,2.08Z"/>
    <path class="cls-3" d="M251.3,262.94c.98-.24,1.56-1.3,1.3-2.37-.26-1.07-1.26-1.75-2.24-1.52-.98.24-1.56,1.3-1.3,2.37.26,1.07,1.26,1.75,2.24,1.52Z"/>
    <path class="cls-3" d="M259.89,260.1c.61-.15.99-.82.82-1.49-.16-.67-.8-1.1-1.41-.95-.62.15-.99.82-.83,1.5.16.68.8,1.1,1.42.95Z"/>
    <path class="cls-3" d="M268.47,257.22c.23-.05.36-.3.3-.55s-.29-.41-.52-.35-.37.3-.31.55.3.41.53.35Z"/>
    <path class="cls-3" d="M121.81,302.88c.29-.07.47-.39.39-.72s-.38-.53-.68-.45-.47.39-.4.71.38.53.68.46Z"/>
    <path class="cls-3" d="M130.74,301.46c.64-.16,1.03-.85.86-1.56-.17-.7-.83-1.15-1.48-.99-.65.16-1.03.86-.86,1.56.17.71.83,1.15,1.48,1Z"/>
    <path class="cls-3" d="M139.66,300.01c.98-.24,1.56-1.3,1.3-2.37-.26-1.07-1.26-1.75-2.24-1.51-.98.24-1.56,1.3-1.3,2.37s1.26,1.75,2.24,1.52Z"/>
    <path class="cls-3" d="M148.58,298.54c1.3-.31,2.08-1.72,1.74-3.15-.34-1.43-1.68-2.33-2.98-2.01-1.3.31-2.08,1.72-1.74,3.15.34,1.43,1.68,2.33,2.98,2.02Z"/>
    <path class="cls-3" d="M157.48,296.99c1.58-.38,2.53-2.1,2.11-3.84s-2.04-2.83-3.62-2.45c-1.58.38-2.53,2.1-2.11,3.83.42,1.74,2.04,2.84,3.63,2.45Z"/>
    <path class="cls-3" d="M166.37,295.38c1.84-.44,2.93-2.43,2.45-4.45-.49-2.01-2.37-3.29-4.21-2.85s-2.94,2.44-2.45,4.45c.49,2.02,2.37,3.29,4.21,2.85Z"/>
    <path class="cls-3" d="M175.24,293.69c2.05-.49,3.28-2.72,2.74-4.97-.54-2.25-2.65-3.67-4.7-3.18-2.05.5-3.28,2.72-2.74,4.97.54,2.25,2.65,3.67,4.7,3.18Z"/>
    <path class="cls-3" d="M184.07,291.84c2.19-.53,3.5-2.9,2.92-5.3-.58-2.39-2.82-3.91-5.01-3.39-2.19.53-3.49,2.9-2.92,5.3.58,2.4,2.82,3.91,5.01,3.39Z"/>
    <path class="cls-3" d="M192.86,289.84c2.24-.54,3.58-2.97,2.98-5.43-.59-2.45-2.89-4.01-5.13-3.47-2.24.54-3.58,2.97-2.99,5.42.59,2.46,2.89,4.01,5.13,3.47Z"/>
    <path class="cls-3" d="M201.61,287.67c2.22-.53,3.54-2.94,2.95-5.36-.58-2.43-2.86-3.96-5.07-3.43-2.22.53-3.53,2.93-2.95,5.36.58,2.43,2.85,3.96,5.07,3.43Z"/>
    <path class="cls-3" d="M210.32,285.32c2.1-.51,3.34-2.77,2.79-5.07-.55-2.29-2.7-3.74-4.79-3.24-2.09.5-3.34,2.77-2.79,5.06.55,2.3,2.7,3.75,4.79,3.24Z"/>
    <path class="cls-3" d="M219,282.86c1.92-.46,3.07-2.54,2.56-4.65-.51-2.1-2.47-3.43-4.4-2.97s-3.06,2.55-2.55,4.65c.51,2.11,2.47,3.43,4.39,2.97Z"/>
    <path class="cls-3" d="M227.65,280.27c1.68-.4,2.68-2.22,2.23-4.06-.44-1.84-2.16-3-3.84-2.59-1.67.4-2.68,2.22-2.24,4.06.44,1.84,2.17,3,3.84,2.6Z"/>
    <path class="cls-3" d="M236.28,277.59c1.4-.34,2.23-1.85,1.86-3.38-.37-1.53-1.79-2.49-3.19-2.16-1.4.34-2.23,1.85-1.86,3.37.37,1.53,1.8,2.5,3.2,2.16Z"/>
    <path class="cls-3" d="M244.9,274.87c1.09-.26,1.74-1.44,1.45-2.63s-1.4-1.94-2.49-1.68c-1.08.26-1.73,1.44-1.45,2.63.29,1.19,1.4,1.94,2.49,1.68Z"/>
    <path class="cls-3" d="M253.51,272.11c.77-.18,1.22-1.01,1.01-1.85-.2-.84-.98-1.37-1.75-1.19-.76.18-1.22,1.01-1.02,1.85.2.84.99,1.37,1.75,1.18Z"/>
    <path class="cls-3" d="M262.11,269.28c.4-.1.64-.53.53-.98-.11-.44-.52-.72-.92-.62s-.65.53-.54.97c.11.44.52.72.92.62Z"/>
    <path class="cls-3" d="M270.7,266.45s.06-.05.05-.1c-.01-.04-.05-.07-.09-.06s-.07.05-.05.1c.01.05.05.07.09.06Z"/>
    <path class="cls-3" d="M124.01,312c.05-.01.08-.07.07-.13-.01-.06-.07-.1-.12-.08-.06.01-.09.07-.07.13.01.06.07.1.13.09Z"/>
    <path class="cls-3" d="M132.93,310.56c.39-.09.62-.52.52-.94-.1-.42-.5-.69-.89-.6s-.62.52-.52.94c.1.43.5.7.89.6Z"/>
    <path class="cls-3" d="M141.85,309.08c.71-.17,1.13-.94.94-1.73s-.92-1.27-1.63-1.1c-.71.17-1.14.94-.95,1.72s.92,1.27,1.63,1.1Z"/>
    <path class="cls-3" d="M150.75,307.53c.99-.24,1.59-1.32,1.32-2.41-.26-1.09-1.28-1.77-2.27-1.53s-1.59,1.31-1.33,2.4c.26,1.09,1.28,1.78,2.28,1.54Z"/>
    <path class="cls-3" d="M159.64,305.95c1.26-.3,2.01-1.67,1.68-3.06-.33-1.38-1.62-2.26-2.89-1.95-1.26.3-2.01,1.67-1.68,3.05.33,1.39,1.63,2.26,2.89,1.96Z"/>
    <path class="cls-3" d="M168.51,304.26c1.48-.36,2.36-1.95,1.97-3.57-.39-1.61-1.9-2.64-3.38-2.28-1.47.36-2.36,1.96-1.97,3.57.39,1.62,1.91,2.64,3.38,2.28Z"/>
    <path class="cls-3" d="M177.36,302.49c1.65-.4,2.64-2.18,2.2-4-.44-1.81-2.13-2.95-3.78-2.55s-2.63,2.19-2.2,3.99c.44,1.81,2.13,2.95,3.78,2.56Z"/>
    <path class="cls-3" d="M186.18,300.62c1.77-.43,2.83-2.35,2.36-4.29-.47-1.94-2.28-3.17-4.06-2.74-1.77.43-2.83,2.35-2.36,4.29s2.28,3.17,4.05,2.74Z"/>
    <path class="cls-3" d="M194.98,298.61c1.83-.44,2.92-2.42,2.43-4.42-.48-2-2.35-3.26-4.18-2.82-1.83.44-2.92,2.42-2.44,4.41.48,2,2.35,3.27,4.18,2.83Z"/>
    <path class="cls-3" d="M203.73,296.45c1.8-.43,2.87-2.38,2.4-4.35-.47-1.97-2.32-3.22-4.12-2.78-1.8.43-2.87,2.39-2.4,4.35.48,1.97,2.32,3.22,4.12,2.78Z"/>
    <path class="cls-3" d="M212.45,294.15c1.71-.41,2.72-2.26,2.27-4.13-.45-1.87-2.19-3.05-3.9-2.63s-2.72,2.26-2.27,4.12c.45,1.87,2.2,3.05,3.9,2.64Z"/>
    <path class="cls-3" d="M221.14,291.72c1.54-.37,2.46-2.04,2.06-3.74-.41-1.69-1.99-2.76-3.53-2.39s-2.46,2.04-2.05,3.73,1.99,2.76,3.53,2.39Z"/>
    <path class="cls-3" d="M229.81,289.2c1.35-.32,2.15-1.78,1.79-3.25-.35-1.47-1.73-2.4-3.07-2.07-1.34.32-2.14,1.78-1.79,3.25.35,1.47,1.73,2.4,3.07,2.08Z"/>
    <path class="cls-3" d="M238.45,286.58c1.09-.26,1.74-1.44,1.45-2.63s-1.4-1.94-2.49-1.68-1.73,1.44-1.45,2.63c.29,1.19,1.4,1.95,2.49,1.68Z"/>
    <path class="cls-3" d="M247.08,283.91c.81-.2,1.29-1.07,1.08-1.95-.21-.88-1.04-1.44-1.85-1.24-.8.19-1.28,1.07-1.07,1.95.21.88,1.04,1.44,1.84,1.25Z"/>
    <path class="cls-3" d="M255.7,281.19c.5-.12.79-.66.66-1.21-.13-.54-.64-.89-1.14-.77-.49.12-.79.65-.66,1.2.13.55.64.89,1.13.77Z"/>
    <path class="cls-3" d="M264.31,278.41c.16-.04.25-.21.21-.39s-.21-.29-.36-.25-.26.21-.22.39.2.29.37.25Z"/>
    <path class="cls-3" d="M135.11,319.6c.11-.03.17-.15.14-.26s-.14-.19-.24-.17-.17.14-.14.26.14.2.25.17Z"/>
    <path class="cls-3" d="M144.02,318.07c.4-.1.64-.53.54-.98-.11-.44-.52-.72-.92-.62s-.64.53-.54.97.52.72.92.62Z"/>
    <path class="cls-3" d="M152.92,316.52c.69-.17,1.09-.91.91-1.66s-.88-1.22-1.56-1.06c-.68.17-1.1.91-.92,1.65.18.75.89,1.23,1.57,1.06Z"/>
    <path class="cls-3" d="M161.79,314.86c.91-.22,1.46-1.21,1.22-2.21s-1.18-1.63-2.09-1.41-1.46,1.21-1.22,2.2c.24,1,1.18,1.63,2.09,1.41Z"/>
    <path class="cls-3" d="M170.65,313.15c1.11-.27,1.78-1.47,1.48-2.7-.29-1.22-1.44-1.99-2.55-1.72-1.11.27-1.78,1.48-1.48,2.7.3,1.22,1.44,1.99,2.55,1.73Z"/>
    <path class="cls-3" d="M179.49,311.33c1.26-.3,2.01-1.67,1.68-3.06s-1.63-2.25-2.89-1.95c-1.26.3-2.01,1.67-1.68,3.05s1.63,2.26,2.89,1.96Z"/>
    <path class="cls-3" d="M188.3,309.4c1.36-.33,2.16-1.8,1.81-3.28-.36-1.48-1.74-2.42-3.1-2.1s-2.16,1.79-1.8,3.28c.36,1.48,1.75,2.43,3.1,2.1Z"/>
    <path class="cls-3" d="M197.08,307.36c1.39-.34,2.23-1.85,1.86-3.38-.37-1.53-1.8-2.49-3.19-2.16-1.4.34-2.23,1.85-1.86,3.38s1.8,2.5,3.2,2.16Z"/>
    <path class="cls-3" d="M205.84,305.23c1.39-.33,2.21-1.83,1.84-3.35-.36-1.51-1.78-2.47-3.16-2.14-1.38.33-2.21,1.83-1.84,3.34.37,1.51,1.78,2.47,3.16,2.14Z"/>
    <path class="cls-3" d="M214.57,302.95c1.3-.31,2.08-1.72,1.74-3.15-.34-1.42-1.68-2.32-2.98-2.01s-2.08,1.72-1.74,3.15c.34,1.43,1.68,2.33,2.98,2.02Z"/>
    <path class="cls-3" d="M223.27,300.57c1.17-.28,1.86-1.55,1.56-2.83-.31-1.28-1.51-2.09-2.67-1.81-1.17.28-1.86,1.54-1.55,2.82.31,1.28,1.5,2.09,2.67,1.81Z"/>
    <path class="cls-3" d="M231.95,298.09c.98-.24,1.57-1.3,1.31-2.37s-1.26-1.75-2.25-1.51-1.56,1.3-1.31,2.37,1.26,1.75,2.24,1.52Z"/>
    <path class="cls-3" d="M240.61,295.55c.76-.18,1.22-1.01,1.02-1.85-.2-.84-.99-1.37-1.75-1.18-.76.18-1.22,1.01-1.02,1.85.2.84.99,1.37,1.75,1.18Z"/>
    <path class="cls-3" d="M249.25,292.9c.5-.12.79-.66.66-1.2s-.64-.89-1.14-.77c-.49.12-.79.66-.66,1.2.13.54.64.89,1.14.77Z"/>
    <path class="cls-3" d="M257.88,290.23c.21-.05.34-.29.29-.52-.06-.23-.28-.38-.49-.33s-.34.28-.29.52c.06.24.28.39.49.33Z"/>
    <path class="cls-3" d="M146.18,327.04c.08-.02.13-.11.1-.2s-.1-.14-.18-.13c-.08.02-.13.11-.11.2s.1.15.19.13Z"/>
    <path class="cls-3" d="M155.07,325.43c.33-.08.53-.44.45-.81s-.43-.6-.77-.52c-.34.08-.54.45-.45.81.09.37.43.6.77.52Z"/>
    <path class="cls-3" d="M163.93,323.74c.55-.13.88-.73.73-1.33-.15-.6-.71-.98-1.26-.85-.55.13-.88.73-.74,1.33.15.6.71.98,1.26.85Z"/>
    <path class="cls-3" d="M172.78,321.98c.73-.17,1.16-.96.96-1.76-.19-.79-.93-1.3-1.66-1.12-.73.17-1.16.96-.96,1.75s.93,1.3,1.66,1.12Z"/>
    <path class="cls-3" d="M181.61,320.13c.86-.21,1.37-1.14,1.14-2.08-.23-.94-1.1-1.54-1.97-1.33s-1.37,1.14-1.14,2.08c.23.94,1.11,1.54,1.96,1.33Z"/>
    <path class="cls-3" d="M190.42,318.2c.96-.23,1.52-1.26,1.27-2.31-.25-1.04-1.23-1.7-2.18-1.47s-1.52,1.26-1.27,2.31c.25,1.04,1.23,1.71,2.18,1.48Z"/>
    <path class="cls-3" d="M199.2,316.15c.98-.24,1.56-1.3,1.3-2.37s-1.26-1.75-2.24-1.52c-.98.24-1.56,1.3-1.31,2.37.26,1.07,1.26,1.75,2.24,1.52Z"/>
    <path class="cls-3" d="M207.96,314.01c.97-.23,1.55-1.28,1.29-2.34-.25-1.06-1.25-1.73-2.22-1.5s-1.54,1.28-1.29,2.34c.26,1.06,1.25,1.73,2.21,1.5Z"/>
    <path class="cls-3" d="M216.69,311.76c.9-.22,1.44-1.19,1.2-2.18s-1.16-1.61-2.06-1.39c-.9.22-1.44,1.19-1.2,2.18s1.16,1.61,2.06,1.39Z"/>
    <path class="cls-3" d="M225.4,309.4c.78-.19,1.24-1.03,1.04-1.88-.21-.85-1-1.39-1.78-1.21-.78.19-1.24,1.03-1.03,1.88.21.85,1,1.39,1.78,1.2Z"/>
    <path class="cls-3" d="M234.09,306.97c.62-.15.99-.82.82-1.49s-.79-1.11-1.41-.96c-.62.15-.99.82-.82,1.5s.8,1.1,1.41.95Z"/>
    <path class="cls-3" d="M242.75,304.43c.4-.1.65-.53.54-.97-.11-.44-.52-.72-.92-.62-.4.1-.64.53-.53.97.11.44.51.72.92.62Z"/>
    <path class="cls-3" d="M251.4,301.84c.16-.04.26-.21.22-.39s-.21-.29-.37-.25-.25.21-.21.39c.04.18.21.29.36.25Z"/>
    <path class="cls-3" d="M166.06,332.57c.16-.04.26-.21.22-.39s-.21-.28-.37-.24-.26.21-.22.39.21.29.37.25Z"/>
    <path class="cls-3" d="M174.91,330.81c.34-.08.53-.44.45-.81s-.43-.6-.77-.52-.54.45-.45.81.43.6.77.52Z"/>
    <path class="cls-3" d="M183.73,328.94c.46-.11.73-.61.6-1.11-.12-.5-.58-.81-1.04-.7-.46.11-.73.6-.61,1.1.12.5.59.82,1.04.71Z"/>
    <path class="cls-3" d="M192.54,326.98c.54-.13.86-.71.72-1.3-.14-.59-.69-.95-1.23-.83-.53.13-.86.71-.72,1.29.14.59.69.96,1.23.83Z"/>
    <path class="cls-3" d="M201.32,324.92c.57-.14.9-.75.75-1.37-.15-.61-.73-1.01-1.29-.87-.56.14-.9.75-.75,1.36.15.62.73,1.01,1.29.87Z"/>
    <path class="cls-3" d="M210.07,322.78c.55-.13.88-.73.73-1.33-.14-.6-.71-.98-1.26-.85-.55.13-.88.73-.74,1.33.15.6.71.99,1.26.85Z"/>
    <path class="cls-3" d="M218.81,320.54c.49-.12.77-.64.64-1.17-.13-.53-.62-.86-1.1-.75-.48.12-.77.64-.64,1.17.13.53.63.87,1.11.75Z"/>
    <path class="cls-3" d="M227.52,318.21c.38-.09.6-.5.5-.91-.1-.41-.48-.67-.86-.58-.37.09-.6.5-.5.91.1.41.49.67.86.58Z"/>
    <path class="cls-3" d="M236.22,315.8c.23-.05.37-.31.31-.56-.06-.25-.3-.41-.53-.35-.23.06-.36.3-.3.55s.29.41.52.36Z"/>
    <path class="cls-3" d="M244.89,313.32s.07-.05.05-.1c-.01-.04-.05-.07-.09-.06-.04,0-.06.05-.05.09.01.05.05.07.09.06Z"/>
    <path class="cls-3" d="M185.85,337.71s.07-.05.06-.1c0-.04-.05-.07-.09-.06s-.06.05-.05.1c.01.05.05.07.09.06Z"/>
    <path class="cls-3" d="M194.65,335.73c.11-.03.17-.14.14-.26s-.13-.19-.25-.17-.17.14-.14.26c.03.12.14.2.25.17Z"/>
    <path class="cls-3" d="M203.43,333.7c.15-.04.24-.19.2-.36s-.19-.26-.34-.23-.24.2-.2.36c.04.17.19.27.34.23Z"/>
    <path class="cls-3" d="M212.19,331.54c.12-.03.19-.16.16-.3s-.15-.21-.27-.18-.19.16-.16.29.16.22.28.19Z"/>
    <path class="cls-3" d="M220.93,329.31c.07-.02.11-.09.09-.17-.02-.07-.09-.12-.16-.1s-.11.09-.09.16c.02.08.09.12.15.11Z"/>
  </g>
  <g>
    <path class="cls-8" d="M162.98,157.77c-2.6-.03-4.7,2.05-4.69,4.65l.19,112.31c0,2.6,2.11,4.73,4.71,4.75l109.17,1.22c2.6.03,4.75-2.05,4.81-4.65l2.7-112.27c.06-2.6-1.99-4.72-4.59-4.75l-112.31-1.26Z"/>
    <path class="cls-8" d="M162.98,157.77c-2.6-.03-4.7,2.05-4.69,4.65l.19,112.31c0,2.6,2.11,4.73,4.71,4.75l109.17,1.22c2.6.03,4.75-2.05,4.81-4.65l2.7-112.27c.06-2.6-1.99-4.72-4.59-4.75l-112.31-1.26Z"/>
    <path class="cls-8" d="M164.49,279.77l-.09,8.34c-.03,2.6,2.05,4.72,4.65,4.75l97.68,1.09c2.6.03,4.72-2.05,4.75-4.65l.09-8.34-107.08-1.2Z"/>
    <path class="cls-8" d="M164.49,279.77l-.09,8.34c-.03,2.6,2.05,4.72,4.65,4.75l97.68,1.09c2.6.03,4.72-2.05,4.75-4.65l.09-8.34-107.08-1.2Z"/>
  </g>
  <g>
    <g>
      <path class="cls-5" d="M160.12,158.46c-2.6-.03-4.7,2.05-4.69,4.65l.19,112.31c0,2.6,2.11,4.73,4.71,4.75l109.17,1.22c2.6.03,4.75-2.05,4.81-4.65l2.7-112.27c.06-2.6-1.99-4.72-4.59-4.75l-112.31-1.26Z"/>
      <path d="M160.12,158.46c-2.54-.07-4.77,2.19-4.66,4.73,0,0,.05,7.43.05,7.43.15,34.62.94,69.45,1.86,104.04v.46c.02.16.02.32.03.4.07,1.33,1.21,2.54,2.52,2.67,29.94-.31,66.34-.7,96.32-.41,2.34-.01,8.85.08,11.15.07,0,0,1.86.01,1.86.01.41,0,.34,0,.46-.02.58-.08,1.08-.59,1.11-1.19.72-27.63,1.75-55.71,3.03-83.3.37-8.05.99-20.81,1.37-28.77.2-2.08-1.61-3.51-3.64-3.3-35.69-1.33-75.7-2.41-111.45-2.84h0ZM160.12,158.46c33.1.35,70.99.2,104.05-.25,0,0,7.43-.1,7.43-.1,3.35-.36,6.64,1.93,7.11,5.36.12.63.07,1.51.08,2.14,0,0,0,1.86,0,1.86,0,6.61,0,19.26-.01,26.02-.06,27.76-.34,56.03-1.01,83.81-.23,4.31-4.35,7.9-8.61,7.6,0,0-1.86-.03-1.86-.03-2.28-.05-8.76-.12-11.15-.17-28.68-.4-64.23-1.44-92.88-2.47l-1.86-.07-.93-.03c-2.12,0-4.29-1.1-5.47-2.86-.95-1.32-1.29-3.01-1.17-4.6.8-34.59,1.49-69.43,1.51-104.05l.02-7.43c-.08-2.55,2.17-4.83,4.73-4.73h0Z"/>
    </g>
    <g>
      <path class="cls-5" d="M160.12,158.46c-2.6-.03-4.7,2.05-4.69,4.65l.19,112.31c0,2.6,2.11,4.73,4.71,4.75l109.17,1.22c2.6.03,4.75-2.05,4.81-4.65l2.7-112.27c.06-2.6-1.99-4.72-4.59-4.75l-112.31-1.26Z"/>
      <path d="M160.12,158.46c-2.54-.07-4.77,2.19-4.66,4.73,0,0,.05,7.43.05,7.43.15,34.62.94,69.45,1.86,104.04v.46c.02.16.02.32.03.4.07,1.33,1.21,2.54,2.52,2.67,29.94-.31,66.34-.7,96.32-.41,2.34-.01,8.85.08,11.15.07,0,0,1.86.01,1.86.01.41,0,.34,0,.46-.02.58-.08,1.08-.59,1.11-1.19.72-27.63,1.75-55.71,3.03-83.3.37-8.05.99-20.81,1.37-28.77.2-2.08-1.61-3.51-3.64-3.3-35.69-1.33-75.7-2.41-111.45-2.84h0ZM160.12,158.46c33.1.35,70.99.2,104.05-.25,0,0,7.43-.1,7.43-.1,3.35-.36,6.64,1.93,7.11,5.36.12.63.07,1.51.08,2.14,0,0,0,1.86,0,1.86,0,6.61,0,19.26-.01,26.02-.06,27.76-.34,56.03-1.01,83.81-.23,4.31-4.35,7.9-8.61,7.6,0,0-1.86-.03-1.86-.03-2.28-.05-8.76-.12-11.15-.17-28.68-.4-64.23-1.44-92.88-2.47l-1.86-.07-.93-.03c-2.12,0-4.29-1.1-5.47-2.86-.95-1.32-1.29-3.01-1.17-4.6.8-34.59,1.49-69.43,1.51-104.05l.02-7.43c-.08-2.55,2.17-4.83,4.73-4.73h0Z"/>
    </g>
    <g>
      <path class="cls-5" d="M161.63,280.46l-.09,8.34c-.03,2.6,2.05,4.72,4.65,4.75l97.68,1.09c2.6.03,4.72-2.05,4.75-4.65l.09-8.34-107.08-1.2Z"/>
      <path d="M161.63,280.46c.12,2.85.33,5.53.48,8.09.01,1.8,1.16,3.36,2.83,3.84.61.17,1,.15,1.67.12,5.38-.22,10.77-.43,16.15-.6,8.06-.25,24.24-.6,32.29-.7,16.14-.22,32.29-.23,48.43-.07.71.08,1.45-.18,1.59-.99.01-.04.02-.08.02-.13v-.08s.01-.25.01-.25l.11-8.07,3.45,3.53c-35.68-.52-71.35-2.5-107.04-4.69h0ZM161.63,280.46c26.03-1.17,53.54-2.01,79.74-2.28,10.25-.09,20.59-.08,30.86,0-.02,2.26-.08,9.21-.1,11.58.04,2.28-.88,4.59-2.57,6.14-1.63,1.56-3.92,2.36-6.16,2.24-21.2-.25-43.31-.9-64.55-1.79-9.92-.52-23.61-1.06-33.4-1.87-2.76-.43-4.87-3.27-4.49-5.98,0,0,.66-8.05.66-8.05h0Z"/>
    </g>
    <g>
      <path class="cls-5" d="M161.63,280.46l-.09,8.34c-.03,2.6,2.05,4.72,4.65,4.75l97.68,1.09c2.6.03,4.72-2.05,4.75-4.65l.09-8.34-107.08-1.2Z"/>
      <path d="M161.63,280.46c.12,2.85.33,5.53.48,8.09.01,1.8,1.16,3.36,2.83,3.84.61.17,1,.15,1.67.12,5.38-.22,10.77-.43,16.15-.6,8.06-.25,24.24-.6,32.29-.7,16.14-.22,32.29-.23,48.43-.07.71.08,1.45-.18,1.59-.99.01-.04.02-.08.02-.13v-.08s.01-.25.01-.25l.11-8.07,3.45,3.53c-35.68-.52-71.35-2.5-107.04-4.69h0ZM161.63,280.46c26.03-1.17,53.54-2.01,79.74-2.28,10.25-.09,20.59-.08,30.86,0-.02,2.26-.08,9.21-.1,11.58.04,2.28-.88,4.59-2.57,6.14-1.63,1.56-3.92,2.36-6.16,2.24-21.2-.25-43.31-.9-64.55-1.79-9.92-.52-23.61-1.06-33.4-1.87-2.76-.43-4.87-3.27-4.49-5.98,0,0,.66-8.05.66-8.05h0Z"/>
    </g>
  </g>
  <g>
    <polygon class="cls-4" points="194.15 182.73 204.11 207.94 185.07 211.79 231.7 260.35 219.57 222.01 233.43 223.36 224.42 176.26 194.15 182.73"/>
    <path d="M194.4,182.86c4.66,8.75,9.59,17.73,13.16,26.9-7.3,1.6-14.69,2.95-22.09,4.02,0,0,1.07-3.41,1.07-3.41,7.28,8.55,14.53,17.15,22.48,25.09,7.83,8.04,16.22,15.55,24.3,23.34l-3.75,2.23c-1.92-5.42-4.59-13.5-6.46-19.04-1.05-3.16-6.84-20.57-7.73-23.27l4.48.38c4.63.39,9.25.83,13.87,1.32l-3.21,3.52c-2.11-11.35-4.28-23.98-6.2-35.44l-1.93-11.84,2.47,1.64c-10.1,1.72-20.05,2.96-30.46,4.58h0ZM193.91,182.6c9.81-2.75,22.2-6.46,32.07-8.87,1.53,6.85,4.1,18.71,5.55,25.59,1.95,9.08,3.79,18.25,5.59,27.37l-3.98-.36c-4.63-.42-9.25-.87-13.86-1.39l3.09-3.81c4.41,14.74,10.07,33.11,14.04,47.86-9.63-10.56-18.9-21.91-28.66-32.31-8.42-9.15-17.71-17.48-26.81-25.94,7.5-1.92,15.07-3.81,22.67-5.23,0,0-1.83,3.36-1.83,3.36-3.26-8.49-5.82-17.52-7.88-26.26h0Z"/>
  </g>
  <g>
    <path class="cls-2" d="M193.12,109.06c1.74,8.03.44,16.88-4.18,23.84-4.53,7.05-13.98,11.15-21.98,8.17,18.32,1.34,25.84-16.33,26.16-32.01h0Z"/>
    <path class="cls-2" d="M236.65,108.42c1.09,5.97,1.85,12.05,3.81,17.65,3.57,11.42,15.02,18.14,26.54,18.21,5.71.13,11.51-1.06,17.5-2.29l.31.78c-5.24,3.26-11.38,5.33-17.83,5.44-9.53-.11-19.36-4.85-24.68-12.88-5.23-7.92-5.34-17.85-5.64-26.9h0Z"/>
    <path class="cls-2" d="M230.64,109.37c-.03,11.58-2.66,23.52,1.37,34.67.59,1.52,1.39,2.96,2.71,4.08-.82-.27-1.58-.76-2.26-1.36-8.69-9.41-5.77-26.39-1.83-37.39h0Z"/>
    <path class="cls-2" d="M120.14,98.11c14.72,5.36,20.18,27.76,38.19,25.2-.9.47-1.88.82-2.9,1.05-7.47,1.54-14.59-3.03-19.38-8.37-5.34-5.86-9.44-13.1-15.91-17.89h0Z"/>
    <path class="cls-2" d="M138.82,124.94c13.06,5.8,25.42,7.38,36.23-3.48,3.12-3.09,5.79-6.73,8.12-10.68-1.07,4.53-3.28,8.78-6.23,12.4-10.14,12.69-26.44,11.65-38.12,1.76h0Z"/>
  </g>
  <g>
    <path class="cls-8" d="M90.3,218.85l-21.92,25.87c-1.68,1.98-1.43,4.95.55,6.63l90.85,76.98c1.98,1.68,4.95,1.43,6.63-.55l21.92-25.87-98.02-83.05Z"/>
    <g>
      <path class="cls-5" d="M92.47,220.26l-22.49,25.37c-1.72,1.94-1.54,4.91.4,6.64l89.1,78.99c1.94,1.72,4.91,1.54,6.64-.4l24.47-27.63-98.12-82.97Z"/>
      <path d="M92.47,220.26c-7,8.52-13.45,16.69-20.21,24.9-.32.34-1.13,1.39-1.38,1.71-.68,1.05-.68,2.49.06,3.5.31.51,2.75,2.37,3.25,2.84,28.8,24.01,59.09,50.23,87.26,75.11l.3.26c.11.1.08.06.13.1.05.04.11.08.17.11.41.22.97.14,1.31-.15.12-.1.06-.04.22-.21,0,0,1.06-1.19,1.06-1.19l2.13-2.39c2.77-3.11,18.2-20.37,21.3-23.85l.35,4.8c-30.53-26.26-66.17-58.42-95.95-85.54h0ZM92.47,220.26c32.06,24.97,68.96,54.38,100.29,80.4,0,0,2.65,2.18,2.65,2.18-4.6,5.25-18.9,21.51-23.41,26.64-.69.8-2.5,2.83-3.17,3.6-2.95,3.6-8.8,3.8-12.03.47-19.52-17.39-42.53-38.09-61.63-55.81-7.81-7.15-15.66-14.56-23.4-21.81l-2.33-2.19c-.16-.15-.45-.44-.69-.7-2.16-2.42-1.99-6.43.37-8.63,0,0,1.13-1.19,1.13-1.19,2.92-3.11,18.91-19.55,22.22-22.96h0Z"/>
    </g>
  </g>
  <g>
    <g>
      <path class="cls-6" d="M162.57,87.54c2.79,14.1,26.32,25.18,56.13,24.79,34.66-.45,54.02-9.91,50.86-28.51-3.19-18.77-33.47-30.88-61.7-29.8-29.43,4.53-48.1,19.33-45.29,33.52Z"/>
      <path class="cls-6" d="M162.22,96.52c16.07,30.74,22.51,10.54,52.38,13.39,21.42,2.04,56.21,4.41,52.41-17.31-3.83-21.92-28.77-41.68-63.12-36.69-29.48,4.28-49.51,25.63-41.68,40.62Z"/>
      <path class="cls-2" d="M170.38,69.13c-8.37,5.9-9.61,21.19-5.36,29.92,4.76,9.5,17.62,17.45,28.05,12.24.55-.3,1.24-.1,1.54.45.29.53.1,1.19-.4,1.5-2.79,1.7-6.1,2.43-9.31,2.35-9.69-.37-18.55-6.3-23.38-14.71-4.52-8.71-4.44-19.3-.6-28.25,1.38-3.01,3.36-5.98,6.44-8.11,3.13-2.04,6.14,2.56,3.02,4.61h0Z"/>
      <path class="cls-3" d="M194.82,107.54c-2.05-3.59-5.11-6.79-8.64-8.35-3.48-1.53-7.36-1.25-9.52,1.12-2.13,2.33-2.2,6.79.16,9.92,1.88,2.49,4.89,3.78,7.62,3.97,2.77.19,5.34-.58,7.9-1.36,1.25-.38,2.59-.83,3.19-2.01.6-1.18-.09-3.3-1.52-3.66"/>
      <g>
        <path class="cls-6" d="M253.97,62.25c17.49,5.11,33.78,12.15,32.9,31.18-.71,15.31-23.9,29.23-39.46,22.04"/>
        <path class="cls-2" d="M255.12,58.28c13.17,2.97,28.2,8.23,34.17,21.77,6.32,15.85-1.49,29.53-16.08,36.21-8.1,3.7-18.38,4.79-26.16-.05-.79-.51-.21-1.75.68-1.48,3.91,1.16,7.95,1.15,11.76.3,10.24-2.24,22.82-11.2,22.85-22.37.25-11.38-8.56-17.84-18.24-21.96-3.61-1.64-7.45-3.01-11.33-4.49-4.72-1.91-2.65-8.89,2.34-7.93h0Z"/>
      </g>
      <path class="cls-3" d="M228.82,109.32c1.4-4.68,4.68-9.03,9.78-11.42,5.21-2.45,12.47-2.58,18.02.41s8.6,9.4,5.8,13.97c-2.19,3.57-7.21,5.38-12.2,5.63-4.89.24-9.82-.8-14.56-1.82-2.26-.49-4.68-1.05-6.25-2.54-1.57-1.48-1.57-4.18.52-4.7"/>
      <g>
        <path class="cls-6" d="M262,75.3c-11.83-7.27-25.87-33.04-51.76-30.8-20.57,1.78-33.02,18.17-29.85,34.35"/>
        <path class="cls-2" d="M261.46,76.17c-4.25-2.46-7.67-5.9-11.2-9.19-6.7-6.4-13.52-12.96-21.88-16.92-15.86-7.89-38.41-1.67-45.06,15.44-1.66,4.09-2.11,8.62-1.49,13.06.26,1.85-2.44,2.38-2.91.57-3.82-15.55,7.27-30.69,22.01-35.12,21.85-6.87,37.72,5.3,51.52,20.8,3.22,3.46,6.39,6.98,10.07,9.61,1.05.72.1,2.38-1.07,1.75h0Z"/>
      </g>
    </g>
    <g>
      <path class="cls-6" d="M190.3,100.2c.8,4.17,5.07,21.76,27.25,16.56,7.8-1.83,13.09-8.99,14.87-11.9"/>
      <path class="cls-2" d="M191.31,100.01c3.03,12.44,12,18,24.43,15.31,6.61-1.12,11.73-5.75,15.77-11.04.36-.48,1.05-.58,1.53-.21.43.32.55.91.31,1.37-1.12,2.17-2.51,4.18-4.16,5.99-3.28,3.71-7.79,6.61-12.77,7.39-7.25,1.53-15.76.53-21.03-5.19-3.54-3.67-5.4-8.47-6.1-13.23-.16-1.28,1.7-1.64,2.01-.38h0Z"/>
    </g>
  </g>
  <g>
    <polygon class="cls-7" points="85.03 172.9 71.77 187.77 71.13 169.9 51.77 161.53 70.13 155.22 71.48 133.63 85.23 148.7 106.7 139.11 93.63 159.18 106.03 175.54 85.03 172.9"/>
    <polygon class="cls-4" points="71.49 155.85 72.46 140.37 82.22 151.06 97.1 144.42 87.99 158.41 97.09 170.42 82.14 168.54 73.01 178.78 72.58 166.66 58.18 160.43 71.49 155.85"/>
  </g>
  <g>
    <polygon class="cls-7" points="110.29 85.64 99.26 98 98.74 83.14 82.63 76.18 97.9 70.93 99.03 52.97 110.46 65.51 128.32 57.53 117.45 74.22 127.76 87.83 110.29 85.64"/>
    <polygon class="cls-4" points="99.03 71.46 99.84 58.58 107.96 67.47 120.34 61.95 112.76 73.58 120.33 83.57 107.89 82.01 100.3 90.53 99.94 80.44 87.96 75.27 99.03 71.46"/>
  </g>
  <g>
    <polygon class="cls-7" points="325.76 173.08 308.5 174.77 318.64 162.95 311.18 146.16 326.66 152.95 340.28 139.93 340.18 157.7 359.6 164.24 339.38 169.37 337.66 187.16 325.76 173.08"/>
    <polygon class="cls-4" points="327.16 154.17 336.93 144.82 336.86 157.43 350.32 161.97 336.22 165.54 334.96 178.61 326.49 168.58 314.6 169.74 321.48 161.73 315.93 149.24 327.16 154.17"/>
  </g>
</svg>