<?xml version="1.0" encoding="UTF-8"?>
<svg id="Ebene_6" data-name="Ebene 6" xmlns="http://www.w3.org/2000/svg" xmlns:xlink="http://www.w3.org/1999/xlink" viewBox="0 0 384.56 386.26">
  <defs>
    <style>
      .cls-1 {
        fill: none;
      }

      .cls-2 {
        fill: #010101;
      }

      .cls-3 {
        fill: #c9e8fb;
      }

      .cls-4 {
        fill: #ffd317;
      }

      .cls-5 {
        fill: #1d1d1b;
      }

      .cls-6 {
        fill: #ef95ab;
      }

      .cls-7 {
        fill: #1d1d1b;
      }

      .cls-8 {
        fill: #ffd618;
      }

      .cls-9 {
        fill: #fff;
      }

      .cls-10 {
        fill: #f7d1ca;
      }

      .cls-11 {
        fill: #211f1f;
      }

      .cls-12 {
        clip-path: url(#clippath);
      }
    </style>
    <clipPath id="clippath">
      <rect class="cls-1" x="18.55" y="72.32" width="347.39" height="248.17"/>
    </clipPath>
  </defs>
  <g>
    <circle class="cls-3" cx="193.2" cy="194" r="187.09"/>
    <path class="cls-5" d="M380.94,194c.32,71.9-39.73,142.73-105.32,174.26-108.35,52.85-236.21-14.34-266.43-128.17C-32.96,82.06,128.57-51.54,275.83,19.31c65.41,32.06,105.6,102.57,105.12,174.69h0ZM379.64,194c.31-61.48-33.76-118.84-85.55-151.01C191.94-21.55,56.37,25.56,18.81,141.1c-13.17,39.97-12.32,84.46,3.56,123.66,37.31,94.69,148.11,134.79,240.23,96.79,68.09-27.13,117.64-93.08,117.04-167.54h0Z"/>
  </g>
  <g>
    <path class="cls-6" d="M163.6,151.9c.39,0,.7-.34.7-.77s-.32-.76-.7-.76-.7.34-.7.76.31.77.7.77"/>
    <path class="cls-6" d="M174.56,152.1c.49,0,.89-.43.89-.97s-.4-.97-.89-.97-.88.44-.88.97.39.97.88.97"/>
    <path class="cls-6" d="M185.54,152.17c.52,0,.94-.46.94-1.03s-.42-1.03-.94-1.03-.95.46-.95,1.03.42,1.03.95,1.03"/>
    <path class="cls-6" d="M196.5,152.13c.5,0,.91-.44.91-1s-.41-1-.91-1-.91.45-.91,1,.41,1,.91,1"/>
    <path class="cls-6" d="M207.47,152c.44,0,.79-.39.79-.87s-.35-.86-.79-.86-.79.39-.79.86.36.87.79.87"/>
    <path class="cls-4" d="M285.58,140.8c-36.71,15.69-43.99,26.87-21.17,52-44.22-10.06-58.33-6.16-63.02,27.36-25.29-36.59-38.33-43.26-74.64-33.39,18.42-28.96,13.55-41.38-19-68.72,35.21,1.27,42.49-9.91,38.51-53.77,25.38,28.79,39.49,24.9,67.47-10.59,1.99,38.56,15.02,45.23,53.84,33.81-20.91,30.51-16.05,42.93,17.99,53.31"/>
    <path class="cls-2" d="M285.66,140.99c-1.38.65-2.77,1.28-4.14,1.95-1.37.66-2.73,1.33-4.1,2.02-1.37.67-2.71,1.39-4.06,2.09-1.33.74-2.67,1.45-3.98,2.23-.66.37-1.32.76-1.95,1.17-.64.41-1.3.79-1.92,1.22-1.28.83-2.51,1.71-3.71,2.63-1.19.93-2.35,1.9-3.42,2.96-.53.53-1.07,1.05-1.55,1.63-.24.28-.5.55-.73.85l-.67.89c-.85,1.21-1.61,2.49-2.08,3.87-.29.67-.41,1.39-.58,2.09-.09.72-.21,1.43-.19,2.15-.06.72.07,1.45.12,2.17.16.72.23,1.44.47,2.14l.31,1.06.39,1.04c.23.7.59,1.36.89,2.04.31.68.7,1.32,1.05,1.99.38.65.78,1.28,1.17,1.93l1.28,1.87c.44.61.9,1.21,1.35,1.82.93,1.2,1.87,2.38,2.87,3.52.97,1.16,2.01,2.27,3.03,3.4l3.23,3.58-4.62-.99c-3.31-.71-6.63-1.41-9.96-2.03-1.66-.33-3.33-.6-4.99-.89-1.67-.25-3.33-.53-5-.74-1.67-.23-3.34-.4-5-.57l-2.5-.2-2.5-.13c-1.66-.05-3.32-.06-4.97.02-.83.02-1.64.12-2.46.18-.81.08-1.62.21-2.42.32-1.59.31-3.18.65-4.67,1.22-1.52.51-2.93,1.25-4.27,2.09-1.33.86-2.52,1.93-3.62,3.08l-.77.93-.39.46-.35.5-.7,1-.63,1.06c-.44.69-.77,1.48-1.16,2.21-.35.77-.68,1.55-.99,2.33-.6,1.6-1.13,3.23-1.57,4.9-.45,1.67-.84,3.37-1.18,5.09-.35,1.72-.62,3.46-.9,5.19l-.67,4.25-2.37-3.44c-1.09-1.57-2.15-3.15-3.26-4.7l-3.31-4.65c-1.13-1.53-2.25-3.06-3.41-4.55-.58-.75-1.16-1.5-1.76-2.23-.6-.74-1.18-1.48-1.8-2.19-2.42-2.88-4.97-5.65-7.71-8.16-.69-.62-1.37-1.25-2.09-1.82l-1.07-.88-1.1-.83c-1.47-1.12-3.02-2.09-4.6-3-1.61-.87-3.24-1.67-4.95-2.29l-1.28-.47-1.3-.39c-.86-.29-1.76-.44-2.64-.66-.89-.18-1.79-.33-2.69-.46-.91-.08-1.81-.24-2.73-.27-.91-.06-1.82-.12-2.74-.11l-1.38-.02-1.38.05c-.92.02-1.84.1-2.76.18-.92.06-1.84.18-2.76.29-1.84.22-3.67.51-5.49.85-.91.16-1.82.34-2.74.54-.91.19-1.82.37-2.73.6-1.82.42-3.62.89-5.43,1.36l-1.56.41.89-1.41c.91-1.45,1.83-2.9,2.69-4.39.44-.73.86-1.49,1.28-2.23.43-.75.83-1.5,1.22-2.27.41-.76.79-1.52,1.14-2.3l.55-1.16.5-1.19c.35-.78.66-1.59.95-2.39.31-.8.55-1.62.81-2.44.27-.81.44-1.65.66-2.48.16-.83.35-1.67.46-2.52.1-.85.22-1.69.24-2.54.07-.85.04-1.7.01-2.54-.11-1.69-.33-3.37-.78-4.99-.4-1.64-1.03-3.2-1.7-4.74-.73-1.51-1.52-2.99-2.45-4.39l-.68-1.06-.74-1.02c-.48-.68-1-1.35-1.53-2-.51-.66-1.05-1.31-1.61-1.93-.54-.64-1.1-1.27-1.67-1.88-1.12-1.24-2.3-2.44-3.49-3.62-4.78-4.71-9.89-9.07-15.07-13.32l-2.63-2.17,3.4.03c1.64.02,3.28.05,4.91.02,1.64,0,3.27-.09,4.89-.18,1.63-.1,3.24-.26,4.85-.47,1.6-.23,3.19-.5,4.75-.89.77-.21,1.56-.38,2.3-.65l1.14-.37c.37-.14.73-.29,1.1-.44,1.47-.58,2.85-1.34,4.14-2.21,1.29-.88,2.43-1.95,3.46-3.12.25-.3.48-.62.72-.93l.36-.47.31-.5.63-1.01.54-1.06.27-.53.23-.56.47-1.12c.25-.77.54-1.53.75-2.33.44-1.59.8-3.21,1.04-4.87.13-.83.25-1.65.33-2.5.09-.84.18-1.68.22-2.52.13-1.68.17-3.39.2-5.09.1-6.82-.41-13.7-1.04-20.56l-.52-5.7,3.78,4.14c1.2,1.3,2.38,2.63,3.61,3.89.6.64,1.22,1.27,1.85,1.88.63.61,1.24,1.25,1.89,1.83,1.27,1.2,2.58,2.34,3.91,3.43.68.52,1.35,1.08,2.04,1.57.7.48,1.38,1.01,2.1,1.45.72.43,1.41.92,2.16,1.29l1.1.59c.37.19.75.34,1.12.52,1.49.7,3.04,1.16,4.6,1.5,1.57.29,3.14.41,4.72.31,1.57-.15,3.14-.41,4.67-.96,1.54-.49,3.03-1.22,4.5-1.99,1.45-.84,2.88-1.75,4.26-2.79,1.38-1.02,2.72-2.13,4.03-3.29,1.31-1.16,2.58-2.39,3.84-3.63l1.86-1.91,1.82-1.96c1.21-1.32,2.39-2.66,3.56-4.02,1.17-1.35,2.34-2.73,3.48-4.12,1.16-1.38,2.27-2.81,3.41-4.2l3.34-4.1.33,5.35c.11,1.71.18,3.43.34,5.14.13,1.71.33,3.4.52,5.09l.35,2.52.44,2.5c.16.82.35,1.64.53,2.46.19.81.42,1.61.63,2.41.23.8.5,1.57.74,2.36.3.75.58,1.53.89,2.27.35.72.64,1.49,1.04,2.16l.58,1.04c.2.34.43.65.64.98.41.68.93,1.24,1.4,1.85.25.29.53.55.79.83.26.28.52.56.83.79l.86.74.93.65.46.32.5.27.99.55c.71.28,1.37.65,2.12.86l1.09.37,1.12.27c1.51.37,3.08.54,4.65.68l2.38.08,2.41-.06,2.42-.17,2.42-.27c1.61-.22,3.23-.46,4.84-.76,1.62-.28,3.23-.64,4.84-.99,1.61-.37,3.21-.75,4.82-1.18,1.61-.39,3.2-.87,4.8-1.29l3.9-1.02-2.33,3.41c-.87,1.27-1.77,2.52-2.6,3.81-.86,1.28-1.68,2.58-2.49,3.88-.79,1.32-1.58,2.63-2.3,3.99-.37.67-.74,1.34-1.07,2.03-.34.68-.7,1.36-.99,2.06-.64,1.39-1.22,2.8-1.7,4.24-.25.72-.48,1.44-.66,2.17-.09.37-.2.73-.28,1.1l-.21,1.1c-.17.74-.19,1.48-.3,2.22-.03.37-.02.74-.04,1.11s-.03.74,0,1.1c.03,1.48.36,2.91.79,4.3.48,1.37,1.18,2.66,1.99,3.87.86,1.18,1.82,2.3,2.92,3.29.27.25.54.5.82.74l.87.69c.57.48,1.19.89,1.79,1.32,1.22.84,2.5,1.61,3.81,2.32.64.38,1.32.7,1.98,1.03.66.35,1.34.66,2.02.97,1.35.64,2.73,1.2,4.11,1.78,1.39.54,2.78,1.1,4.19,1.6,1.4.53,2.82.99,4.23,1.49l.49.17-.47.22ZM284.96,140.83c-1.25-.36-2.51-.7-3.75-1.1-1.43-.43-2.86-.91-4.28-1.39-1.41-.52-2.83-1.03-4.22-1.62-.7-.28-1.39-.57-2.08-.89-.69-.31-1.38-.61-2.05-.97-1.36-.67-2.7-1.4-4.01-2.22-.64-.42-1.3-.81-1.92-1.29l-.94-.69c-.31-.24-.6-.5-.9-.75-1.21-.99-2.29-2.16-3.29-3.42-.96-1.29-1.78-2.73-2.37-4.28-.54-1.56-.96-3.2-1.04-4.87-.05-.41-.05-.83-.05-1.24,0-.41,0-.83.01-1.25.09-.81.1-1.66.26-2.46l.2-1.22c.08-.4.18-.79.27-1.19.17-.8.4-1.58.64-2.35.47-1.55,1.04-3.06,1.67-4.53.3-.75.64-1.46.98-2.19.33-.73.68-1.44,1.05-2.14.71-1.43,1.49-2.8,2.26-4.18.79-1.36,1.59-2.72,2.43-4.05.82-1.34,1.7-2.64,2.55-3.96l1.57,2.38c-1.61.48-3.22.98-4.84,1.41-1.62.46-3.25.88-4.88,1.29-1.64.39-3.28.79-4.94,1.11-1.65.35-3.33.62-5,.88l-2.53.33-2.55.23-2.57.11c-.87-.01-1.73-.01-2.59-.04-1.73-.11-3.47-.27-5.2-.66l-1.3-.29-1.28-.39c-.87-.23-1.68-.65-2.53-.98l-1.21-.63-.6-.33-.58-.38c-.39-.26-.77-.5-1.15-.77l-1.08-.88c-.37-.28-.7-.61-1.02-.94-.33-.33-.67-.65-.98-1-.58-.72-1.22-1.41-1.72-2.19-.26-.38-.54-.76-.78-1.15l-.69-1.2c-.49-.79-.83-1.64-1.24-2.46-.37-.83-.7-1.69-1.03-2.54-.28-.86-.59-1.72-.85-2.59-.23-.87-.49-1.74-.7-2.61-.19-.87-.41-1.75-.58-2.63l-.49-2.64-.39-2.64c-.22-1.76-.44-3.53-.59-5.29-.17-1.77-.27-3.53-.39-5.29l3.67,1.24c-1.14,1.43-2.26,2.88-3.42,4.3-1.15,1.43-2.32,2.84-3.51,4.23-1.2,1.39-2.41,2.77-3.65,4.12l-1.88,2.02-1.93,1.98c-1.32,1.3-2.64,2.58-4.04,3.81-1.39,1.23-2.82,2.41-4.33,3.52-1.5,1.12-3.08,2.13-4.72,3.08-1.67.89-3.39,1.72-5.23,2.28-1.81.63-3.74.95-5.66,1.1-1.93.11-3.87-.05-5.75-.43-1.86-.43-3.69-1.01-5.39-1.82-.43-.2-.86-.38-1.28-.6l-1.23-.68c-.83-.43-1.59-.97-2.38-1.46-.79-.49-1.51-1.06-2.27-1.6-.74-.55-1.45-1.14-2.17-1.71-1.41-1.18-2.78-2.4-4.09-3.66-.68-.62-1.3-1.28-1.95-1.92-.65-.64-1.28-1.3-1.9-1.97-1.26-1.31-2.46-2.68-3.67-4.04l3.26-1.56c.57,6.95,1.02,13.94.85,21.01-.06,1.77-.14,3.54-.3,5.32-.06.89-.17,1.77-.28,2.66-.09.89-.23,1.77-.39,2.66-.29,1.77-.71,3.54-1.22,5.29-.25.87-.59,1.73-.89,2.59l-.55,1.27-.28.64-.33.61-.66,1.22-.75,1.17-.39.58-.43.54c-.29.36-.56.74-.87,1.08-1.24,1.37-2.63,2.6-4.14,3.6-1.51.98-3.1,1.82-4.75,2.42-.41.15-.82.32-1.23.46l-1.25.37c-.83.27-1.67.43-2.51.63-1.68.36-3.36.61-5.04.8-1.68.17-3.36.29-5.03.35-1.68.05-3.35.08-5.01.05-1.67-.01-3.33-.1-4.99-.16l.77-2.13c5.1,4.43,10.16,8.92,14.89,13.83,1.18,1.23,2.35,2.47,3.46,3.77.57.64,1.12,1.29,1.66,1.96.55.66,1.08,1.33,1.6,2.03.53.68,1.04,1.37,1.52,2.09.5.7.97,1.43,1.43,2.17.93,1.47,1.74,3.02,2.49,4.61.69,1.62,1.33,3.27,1.73,5.01.45,1.72.67,3.51.76,5.29.02.89.05,1.79-.02,2.68-.02.89-.15,1.78-.27,2.66-.12.88-.31,1.75-.49,2.62-.23.85-.41,1.73-.7,2.56-.27.84-.52,1.69-.85,2.51-.3.83-.62,1.65-.98,2.45l-.52,1.21-.56,1.18c-.37.79-.75,1.58-1.16,2.35-.39.78-.79,1.55-1.22,2.31-.42.76-.83,1.53-1.28,2.27-.86,1.51-1.78,2.98-2.69,4.45l-.68-1.01c1.82-.48,3.63-.97,5.46-1.41.91-.23,1.83-.45,2.75-.65.91-.22,1.83-.42,2.76-.6,1.84-.38,3.7-.71,5.56-.97.93-.13,1.87-.27,2.81-.35.94-.1,1.88-.19,2.82-.23l1.41-.1,1.41-.03c.95-.04,1.9,0,2.84.03.95,0,1.89.14,2.84.19.94.11,1.89.24,2.82.4.93.2,1.88.34,2.8.61l1.39.37,1.37.45c1.82.6,3.58,1.39,5.3,2.25,1.69.91,3.36,1.89,4.93,3.01l1.18.84,1.14.89c.77.58,1.5,1.22,2.23,1.84,2.92,2.52,5.62,5.3,8.18,8.18.65.71,1.27,1.45,1.9,2.18.63.73,1.25,1.47,1.85,2.22,1.23,1.49,2.41,3.01,3.59,4.53,1.17,1.53,2.34,3.06,3.46,4.62,1.14,1.55,2.24,3.13,3.36,4.7l-3.04.81c.25-1.8.52-3.6.85-5.4.33-1.8.72-3.6,1.19-5.38.47-1.78,1.04-3.55,1.68-5.29.34-.87.71-1.73,1.09-2.59.43-.84.8-1.7,1.31-2.51l.72-1.22.81-1.17.41-.58.46-.55.92-1.1c1.31-1.39,2.75-2.65,4.35-3.66,1.59-.99,3.27-1.85,5.01-2.42,1.72-.64,3.5-1.01,5.26-1.33.88-.11,1.76-.25,2.64-.33.88-.06,1.76-.16,2.64-.18,1.76-.07,3.5-.05,5.24.02l2.6.15,2.58.23c1.71.2,3.43.4,5.13.66,1.7.24,3.39.55,5.08.83,1.68.32,3.37.62,5.04.98,3.36.67,6.69,1.44,10.01,2.21l-1.39,2.59c-1.02-1.18-2.05-2.34-3.03-3.57-1-1.2-1.95-2.46-2.89-3.72-.46-.65-.92-1.28-1.37-1.93l-1.3-2.01c-.4-.69-.81-1.38-1.2-2.08-.36-.72-.75-1.43-1.08-2.17-.32-.76-.68-1.48-.93-2.28l-.41-1.17-.31-1.21c-.24-.8-.31-1.66-.46-2.49-.04-.85-.15-1.7-.07-2.56,0-.86.17-1.71.31-2.56.23-.83.41-1.67.76-2.45.6-1.6,1.5-3.02,2.49-4.33l.76-.96c.26-.31.55-.6.82-.89.54-.61,1.13-1.14,1.72-1.68,1.18-1.06,2.43-2.02,3.7-2.93,1.28-.89,2.59-1.74,3.91-2.53.66-.41,1.33-.77,2.01-1.16.67-.39,1.35-.75,2.03-1.1,1.35-.73,2.73-1.39,4.11-2.07,1.39-.64,2.76-1.31,4.16-1.92,2.61-1.16,5.25-2.22,7.89-3.28"/>
  </g>
  <g class="cls-12">
    <g>
      <path class="cls-5" d="M-42.4,262.58c7.13-6.96,15.44-14.44,26.25-13.93,11.05.62,19.31,10.15,22.93,19.9,0,0-5.08,1.75-5.08,1.75-1.32-4.5-3.34-8.8-6.39-12.26-11.97-13.21-26.46-5.05-37.71,4.54h0Z"/>
      <path class="cls-5" d="M49.25,288.38c16.86-14.14,42.18-17.15,62.12-7.92,6.66,3.07,12.78,7.44,17.42,13.03-5.67-4.5-11.84-8.11-18.4-10.73-19.78-8.19-43.11-6.03-61.13,5.62h0Z"/>
      <path class="cls-5" d="M113.06,320.27c24.39-21.14,61.68-25.74,90.77-11.81,9.69,4.66,18.57,11.18,25.22,19.48-8.22-6.69-17.16-12.15-26.74-16.06-28.81-12.43-63.13-9.05-89.25,8.4h0Z"/>
      <path class="cls-5" d="M200.25,340.74c16.97-14.71,42.95-17.93,63.19-8.21,6.76,3.22,12.93,7.77,17.56,13.55-5.72-4.66-11.95-8.45-18.61-11.19-20.07-8.63-43.95-6.3-62.14,5.86h0Z"/>
      <g>
        <path class="cls-7" d="M163.66,128.41s.05-.03.05-.06-.02-.06-.05-.06-.06.02-.06.06.03.06.06.06Z"/>
        <path class="cls-7" d="M170.3,128.65c.15,0,.28-.14.28-.3s-.12-.3-.28-.3-.27.14-.27.3.12.3.27.3Z"/>
        <path class="cls-7" d="M176.94,128.81c.23,0,.43-.21.43-.47,0-.26-.19-.46-.43-.46s-.42.2-.42.46.19.47.42.47Z"/>
        <path class="cls-7" d="M183.59,128.93c.3,0,.54-.26.54-.59,0-.32-.24-.59-.54-.59s-.53.26-.53.59c0,.32.24.59.53.59Z"/>
        <path class="cls-7" d="M190.23,128.97c.32,0,.57-.28.57-.63,0-.35-.26-.62-.57-.62s-.57.28-.57.62c0,.35.26.63.57.63Z"/>
        <path class="cls-7" d="M196.88,128.95c.31,0,.55-.27.55-.61,0-.33-.25-.61-.55-.61s-.55.27-.55.61c0,.34.25.61.55.61Z"/>
        <path class="cls-7" d="M203.52,128.87c.27,0,.48-.24.48-.53s-.21-.52-.48-.52-.48.23-.48.52.22.53.48.53Z"/>
        <path class="cls-7" d="M210.17,128.71c.18,0,.33-.16.33-.36s-.15-.36-.33-.36-.33.17-.33.36c0,.2.15.36.33.36Z"/>
        <path class="cls-7" d="M216.81,128.49c.07,0,.13-.07.13-.14s-.06-.14-.13-.14-.13.06-.13.14c0,.08.06.14.13.14Z"/>
        <path class="cls-7" d="M157.01,135.95c.16,0,.29-.15.29-.33s-.13-.32-.29-.32-.29.14-.29.32.13.33.29.33Z"/>
        <path class="cls-7" d="M163.66,136.25c.32,0,.57-.28.57-.63s-.26-.63-.57-.63-.57.28-.57.63c0,.35.26.63.57.63Z"/>
        <path class="cls-7" d="M170.3,136.53c.46,0,.83-.41.83-.91,0-.5-.37-.91-.83-.91-.46,0-.83.41-.83.91,0,.5.37.91.83.91Z"/>
        <path class="cls-7" d="M176.94,136.71c.55,0,.99-.49.99-1.09,0-.6-.44-1.09-.99-1.09-.55,0-.99.49-.99,1.09,0,.6.45,1.09.99,1.09Z"/>
        <path class="cls-7" d="M183.59,136.84c.61,0,1.11-.54,1.11-1.21,0-.67-.5-1.21-1.11-1.21s-1.11.54-1.11,1.21c0,.67.5,1.21,1.11,1.21Z"/>
        <path class="cls-7" d="M190.23,136.9c.64,0,1.16-.57,1.16-1.27,0-.7-.52-1.27-1.16-1.27-.64,0-1.16.57-1.16,1.27,0,.7.52,1.27,1.16,1.27Z"/>
        <path class="cls-7" d="M196.88,136.86c.62,0,1.12-.55,1.12-1.23s-.5-1.23-1.12-1.23-1.12.55-1.12,1.23.5,1.23,1.12,1.23Z"/>
        <path class="cls-7" d="M203.52,136.77c.58,0,1.05-.51,1.05-1.15,0-.63-.47-1.15-1.05-1.15s-1.05.52-1.05,1.15.47,1.15,1.05,1.15Z"/>
        <path class="cls-7" d="M210.17,136.59c.49,0,.88-.43.88-.97,0-.53-.4-.97-.88-.97s-.89.43-.89.97c0,.54.4.97.89.97Z"/>
        <path class="cls-7" d="M216.81,136.35c.37,0,.66-.33.66-.73,0-.4-.29-.73-.66-.73s-.66.33-.66.73c0,.4.3.73.66.73Z"/>
        <path class="cls-7" d="M223.46,136.07c.23,0,.41-.2.41-.45,0-.24-.18-.44-.41-.44s-.4.2-.4.44c0,.25.18.45.4.45Z"/>
        <path class="cls-7" d="M230.1,135.71s.08-.04.08-.08-.03-.08-.08-.08c-.04,0-.07.04-.07.08s.03.08.07.08Z"/>
        <path class="cls-7" d="M143.72,142.92s.02,0,.02-.02c0,0,0-.02-.02-.02s-.02.01-.02.02c0,.01,0,.02.02.02Z"/>
        <path class="cls-7" d="M150.37,143.35c.22,0,.41-.2.41-.45s-.18-.44-.41-.44-.41.2-.41.44.18.45.41.45Z"/>
        <path class="cls-7" d="M157.01,143.75c.43,0,.77-.38.77-.85,0-.47-.35-.85-.77-.85s-.77.38-.77.85c0,.47.35.85.77.85Z"/>
        <path class="cls-7" d="M163.66,144.09c.6,0,1.09-.53,1.09-1.19,0-.66-.49-1.19-1.09-1.19s-1.09.53-1.09,1.19c0,.66.49,1.19,1.09,1.19Z"/>
        <path class="cls-7" d="M170.3,144.38c.74,0,1.34-.66,1.34-1.48,0-.81-.6-1.47-1.34-1.47s-1.35.66-1.35,1.47c0,.82.6,1.48,1.35,1.48Z"/>
        <path class="cls-7" d="M176.94,144.6c.86,0,1.55-.76,1.55-1.7,0-.94-.69-1.7-1.55-1.7-.85,0-1.55.76-1.55,1.7,0,.94.69,1.7,1.55,1.7Z"/>
        <path class="cls-7" d="M183.59,144.74c.93,0,1.68-.82,1.68-1.84,0-1.01-.75-1.84-1.68-1.84s-1.67.82-1.67,1.84c0,1.02.75,1.84,1.67,1.84Z"/>
        <path class="cls-7" d="M190.23,144.8c.96,0,1.73-.85,1.73-1.9,0-1.05-.78-1.9-1.73-1.9-.96,0-1.73.85-1.73,1.9,0,1.05.78,1.9,1.73,1.9Z"/>
        <path class="cls-7" d="M196.88,144.76c.94,0,1.69-.83,1.69-1.86,0-1.02-.76-1.86-1.69-1.86-.94,0-1.69.83-1.69,1.86,0,1.03.76,1.86,1.69,1.86Z"/>
        <path class="cls-7" d="M203.52,144.66c.89,0,1.6-.79,1.6-1.76,0-.97-.72-1.76-1.6-1.76s-1.61.79-1.61,1.76c0,.97.72,1.76,1.61,1.76Z"/>
        <path class="cls-7" d="M210.17,144.46c.78,0,1.42-.69,1.42-1.55,0-.86-.63-1.55-1.42-1.55-.78,0-1.42.7-1.42,1.55s.63,1.55,1.42,1.55Z"/>
        <path class="cls-7" d="M216.81,144.2c.65,0,1.18-.58,1.18-1.29,0-.71-.53-1.29-1.18-1.29s-1.18.58-1.18,1.29c0,.71.53,1.29,1.18,1.29Z"/>
        <path class="cls-7" d="M223.46,143.87c.49,0,.88-.44.88-.97,0-.53-.39-.96-.88-.96-.48,0-.88.43-.88.96,0,.54.4.97.88.97Z"/>
        <path class="cls-7" d="M230.1,143.49c.3,0,.53-.26.53-.59,0-.32-.24-.58-.53-.58s-.53.26-.53.58c0,.33.24.59.53.59Z"/>
        <path class="cls-7" d="M236.75,143.07c.08,0,.15-.07.15-.16s-.07-.16-.15-.16-.15.07-.15.16.06.16.15.16Z"/>
        <path class="cls-7" d="M143.72,150.63c.22,0,.41-.2.41-.44s-.18-.44-.41-.44-.41.2-.41.44.18.44.41.44Z"/>
        <path class="cls-7" d="M150.37,151.11c.47,0,.85-.41.85-.93,0-.51-.38-.93-.85-.93s-.85.42-.85.93c0,.51.38.93.85.93Z"/>
        <path class="cls-7" d="M157.01,151.54c.68,0,1.24-.61,1.24-1.35s-.55-1.35-1.24-1.35-1.23.6-1.23,1.35c0,.75.55,1.35,1.23,1.35Z"/>
        <path class="cls-7" d="M163.66,151.92c.87,0,1.58-.78,1.58-1.74,0-.96-.71-1.73-1.58-1.73s-1.59.78-1.59,1.73c0,.96.71,1.74,1.59,1.74Z"/>
        <path class="cls-7" d="M170.3,152.22c1.03,0,1.86-.91,1.86-2.04,0-1.13-.83-2.04-1.86-2.04s-1.86.91-1.86,2.04c0,1.12.83,2.04,1.86,2.04Z"/>
        <path class="cls-7" d="M176.94,152.46c1.15,0,2.08-1.02,2.08-2.28,0-1.26-.94-2.28-2.08-2.28-1.15,0-2.08,1.02-2.08,2.28,0,1.26.93,2.28,2.08,2.28Z"/>
        <path class="cls-7" d="M183.59,152.65c1.24,0,2.25-1.1,2.25-2.46,0-1.36-1.01-2.46-2.25-2.46-1.24,0-2.25,1.1-2.25,2.46,0,1.36,1.01,2.46,2.25,2.46Z"/>
        <path class="cls-7" d="M190.23,152.71c1.27,0,2.3-1.13,2.3-2.52,0-1.39-1.03-2.52-2.3-2.52-1.27,0-2.3,1.13-2.3,2.52,0,1.39,1.03,2.52,2.3,2.52Z"/>
        <path class="cls-7" d="M196.88,152.67c1.25,0,2.27-1.11,2.27-2.48,0-1.37-1.02-2.48-2.27-2.48s-2.27,1.11-2.27,2.48c0,1.37,1.02,2.48,2.27,2.48Z"/>
        <path class="cls-7" d="M203.52,152.55c1.19,0,2.16-1.06,2.16-2.36,0-1.31-.97-2.36-2.16-2.36-1.19,0-2.16,1.06-2.16,2.36,0,1.3.97,2.36,2.16,2.36Z"/>
        <path class="cls-7" d="M210.17,152.32c1.08,0,1.95-.96,1.95-2.14,0-1.18-.87-2.14-1.95-2.14s-1.95.96-1.95,2.14.88,2.14,1.95,2.14Z"/>
        <path class="cls-7" d="M216.81,152.02c.93,0,1.68-.82,1.68-1.84,0-1.01-.75-1.84-1.68-1.84-.93,0-1.68.82-1.68,1.84,0,1.01.75,1.84,1.68,1.84Z"/>
        <path class="cls-7" d="M223.46,151.66c.75,0,1.35-.66,1.35-1.47,0-.81-.6-1.47-1.35-1.47s-1.34.66-1.34,1.47c0,.81.6,1.47,1.34,1.47Z"/>
        <path class="cls-7" d="M230.1,151.25c.54,0,.98-.48.98-1.07,0-.59-.44-1.07-.98-1.07s-.97.48-.97,1.07c0,.59.44,1.07.97,1.07Z"/>
        <path class="cls-7" d="M236.75,150.79c.31,0,.55-.27.55-.6,0-.33-.25-.61-.55-.61s-.55.27-.55.61c0,.33.24.6.55.6Z"/>
        <path class="cls-7" d="M243.39,150.31c.06,0,.11-.05.11-.12s-.05-.12-.11-.12-.11.05-.11.12.05.12.11.12Z"/>
        <path class="cls-7" d="M137.08,157.79c.16,0,.29-.14.29-.32s-.13-.32-.29-.32-.29.14-.29.32.13.32.29.32Z"/>
        <path class="cls-7" d="M143.72,158.31c.43,0,.77-.38.77-.85,0-.47-.35-.85-.77-.85s-.78.38-.78.85c0,.47.35.85.78.85Z"/>
        <path class="cls-7" d="M150.37,158.82c.68,0,1.24-.6,1.24-1.35,0-.75-.55-1.35-1.24-1.35-.68,0-1.24.6-1.24,1.35s.55,1.35,1.24,1.35Z"/>
        <path class="cls-7" d="M157.01,159.28c.92,0,1.66-.81,1.66-1.82s-.74-1.82-1.66-1.82c-.92,0-1.66.82-1.66,1.82s.74,1.82,1.66,1.82Z"/>
        <path class="cls-7" d="M163.66,159.68c1.12,0,2.03-.99,2.03-2.22,0-1.23-.91-2.22-2.03-2.22-1.12,0-2.03.99-2.03,2.22,0,1.23.91,2.22,2.03,2.22Z"/>
        <path class="cls-7" d="M170.3,160.05c1.3,0,2.36-1.15,2.36-2.58s-1.05-2.58-2.36-2.58c-1.3,0-2.36,1.16-2.36,2.58s1.06,2.58,2.36,2.58Z"/>
        <path class="cls-7" d="M176.94,160.35c1.46,0,2.64-1.29,2.64-2.89,0-1.6-1.18-2.89-2.64-2.89s-2.63,1.29-2.63,2.89c0,1.59,1.18,2.89,2.63,2.89Z"/>
        <path class="cls-7" d="M183.59,160.55c1.56,0,2.82-1.38,2.82-3.09s-1.26-3.09-2.82-3.09c-1.56,0-2.82,1.38-2.82,3.09,0,1.7,1.26,3.09,2.82,3.09Z"/>
        <path class="cls-7" d="M190.23,160.61c1.59,0,2.88-1.41,2.88-3.15,0-1.74-1.29-3.15-2.88-3.15s-2.87,1.41-2.87,3.15c0,1.74,1.29,3.15,2.87,3.15Z"/>
        <path class="cls-7" d="M196.88,160.59c1.58,0,2.86-1.4,2.86-3.13,0-1.73-1.28-3.13-2.86-3.13-1.58,0-2.86,1.4-2.86,3.13,0,1.73,1.28,3.13,2.86,3.13Z"/>
        <path class="cls-7" d="M203.52,160.43c1.49,0,2.71-1.33,2.71-2.97,0-1.64-1.22-2.97-2.71-2.97-1.5,0-2.71,1.33-2.71,2.97,0,1.64,1.21,2.97,2.71,2.97Z"/>
        <path class="cls-7" d="M210.17,160.17c1.36,0,2.47-1.21,2.47-2.7,0-1.5-1.11-2.71-2.47-2.71s-2.47,1.21-2.47,2.71c0,1.49,1.11,2.7,2.47,2.7Z"/>
        <path class="cls-7" d="M216.81,159.83c1.19,0,2.16-1.06,2.16-2.36,0-1.31-.96-2.36-2.16-2.36-1.19,0-2.15,1.06-2.15,2.36,0,1.3.96,2.36,2.15,2.36Z"/>
        <path class="cls-7" d="M223.46,159.42c.99,0,1.79-.88,1.79-1.96,0-1.08-.8-1.96-1.79-1.96s-1.78.88-1.78,1.96c0,1.08.8,1.96,1.78,1.96Z"/>
        <path class="cls-7" d="M230.1,158.96c.75,0,1.37-.67,1.37-1.49,0-.83-.61-1.49-1.37-1.49-.75,0-1.36.67-1.36,1.49,0,.83.61,1.49,1.36,1.49Z"/>
        <path class="cls-7" d="M236.75,158.49c.52,0,.94-.46.94-1.03,0-.57-.42-1.03-.94-1.03-.52,0-.94.46-.94,1.03s.42,1.03.94,1.03Z"/>
        <path class="cls-7" d="M243.39,157.97c.25,0,.46-.23.46-.51,0-.28-.21-.51-.46-.51s-.46.23-.46.51c0,.28.2.51.46.51Z"/>
        <path class="cls-7" d="M130.43,164.8s.05-.02.05-.06c0-.03-.02-.06-.05-.06s-.06.03-.06.06c0,.04.03.06.06.06Z"/>
        <path class="cls-7" d="M137.08,165.37c.32,0,.57-.28.57-.63,0-.34-.25-.62-.57-.62s-.57.28-.57.62c0,.35.26.63.57.63Z"/>
        <path class="cls-7" d="M143.72,165.94c.6,0,1.09-.53,1.09-1.19,0-.66-.49-1.19-1.09-1.19s-1.09.53-1.09,1.19c0,.66.49,1.19,1.09,1.19Z"/>
        <path class="cls-7" d="M150.37,166.48c.87,0,1.59-.78,1.59-1.74s-.71-1.74-1.59-1.74-1.58.78-1.58,1.74c0,.96.71,1.74,1.58,1.74Z"/>
        <path class="cls-7" d="M157.01,166.96c1.12,0,2.03-.99,2.03-2.22,0-1.23-.91-2.22-2.03-2.22-1.12,0-2.03.99-2.03,2.22,0,1.23.91,2.22,2.03,2.22Z"/>
        <path class="cls-7" d="M163.66,167.45c1.36,0,2.47-1.21,2.47-2.7,0-1.5-1.11-2.7-2.47-2.7s-2.47,1.21-2.47,2.7,1.11,2.7,2.47,2.7Z"/>
        <path class="cls-7" d="M170.3,167.87c1.58,0,2.86-1.4,2.86-3.13s-1.28-3.13-2.86-3.13c-1.58,0-2.86,1.4-2.86,3.13,0,1.73,1.28,3.13,2.86,3.13Z"/>
        <path class="cls-7" d="M176.94,168.22c1.75,0,3.17-1.56,3.17-3.47,0-1.92-1.42-3.47-3.17-3.47-1.75,0-3.17,1.56-3.17,3.47,0,1.92,1.42,3.47,3.17,3.47Z"/>
        <ellipse class="cls-7" cx="183.59" cy="164.74" rx="3.37" ry="3.69"/>
        <path class="cls-7" d="M190.23,168.54c1.91,0,3.46-1.7,3.46-3.79,0-2.09-1.55-3.8-3.46-3.8s-3.46,1.7-3.46,3.8c0,2.1,1.55,3.79,3.46,3.79Z"/>
        <path class="cls-7" d="M196.88,168.48c1.88,0,3.41-1.67,3.41-3.74,0-2.06-1.53-3.73-3.41-3.73s-3.41,1.67-3.41,3.73c0,2.06,1.52,3.74,3.41,3.74Z"/>
        <path class="cls-7" d="M203.52,168.3c1.79,0,3.24-1.59,3.24-3.55,0-1.96-1.45-3.55-3.24-3.55-1.79,0-3.24,1.59-3.24,3.55,0,1.96,1.45,3.55,3.24,3.55Z"/>
        <path class="cls-7" d="M210.17,168c1.64,0,2.97-1.46,2.97-3.25,0-1.8-1.33-3.25-2.97-3.25-1.64,0-2.97,1.45-2.97,3.25,0,1.8,1.33,3.25,2.97,3.25Z"/>
        <path class="cls-7" d="M216.81,167.59c1.44,0,2.6-1.27,2.6-2.85,0-1.57-1.16-2.85-2.6-2.85-1.44,0-2.6,1.27-2.6,2.85,0,1.57,1.16,2.85,2.6,2.85Z"/>
        <path class="cls-7" d="M223.46,167.13c1.2,0,2.18-1.06,2.18-2.38,0-1.31-.97-2.38-2.18-2.38s-2.17,1.07-2.17,2.38c0,1.32.97,2.38,2.17,2.38Z"/>
        <path class="cls-7" d="M230.1,166.64c.96,0,1.74-.85,1.74-1.9s-.78-1.9-1.74-1.9c-.96,0-1.73.85-1.73,1.9s.78,1.9,1.73,1.9Z"/>
        <path class="cls-7" d="M236.75,166.12c.69,0,1.25-.62,1.25-1.37,0-.76-.56-1.37-1.25-1.37-.69,0-1.25.62-1.25,1.37,0,.76.56,1.37,1.25,1.37Z"/>
        <path class="cls-7" d="M243.39,165.57c.42,0,.75-.37.75-.83,0-.46-.34-.83-.75-.83s-.76.37-.76.83c0,.46.34.83.76.83Z"/>
        <path class="cls-7" d="M250.04,164.99c.12,0,.22-.11.22-.24s-.1-.24-.22-.24-.22.11-.22.24.1.24.22.24Z"/>
        <path class="cls-7" d="M130.43,172.33c.15,0,.27-.14.27-.3s-.12-.3-.27-.3-.28.13-.28.3.12.3.28.3Z"/>
        <path class="cls-7" d="M137.08,172.93c.46,0,.83-.41.83-.91,0-.5-.37-.91-.83-.91s-.83.41-.83.91c0,.5.37.91.83.91Z"/>
        <path class="cls-7" d="M143.72,173.5c.74,0,1.34-.66,1.34-1.47,0-.81-.6-1.47-1.34-1.47s-1.34.66-1.34,1.47.6,1.47,1.34,1.47Z"/>
        <path class="cls-7" d="M150.37,174.06c1.03,0,1.86-.91,1.86-2.04,0-1.12-.83-2.04-1.86-2.04-1.03,0-1.86.91-1.86,2.04,0,1.13.83,2.04,1.86,2.04Z"/>
        <path class="cls-7" d="M157.01,174.61c1.3,0,2.36-1.15,2.36-2.58,0-1.42-1.05-2.58-2.36-2.58s-2.36,1.16-2.36,2.58c0,1.43,1.06,2.58,2.36,2.58Z"/>
        <path class="cls-7" d="M163.66,175.15c1.58,0,2.86-1.4,2.86-3.13,0-1.73-1.28-3.13-2.86-3.13-1.58,0-2.86,1.4-2.86,3.13s1.28,3.13,2.86,3.13Z"/>
        <path class="cls-7" d="M170.3,175.62c1.81,0,3.28-1.61,3.28-3.59,0-1.99-1.47-3.59-3.28-3.59-1.81,0-3.28,1.61-3.28,3.59,0,1.99,1.47,3.59,3.28,3.59Z"/>
        <path class="cls-7" d="M176.94,176.04c2.03,0,3.67-1.8,3.67-4.02,0-2.22-1.64-4.02-3.67-4.02s-3.67,1.8-3.67,4.02c0,2.22,1.64,4.02,3.67,4.02Z"/>
        <path class="cls-7" d="M183.59,176.32c2.17,0,3.93-1.93,3.93-4.3,0-2.37-1.76-4.3-3.93-4.3-2.17,0-3.92,1.93-3.92,4.3,0,2.37,1.75,4.3,3.92,4.3Z"/>
        <path class="cls-7" d="M190.23,176.44c2.23,0,4.03-1.98,4.03-4.42,0-2.44-1.81-4.42-4.03-4.42-2.23,0-4.04,1.98-4.04,4.42s1.81,4.42,4.04,4.42Z"/>
        <path class="cls-7" d="M196.88,176.38c2.2,0,3.98-1.95,3.98-4.36,0-2.41-1.78-4.36-3.98-4.36-2.2,0-3.98,1.95-3.98,4.36,0,2.41,1.78,4.36,3.98,4.36Z"/>
        <path class="cls-7" d="M203.52,176.14c2.08,0,3.76-1.84,3.76-4.12s-1.68-4.12-3.76-4.12c-2.08,0-3.76,1.85-3.76,4.12s1.68,4.12,3.76,4.12Z"/>
        <path class="cls-7" d="M210.17,175.76c1.88,0,3.41-1.67,3.41-3.73s-1.53-3.73-3.41-3.73c-1.88,0-3.41,1.67-3.41,3.73,0,2.06,1.53,3.73,3.41,3.73Z"/>
        <path class="cls-7" d="M216.81,175.31c1.66,0,3-1.47,3-3.29,0-1.82-1.34-3.29-3-3.29-1.66,0-3,1.47-3,3.29,0,1.82,1.34,3.29,3,3.29Z"/>
        <path class="cls-7" d="M223.46,174.79c1.4,0,2.53-1.24,2.53-2.77,0-1.53-1.13-2.77-2.53-2.77-1.39,0-2.52,1.24-2.52,2.77,0,1.53,1.13,2.77,2.52,2.77Z"/>
        <path class="cls-7" d="M230.1,174.25c1.12,0,2.03-.99,2.03-2.22,0-1.23-.91-2.22-2.03-2.22s-2.02,1-2.02,2.22c0,1.23.91,2.22,2.02,2.22Z"/>
        <path class="cls-7" d="M236.75,173.7c.84,0,1.53-.75,1.53-1.68s-.69-1.68-1.53-1.68c-.84,0-1.53.75-1.53,1.68,0,.93.69,1.68,1.53,1.68Z"/>
        <path class="cls-7" d="M243.39,173.11c.55,0,.99-.49.99-1.09,0-.6-.45-1.09-.99-1.09s-1,.49-1,1.09c0,.6.45,1.09,1,1.09Z"/>
        <path class="cls-7" d="M250.04,172.53c.25,0,.46-.23.46-.51s-.21-.51-.46-.51-.46.23-.46.51.21.51.46.51Z"/>
        <path class="cls-7" d="M130.43,179.77c.23,0,.42-.21.42-.46,0-.26-.19-.47-.42-.47s-.43.21-.43.47c0,.26.19.46.43.46Z"/>
        <path class="cls-7" d="M137.08,180.39c.55,0,.99-.49.99-1.09,0-.6-.44-1.09-.99-1.09s-1,.49-1,1.09c0,.6.45,1.09,1,1.09Z"/>
        <path class="cls-7" d="M143.72,181c.85,0,1.55-.76,1.55-1.69,0-.94-.69-1.7-1.55-1.7s-1.55.76-1.55,1.7c0,.94.69,1.69,1.55,1.69Z"/>
        <path class="cls-7" d="M150.37,181.59c1.15,0,2.08-1.02,2.08-2.28,0-1.26-.93-2.28-2.08-2.28-1.15,0-2.08,1.02-2.08,2.28,0,1.26.93,2.28,2.08,2.28Z"/>
        <path class="cls-7" d="M157.01,182.19c1.45,0,2.64-1.29,2.64-2.89s-1.18-2.89-2.64-2.89-2.63,1.29-2.63,2.89c0,1.59,1.18,2.89,2.63,2.89Z"/>
        <path class="cls-7" d="M163.66,182.78c1.75,0,3.17-1.56,3.17-3.47,0-1.92-1.42-3.47-3.17-3.47s-3.17,1.56-3.17,3.47c0,1.92,1.42,3.47,3.17,3.47Z"/>
        <path class="cls-7" d="M170.3,183.32c2.03,0,3.67-1.8,3.67-4.02,0-2.22-1.64-4.02-3.67-4.02s-3.67,1.8-3.67,4.02,1.64,4.02,3.67,4.02Z"/>
        <path class="cls-7" d="M176.94,183.81c2.27,0,4.11-2.01,4.11-4.5s-1.84-4.5-4.11-4.5c-2.27,0-4.11,2.02-4.11,4.5s1.84,4.5,4.11,4.5Z"/>
        <path class="cls-7" d="M183.59,183.81c2.27,0,4.11-2.01,4.11-4.5,0-2.49-1.84-4.5-4.11-4.5s-4.11,2.02-4.11,4.5c0,2.49,1.84,4.5,4.11,4.5Z"/>
        <path class="cls-7" d="M190.23,183.81c2.27,0,4.11-2.01,4.11-4.5,0-2.49-1.84-4.5-4.11-4.5s-4.11,2.02-4.11,4.5,1.84,4.5,4.11,4.5Z"/>
        <path class="cls-7" d="M196.88,183.81c2.27,0,4.11-2.01,4.11-4.5s-1.84-4.5-4.11-4.5c-2.27,0-4.11,2.02-4.11,4.5,0,2.49,1.84,4.5,4.11,4.5Z"/>
        <path class="cls-7" d="M203.52,183.81c2.27,0,4.11-2.01,4.11-4.5s-1.84-4.5-4.11-4.5c-2.27,0-4.11,2.02-4.11,4.5,0,2.49,1.84,4.5,4.11,4.5Z"/>
        <path class="cls-7" d="M210.17,183.48c2.11,0,3.82-1.87,3.82-4.18s-1.71-4.18-3.82-4.18-3.81,1.87-3.81,4.18c0,2.3,1.71,4.18,3.81,4.18Z"/>
        <path class="cls-7" d="M216.81,182.96c1.84,0,3.33-1.64,3.33-3.65,0-2.02-1.49-3.65-3.33-3.65-1.84,0-3.34,1.64-3.34,3.65,0,2.02,1.49,3.65,3.34,3.65Z"/>
        <path class="cls-7" d="M223.46,182.39c1.56,0,2.82-1.39,2.82-3.09,0-1.71-1.26-3.09-2.82-3.09-1.56,0-2.82,1.38-2.82,3.09,0,1.7,1.26,3.09,2.82,3.09Z"/>
        <path class="cls-7" d="M230.1,181.79c1.25,0,2.27-1.11,2.27-2.48,0-1.37-1.02-2.48-2.27-2.48s-2.27,1.11-2.27,2.48c0,1.37,1.02,2.48,2.27,2.48Z"/>
        <path class="cls-7" d="M236.75,181.2c.95,0,1.73-.85,1.73-1.9,0-1.05-.78-1.9-1.73-1.9s-1.73.85-1.73,1.9c0,1.05.78,1.9,1.73,1.9Z"/>
        <path class="cls-7" d="M243.39,180.6c.65,0,1.18-.58,1.18-1.29s-.53-1.29-1.18-1.29-1.18.58-1.18,1.29c0,.71.53,1.29,1.18,1.29Z"/>
        <path class="cls-7" d="M250.04,179.99c.35,0,.62-.31.62-.69,0-.38-.28-.69-.62-.69s-.63.31-.63.69.28.69.63.69Z"/>
        <path class="cls-7" d="M256.68,179.37s.05-.03.05-.06c0-.04-.02-.06-.05-.06s-.06.03-.06.06c0,.03.03.06.06.06Z"/>
        <path class="cls-7" d="M130.43,187.17c.29,0,.53-.26.53-.58,0-.32-.24-.59-.53-.59s-.54.26-.54.59.24.58.54.58Z"/>
        <path class="cls-7" d="M137.08,187.8c.61,0,1.1-.54,1.1-1.21s-.49-1.21-1.1-1.21-1.11.54-1.11,1.21c0,.67.5,1.21,1.11,1.21Z"/>
        <path class="cls-7" d="M143.72,188.42c.93,0,1.68-.82,1.68-1.83,0-1.01-.75-1.84-1.68-1.84-.93,0-1.68.82-1.68,1.84,0,1.01.75,1.83,1.68,1.83Z"/>
        <path class="cls-7" d="M150.37,189.05c1.24,0,2.25-1.1,2.25-2.46s-1-2.46-2.25-2.46c-1.24,0-2.25,1.1-2.25,2.46,0,1.36,1,2.46,2.25,2.46Z"/>
        <path class="cls-7" d="M157.01,189.67c1.56,0,2.82-1.38,2.82-3.09,0-1.71-1.26-3.09-2.82-3.09-1.56,0-2.82,1.38-2.82,3.09,0,1.71,1.26,3.09,2.82,3.09Z"/>
        <path class="cls-7" d="M163.66,190.28c1.86,0,3.37-1.66,3.37-3.69,0-2.04-1.51-3.7-3.37-3.7-1.86,0-3.37,1.65-3.37,3.7,0,2.04,1.51,3.69,3.37,3.69Z"/>
        <path class="cls-7" d="M170.3,190.88c2.17,0,3.92-1.92,3.92-4.3s-1.75-4.3-3.92-4.3c-2.17,0-3.93,1.93-3.93,4.3,0,2.37,1.76,4.3,3.93,4.3Z"/>
        <path class="cls-7" d="M176.94,191.09c2.27,0,4.11-2.01,4.11-4.5,0-2.49-1.84-4.5-4.11-4.5-2.27,0-4.11,2.02-4.11,4.5s1.84,4.5,4.11,4.5Z"/>
        <path class="cls-7" d="M183.59,191.09c2.27,0,4.11-2.01,4.11-4.5,0-2.49-1.84-4.5-4.11-4.5s-4.11,2.02-4.11,4.5c0,2.49,1.84,4.5,4.11,4.5Z"/>
        <path class="cls-7" d="M190.23,191.09c2.27,0,4.11-2.01,4.11-4.5s-1.84-4.5-4.11-4.5c-2.27,0-4.11,2.02-4.11,4.5s1.84,4.5,4.11,4.5Z"/>
        <path class="cls-7" d="M196.88,191.09c2.27,0,4.11-2.01,4.11-4.5,0-2.49-1.84-4.5-4.11-4.5-2.27,0-4.11,2.02-4.11,4.5,0,2.49,1.84,4.5,4.11,4.5Z"/>
        <path class="cls-7" d="M203.52,191.09c2.27,0,4.11-2.01,4.11-4.5,0-2.49-1.84-4.5-4.11-4.5s-4.11,2.02-4.11,4.5c0,2.49,1.84,4.5,4.11,4.5Z"/>
        <path class="cls-7" d="M210.17,191.09c2.27,0,4.11-2.01,4.11-4.5s-1.84-4.5-4.11-4.5c-2.27,0-4.11,2.02-4.11,4.5s1.84,4.5,4.11,4.5Z"/>
        <path class="cls-7" d="M216.81,190.48c1.97,0,3.56-1.74,3.56-3.89,0-2.15-1.59-3.9-3.56-3.9-1.96,0-3.55,1.74-3.55,3.9,0,2.15,1.59,3.89,3.55,3.89Z"/>
        <path class="cls-7" d="M223.46,189.88c1.66,0,3-1.47,3-3.29,0-1.82-1.34-3.29-3-3.29-1.66,0-3,1.47-3,3.29s1.34,3.29,3,3.29Z"/>
        <path class="cls-7" d="M230.1,189.25c1.34,0,2.44-1.19,2.44-2.66,0-1.47-1.09-2.67-2.44-2.67-1.34,0-2.43,1.19-2.43,2.67,0,1.47,1.09,2.66,2.43,2.66Z"/>
        <path class="cls-7" d="M236.75,188.62c1.02,0,1.86-.91,1.86-2.04,0-1.13-.84-2.04-1.86-2.04s-1.86.91-1.86,2.04c0,1.13.84,2.04,1.86,2.04Z"/>
        <path class="cls-7" d="M243.39,188.02c.72,0,1.31-.64,1.31-1.43,0-.79-.59-1.43-1.31-1.43s-1.31.64-1.31,1.43c0,.79.59,1.43,1.31,1.43Z"/>
        <path class="cls-7" d="M250.04,187.39c.41,0,.73-.36.73-.81,0-.45-.33-.81-.73-.81s-.74.36-.74.81c0,.45.33.81.74.81Z"/>
        <path class="cls-7" d="M256.68,186.75c.08,0,.15-.07.15-.16s-.07-.16-.15-.16c-.08,0-.15.07-.15.16s.06.16.15.16Z"/>
        <path class="cls-7" d="M130.43,194.49c.31,0,.57-.28.57-.63,0-.35-.25-.63-.57-.63s-.57.28-.57.63.26.63.57.63Z"/>
        <path class="cls-7" d="M137.08,195.14c.64,0,1.16-.57,1.16-1.27,0-.7-.52-1.27-1.16-1.27s-1.16.57-1.16,1.27c0,.7.52,1.27,1.16,1.27Z"/>
        <path class="cls-7" d="M143.72,195.76c.96,0,1.73-.85,1.73-1.9,0-1.05-.78-1.9-1.73-1.9-.96,0-1.73.85-1.73,1.9,0,1.05.78,1.9,1.73,1.9Z"/>
        <path class="cls-7" d="M150.37,196.39c1.27,0,2.3-1.13,2.3-2.52,0-1.39-1.03-2.52-2.3-2.52-1.27,0-2.3,1.13-2.3,2.52,0,1.39,1.03,2.52,2.3,2.52Z"/>
        <path class="cls-7" d="M157.01,197.01c1.58,0,2.87-1.41,2.87-3.15,0-1.74-1.29-3.15-2.87-3.15-1.59,0-2.88,1.41-2.88,3.15,0,1.74,1.29,3.15,2.88,3.15Z"/>
        <path class="cls-7" d="M163.66,197.66c1.91,0,3.46-1.7,3.46-3.79,0-2.09-1.55-3.8-3.46-3.8s-3.46,1.7-3.46,3.8c0,2.09,1.55,3.79,3.46,3.79Z"/>
        <path class="cls-7" d="M170.3,198.29c2.23,0,4.03-1.98,4.03-4.42,0-2.44-1.81-4.42-4.03-4.42-2.23,0-4.04,1.98-4.04,4.42,0,2.44,1.81,4.42,4.04,4.42Z"/>
        <path class="cls-7" d="M176.94,198.37c2.27,0,4.11-2.01,4.11-4.5,0-2.49-1.84-4.5-4.11-4.5-2.27,0-4.11,2.01-4.11,4.5,0,2.49,1.84,4.5,4.11,4.5Z"/>
        <path class="cls-7" d="M183.59,198.37c2.27,0,4.11-2.01,4.11-4.5,0-2.49-1.84-4.5-4.11-4.5-2.27,0-4.11,2.01-4.11,4.5,0,2.49,1.84,4.5,4.11,4.5Z"/>
        <path class="cls-7" d="M190.23,198.37c2.27,0,4.11-2.01,4.11-4.5,0-2.49-1.84-4.5-4.11-4.5s-4.11,2.01-4.11,4.5,1.84,4.5,4.11,4.5Z"/>
        <path class="cls-7" d="M196.88,198.37c2.27,0,4.11-2.01,4.11-4.5,0-2.49-1.84-4.5-4.11-4.5-2.27,0-4.11,2.01-4.11,4.5,0,2.49,1.84,4.5,4.11,4.5Z"/>
        <path class="cls-7" d="M203.52,198.37c2.27,0,4.11-2.01,4.11-4.5,0-2.49-1.84-4.5-4.11-4.5-2.27,0-4.11,2.01-4.11,4.5,0,2.49,1.84,4.5,4.11,4.5Z"/>
        <path class="cls-7" d="M210.17,198.37c2.27,0,4.11-2.01,4.11-4.5s-1.84-4.5-4.11-4.5c-2.27,0-4.11,2.01-4.11,4.5s1.84,4.5,4.11,4.5Z"/>
        <path class="cls-7" d="M216.81,197.88c2.02,0,3.67-1.8,3.67-4.02,0-2.22-1.64-4.02-3.67-4.02-2.02,0-3.67,1.8-3.67,4.02,0,2.22,1.64,4.02,3.67,4.02Z"/>
        <path class="cls-7" d="M223.46,197.23c1.7,0,3.08-1.51,3.08-3.37,0-1.86-1.38-3.37-3.08-3.37s-3.08,1.51-3.08,3.37c0,1.86,1.38,3.37,3.08,3.37Z"/>
        <path class="cls-7" d="M230.1,196.61c1.38,0,2.51-1.23,2.51-2.74s-1.12-2.75-2.51-2.75c-1.38,0-2.5,1.23-2.5,2.75,0,1.52,1.12,2.74,2.5,2.74Z"/>
        <path class="cls-7" d="M236.75,195.96c1.06,0,1.92-.94,1.92-2.1,0-1.16-.86-2.1-1.92-2.1s-1.92.94-1.92,2.1c0,1.16.86,2.1,1.92,2.1Z"/>
        <path class="cls-7" d="M243.39,195.34c.74,0,1.34-.66,1.34-1.47,0-.82-.6-1.47-1.34-1.47-.75,0-1.35.66-1.35,1.47,0,.81.6,1.47,1.35,1.47Z"/>
        <path class="cls-7" d="M250.04,194.71c.43,0,.77-.38.77-.85,0-.47-.35-.85-.77-.85s-.78.38-.78.85c0,.47.35.85.78.85Z"/>
        <path class="cls-7" d="M256.68,194.09c.11,0,.2-.1.2-.22s-.09-.22-.2-.22-.2.1-.2.22.09.22.2.22Z"/>
        <path class="cls-7" d="M130.43,201.75c.31,0,.55-.27.55-.61,0-.33-.25-.61-.55-.61s-.55.27-.55.61c0,.33.25.61.55.61Z"/>
        <path class="cls-7" d="M137.08,202.38c.62,0,1.12-.55,1.12-1.23,0-.68-.5-1.23-1.12-1.23s-1.13.55-1.13,1.23.5,1.23,1.13,1.23Z"/>
        <path class="cls-7" d="M143.72,203c.93,0,1.69-.83,1.69-1.86,0-1.03-.76-1.86-1.69-1.86-.94,0-1.69.83-1.69,1.86,0,1.02.76,1.86,1.69,1.86Z"/>
        <path class="cls-7" d="M150.37,203.63c1.25,0,2.27-1.11,2.27-2.48,0-1.37-1.02-2.48-2.27-2.48s-2.27,1.11-2.27,2.48c0,1.37,1.01,2.48,2.27,2.48Z"/>
        <path class="cls-7" d="M157.01,204.27c1.58,0,2.86-1.4,2.86-3.13,0-1.73-1.28-3.13-2.86-3.13-1.58,0-2.86,1.4-2.86,3.13,0,1.73,1.28,3.13,2.86,3.13Z"/>
        <path class="cls-7" d="M163.66,204.88c1.88,0,3.41-1.67,3.41-3.73,0-2.06-1.52-3.73-3.41-3.73s-3.41,1.67-3.41,3.73c0,2.06,1.53,3.73,3.41,3.73Z"/>
        <path class="cls-7" d="M170.3,205.5c2.2,0,3.98-1.95,3.98-4.36s-1.78-4.36-3.98-4.36c-2.2,0-3.98,1.95-3.98,4.36,0,2.41,1.78,4.36,3.98,4.36Z"/>
        <path class="cls-7" d="M176.94,205.64c2.27,0,4.11-2.01,4.11-4.5,0-2.49-1.84-4.5-4.11-4.5-2.27,0-4.11,2.02-4.11,4.5s1.84,4.5,4.11,4.5Z"/>
        <path class="cls-7" d="M183.59,205.64c2.27,0,4.11-2.01,4.11-4.5,0-2.49-1.84-4.5-4.11-4.5-2.27,0-4.11,2.02-4.11,4.5,0,2.49,1.84,4.5,4.11,4.5Z"/>
        <path class="cls-7" d="M190.23,205.64c2.27,0,4.11-2.01,4.11-4.5,0-2.49-1.84-4.5-4.11-4.5-2.27,0-4.11,2.02-4.11,4.5,0,2.49,1.84,4.5,4.11,4.5Z"/>
        <path class="cls-7" d="M196.88,205.64c2.27,0,4.11-2.01,4.11-4.5,0-2.49-1.84-4.5-4.11-4.5-2.27,0-4.11,2.02-4.11,4.5,0,2.49,1.84,4.5,4.11,4.5Z"/>
        <path class="cls-7" d="M203.52,205.64c2.27,0,4.11-2.01,4.11-4.5,0-2.49-1.84-4.5-4.11-4.5s-4.11,2.02-4.11,4.5c0,2.49,1.84,4.5,4.11,4.5Z"/>
        <path class="cls-7" d="M210.17,205.64c2.27,0,4.11-2.01,4.11-4.5,0-2.49-1.84-4.5-4.11-4.5s-4.11,2.02-4.11,4.5c0,2.49,1.84,4.5,4.11,4.5Z"/>
        <path class="cls-7" d="M216.81,205.1c2,0,3.61-1.77,3.61-3.96,0-2.19-1.62-3.95-3.61-3.95s-3.61,1.77-3.61,3.95c0,2.19,1.62,3.96,3.61,3.96Z"/>
        <path class="cls-7" d="M223.46,204.47c1.68,0,3.04-1.49,3.04-3.33,0-1.84-1.36-3.33-3.04-3.33-1.68,0-3.04,1.49-3.04,3.33s1.36,3.33,3.04,3.33Z"/>
        <path class="cls-7" d="M230.1,203.85c1.37,0,2.47-1.21,2.47-2.7,0-1.49-1.1-2.71-2.47-2.71-1.36,0-2.47,1.21-2.47,2.71s1.1,2.7,2.47,2.7Z"/>
        <path class="cls-7" d="M236.75,203.22c1.05,0,1.9-.93,1.9-2.08,0-1.15-.85-2.08-1.9-2.08-1.05,0-1.9.93-1.9,2.08,0,1.15.85,2.08,1.9,2.08Z"/>
        <path class="cls-7" d="M243.39,202.6c.73,0,1.33-.65,1.33-1.45,0-.8-.59-1.45-1.33-1.45s-1.33.65-1.33,1.45.6,1.45,1.33,1.45Z"/>
        <path class="cls-7" d="M250.04,201.97c.41,0,.76-.37.76-.83,0-.46-.34-.83-.76-.83s-.76.37-.76.83c0,.46.34.83.76.83Z"/>
        <path class="cls-7" d="M256.68,201.33c.09,0,.17-.08.17-.18s-.07-.18-.17-.18-.17.08-.17.18.07.18.17.18Z"/>
        <path class="cls-7" d="M130.43,208.95c.26,0,.48-.24.48-.52,0-.29-.21-.52-.48-.52s-.48.24-.48.52.21.52.48.52Z"/>
        <path class="cls-7" d="M137.08,209.57c.58,0,1.05-.51,1.05-1.15,0-.64-.47-1.15-1.05-1.15-.58,0-1.05.51-1.05,1.15,0,.64.47,1.15,1.05,1.15Z"/>
        <path class="cls-7" d="M143.72,210.18c.89,0,1.6-.79,1.6-1.76,0-.97-.71-1.76-1.6-1.76s-1.6.79-1.6,1.76c0,.97.72,1.76,1.6,1.76Z"/>
        <path class="cls-7" d="M150.37,210.79c1.19,0,2.15-1.06,2.15-2.36,0-1.3-.96-2.36-2.15-2.36s-2.16,1.06-2.16,2.36c0,1.3.97,2.36,2.16,2.36Z"/>
        <path class="cls-7" d="M157.01,211.39c1.5,0,2.71-1.33,2.71-2.97s-1.21-2.97-2.71-2.97c-1.5,0-2.71,1.33-2.71,2.97,0,1.64,1.21,2.97,2.71,2.97Z"/>
        <path class="cls-7" d="M163.66,211.98c1.79,0,3.24-1.59,3.24-3.55,0-1.96-1.45-3.55-3.24-3.55-1.79,0-3.24,1.59-3.24,3.55,0,1.96,1.45,3.55,3.24,3.55Z"/>
        <path class="cls-7" d="M170.3,212.54c2.07,0,3.76-1.84,3.76-4.12,0-2.27-1.68-4.12-3.76-4.12-2.07,0-3.76,1.84-3.76,4.12s1.69,4.12,3.76,4.12Z"/>
        <path class="cls-7" d="M176.94,212.93c2.27,0,4.11-2.02,4.11-4.5,0-2.49-1.84-4.5-4.11-4.5-2.27,0-4.11,2.02-4.11,4.5,0,2.49,1.84,4.5,4.11,4.5Z"/>
        <path class="cls-7" d="M183.59,212.93c2.27,0,4.11-2.02,4.11-4.5,0-2.49-1.84-4.5-4.11-4.5-2.27,0-4.11,2.02-4.11,4.5s1.84,4.5,4.11,4.5Z"/>
        <path class="cls-7" d="M190.23,212.93c2.27,0,4.11-2.02,4.11-4.5,0-2.49-1.84-4.5-4.11-4.5-2.27,0-4.11,2.02-4.11,4.5s1.84,4.5,4.11,4.5Z"/>
        <path class="cls-7" d="M196.88,212.93c2.27,0,4.11-2.02,4.11-4.5,0-2.49-1.84-4.5-4.11-4.5-2.27,0-4.11,2.02-4.11,4.5,0,2.49,1.84,4.5,4.11,4.5Z"/>
        <path class="cls-7" d="M203.52,212.93c2.27,0,4.11-2.02,4.11-4.5,0-2.49-1.84-4.5-4.11-4.5-2.27,0-4.11,2.02-4.11,4.5,0,2.49,1.84,4.5,4.11,4.5Z"/>
        <path class="cls-7" d="M210.17,212.72c2.17,0,3.93-1.92,3.93-4.3,0-2.38-1.76-4.3-3.93-4.3-2.17,0-3.92,1.92-3.92,4.3s1.76,4.3,3.92,4.3Z"/>
        <path class="cls-7" d="M216.81,212.16c1.88,0,3.41-1.67,3.41-3.74,0-2.06-1.53-3.73-3.41-3.73-1.88,0-3.41,1.67-3.41,3.73,0,2.06,1.52,3.74,3.41,3.74Z"/>
        <path class="cls-7" d="M223.46,211.57c1.59,0,2.88-1.41,2.88-3.15,0-1.74-1.29-3.15-2.88-3.15-1.58,0-2.87,1.41-2.87,3.15,0,1.74,1.29,3.15,2.87,3.15Z"/>
        <path class="cls-7" d="M230.1,210.99c1.3,0,2.34-1.15,2.34-2.56,0-1.41-1.05-2.56-2.34-2.56s-2.34,1.15-2.34,2.56,1.05,2.56,2.34,2.56Z"/>
        <path class="cls-7" d="M236.75,210.38c.99,0,1.79-.88,1.79-1.96,0-1.08-.8-1.96-1.79-1.96s-1.79.88-1.79,1.96c0,1.08.8,1.96,1.79,1.96Z"/>
        <path class="cls-7" d="M243.39,209.78c.68,0,1.23-.61,1.23-1.35,0-.75-.55-1.35-1.23-1.35-.68,0-1.23.61-1.23,1.35,0,.75.55,1.35,1.23,1.35Z"/>
        <path class="cls-7" d="M250.04,209.15c.37,0,.66-.33.66-.73,0-.4-.3-.73-.66-.73s-.66.33-.66.73c0,.4.29.73.66.73Z"/>
        <path class="cls-7" d="M256.68,208.52s.09-.04.09-.1-.04-.1-.09-.1c-.05,0-.09.04-.09.1s.04.1.09.1Z"/>
        <path class="cls-7" d="M130.43,216.07c.18,0,.33-.16.33-.36s-.15-.36-.33-.36-.33.16-.33.36.15.36.33.36Z"/>
        <path class="cls-7" d="M137.08,216.67c.49,0,.88-.43.88-.97,0-.54-.4-.97-.88-.97s-.89.43-.89.97c0,.54.4.97.89.97Z"/>
        <path class="cls-7" d="M143.72,217.26c.78,0,1.42-.7,1.42-1.56,0-.86-.63-1.55-1.42-1.55s-1.42.7-1.42,1.55.63,1.56,1.42,1.56Z"/>
        <path class="cls-7" d="M150.37,217.84c1.08,0,1.95-.96,1.95-2.14,0-1.18-.88-2.14-1.95-2.14-1.08,0-1.95.96-1.95,2.14,0,1.18.88,2.14,1.95,2.14Z"/>
        <path class="cls-7" d="M157.01,218.41c1.36,0,2.47-1.21,2.47-2.71,0-1.49-1.11-2.71-2.47-2.71-1.37,0-2.47,1.21-2.47,2.71,0,1.49,1.1,2.71,2.47,2.71Z"/>
        <path class="cls-7" d="M163.66,218.95c1.64,0,2.97-1.46,2.97-3.25,0-1.79-1.33-3.25-2.97-3.25s-2.97,1.46-2.97,3.25c0,1.79,1.33,3.25,2.97,3.25Z"/>
        <path class="cls-7" d="M170.3,219.44c1.88,0,3.41-1.67,3.41-3.73,0-2.06-1.53-3.73-3.41-3.73-1.88,0-3.41,1.67-3.41,3.73,0,2.06,1.53,3.73,3.41,3.73Z"/>
        <path class="cls-7" d="M176.94,219.88c2.11,0,3.81-1.87,3.81-4.18,0-2.31-1.71-4.18-3.81-4.18s-3.81,1.87-3.81,4.18c0,2.31,1.7,4.18,3.81,4.18Z"/>
        <path class="cls-7" d="M183.59,220.21c2.27,0,4.11-2.02,4.11-4.5,0-2.49-1.84-4.5-4.11-4.5s-4.11,2.01-4.11,4.5c0,2.49,1.84,4.5,4.11,4.5Z"/>
        <path class="cls-7" d="M190.23,220.21c2.27,0,4.11-2.02,4.11-4.5s-1.84-4.5-4.11-4.5c-2.27,0-4.11,2.01-4.11,4.5,0,2.49,1.84,4.5,4.11,4.5Z"/>
        <path class="cls-7" d="M196.88,220.21c2.27,0,4.11-2.02,4.11-4.5s-1.84-4.5-4.11-4.5c-2.27,0-4.11,2.01-4.11,4.5,0,2.49,1.84,4.5,4.11,4.5Z"/>
        <path class="cls-7" d="M203.52,220c2.17,0,3.93-1.92,3.93-4.3s-1.76-4.3-3.93-4.3-3.92,1.93-3.92,4.3c0,2.38,1.75,4.3,3.92,4.3Z"/>
        <path class="cls-7" d="M210.17,219.6c1.96,0,3.56-1.74,3.56-3.9,0-2.15-1.6-3.9-3.56-3.9s-3.55,1.75-3.55,3.9c0,2.15,1.59,3.9,3.55,3.9Z"/>
        <path class="cls-7" d="M216.81,219.11c1.72,0,3.11-1.53,3.11-3.41,0-1.88-1.39-3.41-3.11-3.41-1.72,0-3.11,1.53-3.11,3.41,0,1.89,1.4,3.41,3.11,3.41Z"/>
        <path class="cls-7" d="M223.46,218.59c1.46,0,2.64-1.29,2.64-2.89,0-1.59-1.18-2.89-2.64-2.89-1.45,0-2.63,1.29-2.63,2.89s1.18,2.89,2.63,2.89Z"/>
        <path class="cls-7" d="M230.1,218.02c1.17,0,2.12-1.04,2.12-2.32,0-1.28-.95-2.32-2.12-2.32s-2.12,1.04-2.12,2.32c0,1.28.95,2.32,2.12,2.32Z"/>
        <path class="cls-7" d="M236.75,217.46c.89,0,1.6-.79,1.6-1.76,0-.97-.72-1.76-1.6-1.76-.89,0-1.6.79-1.6,1.76,0,.97.71,1.76,1.6,1.76Z"/>
        <path class="cls-7" d="M243.39,216.87c.59,0,1.07-.52,1.07-1.17,0-.65-.48-1.17-1.07-1.17s-1.07.53-1.07,1.17c0,.65.48,1.17,1.07,1.17Z"/>
        <path class="cls-7" d="M250.04,216.27c.28,0,.52-.25.52-.57,0-.31-.23-.57-.52-.57s-.52.25-.52.57c0,.31.23.57.52.57Z"/>
        <path class="cls-7" d="M130.43,223.12c.07,0,.13-.06.13-.14s-.06-.14-.13-.14-.13.06-.13.14.06.14.13.14Z"/>
        <path class="cls-7" d="M137.08,223.71c.36,0,.66-.32.66-.73,0-.4-.3-.73-.66-.73s-.66.33-.66.73c0,.4.29.73.66.73Z"/>
        <path class="cls-7" d="M143.72,224.27c.65,0,1.18-.58,1.18-1.29,0-.71-.53-1.29-1.18-1.29s-1.18.58-1.18,1.29c0,.71.52,1.29,1.18,1.29Z"/>
        <path class="cls-7" d="M150.37,224.82c.93,0,1.68-.83,1.68-1.84s-.75-1.84-1.68-1.84c-.93,0-1.68.82-1.68,1.84,0,1.01.75,1.84,1.68,1.84Z"/>
        <path class="cls-7" d="M157.01,225.35c1.19,0,2.15-1.06,2.15-2.36s-.96-2.36-2.15-2.36c-1.19,0-2.16,1.06-2.16,2.36s.97,2.36,2.16,2.36Z"/>
        <path class="cls-7" d="M163.66,225.83c1.43,0,2.6-1.27,2.6-2.85,0-1.57-1.16-2.85-2.6-2.85s-2.6,1.27-2.6,2.85c0,1.57,1.16,2.85,2.6,2.85Z"/>
        <path class="cls-7" d="M170.3,226.27c1.66,0,3-1.47,3-3.29,0-1.82-1.34-3.29-3-3.29-1.66,0-3,1.48-3,3.29,0,1.82,1.34,3.29,3,3.29Z"/>
        <path class="cls-7" d="M176.94,226.64c1.84,0,3.34-1.64,3.34-3.65,0-2.02-1.49-3.65-3.34-3.65s-3.33,1.64-3.33,3.65c0,2.02,1.49,3.65,3.33,3.65Z"/>
        <path class="cls-7" d="M183.59,226.88c1.97,0,3.55-1.74,3.55-3.9,0-2.15-1.59-3.9-3.55-3.9-1.96,0-3.56,1.74-3.56,3.9,0,2.15,1.59,3.9,3.56,3.9Z"/>
        <path class="cls-7" d="M190.23,227c2.02,0,3.67-1.8,3.67-4.02,0-2.22-1.64-4.02-3.67-4.02s-3.67,1.8-3.67,4.02c0,2.22,1.64,4.02,3.67,4.02Z"/>
        <path class="cls-7" d="M196.88,226.94c2,0,3.61-1.77,3.61-3.96,0-2.18-1.61-3.96-3.61-3.96-2,0-3.61,1.77-3.61,3.96,0,2.19,1.61,3.96,3.61,3.96Z"/>
        <path class="cls-7" d="M203.52,226.72c1.88,0,3.41-1.67,3.41-3.73,0-2.06-1.53-3.73-3.41-3.73s-3.41,1.67-3.41,3.73c0,2.06,1.53,3.73,3.41,3.73Z"/>
        <path class="cls-7" d="M210.17,226.4c1.72,0,3.11-1.53,3.11-3.41,0-1.89-1.39-3.41-3.11-3.41-1.72,0-3.11,1.53-3.11,3.41,0,1.89,1.39,3.41,3.11,3.41Z"/>
        <path class="cls-7" d="M216.81,225.97c1.51,0,2.72-1.34,2.72-2.99s-1.22-2.99-2.72-2.99c-1.51,0-2.73,1.34-2.73,2.99s1.22,2.99,2.73,2.99Z"/>
        <path class="cls-7" d="M223.46,225.51c1.27,0,2.3-1.13,2.3-2.52,0-1.39-1.03-2.52-2.3-2.52s-2.3,1.13-2.3,2.52c0,1.39,1.03,2.52,2.3,2.52Z"/>
        <path class="cls-7" d="M230.1,225c1.02,0,1.84-.9,1.84-2.02,0-1.12-.82-2.02-1.84-2.02s-1.84.9-1.84,2.02c0,1.11.83,2.02,1.84,2.02Z"/>
        <path class="cls-7" d="M236.75,224.46c.74,0,1.34-.66,1.34-1.48s-.6-1.47-1.34-1.47c-.74,0-1.34.66-1.34,1.47s.6,1.48,1.34,1.48Z"/>
        <path class="cls-7" d="M243.39,223.91c.47,0,.85-.41.85-.93,0-.51-.38-.93-.85-.93s-.85.42-.85.93c0,.51.38.93.85.93Z"/>
        <path class="cls-7" d="M250.04,223.33c.17,0,.31-.15.31-.34s-.14-.34-.31-.34-.32.15-.32.34.14.34.32.34Z"/>
        <path class="cls-7" d="M137.08,230.71c.22,0,.41-.2.41-.45s-.19-.44-.41-.44-.41.2-.41.44.18.45.41.45Z"/>
        <path class="cls-7" d="M143.72,231.23c.49,0,.89-.43.89-.97,0-.53-.4-.97-.89-.97-.49,0-.89.44-.89.97,0,.54.4.97.89.97Z"/>
        <path class="cls-7" d="M150.37,231.74c.74,0,1.34-.66,1.34-1.48,0-.81-.6-1.47-1.34-1.47s-1.34.66-1.34,1.47c0,.81.6,1.48,1.34,1.48Z"/>
        <path class="cls-7" d="M157.01,232.22c.99,0,1.79-.88,1.79-1.96,0-1.08-.8-1.96-1.79-1.96-.99,0-1.79.88-1.79,1.96,0,1.08.8,1.96,1.79,1.96Z"/>
        <path class="cls-7" d="M163.66,232.65c1.2,0,2.17-1.07,2.17-2.38,0-1.31-.97-2.38-2.17-2.38-1.2,0-2.18,1.06-2.18,2.38,0,1.32.98,2.38,2.18,2.38Z"/>
        <path class="cls-7" d="M170.3,233.03c1.39,0,2.52-1.24,2.52-2.77,0-1.53-1.13-2.76-2.52-2.76-1.39,0-2.53,1.24-2.53,2.76,0,1.53,1.13,2.77,2.53,2.77Z"/>
        <path class="cls-7" d="M176.94,233.35c1.55,0,2.82-1.38,2.82-3.09,0-1.71-1.27-3.09-2.82-3.09-1.56,0-2.82,1.38-2.82,3.09,0,1.71,1.26,3.09,2.82,3.09Z"/>
        <path class="cls-7" d="M183.59,233.55c1.66,0,3-1.47,3-3.29,0-1.81-1.34-3.29-3-3.29-1.66,0-3,1.48-3,3.29,0,1.82,1.35,3.29,3,3.29Z"/>
        <path class="cls-7" d="M190.23,233.64c1.7,0,3.08-1.51,3.08-3.37,0-1.86-1.38-3.37-3.08-3.37-1.7,0-3.08,1.51-3.08,3.37,0,1.86,1.38,3.37,3.08,3.37Z"/>
        <path class="cls-7" d="M196.88,233.59c1.68,0,3.04-1.49,3.04-3.33,0-1.84-1.36-3.33-3.04-3.33-1.68,0-3.04,1.49-3.04,3.33,0,1.84,1.36,3.33,3.04,3.33Z"/>
        <path class="cls-7" d="M203.52,233.41c1.59,0,2.88-1.41,2.88-3.15s-1.29-3.15-2.88-3.15-2.87,1.41-2.87,3.15c0,1.74,1.29,3.15,2.87,3.15Z"/>
        <path class="cls-7" d="M210.17,233.15c1.46,0,2.64-1.29,2.64-2.89,0-1.59-1.18-2.89-2.64-2.89-1.45,0-2.63,1.3-2.63,2.89,0,1.6,1.18,2.89,2.63,2.89Z"/>
        <path class="cls-7" d="M216.81,232.79c1.27,0,2.3-1.13,2.3-2.52,0-1.39-1.03-2.52-2.3-2.52-1.27,0-2.3,1.13-2.3,2.52,0,1.39,1.04,2.52,2.3,2.52Z"/>
        <path class="cls-7" d="M223.46,232.36c1.06,0,1.92-.94,1.92-2.1s-.86-2.1-1.92-2.1c-1.06,0-1.92.94-1.92,2.1,0,1.16.86,2.1,1.92,2.1Z"/>
        <path class="cls-7" d="M230.1,231.9c.82,0,1.49-.73,1.49-1.64s-.67-1.63-1.49-1.63-1.49.73-1.49,1.63c0,.9.67,1.64,1.49,1.64Z"/>
        <path class="cls-7" d="M236.75,231.41c.58,0,1.05-.51,1.05-1.15,0-.63-.47-1.15-1.05-1.15-.58,0-1.05.52-1.05,1.15,0,.64.47,1.15,1.05,1.15Z"/>
        <path class="cls-7" d="M243.39,230.87c.3,0,.55-.27.55-.61,0-.33-.25-.6-.55-.6s-.55.27-.55.6c0,.33.25.61.55.61Z"/>
        <path class="cls-7" d="M250.04,230.32s.05-.03.05-.06c0-.03-.02-.06-.05-.06s-.06.03-.06.06c0,.03.03.06.06.06Z"/>
        <path class="cls-7" d="M137.08,237.62s.07-.04.07-.08c0-.04-.03-.08-.07-.08-.04,0-.08.04-.08.08,0,.05.03.08.08.08Z"/>
        <path class="cls-7" d="M143.72,238.13c.29,0,.53-.26.53-.59,0-.32-.24-.58-.53-.58s-.53.26-.53.58c0,.32.24.59.53.59Z"/>
        <path class="cls-7" d="M150.37,238.61c.54,0,.97-.48.97-1.07,0-.59-.44-1.07-.97-1.07-.54,0-.98.48-.98,1.07,0,.59.44,1.07.98,1.07Z"/>
        <path class="cls-7" d="M157.01,239.04c.75,0,1.36-.67,1.36-1.5,0-.82-.61-1.49-1.36-1.49s-1.37.67-1.37,1.49c0,.83.61,1.5,1.37,1.5Z"/>
        <path class="cls-7" d="M163.66,239.44c.96,0,1.73-.85,1.73-1.9s-.77-1.9-1.73-1.9c-.96,0-1.73.85-1.73,1.9,0,1.05.78,1.9,1.73,1.9Z"/>
        <path class="cls-7" d="M170.3,239.76c1.12,0,2.03-.99,2.03-2.22,0-1.22-.91-2.22-2.03-2.22s-2.03.99-2.03,2.22c0,1.23.91,2.22,2.03,2.22Z"/>
        <path class="cls-7" d="M176.94,240.02c1.25,0,2.27-1.11,2.27-2.48,0-1.37-1.02-2.48-2.27-2.48-1.25,0-2.27,1.11-2.27,2.48,0,1.37,1.01,2.48,2.27,2.48Z"/>
        <path class="cls-7" d="M183.59,240.21c1.34,0,2.43-1.19,2.43-2.67,0-1.47-1.09-2.66-2.43-2.66-1.34,0-2.43,1.19-2.43,2.66s1.09,2.67,2.43,2.67Z"/>
        <path class="cls-7" d="M190.23,240.29c1.38,0,2.51-1.23,2.51-2.75,0-1.51-1.12-2.74-2.51-2.74-1.39,0-2.51,1.23-2.51,2.74,0,1.52,1.12,2.75,2.51,2.75Z"/>
        <path class="cls-7" d="M196.88,240.25c1.36,0,2.47-1.21,2.47-2.71,0-1.49-1.11-2.71-2.47-2.71-1.36,0-2.47,1.21-2.47,2.71,0,1.5,1.11,2.71,2.47,2.71Z"/>
        <path class="cls-7" d="M203.52,240.11c1.29,0,2.34-1.15,2.34-2.57s-1.05-2.56-2.34-2.56-2.34,1.15-2.34,2.56c0,1.42,1.05,2.57,2.34,2.57Z"/>
        <path class="cls-7" d="M210.17,239.86c1.17,0,2.12-1.04,2.12-2.32,0-1.28-.95-2.32-2.12-2.32-1.17,0-2.12,1.04-2.12,2.32s.94,2.32,2.12,2.32Z"/>
        <path class="cls-7" d="M216.81,239.56c1.02,0,1.84-.91,1.84-2.02,0-1.11-.82-2.02-1.84-2.02-1.02,0-1.84.9-1.84,2.02,0,1.12.82,2.02,1.84,2.02Z"/>
        <path class="cls-7" d="M223.46,239.18c.82,0,1.49-.73,1.49-1.64,0-.9-.67-1.63-1.49-1.63s-1.49.73-1.49,1.63.67,1.64,1.49,1.64Z"/>
        <path class="cls-7" d="M230.1,238.75c.61,0,1.11-.54,1.11-1.21,0-.67-.49-1.21-1.11-1.21-.61,0-1.1.54-1.1,1.21,0,.67.49,1.21,1.1,1.21Z"/>
        <path class="cls-7" d="M236.75,238.29c.38,0,.68-.34.68-.75,0-.41-.31-.74-.68-.74-.37,0-.68.33-.68.74,0,.41.3.75.68.75Z"/>
        <path class="cls-7" d="M243.39,237.79c.12,0,.22-.11.22-.24s-.1-.24-.22-.24-.22.11-.22.24.1.24.22.24Z"/>
        <path class="cls-7" d="M143.72,244.99c.08,0,.15-.07.15-.16s-.06-.16-.15-.16-.15.07-.15.16.06.16.15.16Z"/>
        <path class="cls-7" d="M150.37,245.43c.31,0,.55-.27.55-.61,0-.33-.25-.6-.55-.6s-.55.27-.55.6.25.61.55.61Z"/>
        <path class="cls-7" d="M157.01,245.85c.52,0,.94-.46.94-1.03s-.42-1.03-.94-1.03c-.52,0-.94.46-.94,1.03,0,.57.42,1.03.94,1.03Z"/>
        <path class="cls-7" d="M163.66,246.2c.69,0,1.25-.62,1.25-1.37,0-.76-.56-1.37-1.25-1.37s-1.25.61-1.25,1.37c0,.76.56,1.37,1.25,1.37Z"/>
        <path class="cls-7" d="M170.3,246.5c.84,0,1.53-.75,1.53-1.68,0-.92-.69-1.67-1.53-1.67s-1.53.75-1.53,1.67c0,.93.68,1.68,1.53,1.68Z"/>
        <path class="cls-7" d="M176.94,246.72c.96,0,1.73-.85,1.73-1.9,0-1.05-.78-1.9-1.73-1.9s-1.73.85-1.73,1.9c0,1.05.78,1.9,1.73,1.9Z"/>
        <path class="cls-7" d="M183.59,246.86c1.03,0,1.86-.92,1.86-2.04s-.83-2.04-1.86-2.04-1.86.91-1.86,2.04c0,1.12.83,2.04,1.86,2.04Z"/>
        <path class="cls-7" d="M190.23,246.92c1.06,0,1.92-.94,1.92-2.1,0-1.16-.86-2.1-1.92-2.1-1.06,0-1.92.94-1.92,2.1,0,1.16.86,2.1,1.92,2.1Z"/>
        <path class="cls-7" d="M196.88,246.9c1.05,0,1.9-.93,1.9-2.08,0-1.15-.85-2.08-1.9-2.08-1.05,0-1.9.93-1.9,2.08,0,1.15.85,2.08,1.9,2.08Z"/>
        <path class="cls-7" d="M203.52,246.78c.99,0,1.79-.88,1.79-1.96,0-1.08-.8-1.96-1.79-1.96s-1.79.88-1.79,1.96c0,1.08.8,1.96,1.79,1.96Z"/>
        <path class="cls-7" d="M210.17,246.58c.88,0,1.6-.79,1.6-1.76,0-.97-.72-1.76-1.6-1.76-.89,0-1.6.79-1.6,1.76,0,.97.71,1.76,1.6,1.76Z"/>
        <path class="cls-7" d="M216.81,246.3c.75,0,1.35-.66,1.35-1.47,0-.81-.6-1.47-1.35-1.47s-1.34.66-1.34,1.47c0,.81.6,1.47,1.34,1.47Z"/>
        <path class="cls-7" d="M223.46,245.97c.58,0,1.05-.51,1.05-1.15,0-.64-.47-1.15-1.05-1.15-.58,0-1.05.51-1.05,1.15,0,.64.47,1.15,1.05,1.15Z"/>
        <path class="cls-7" d="M230.1,245.57c.38,0,.68-.34.68-.75s-.31-.75-.68-.75c-.37,0-.68.33-.68.75,0,.41.31.75.68.75Z"/>
        <path class="cls-7" d="M236.75,245.15c.16,0,.3-.15.3-.32s-.13-.32-.3-.32-.29.14-.29.32.13.32.29.32Z"/>
        <path class="cls-7" d="M150.37,252.23c.06,0,.11-.06.11-.12s-.05-.12-.11-.12c-.06,0-.11.05-.11.12s.05.12.11.12Z"/>
        <path class="cls-7" d="M157.01,252.61c.25,0,.46-.23.46-.5s-.21-.51-.46-.51-.46.23-.46.51c0,.28.21.5.46.5Z"/>
        <path class="cls-7" d="M163.66,252.93c.42,0,.75-.37.75-.83,0-.46-.34-.83-.75-.83-.42,0-.76.37-.76.83,0,.46.34.83.76.83Z"/>
        <path class="cls-7" d="M170.3,253.19c.55,0,.99-.49.99-1.09,0-.6-.44-1.09-.99-1.09-.55,0-.99.49-.99,1.09s.44,1.09.99,1.09Z"/>
        <path class="cls-7" d="M176.94,253.4c.65,0,1.18-.58,1.18-1.29,0-.71-.53-1.29-1.18-1.29-.65,0-1.18.58-1.18,1.29,0,.71.53,1.29,1.18,1.29Z"/>
        <path class="cls-7" d="M183.59,253.54c.72,0,1.31-.64,1.31-1.43,0-.79-.59-1.43-1.31-1.43s-1.31.64-1.31,1.43c0,.79.58,1.43,1.31,1.43Z"/>
        <path class="cls-7" d="M190.23,253.58c.74,0,1.34-.66,1.34-1.48,0-.81-.6-1.47-1.34-1.47s-1.35.66-1.35,1.47c0,.81.6,1.48,1.35,1.48Z"/>
        <path class="cls-7" d="M196.88,253.56c.73,0,1.33-.65,1.33-1.45,0-.8-.59-1.45-1.33-1.45s-1.33.65-1.33,1.45.6,1.45,1.33,1.45Z"/>
        <path class="cls-7" d="M203.52,253.46c.68,0,1.24-.61,1.24-1.35,0-.75-.55-1.35-1.24-1.35s-1.24.6-1.24,1.35c0,.75.55,1.35,1.24,1.35Z"/>
        <path class="cls-7" d="M210.17,253.27c.59,0,1.07-.52,1.07-1.17,0-.65-.48-1.17-1.07-1.17-.59,0-1.07.53-1.07,1.17,0,.65.48,1.17,1.07,1.17Z"/>
        <path class="cls-7" d="M216.81,253.03c.47,0,.85-.41.85-.93,0-.51-.38-.93-.85-.93-.47,0-.85.42-.85.93,0,.51.38.93.85.93Z"/>
        <path class="cls-7" d="M223.46,252.71c.31,0,.55-.27.55-.6,0-.34-.25-.61-.55-.61s-.55.27-.55.61c0,.34.24.6.55.6Z"/>
        <path class="cls-7" d="M230.1,252.34c.12,0,.22-.11.22-.24s-.1-.24-.22-.24-.22.11-.22.24.1.24.22.24Z"/>
        <path class="cls-7" d="M163.66,259.62c.12,0,.22-.11.22-.24s-.1-.24-.22-.24-.22.11-.22.24.1.24.22.24Z"/>
        <path class="cls-7" d="M170.3,259.89c.26,0,.46-.23.46-.51s-.2-.5-.46-.5-.46.23-.46.5.21.51.46.51Z"/>
        <path class="cls-7" d="M176.94,260.07c.35,0,.62-.31.62-.69,0-.38-.28-.68-.62-.68-.35,0-.62.31-.62.68,0,.38.28.69.62.69Z"/>
        <path class="cls-7" d="M183.59,260.19c.41,0,.74-.36.74-.81,0-.44-.33-.8-.74-.8-.41,0-.74.36-.74.8,0,.45.33.81.74.81Z"/>
        <path class="cls-7" d="M190.23,260.23c.43,0,.77-.38.77-.85,0-.47-.35-.85-.77-.85-.43,0-.78.38-.78.85,0,.47.35.85.78.85Z"/>
        <path class="cls-7" d="M196.88,260.21c.42,0,.76-.37.76-.83,0-.45-.34-.82-.76-.82-.42,0-.76.37-.76.82,0,.46.34.83.76.83Z"/>
        <path class="cls-7" d="M203.52,260.11c.37,0,.66-.33.66-.73,0-.4-.29-.73-.66-.73-.36,0-.66.32-.66.73,0,.4.3.73.66.73Z"/>
        <path class="cls-7" d="M210.17,259.95c.28,0,.52-.25.52-.57,0-.31-.23-.56-.52-.56-.28,0-.52.25-.52.56,0,.31.23.57.52.57Z"/>
        <path class="cls-7" d="M216.81,259.73c.17,0,.32-.16.32-.35,0-.19-.14-.34-.32-.34s-.31.15-.31.34c0,.19.14.35.31.35Z"/>
        <path class="cls-7" d="M223.46,259.44s.06-.02.06-.06c0-.03-.02-.06-.06-.06-.03,0-.05.03-.05.06,0,.04.02.06.05.06Z"/>
        <path class="cls-7" d="M176.94,266.72s.06-.02.06-.06c0-.03-.03-.06-.06-.06s-.06.03-.06.06c0,.04.03.06.06.06Z"/>
        <path class="cls-7" d="M183.59,266.83c.08,0,.15-.07.15-.16s-.06-.16-.15-.16-.15.07-.15.16c0,.09.06.16.15.16Z"/>
        <path class="cls-7" d="M190.23,266.88c.11,0,.2-.1.2-.22s-.09-.22-.2-.22-.2.1-.2.22c0,.13.09.22.2.22Z"/>
        <path class="cls-7" d="M196.88,266.85c.09,0,.17-.08.17-.19s-.07-.18-.17-.18-.16.08-.16.18c0,.1.07.19.16.19Z"/>
        <path class="cls-7" d="M203.52,266.76c.05,0,.09-.04.09-.1,0-.05-.04-.1-.09-.1s-.09.05-.09.1c0,.06.04.1.09.1Z"/>
      </g>
      <g>
        <path class="cls-7" d="M345.26,191.61c0-5.93,0-13.3-7.17-13.3l-10.11.14c.99-1.18,2.05-2.44,3.18-3.76l2.93-3.2c6.4-6.97,9.39-11.67,10-15.73l.19-9v-.25s.08-2.37.08-2.37c0-4.13-2.08-6.25-3.32-7.14-1.48-1.06-3.33-1.63-5.8-1.7l-8.29.11c-16.22.25-26.62.38-30.9.38h-6.42c-.43-.1-.9-.15-1.42-.15l-2.06.09-.62-.62-2.64-.04c-5.01-.08-12.44-.11-22.31-.11h-3.02l-1.11,1.31-5.72-.73c-.56-.06-1.59-.12-3.08-.16-.62-.01-1.08-.03-1.22-.03l-1.41-.16c-6.45,0-11.65.1-15.48.31h-5.2l-1.55,4.31c-.39,1.09-.65,2.47-.71,5.63-.35-.42-.67-.85-1.04-1.26-3.03-3.36-6.86-6-11.36-7.87-4.4-1.82-9.3-2.75-14.57-2.75-7.87,0-14.94,1.78-20.98,5.29-5,2.87-8.91,6.75-11.72,11.54-1.1-1.88-2.39-3.78-3.95-5.72-2.17-2.87-5.12-5.24-8.78-7.04-5.49-2.7-11.62-4.06-18.23-4.06s-12.91,1.46-18.67,4.33c-2.57,1.28-4.86,2.89-6.97,4.72-.18-2.05-.94-3.54-1.61-4.43-.87-1.14-2.88-3.05-6.62-3.05l-.79.04-14.23-.15-20.7.2-1.21-.04c-4.38,0-11.7,0-11.7,6.98,0,0-.23,53.08-.23,53.11-.02,3.95-.52,10.72,3.42,11.6,1.47.33,3.06.18,4.47.16,2.19-.03,4.39-.05,6.58-.06,4.28-.02,8.56-.02,12.84-.06.6,0,1.2-.01,1.8-.02l.66-.04c3.12-.35,6.48-2.9,6.48-7.69v-3.4s.04-1.6.04-1.6l-.16-8.75c3.03-.1,5.91-.23,8.59-.38,0,0,2.49.07,2.55.06,2.29,7.46,6.55,13.26,12.77,17.29,5.71,3.75,12.94,5.64,21.55,5.64,4.92-.06,9.94-.95,14.9-2.66,5.41-1.86,9.73-4.64,12.85-8.26l1.94-2.55c.81-1.03,1.53-2.16,2.2-3.33.29.51.51,1.07.83,1.56l2.93,3.14c1.85,2.38,3.92,4.46,6.2,6.2l3.4,2.27c.06.03.12.07.18.1,4.67,2.65,10.33,3.99,16.81,3.99,2.5,0,6.09-.26,10.98-.8,4.35-.48,8.09-.72,11.11-.72s6.03.19,9,.56l1.88.24,1.71-.81c2.18-1.04,3.73-2.8,4.35-4.97l.25-.88v-.64c6.24,5.11,14.63,7.72,25.01,7.72s18.05-2.37,23.86-6.98v.15l1.13,1.66c1.09,1.6,2.41,2.74,3.92,3.38,1.19.51,2.55.76,4.22.76l45.7-.38h.99c2.17,0,3.92-.47,5.36-1.45,1.24-.85,3.33-2.87,3.32-7.13l-.07-6.55Z"/>
        <g>
          <path class="cls-9" d="M99.35,140.2l-.04,3.55c0,3.49-.05,6.59-.15,9.31-2.98.25-7.05.38-12.21.38l-8.81.04v1.11l-.08,3.36c0,.89.04,1.76.11,2.59,6.36-.53,11.07-.8,14.14-.8s4.94.23,5.63.69v12.78c0,.84-.17,1.4-.5,1.68s-.84.42-1.53.42h-.5l-2.06-.08c-4.55.25-9.6.45-15.15.57l.27,15.19-.04,1.3v3.59c0,.76-.23,1.17-.69,1.22l-21.83.19c-.05-.15-.79.36-.79-1.02,0-1.68.06-3.11.06-4.28l.22-50.84s-.34-2.27,1.13-2.33c6.68-.28,41.01-.44,41.01-.44.71,0,1.19.16,1.43.48s.36.77.36,1.35Z"/>
          <path class="cls-9" d="M100.49,167.33l.08-.84c.31-3.18.71-6,1.22-8.45.51-2.45,1.34-4.75,2.48-6.89,2.72-4.71,6.52-8.27,11.39-10.7,4.87-2.43,10.12-3.64,15.76-3.64s10.75,1.13,15.36,3.4c2.75,1.35,4.9,3.05,6.45,5.11,2.98,3.71,4.94,7.14,5.88,10.26.94,3.13,1.41,6.74,1.41,10.84,0,9.11-1.88,16.05-5.65,20.83l-1.76,2.33c-2.37,2.75-5.71,4.87-10.04,6.35-4.32,1.49-8.61,2.26-12.86,2.31-7.28,0-13.24-1.53-17.9-4.58-7.89-5.11-11.83-13.89-11.83-26.33Z"/>
          <path class="cls-9" d="M220.27,182.06l2.48-.08c1.73.08,2.59.64,2.59,1.68l-.04.42v.38c-.03.18-.04.48-.04.92v1.41l.04.5.04,3.7-.04.99v1.87l-.04,1.34.04.65v1.07c-.1.36-.39.65-.88.88-3.26-.41-6.52-.61-9.81-.61s-7.22.25-11.83.76c-4.6.51-8.03.76-10.26.76-17.47,0-28.73-14.67-28.73-31.17,0-4.32.59-8.24,1.76-11.75,2.14-6.41,6.07-11.26,11.79-14.54,5.09-2.95,11-4.43,17.74-4.43,4.43,0,8.45.75,12.08,2.25,3.62,1.5,6.63,3.57,9.02,6.22,4.96,5.49,7.44,12.4,7.44,20.72,0,2.65-.48,5.41-1.45,8.28-.97,2.87-2.3,5.47-4.01,7.78h2.1Z"/>
          <path class="cls-9" d="M283.57,166.46l-.11,10.72c0,3.28-.53,6.18-1.58,8.7-1.06,2.52-2.45,4.55-4.18,6.11-4.71,4.27-11.66,6.41-20.87,6.41s-16.37-2.24-21.48-6.72c-1.81-1.55-3.33-3.57-4.56-6.05-1.23-2.48-1.98-5.28-2.23-8.41.13-10.63.19-20.47.19-29.5-.13,0-.19-1.34-.19-4.01s.11-4.32.34-4.96h.8c3.74-.2,8.84-.31,15.3-.31.46.1,1.29.17,2.5.19s2.04.06,2.5.11l1.18.15c.18,5.04.29,11.97.34,20.8l-.23,15.34c0,5.09,1.48,7.63,4.43,7.63,1.25,0,2.3-.55,3.15-1.64.85-1.09,1.3-2.33,1.35-3.7l.15-.38.11-12.86.04-1.14c0-5.9-.08-11.6-.23-17.09l-.08-2.79c-.05-1.12-.08-2.12-.08-3.01s.14-1.5.42-1.83c9.82,0,17.22.04,22.21.11.18.18.41.34.69.5h-.04l.42.27c-.2,4.81-.31,10.99-.31,18.54v6.56l.04,2.25Z"/>
          <path class="cls-9" d="M337.75,143.41l-.11,7.63v.5c-.38,2.54-3.17,6.64-8.36,12.29l-2.94,3.21c-3.28,3.87-5.94,7.05-7.97,9.54l-4.35,5.3h2.02l22.13-.31c.38,0,.57,2.26.57,6.79v4.27l.08,2.48c0,.81-.16,1.33-.48,1.55s-.88.32-1.7.32h-.99l-45.75.38c-.71,0-1.25-.08-1.6-.23-.36-.15-.72-.51-1.11-1.07,0-6.94-.09-11.27-.27-12.97l.61-.5,5.38-6.52c7.89-9.87,14-17.41,18.35-22.63l-11.26.11-2.82.08c-2.77.08-5.56.11-8.36.11-.28-.15-.4-.53-.36-1.14.04-.61.03-1.09-.02-1.45v-.72l.04-.31v-2.25l-.34-8.74.04-.23c.05,0,.17.05.34.15h7.5c4.34,0,14.67-.13,31-.38l8.28-.11c.86.03,1.5.18,1.91.48s.61.91.61,1.85l-.08,2.14v.38Z"/>
          <path class="cls-7" d="M130.43,182.57l.5-.03h.75l.83.06c1.74,0,3.13-.45,4.18-1.35,1.05-.9,1.71-1.78,1.99-2.64.75-2.12,1.17-4.57,1.28-7.33v-.54l.12-3.91c0-3.55-.5-6.15-1.49-7.81-.99-1.66-2.33-2.77-4.01-3.31-.99-.34-2.3-.51-3.91-.51s-3.08.46-4.41,1.37-2.41,2.43-3.27,4.55-1.28,4.82-1.28,8.08.18,5.48.54,6.64c.72,2.4,1.7,4.13,2.96,5.17,1.26,1.04,3,1.56,5.24,1.56Z"/>
          <path class="cls-7" d="M194.11,182.57l.5-.03h.75l.83.06c1.74,0,3.13-.45,4.18-1.35,1.05-.9,1.71-1.78,1.99-2.64.75-2.12,1.17-4.57,1.28-7.33v-.54l.12-3.91c0-3.55-.5-6.15-1.49-7.81-.99-1.66-2.33-2.77-4.01-3.31-.99-.34-2.3-.51-3.91-.51s-3.08.46-4.41,1.37c-1.32.91-2.41,2.43-3.27,4.55-.86,2.12-1.28,4.82-1.28,8.08s.18,5.48.54,6.64c.72,2.4,1.7,4.13,2.96,5.17,1.26,1.04,3,1.56,5.24,1.56Z"/>
          <path class="cls-9" d="M188.62,170.45h.4s.59-.01.59-.01l.66.02c1.39,0,2.5-.18,3.33-.55.84-.37,1.36-.73,1.58-1.08.59-.87.94-1.86,1.02-2.99v-.22l.1-1.59c0-1.45-.4-2.51-1.19-3.18-.79-.68-1.86-1.13-3.2-1.35-.79-.14-1.83-.21-3.12-.21s-2.46.19-3.52.56c-1.06.37-1.93.99-2.61,1.86-.68.87-1.02,1.96-1.02,3.3s.14,2.23.43,2.71c.57.98,1.36,1.68,2.36,2.11s2.39.64,4.18.64Z"/>
          <path class="cls-9" d="M124.65,170.45h.4s.59-.01.59-.01l.66.02c1.39,0,2.5-.18,3.33-.55s1.36-.73,1.58-1.08c.59-.87.94-1.86,1.02-2.99v-.22l.1-1.59c0-1.45-.4-2.51-1.19-3.18s-1.86-1.13-3.2-1.35c-.79-.14-1.83-.21-3.12-.21s-2.46.19-3.52.56c-1.06.37-1.93.99-2.61,1.86-.68.87-1.02,1.96-1.02,3.3s.14,2.23.43,2.71c.57.98,1.36,1.68,2.36,2.11,1,.42,2.39.64,4.18.64Z"/>
        </g>
        <g>
          <path class="cls-10" d="M125.61,216.74c3.04,10.48,19.37,17.99,38.83,16.68,22.62-1.53,34.46-9.29,30.79-23.14-3.7-13.98-20.94-25.38-42.9-20.25-18.85,4.41-29.78,16.16-26.72,26.71Z"/>
          <path class="cls-10" d="M125.1,228.62c12.11,19.01,15.16,5.57,34.65,5.76,13.98.13,36.63-.27,32.97-14.12-3.7-13.98-20.94-25.38-42.9-20.25-18.85,4.41-30.63,19.34-24.72,28.61Z"/>
          <path class="cls-7" d="M232.44,170.13c5.51-31.87-5.41-42.87-5.41-42.87-.42-.48-.82-.99-1.27-1.45-3.71-3.79-8.44-6.47-14-7.99-5.36-1.46-11.29-1.65-17.61-.61-9.25,1.53-17.42,5.07-24.31,10.44-5.6,4.32-9.94,9.6-13.08,15.73-1.13-2.06-2.47-4.11-4.09-6.17-2.23-3.05-5.29-5.37-9.06-6.88-5.6-2.24-11.78-2.81-18.36-1.72-6.46,1.07-12.49,3.7-17.93,7.77-2.4,1.8-4.52,3.9-6.46,6.2-3.08,3.64-5.21,6.41-6.78,11.42-5.6,17.95-5.02,42.5,9.26,52.73,5.18,3.71,11.86,5.43,20.01,5.05,4.75-.28,9.66-1.5,14.6-3.63,5.48-2.37,9.94-5.74,13.24-10.05l2.07-3.04c.87-1.24,1.65-2.59,2.38-3.99.29.57.52,1.19.84,1.73l3.04,3.42c1.91,2.63,4.08,4.9,6.49,6.77l3.63,2.44c.07.03.13.07.19.11,5.06,2.84,11.32,4.13,18.68,3.79,2.87-.13,7.05-.64,12.82-1.55,5.2-.83,9.73-1.34,13.43-1.52,4.94-.24,11.74,1.63,16.47-1.09,7.64-4.38,11.54-35.06,1.2-35.04ZM237.32,112.65"/>
          <g>
            <path class="cls-9" d="M96.02,169.84l.07-.91c.28-3.44.65-6.52,1.11-9.22.46-2.71,1.22-5.3,2.26-7.76,2.5-5.49,6.01-9.93,10.57-13.31,4.63-3.44,9.69-5.61,15.19-6.49,5.59-.9,10.72-.41,15.39,1.48,2.81,1.14,5.01,2.79,6.59,4.97,3.05,3.91,5.04,7.64,5.97,11.19.93,3.55,1.35,7.72,1.26,12.51-.19,10.61-2.32,18.82-6.33,24.63l-1.85,2.79c-2.47,3.3-5.9,5.92-10.26,7.88-4.3,1.93-8.5,3.04-12.61,3.35-6.92.43-12.48-.87-16.75-3.86-7.13-4.94-10.64-13.97-10.62-27.25Z"/>
            <path class="cls-9" d="M222.95,174.47l3.15-.37c2.2-.1,3.28.52,3.23,1.86l-.07.54-.02.49c-.04.23-.07.62-.1,1.17l-.07,1.8.02.63-.14,4.7-.1,1.26-.09,2.37-.12,1.7.02.82-.05,1.35c-.15.46-.53.85-1.16,1.18-4.09-.25-8.17-.25-12.24,0-4.02.25-8.81.87-14.33,1.84-5.44.95-9.44,1.5-12.02,1.66-19.57,1.19-31.33-15.01-30.96-34.26.1-5.08.81-9.77,2.15-14.09,2.47-7.94,6.89-14.38,13.35-19.31,5.85-4.51,12.71-7.42,20.64-8.7,5.29-.85,10.14-.68,14.52.54,4.43,1.23,8.1,3.33,10.99,6.3,6.05,6.23,8.89,14.78,8.47,25.54-.13,3.41-.89,7.03-2.27,10.84-1.37,3.79-3.19,7.25-5.44,10.37l2.64-.23Z"/>
            <path class="cls-7" d="M122.91,183.5l.54-.08.81-.07h.9c1.89-.17,3.42-.86,4.58-2.08,1.17-1.23,1.91-2.4,2.23-3.5.86-2.74,1.37-5.86,1.53-9.36v-.68s.21-4.95.21-4.95c.06-4.49-.46-7.73-1.54-9.7-1.08-1.97-2.54-3.18-4.39-3.62-1.09-.29-2.51-.32-4.27-.09-1.75.23-3.35,1.01-4.78,2.33-1.43,1.32-2.61,3.35-3.54,6.1-.93,2.74-1.4,6.11-1.43,10.14-.03,4.01.14,6.71.51,8.1.74,2.87,1.76,4.89,3.09,6.05,1.33,1.16,3.19,1.64,5.59,1.43Z"/>
            <path class="cls-7" d="M191.65,178.52l.7-.11,1.05-.09h1.17c2.47-.23,4.49-1.07,6.03-2.54,1.55-1.48,2.55-2.89,2.99-4.21,1.18-3.29,1.92-7.03,2.22-11.21l.03-.82.37-5.93c.17-5.38-.43-9.25-1.8-11.6-1.37-2.34-3.26-3.77-5.67-4.27-1.42-.33-3.28-.34-5.59-.04-2.3.3-4.4,1.25-6.3,2.86-1.9,1.6-3.48,4.04-4.76,7.34-1.27,3.28-1.97,7.32-2.09,12.12-.13,4.79.04,8.01.49,9.66.9,3.42,2.19,5.82,3.89,7.19,1.71,1.37,4.12,1.93,7.26,1.65Z"/>
            <path class="cls-9" d="M184.44,161.39l.55-.08.83-.09.92-.06c1.95-.21,3.52-.64,4.72-1.32,1.2-.67,1.97-1.29,2.3-1.85.88-1.38,1.42-2.93,1.59-4.63v-.33s.22-2.4.22-2.4c.06-2.17-.46-3.7-1.56-4.58-1.1-.88-2.6-1.37-4.49-1.46-1.11-.07-2.58,0-4.38.23-1.8.22-3.44.7-4.92,1.43-1.48.73-2.7,1.79-3.67,3.17-.97,1.38-1.48,3.05-1.52,5-.05,1.95.11,3.25.49,3.9.75,1.35,1.8,2.26,3.16,2.73s3.28.58,5.76.32Z"/>
            <path class="cls-9" d="M116.84,169.13l.42-.06.63-.07.71-.04c1.49-.16,2.68-.51,3.59-1.06.91-.55,1.49-1.06,1.73-1.53.66-1.15,1.04-2.44,1.15-3.86v-.28s.13-2.01.13-2.01c.02-1.81-.4-3.09-1.26-3.84-.85-.74-2.01-1.16-3.45-1.26-.85-.07-1.97-.02-3.35.16-1.37.17-2.62.55-3.75,1.15s-2.04,1.47-2.77,2.62c-.72,1.15-1.09,2.54-1.1,4.17,0,1.63.13,2.72.43,3.27.59,1.13,1.41,1.91,2.46,2.31s2.52.51,4.42.31Z"/>
          </g>
          <path class="cls-5" d="M128.87,210.43c-5.14,4.47-5.04,14.07-1.81,19.67,3.61,5.89,12.38,10.32,18.84,6.36.34-.23.8-.14,1.02.2.22.33.13.77-.18,1-1.71,1.25-3.81,1.91-5.89,2.04-6.3.3-12.36-3.05-15.96-8.22-3.43-5.45-3.94-12.23-1.95-18.25.62-1.81,3.66-7.98,6.24-5.38.66.79.51,1.98-.31,2.58h0Z"/>
          <path class="cls-7" d="M146.82,233.94c-1.53-2.21-3.68-4.11-6.06-4.93s-4.83-.4-6.1,1.26c-1.25,1.63-1.05,4.52.66,6.41,1.36,1.51,3.38,2.18,5.15,2.15,1.8-.03,3.43-.67,5.04-1.32.79-.32,1.63-.68,1.95-1.48.32-.8-.24-2.13-1.19-2.28"/>
          <g>
            <path class="cls-10" d="M182.59,201.33c11.61,2.33,22.55,5.99,23.03,18.35.39,9.95-13.85,20.25-24.32,16.46"/>
            <path class="cls-5" d="M183.12,198.7c8.69,1.19,18.71,3.76,23.33,12.19,5,9.69.58,19.38-8.4,24.33-5.04,2.85-11.63,4.12-16.94,1.42-.26-.14-.36-.46-.23-.72.11-.22.36-.32.58-.27,2.6.53,5.21.3,7.63-.46,6.44-2.06,13.45-7.91,13.61-14.96-.19-10.87-11.58-13.78-20.65-16.27-3.17-.94-2.22-5.63,1.06-5.27h0Z"/>
          </g>
          <path class="cls-7" d="M168.93,233.2c.64-3.11,2.52-6.1,5.69-7.94,3.24-1.88,7.93-2.37,11.69-.74,3.82,1.66,6.09,5.61,4.53,8.72-1.22,2.43-4.37,3.88-7.58,4.32-3.15.43-6.4.02-9.53-.37-1.49-.19-3.09-.42-4.19-1.3-1.1-.87-1.25-2.62.07-3.07"/>
          <g>
            <path class="cls-10" d="M188.52,209.34c-8.06-4.05-18.58-19.95-35.22-17.06-13.22,2.29-20.37,13.6-17.42,23.89"/>
            <path class="cls-5" d="M188.22,209.93c-2.94-1.38-5.33-3.44-7.76-5.32-4.67-3.8-9.48-7.62-15.1-9.75-8.09-3.14-18.04-1.04-24.03,5.19-4.02,4.08-5.91,10.17-4.53,15.86.28,1.18-1.46,1.68-1.85.53-3.38-9.68,3.1-20.41,12.3-23.96,13.58-5.67,24.85,1.42,34.5,10.6,2.28,2.06,4.52,4.16,7.05,5.66.73.4.19,1.55-.6,1.19h0Z"/>
          </g>
          <g>
            <path class="cls-10" d="M142.97,230.11c.75,2.66,4.49,13.81,18.56,9.2,4.95-1.62,7.98-6.55,8.96-8.53"/>
            <path class="cls-5" d="M143.61,229.93c2.51,7.76,8.94,11.07,16.66,8.55,4.24-1.08,7.26-4.38,9.59-8.03.21-.33.64-.43.98-.23.3.19.41.56.28.87-.6,1.47-1.39,2.84-2.36,4.11-3.8,5.34-11.22,7.43-17.45,5.72-4.78-1.4-7.99-6.05-8.99-10.65-.18-.81,1.02-1.15,1.28-.36h0Z"/>
          </g>
        </g>
      </g>
      <path class="cls-5" d="M140.63,246.46c-1.15,13.68-13.91,24.99-27.58,25.12-4.51.14-9.05-.77-12.96-2.82,4.29.99,8.61,1.24,12.81.73,12.88-1.35,23.63-10.84,27.74-23.03h0Z"/>
      <path class="cls-5" d="M181.94,235.77c1.59,6.8,2.69,14.14,6.37,20.11,3.66,5.89,9.86,9.44,16.58,10.72,6.68,1.41,13.62-.4,19.86-3.03,6.41-2.73,12.46-6.63,19.14-9.66,6.69-3.06,14.01-4.88,21.36-5.23,14.67-.78,29.62,4.32,40.47,14.21,5.42,4.86,9.93,10.74,12.98,17.29l-.68.34c-10.16-18.67-31.42-30.31-52.58-28.6-6.96.45-13.77,2.2-20.08,5.19-6.35,2.95-12.43,6.82-19.2,9.75-6.82,2.93-14.54,4.76-21.99,3.04-7.3-1.62-14.32-6.11-17.77-12.9-3.43-6.63-3.84-14-4.44-21.23h0Z"/>
      <path class="cls-5" d="M171.24,240.79c.47,10.52-1.4,21.48,2.75,31.43.6,1.36,1.39,2.62,2.64,3.59-3.12-.99-4.89-4.3-6.06-7.16-3.36-8.97-2.01-18.91.67-27.86h0Z"/>
      <path class="cls-5" d="M213.25,263.62c19.96-8.13,39.45-30.74,62.68-20.21,1.37.7,2.65,1.55,3.82,2.5-10.8-5.93-23.51-3-33.87,2.28-10.69,5.2-20.73,12.91-32.62,15.43h0Z"/>
      <path class="cls-5" d="M76.48,222.58c13.6,4.23,19.57,24.34,35.78,21.23-.8.47-1.67.82-2.59,1.08-15.72,3.17-22.24-15.06-33.2-22.31h0Z"/>
      <path class="cls-5" d="M-9.16,253.67c11.87-32.29,54.51-39.92,82.59-25.07,9.61,4.63,15.47,14.1,24.03,20.11,12.85,9.13,26.98,3.74,34.63-8.97,0,0,3.05,2.11,3.05,2.11-10.03,12.08-24.49,17.22-37.98,7.28-5.72-4.11-10.01-9.77-15.27-14.38-15.91-13.35-40.2-14.52-59.07-7.48-12.52,4.72-22.98,15.09-26.14,28.18,0,0-5.85-1.79-5.85-1.79h0Z"/>
      <path class="cls-5" d="M264.7,285.27c12.48-8.16,28.01-13.18,42.9-9.27,4.99,1.22,9.76,3.25,14.21,5.78,0,0-3.95,1.34-3.94,1.33,12.65-29.53,53.91-35.03,75.7-12.7-21.51-19.66-60.23-13.71-70.66,14.58,0,0-1.4,3.08-1.4,3.08-4.64-3.31-9.62-6.34-15.04-8.13-9.02-3.15-18.95-2.81-28.09,0-4.65,1.39-9.15,3.34-13.5,5.6l-.17-.29h0Z"/>
      <g>
        <g>
          <g>
            <path d="M235.34,118.11c-.64,0-1.2-.46-1.32-1.1-.12-.68.29-1.35.96-1.54l27.08-7.57c.12-.03.24-.05.36-.05.33,0,.65.12.9.34.34.3.5.76.43,1.22l-.84,5.25c-.1.61-.6,1.07-1.21,1.13l-26.24,2.32s-.08,0-.12,0Z"/>
            <path class="cls-11" d="M262.43,109.19h0M262.43,109.19l-.84,5.25-26.24,2.32,27.08-7.57M262.43,106.5s-.08,0-.12,0c-.23.01-.45.05-.66.11l-27.02,7.55c-1.34.37-2.17,1.71-1.92,3.07.23,1.29,1.36,2.21,2.64,2.21.08,0,.16,0,.24-.01l26.24-2.32c1.23-.11,2.22-1.04,2.42-2.25l.82-5.13c.04-.18.06-.36.06-.55,0-1.48-1.19-2.68-2.67-2.69,0,0-.02,0-.02,0h0ZM262.43,111.88h0,0Z"/>
          </g>
          <g>
            <path d="M217.94,115.54c-.31,0-.62-.11-.88-.33-.52-.45-.62-1.21-.23-1.78l22.82-33.23c.25-.37.67-.58,1.11-.58.03,0,11.95.85,11.95.85.53.04.99.39,1.17.89s.04,1.07-.35,1.43l-34.67,32.38c-.26.24-.59.36-.92.36Z"/>
            <path class="cls-11" d="M240.76,80.97l2.57.18,9.29.66-34.67,32.38,22.82-33.23M240.76,78.28c-.88,0-1.71.43-2.22,1.17l-22.82,33.23c-.78,1.13-.58,2.67.46,3.56.51.43,1.13.65,1.75.65.66,0,1.32-.24,1.84-.72l34.67-32.38c.78-.73,1.06-1.85.7-2.86-.36-1.01-1.28-1.71-2.34-1.79l-9.29-.66-2.57-.18c-.06,0-.13,0-.19,0h0Z"/>
          </g>
        </g>
        <g>
          <polygon class="cls-9" points="235.34 115.9 261.59 113.58 262.43 108.33 235.34 115.9"/>
          <polygon class="cls-9" points="217.04 113.69 251.72 81.31 242.43 80.65 239.86 80.46 217.04 113.69"/>
        </g>
      </g>
      <g>
        <g>
          <g>
            <path d="M155.96,119.74l-25.69-2.27c-.61-.05-1.11-.52-1.21-1.13l-.82-5.14c-.07-.45.09-.91.43-1.22.25-.22.57-.34.9-.34.12,0,.24.02.36.05l26.51,7.41c.67.19,1.08.85.96,1.54-.12.64-.68,1.1-1.32,1.1-.04,0-.08,0-.12,0Z"/>
            <path class="cls-11" d="M129.57,110.99l26.51,7.41-25.69-2.27-.82-5.14M129.57,108.3c-.65,0-1.29.24-1.79.68-.68.61-1.01,1.53-.87,2.43l.82,5.14c.19,1.22,1.19,2.15,2.42,2.25l25.69,2.27c.08,0,.16.01.24.01,1.29,0,2.41-.92,2.64-2.21.25-1.37-.58-2.7-1.92-3.07l-26.51-7.41c-.24-.07-.48-.1-.72-.1h0Z"/>
          </g>
          <g>
            <path d="M173.12,117.23c-.33,0-.66-.12-.92-.36l-33.95-31.7c-.39-.36-.53-.93-.35-1.43s.64-.85,1.17-.89c0,0,11.67-.83,11.7-.83.44,0,.86.22,1.11.58l22.34,32.53c.39.57.29,1.33-.23,1.78-.25.22-.56.33-.88.33Z"/>
            <path class="cls-11" d="M150.78,83.36l22.34,32.53-33.95-31.7,9.09-.65,2.51-.18M150.78,80.67c-.06,0-.13,0-.19,0l-2.51.18-9.09.65c-1.07.08-1.99.78-2.34,1.79-.36,1.01-.08,2.13.7,2.86l33.95,31.7c.52.48,1.18.72,1.84.72.62,0,1.25-.22,1.75-.65,1.04-.9,1.24-2.43.46-3.56l-22.34-32.53c-.5-.73-1.33-1.17-2.22-1.17h0Z"/>
          </g>
        </g>
        <g>
          <polygon class="cls-9" points="156.08 117.55 130.39 115.28 129.57 110.14 156.08 117.55"/>
          <polygon class="cls-9" points="174 115.39 140.05 83.69 149.15 83.04 151.66 82.86 174 115.39"/>
        </g>
      </g>
      <g>
        <polygon class="cls-11" points="197.34 104.28 188.06 108.45 191.48 99.99 184.2 92.05 194.07 92.93 199.2 83.15 202.47 93.04 214.48 93.04 204.21 99.67 206.58 109.88 197.34 104.28"/>
        <polygon class="cls-8" points="194.57 93.51 198.25 86.49 200.58 93.51 208.9 93.51 201.74 98.14 203.48 105.64 196.9 101.65 190.51 104.52 192.83 98.78 187.41 92.88 194.57 93.51"/>
      </g>
      <g>
        <polygon class="cls-11" points="130.98 98.35 129.38 104.34 126.7 99.46 120.14 99.85 124.36 95.52 121.71 89.33 127.65 91.59 132.27 85.92 131.45 93.33 137.19 96.14 130.98 98.35"/>
        <polygon class="cls-8" points="124.83 95.51 122.93 91.07 127.14 92.67 130.35 88.74 129.77 93.9 133.99 95.97 129.57 97.54 128.46 101.67 126.65 98.36 121.77 98.65 124.83 95.51"/>
      </g>
      <g>
        <polygon class="cls-11" points="275.52 119.63 268.73 115.64 275.61 114.01 277.36 105.85 281.23 112.48 289.71 111.34 284.93 117.84 290.31 125.43 281.51 121.91 276.13 127.99 275.52 119.63"/>
        <polygon class="cls-8" points="281.09 113.06 287.17 112.24 283.78 116.85 287.51 122.12 281.38 119.66 277.42 124.12 276.99 118.18 272.31 115.43 276.98 114.32 278.28 108.25 281.09 113.06"/>
      </g>
    </g>
  </g>
</svg>