<?xml version="1.0" encoding="UTF-8"?>
<svg id="Ebene_6" data-name="Ebene 6" xmlns="http://www.w3.org/2000/svg" viewBox="0 0 382.78 388.52">
  <defs>
    <style>
      .cls-1 {
        fill: #c9e8fb;
      }

      .cls-2 {
        fill: #1d1d1b;
      }

      .cls-3 {
        fill: #1d1d1b;
      }

      .cls-4 {
        fill: #ffd618;
      }

      .cls-5 {
        fill: #fff;
      }

      .cls-6 {
        stroke: #000;
        stroke-miterlimit: 10;
        stroke-width: 13px;
      }
    </style>
  </defs>
  <g>
    <circle class="cls-1" cx="192.69" cy="195.52" r="187.09"/>
    <path class="cls-2" d="M380.43,195.52c.32,71.9-39.73,142.73-105.32,174.26-108.35,52.85-236.21-14.34-266.43-128.17C-33.48,83.57,128.06-50.02,275.31,20.83c65.41,32.06,105.6,102.57,105.12,174.69h0ZM379.12,195.52c.31-61.48-33.76-118.84-85.55-151.01C191.42-20.04,55.85,27.08,18.29,142.61c-13.17,39.97-12.32,84.46,3.56,123.66,37.31,94.69,148.11,134.79,240.23,96.79,68.09-27.13,117.64-93.08,117.04-167.54h0Z"/>
  </g>
  <g>
    <path class="cls-3" d="M109.28,122.86s.08-.04.08-.09-.04-.09-.08-.09-.09.04-.09.09.04.09.09.09Z"/>
    <path class="cls-3" d="M119.43,123.23c.23,0,.42-.21.42-.47s-.19-.46-.42-.46-.42.21-.42.46.18.47.42.47Z"/>
    <path class="cls-3" d="M129.59,123.48c.36,0,.65-.32.65-.71,0-.39-.3-.71-.65-.71s-.65.31-.65.71.29.71.65.71Z"/>
    <path class="cls-3" d="M139.75,123.66c.45,0,.82-.4.82-.89,0-.49-.37-.9-.82-.9s-.81.4-.81.9c0,.5.37.89.81.89Z"/>
    <path class="cls-3" d="M149.91,123.72c.48,0,.87-.43.87-.96,0-.53-.39-.95-.87-.95-.48,0-.87.43-.87.95,0,.53.39.96.87.96Z"/>
    <path class="cls-3" d="M160.06,123.69c.47,0,.85-.41.85-.93,0-.51-.38-.93-.85-.93s-.85.42-.85.93c0,.51.38.93.85.93Z"/>
    <path class="cls-3" d="M170.22,123.57c.41,0,.73-.36.73-.8,0-.44-.32-.8-.73-.8-.4,0-.73.36-.73.8,0,.44.33.8.73.8Z"/>
    <path class="cls-3" d="M180.38,123.32c.28,0,.51-.25.51-.56,0-.3-.23-.56-.51-.56s-.51.25-.51.56c0,.31.23.56.51.56Z"/>
    <path class="cls-3" d="M190.53,122.98c.11,0,.2-.1.2-.22s-.09-.22-.2-.22-.2.1-.2.22c0,.12.09.22.2.22Z"/>
    <path class="cls-3" d="M99.12,134.39c.25,0,.45-.22.45-.5s-.2-.49-.45-.49-.45.22-.45.49.2.5.45.5Z"/>
    <path class="cls-3" d="M109.28,134.85c.48,0,.88-.43.88-.96s-.39-.96-.88-.96c-.48,0-.87.43-.87.96,0,.53.39.96.87.96Z"/>
    <path class="cls-3" d="M119.43,135.28c.7,0,1.27-.62,1.27-1.39,0-.76-.57-1.39-1.27-1.39-.7,0-1.27.62-1.27,1.39,0,.77.56,1.39,1.27,1.39Z"/>
    <path class="cls-3" d="M129.59,135.56c.84,0,1.52-.75,1.52-1.67,0-.92-.68-1.67-1.52-1.67s-1.52.74-1.52,1.67c0,.92.68,1.67,1.52,1.67Z"/>
    <path class="cls-3" d="M139.75,135.74c.93,0,1.69-.83,1.69-1.85,0-1.02-.76-1.85-1.69-1.85s-1.69.83-1.69,1.85c0,1.03.76,1.85,1.69,1.85Z"/>
    <path class="cls-3" d="M149.91,135.84c.98,0,1.77-.87,1.77-1.95s-.79-1.94-1.77-1.94c-.98,0-1.77.87-1.77,1.94,0,1.07.79,1.95,1.77,1.95Z"/>
    <path class="cls-3" d="M160.06,135.78c.95,0,1.72-.84,1.72-1.88s-.77-1.88-1.72-1.88-1.72.84-1.72,1.88c0,1.04.77,1.88,1.72,1.88Z"/>
    <path class="cls-3" d="M170.22,135.65c.89,0,1.61-.79,1.61-1.76,0-.97-.72-1.76-1.61-1.76s-1.61.79-1.61,1.76c0,.97.72,1.76,1.61,1.76Z"/>
    <path class="cls-3" d="M180.38,135.37c.75,0,1.35-.66,1.35-1.48,0-.81-.61-1.48-1.35-1.48-.75,0-1.35.66-1.35,1.48,0,.82.6,1.48,1.35,1.48Z"/>
    <path class="cls-3" d="M190.53,135.01c.56,0,1.01-.5,1.01-1.12,0-.61-.45-1.11-1.01-1.11-.56,0-1.01.5-1.01,1.11,0,.62.46,1.12,1.01,1.12Z"/>
    <path class="cls-3" d="M200.69,134.57c.34,0,.62-.3.62-.68,0-.37-.28-.68-.62-.68s-.62.3-.62.68c0,.38.28.68.62.68Z"/>
    <path class="cls-3" d="M210.85,134.02c.06,0,.12-.06.12-.12s-.05-.12-.12-.12c-.06,0-.11.05-.11.12s.05.12.11.12Z"/>
    <path class="cls-3" d="M78.81,145.05s.03-.01.03-.03c0-.01-.01-.03-.03-.03s-.03.02-.03.03c0,.02.01.03.03.03Z"/>
    <path class="cls-3" d="M88.96,145.7c.34,0,.62-.3.62-.68,0-.37-.28-.68-.62-.68-.34,0-.62.3-.62.68s.28.68.62.68Z"/>
    <path class="cls-3" d="M99.12,146.32c.65,0,1.18-.58,1.18-1.3,0-.71-.53-1.29-1.18-1.29s-1.18.58-1.18,1.29c0,.72.53,1.3,1.18,1.3Z"/>
    <path class="cls-3" d="M109.28,146.84c.92,0,1.66-.81,1.66-1.82s-.75-1.82-1.66-1.82c-.92,0-1.66.81-1.66,1.82s.74,1.82,1.66,1.82Z"/>
    <path class="cls-3" d="M119.43,147.28c1.13,0,2.05-1.01,2.05-2.26s-.92-2.25-2.05-2.25-2.06,1.01-2.06,2.25c0,1.25.92,2.26,2.06,2.26Z"/>
    <path class="cls-3" d="M129.59,147.61c1.31,0,2.37-1.16,2.37-2.59,0-1.43-1.06-2.59-2.37-2.59-1.3,0-2.36,1.16-2.36,2.59,0,1.44,1.06,2.59,2.36,2.59Z"/>
    <path class="cls-3" d="M139.75,147.83c1.42,0,2.56-1.26,2.56-2.81,0-1.55-1.14-2.81-2.56-2.81-1.41,0-2.56,1.26-2.56,2.81,0,1.55,1.15,2.81,2.56,2.81Z"/>
    <path class="cls-3" d="M149.91,147.92c1.46,0,2.65-1.3,2.65-2.9,0-1.6-1.18-2.9-2.65-2.9-1.46,0-2.65,1.3-2.65,2.9,0,1.61,1.19,2.9,2.65,2.9Z"/>
    <path class="cls-3" d="M160.06,147.86c1.43,0,2.59-1.27,2.59-2.84,0-1.56-1.16-2.84-2.59-2.84s-2.59,1.27-2.59,2.84c0,1.57,1.16,2.84,2.59,2.84Z"/>
    <path class="cls-3" d="M170.22,147.7c1.36,0,2.45-1.2,2.45-2.69,0-1.48-1.09-2.68-2.45-2.68-1.35,0-2.45,1.2-2.45,2.68,0,1.49,1.1,2.69,2.45,2.69Z"/>
    <path class="cls-3" d="M180.38,147.4c1.2,0,2.17-1.06,2.17-2.38,0-1.31-.97-2.37-2.17-2.37-1.2,0-2.17,1.06-2.17,2.37s.97,2.38,2.17,2.38Z"/>
    <path class="cls-3" d="M190.53,147c.99,0,1.8-.89,1.8-1.98,0-1.09-.81-1.97-1.8-1.97-.99,0-1.8.89-1.8,1.97,0,1.09.81,1.98,1.8,1.98Z"/>
    <path class="cls-3" d="M200.69,146.5c.75,0,1.35-.67,1.35-1.49,0-.81-.6-1.47-1.35-1.47s-1.35.66-1.35,1.47c0,.82.61,1.49,1.35,1.49Z"/>
    <path class="cls-3" d="M210.85,145.91c.45,0,.82-.4.82-.89,0-.49-.36-.89-.82-.89-.45,0-.81.4-.81.89,0,.5.36.89.81.89Z"/>
    <path class="cls-3" d="M221.01,145.27c.12,0,.23-.11.23-.25s-.1-.25-.23-.25-.22.11-.22.25.1.25.22.25Z"/>
    <path class="cls-3" d="M78.81,156.83c.34,0,.62-.3.62-.68s-.28-.68-.62-.68-.62.3-.62.68.28.68.62.68Z"/>
    <path class="cls-3" d="M88.96,157.57c.71,0,1.29-.63,1.29-1.42,0-.78-.58-1.42-1.29-1.42-.71,0-1.29.64-1.29,1.42,0,.78.58,1.42,1.29,1.42Z"/>
    <path class="cls-3" d="M99.12,158.22c1.04,0,1.89-.93,1.89-2.07,0-1.14-.84-2.07-1.89-2.07-1.04,0-1.89.92-1.89,2.07,0,1.14.85,2.07,1.89,2.07Z"/>
    <path class="cls-3" d="M109.28,158.8c1.33,0,2.42-1.19,2.42-2.65,0-1.47-1.09-2.65-2.42-2.65-1.33,0-2.42,1.19-2.42,2.65,0,1.46,1.09,2.65,2.42,2.65Z"/>
    <path class="cls-3" d="M119.43,159.27c1.57,0,2.84-1.4,2.84-3.12,0-1.72-1.27-3.12-2.84-3.12-1.57,0-2.84,1.4-2.84,3.12,0,1.72,1.27,3.12,2.84,3.12Z"/>
    <path class="cls-3" d="M129.59,159.64c1.76,0,3.19-1.56,3.19-3.48,0-1.93-1.43-3.49-3.19-3.49-1.76,0-3.18,1.56-3.18,3.49,0,1.93,1.42,3.48,3.18,3.48Z"/>
    <path class="cls-3" d="M139.75,159.92c1.9,0,3.44-1.69,3.44-3.77,0-2.08-1.54-3.76-3.44-3.76-1.9,0-3.43,1.68-3.43,3.76,0,2.08,1.54,3.77,3.43,3.77Z"/>
    <path class="cls-3" d="M149.91,160.01c1.94,0,3.52-1.73,3.52-3.86,0-2.13-1.58-3.86-3.52-3.86-1.95,0-3.52,1.73-3.52,3.86,0,2.13,1.58,3.86,3.52,3.86Z"/>
    <path class="cls-3" d="M160.06,159.95c1.91,0,3.46-1.7,3.46-3.79,0-2.1-1.55-3.8-3.46-3.8-1.91,0-3.46,1.7-3.46,3.8,0,2.1,1.55,3.79,3.46,3.79Z"/>
    <path class="cls-3" d="M170.22,159.76c1.82,0,3.3-1.62,3.3-3.61,0-2-1.48-3.61-3.3-3.61-1.82,0-3.3,1.61-3.3,3.61,0,1.99,1.48,3.61,3.3,3.61Z"/>
    <path class="cls-3" d="M180.38,159.42c1.65,0,2.99-1.46,2.99-3.27,0-1.81-1.34-3.27-2.99-3.27-1.65,0-2.99,1.46-2.99,3.27s1.34,3.27,2.99,3.27Z"/>
    <path class="cls-3" d="M190.53,158.96c1.42,0,2.56-1.26,2.56-2.81,0-1.55-1.15-2.81-2.56-2.81-1.42,0-2.56,1.26-2.56,2.81,0,1.55,1.14,2.81,2.56,2.81Z"/>
    <path class="cls-3" d="M200.69,158.4c1.14,0,2.06-1.01,2.06-2.25,0-1.25-.92-2.25-2.06-2.25-1.13,0-2.05,1.01-2.05,2.25,0,1.24.92,2.25,2.05,2.25Z"/>
    <path class="cls-3" d="M210.85,157.79c.83,0,1.5-.73,1.5-1.63,0-.9-.67-1.64-1.5-1.64s-1.49.73-1.49,1.64c0,.9.67,1.63,1.49,1.63Z"/>
    <path class="cls-3" d="M221.01,157.07c.47,0,.84-.41.84-.92,0-.51-.37-.93-.84-.93-.47,0-.84.42-.84.93,0,.51.37.92.84.92Z"/>
    <path class="cls-3" d="M231.16,156.34c.09,0,.17-.08.17-.18s-.07-.19-.17-.19-.17.08-.17.19.08.18.17.18Z"/>
    <path class="cls-3" d="M68.65,167.77c.25,0,.45-.22.45-.49,0-.27-.2-.49-.45-.49s-.45.22-.45.49.2.49.45.49Z"/>
    <path class="cls-3" d="M78.81,168.57c.65,0,1.18-.58,1.18-1.3,0-.72-.53-1.3-1.18-1.3s-1.19.58-1.19,1.3c0,.71.53,1.3,1.19,1.3Z"/>
    <path class="cls-3" d="M88.96,169.34c1.04,0,1.89-.92,1.89-2.07,0-1.14-.85-2.07-1.89-2.07-1.04,0-1.89.92-1.89,2.07,0,1.14.85,2.07,1.89,2.07Z"/>
    <path class="cls-3" d="M99.12,170.05c1.4,0,2.53-1.24,2.53-2.78s-1.13-2.78-2.53-2.78c-1.4,0-2.54,1.25-2.54,2.78s1.13,2.78,2.54,2.78Z"/>
    <path class="cls-3" d="M109.28,170.67c1.71,0,3.1-1.52,3.1-3.39,0-1.88-1.39-3.4-3.1-3.4-1.71,0-3.1,1.52-3.1,3.4,0,1.87,1.39,3.39,3.1,3.39Z"/>
    <path class="cls-3" d="M119.43,171.23c1.99,0,3.6-1.77,3.6-3.95,0-2.18-1.61-3.95-3.6-3.95-1.99,0-3.61,1.77-3.61,3.95,0,2.18,1.62,3.95,3.61,3.95Z"/>
    <path class="cls-3" d="M129.59,171.69c2.23,0,4.03-1.98,4.03-4.41,0-2.44-1.8-4.41-4.03-4.41-2.22,0-4.03,1.97-4.03,4.41,0,2.44,1.8,4.41,4.03,4.41Z"/>
    <path class="cls-3" d="M139.75,172c2.38,0,4.31-2.11,4.31-4.72,0-2.61-1.93-4.72-4.31-4.72-2.38,0-4.31,2.11-4.31,4.72,0,2.61,1.93,4.72,4.31,4.72Z"/>
    <path class="cls-3" d="M149.91,172.09c2.43,0,4.4-2.16,4.4-4.81,0-2.66-1.97-4.81-4.4-4.81-2.43,0-4.39,2.16-4.39,4.81,0,2.66,1.96,4.81,4.39,4.81Z"/>
    <path class="cls-3" d="M160.06,172.06c2.41,0,4.37-2.14,4.37-4.78,0-2.64-1.96-4.78-4.37-4.78-2.41,0-4.37,2.14-4.37,4.78,0,2.64,1.96,4.78,4.37,4.78Z"/>
    <path class="cls-3" d="M170.22,171.81c2.28,0,4.14-2.03,4.14-4.54,0-2.51-1.86-4.54-4.14-4.54-2.29,0-4.14,2.03-4.14,4.54,0,2.5,1.85,4.54,4.14,4.54Z"/>
    <path class="cls-3" d="M180.38,171.41c2.08,0,3.78-1.85,3.78-4.13,0-2.29-1.69-4.14-3.78-4.14-2.08,0-3.78,1.85-3.78,4.14,0,2.28,1.69,4.13,3.78,4.13Z"/>
    <path class="cls-3" d="M190.53,170.89c1.82,0,3.3-1.62,3.3-3.61,0-2-1.47-3.61-3.3-3.61-1.82,0-3.29,1.61-3.29,3.61,0,1.99,1.48,3.61,3.29,3.61Z"/>
    <path class="cls-3" d="M200.69,170.27c1.51,0,2.73-1.34,2.73-2.99,0-1.65-1.22-2.99-2.73-2.99-1.51,0-2.73,1.34-2.73,2.99,0,1.65,1.22,2.99,2.73,2.99Z"/>
    <path class="cls-3" d="M210.85,169.56c1.15,0,2.09-1.02,2.09-2.28,0-1.26-.94-2.28-2.09-2.28-1.14,0-2.08,1.02-2.08,2.28s.94,2.28,2.08,2.28Z"/>
    <path class="cls-3" d="M221.01,168.85c.8,0,1.43-.7,1.43-1.57,0-.87-.64-1.57-1.43-1.57-.79,0-1.43.71-1.43,1.57,0,.87.64,1.57,1.43,1.57Z"/>
    <path class="cls-3" d="M231.16,168.05c.39,0,.7-.35.7-.77,0-.43-.32-.77-.7-.77-.39,0-.71.35-.71.77,0,.42.31.77.71.77Z"/>
    <path class="cls-3" d="M58.49,178.5s.08-.04.08-.09c0-.05-.03-.09-.08-.09s-.09.04-.09.09c0,.06.04.09.09.09Z"/>
    <path class="cls-3" d="M68.65,179.36c.48,0,.87-.43.87-.96,0-.53-.39-.95-.87-.95-.48,0-.88.43-.88.95,0,.53.39.96.88.96Z"/>
    <path class="cls-3" d="M78.81,180.23c.91,0,1.66-.82,1.66-1.82,0-1-.75-1.82-1.66-1.82-.92,0-1.66.81-1.66,1.82,0,1.01.75,1.82,1.66,1.82Z"/>
    <path class="cls-3" d="M88.96,181.06c1.33,0,2.42-1.19,2.42-2.66,0-1.47-1.09-2.65-2.42-2.65s-2.42,1.19-2.42,2.65c0,1.47,1.08,2.66,2.42,2.66Z"/>
    <path class="cls-3" d="M99.12,181.8c1.71,0,3.1-1.52,3.1-3.39,0-1.87-1.39-3.39-3.1-3.39-1.71,0-3.1,1.52-3.1,3.39,0,1.88,1.39,3.39,3.1,3.39Z"/>
    <path class="cls-3" d="M109.28,182.54c2.08,0,3.78-1.85,3.78-4.13,0-2.29-1.69-4.13-3.78-4.13s-3.77,1.85-3.77,4.13c0,2.29,1.69,4.13,3.77,4.13Z"/>
    <path class="cls-3" d="M119.43,183.19c2.41,0,4.37-2.14,4.37-4.79,0-2.64-1.96-4.78-4.37-4.78-2.41,0-4.37,2.14-4.37,4.78,0,2.64,1.96,4.79,4.37,4.79Z"/>
    <path class="cls-3" d="M129.59,183.71c2.68,0,4.85-2.38,4.85-5.31,0-2.93-2.17-5.31-4.85-5.31s-4.85,2.38-4.85,5.31c0,2.93,2.17,5.31,4.85,5.31Z"/>
    <ellipse class="cls-3" cx="139.75" cy="178.4" rx="5.16" ry="5.65"/>
    <path class="cls-3" d="M149.91,184.21c2.92,0,5.29-2.6,5.29-5.8,0-3.2-2.37-5.8-5.29-5.8s-5.3,2.6-5.3,5.8c0,3.21,2.37,5.8,5.3,5.8Z"/>
    <path class="cls-3" d="M160.06,184.11c2.88,0,5.21-2.55,5.21-5.71,0-3.15-2.34-5.71-5.21-5.71-2.88,0-5.21,2.56-5.21,5.71,0,3.16,2.33,5.71,5.21,5.71Z"/>
    <path class="cls-3" d="M170.22,183.84c2.74,0,4.96-2.43,4.96-5.43,0-3-2.22-5.43-4.96-5.43-2.74,0-4.96,2.43-4.96,5.43,0,3,2.22,5.43,4.96,5.43Z"/>
    <path class="cls-3" d="M180.38,183.38c2.5,0,4.54-2.22,4.54-4.97,0-2.74-2.03-4.97-4.54-4.97-2.5,0-4.54,2.22-4.54,4.97,0,2.75,2.03,4.97,4.54,4.97Z"/>
    <path class="cls-3" d="M190.53,182.76c2.19,0,3.97-1.95,3.97-4.35,0-2.4-1.78-4.35-3.97-4.35-2.19,0-3.97,1.95-3.97,4.35s1.78,4.35,3.97,4.35Z"/>
    <path class="cls-3" d="M200.69,182.05c1.84,0,3.33-1.63,3.33-3.64,0-2.01-1.49-3.64-3.33-3.64-1.84,0-3.32,1.63-3.32,3.64,0,2.02,1.48,3.64,3.32,3.64Z"/>
    <path class="cls-3" d="M210.85,181.31c1.46,0,2.65-1.3,2.65-2.9,0-1.6-1.19-2.9-2.65-2.9s-2.65,1.3-2.65,2.9c0,1.6,1.19,2.9,2.65,2.9Z"/>
    <path class="cls-3" d="M221.01,180.5c1.05,0,1.91-.94,1.91-2.1,0-1.16-.86-2.1-1.91-2.1s-1.91.94-1.91,2.1c0,1.16.86,2.1,1.91,2.1Z"/>
    <path class="cls-3" d="M231.16,179.67c.64,0,1.15-.56,1.15-1.26,0-.7-.51-1.26-1.15-1.26s-1.16.57-1.16,1.26c0,.7.52,1.26,1.16,1.26Z"/>
    <path class="cls-3" d="M241.32,178.78c.18,0,.33-.17.33-.37s-.15-.37-.33-.37-.34.16-.34.37.15.37.34.37Z"/>
    <path class="cls-3" d="M58.49,190c.23,0,.42-.21.42-.46,0-.26-.19-.46-.42-.46s-.43.21-.43.46c0,.26.19.46.43.46Z"/>
    <path class="cls-3" d="M68.65,190.92c.7,0,1.27-.62,1.27-1.39,0-.77-.56-1.39-1.27-1.39s-1.27.62-1.27,1.39c0,.77.56,1.39,1.27,1.39Z"/>
    <path class="cls-3" d="M78.81,191.79c1.13,0,2.06-1.01,2.06-2.25,0-1.24-.92-2.25-2.06-2.25-1.13,0-2.06,1.01-2.06,2.25s.92,2.25,2.06,2.25Z"/>
    <path class="cls-3" d="M88.96,192.65c1.57,0,2.84-1.39,2.84-3.12,0-1.72-1.27-3.12-2.84-3.12s-2.84,1.4-2.84,3.12c0,1.72,1.27,3.12,2.84,3.12Z"/>
    <path class="cls-3" d="M99.12,193.48c1.99,0,3.6-1.76,3.6-3.95,0-2.18-1.61-3.95-3.6-3.95s-3.61,1.77-3.61,3.95c0,2.19,1.62,3.95,3.61,3.95Z"/>
    <path class="cls-3" d="M109.28,194.31c2.41,0,4.37-2.14,4.37-4.78,0-2.64-1.96-4.78-4.37-4.78-2.41,0-4.37,2.14-4.37,4.78,0,2.64,1.96,4.78,4.37,4.78Z"/>
    <path class="cls-3" d="M119.43,195.03c2.77,0,5.01-2.46,5.01-5.5,0-3.04-2.24-5.49-5.01-5.49-2.77,0-5.01,2.46-5.01,5.49,0,3.04,2.24,5.5,5.01,5.5Z"/>
    <path class="cls-3" d="M129.59,195.68c3.1,0,5.61-2.75,5.61-6.14,0-3.39-2.51-6.14-5.61-6.14-3.1,0-5.6,2.75-5.6,6.14,0,3.4,2.51,6.14,5.6,6.14Z"/>
    <path class="cls-3" d="M139.75,196.11c3.32,0,6-2.94,6-6.57,0-3.63-2.69-6.57-6-6.57-3.31,0-5.99,2.95-5.99,6.57,0,3.63,2.68,6.57,5.99,6.57Z"/>
    <path class="cls-3" d="M149.91,196.29c3.41,0,6.17-3.02,6.17-6.76,0-3.73-2.76-6.76-6.17-6.76s-6.17,3.03-6.17,6.76c0,3.73,2.76,6.76,6.17,6.76Z"/>
    <path class="cls-3" d="M160.06,196.2c3.36,0,6.08-2.98,6.08-6.67s-2.72-6.67-6.08-6.67c-3.36,0-6.08,2.99-6.08,6.67,0,3.68,2.72,6.67,6.08,6.67Z"/>
    <path class="cls-3" d="M170.22,195.83c3.18,0,5.75-2.82,5.75-6.29s-2.57-6.29-5.75-6.29c-3.17,0-5.74,2.82-5.74,6.29s2.57,6.29,5.74,6.29Z"/>
    <path class="cls-3" d="M180.38,195.24c2.88,0,5.21-2.55,5.21-5.71s-2.34-5.71-5.21-5.71c-2.88,0-5.21,2.56-5.21,5.71,0,3.16,2.33,5.71,5.21,5.71Z"/>
    <path class="cls-3" d="M190.53,194.56c2.54,0,4.59-2.25,4.59-5.03,0-2.78-2.05-5.03-4.59-5.03-2.53,0-4.59,2.25-4.59,5.03,0,2.78,2.05,5.03,4.59,5.03Z"/>
    <path class="cls-3" d="M200.69,193.76c2.13,0,3.86-1.89,3.86-4.23,0-2.34-1.73-4.23-3.86-4.23-2.13,0-3.86,1.89-3.86,4.23,0,2.34,1.73,4.23,3.86,4.23Z"/>
    <path class="cls-3" d="M210.85,192.93c1.72,0,3.1-1.52,3.1-3.4,0-1.87-1.39-3.4-3.1-3.4-1.71,0-3.09,1.52-3.09,3.4,0,1.88,1.39,3.4,3.09,3.4Z"/>
    <path class="cls-3" d="M221.01,192.1c1.29,0,2.34-1.15,2.34-2.56,0-1.42-1.05-2.56-2.34-2.56-1.29,0-2.34,1.14-2.34,2.56,0,1.41,1.05,2.56,2.34,2.56Z"/>
    <path class="cls-3" d="M231.16,191.2c.83,0,1.52-.75,1.52-1.67,0-.92-.68-1.67-1.52-1.67-.84,0-1.53.75-1.53,1.67,0,.92.69,1.67,1.53,1.67Z"/>
    <path class="cls-3" d="M241.32,190.31c.39,0,.7-.34.7-.77s-.32-.77-.7-.77-.71.35-.71.77c0,.43.32.77.71.77Z"/>
    <path class="cls-3" d="M58.49,201.37c.36,0,.64-.32.64-.71,0-.39-.29-.71-.64-.71s-.65.32-.65.71c0,.39.3.71.65.71Z"/>
    <path class="cls-3" d="M68.65,202.33c.84,0,1.52-.74,1.52-1.66,0-.92-.68-1.67-1.52-1.67s-1.52.75-1.52,1.67c0,.92.68,1.66,1.52,1.66Z"/>
    <path class="cls-3" d="M78.81,203.25c1.31,0,2.37-1.16,2.37-2.59,0-1.43-1.06-2.59-2.37-2.59s-2.37,1.16-2.37,2.59c0,1.43,1.06,2.59,2.37,2.59Z"/>
    <path class="cls-3" d="M88.96,204.15c1.76,0,3.18-1.56,3.18-3.49,0-1.93-1.43-3.49-3.18-3.49-1.76,0-3.18,1.56-3.18,3.49,0,1.92,1.43,3.49,3.18,3.49Z"/>
    <path class="cls-3" d="M99.12,205.08c2.22,0,4.03-1.98,4.03-4.41,0-2.44-1.81-4.41-4.03-4.41-2.22,0-4.03,1.97-4.03,4.41,0,2.44,1.8,4.41,4.03,4.41Z"/>
    <path class="cls-3" d="M109.28,205.97c2.68,0,4.85-2.38,4.85-5.31,0-2.93-2.17-5.31-4.85-5.31s-4.85,2.38-4.85,5.31c0,2.93,2.17,5.31,4.85,5.31Z"/>
    <path class="cls-3" d="M119.43,206.8c3.1,0,5.6-2.75,5.6-6.14s-2.51-6.14-5.6-6.14c-3.1,0-5.6,2.75-5.6,6.14,0,3.39,2.51,6.14,5.6,6.14Z"/>
    <path class="cls-3" d="M129.59,207.54c3.47,0,6.28-3.08,6.28-6.88s-2.81-6.89-6.28-6.89c-3.47,0-6.28,3.08-6.28,6.89s2.81,6.88,6.28,6.88Z"/>
    <path class="cls-3" d="M139.75,207.54c3.47,0,6.28-3.08,6.28-6.88,0-3.8-2.81-6.89-6.28-6.89-3.47,0-6.28,3.08-6.28,6.89,0,3.8,2.81,6.88,6.28,6.88Z"/>
    <path class="cls-3" d="M149.91,207.54c3.47,0,6.28-3.08,6.28-6.88,0-3.8-2.81-6.89-6.28-6.89-3.47,0-6.28,3.08-6.28,6.89,0,3.8,2.81,6.88,6.28,6.88Z"/>
    <path class="cls-3" d="M160.06,207.54c3.47,0,6.28-3.08,6.28-6.88,0-3.8-2.81-6.89-6.28-6.89-3.47,0-6.28,3.08-6.28,6.89,0,3.8,2.81,6.88,6.28,6.88Z"/>
    <path class="cls-3" d="M170.22,207.54c3.47,0,6.28-3.08,6.28-6.88,0-3.8-2.81-6.89-6.28-6.89-3.47,0-6.28,3.08-6.28,6.89,0,3.8,2.81,6.88,6.28,6.88Z"/>
    <path class="cls-3" d="M180.38,207.05c3.22,0,5.84-2.86,5.84-6.39,0-3.53-2.61-6.39-5.84-6.39-3.22,0-5.83,2.86-5.83,6.39s2.61,6.39,5.83,6.39Z"/>
    <path class="cls-3" d="M190.53,206.25c2.82,0,5.1-2.5,5.1-5.58,0-3.09-2.28-5.59-5.1-5.59-2.82,0-5.1,2.5-5.1,5.59,0,3.08,2.28,5.58,5.1,5.58Z"/>
    <path class="cls-3" d="M200.69,205.39c2.38,0,4.31-2.12,4.31-4.72,0-2.61-1.93-4.72-4.31-4.72-2.38,0-4.31,2.11-4.31,4.72,0,2.6,1.93,4.72,4.31,4.72Z"/>
    <path class="cls-3" d="M210.85,204.46c1.92,0,3.47-1.7,3.47-3.8,0-2.1-1.55-3.8-3.47-3.8-1.91,0-3.46,1.7-3.46,3.8,0,2.09,1.55,3.8,3.46,3.8Z"/>
    <path class="cls-3" d="M221.01,203.56c1.46,0,2.65-1.3,2.65-2.9,0-1.6-1.19-2.9-2.65-2.9-1.46,0-2.65,1.3-2.65,2.9,0,1.6,1.19,2.9,2.65,2.9Z"/>
    <path class="cls-3" d="M231.16,202.64c.99,0,1.8-.88,1.8-1.97,0-1.09-.81-1.98-1.8-1.98-.99,0-1.81.89-1.81,1.98,0,1.09.81,1.97,1.81,1.97Z"/>
    <path class="cls-3" d="M241.32,201.71c.53,0,.96-.47.96-1.05,0-.58-.43-1.05-.96-1.05-.53,0-.96.47-.96,1.05s.43,1.05.96,1.05Z"/>
    <path class="cls-3" d="M251.48,200.76s.08-.04.08-.09c0-.05-.03-.1-.08-.1s-.09.04-.09.1c0,.05.04.09.09.09Z"/>
    <path class="cls-3" d="M58.49,212.68c.45,0,.81-.4.81-.89,0-.5-.37-.9-.81-.9s-.82.4-.82.9.36.89.82.89Z"/>
    <path class="cls-3" d="M68.65,213.64c.93,0,1.68-.83,1.68-1.85,0-1.03-.75-1.85-1.68-1.85s-1.69.83-1.69,1.85c0,1.02.76,1.85,1.69,1.85Z"/>
    <path class="cls-3" d="M78.81,214.6c1.41,0,2.56-1.25,2.56-2.8,0-1.55-1.15-2.81-2.56-2.81-1.42,0-2.57,1.26-2.57,2.81,0,1.55,1.15,2.8,2.57,2.8Z"/>
    <path class="cls-3" d="M88.96,215.56c1.9,0,3.44-1.69,3.44-3.76,0-2.08-1.54-3.77-3.44-3.77-1.9,0-3.43,1.68-3.43,3.77,0,2.08,1.54,3.76,3.43,3.76Z"/>
    <path class="cls-3" d="M99.12,216.51c2.38,0,4.31-2.11,4.31-4.72,0-2.61-1.93-4.72-4.31-4.72-2.38,0-4.31,2.11-4.31,4.72,0,2.61,1.93,4.72,4.31,4.72Z"/>
    <path class="cls-3" d="M109.28,217.44c2.85,0,5.15-2.53,5.15-5.64,0-3.12-2.3-5.65-5.15-5.65-2.85,0-5.16,2.53-5.16,5.65,0,3.11,2.31,5.64,5.16,5.64Z"/>
    <path class="cls-3" d="M119.43,218.36c3.31,0,6-2.94,6-6.57,0-3.63-2.68-6.58-6-6.58-3.31,0-6,2.95-6,6.58,0,3.63,2.69,6.57,6,6.57Z"/>
    <path class="cls-3" d="M129.59,218.67c3.47,0,6.28-3.08,6.28-6.88,0-3.8-2.81-6.88-6.28-6.88-3.47,0-6.28,3.08-6.28,6.88,0,3.8,2.81,6.88,6.28,6.88Z"/>
    <path class="cls-3" d="M139.75,218.67c3.47,0,6.28-3.08,6.28-6.88s-2.81-6.88-6.28-6.88c-3.47,0-6.28,3.08-6.28,6.88,0,3.8,2.81,6.88,6.28,6.88Z"/>
    <path class="cls-3" d="M149.91,218.67c3.47,0,6.28-3.08,6.28-6.88s-2.81-6.88-6.28-6.88c-3.47,0-6.28,3.08-6.28,6.88s2.81,6.88,6.28,6.88Z"/>
    <path class="cls-3" d="M160.06,218.67c3.47,0,6.28-3.08,6.28-6.88,0-3.8-2.81-6.88-6.28-6.88-3.47,0-6.28,3.08-6.28,6.88,0,3.8,2.81,6.88,6.28,6.88Z"/>
    <path class="cls-3" d="M170.22,218.67c3.47,0,6.28-3.08,6.28-6.88,0-3.8-2.81-6.88-6.28-6.88-3.47,0-6.28,3.08-6.28,6.88,0,3.8,2.81,6.88,6.28,6.88Z"/>
    <path class="cls-3" d="M180.38,218.67c3.47,0,6.29-3.08,6.29-6.88,0-3.8-2.82-6.88-6.29-6.88-3.47,0-6.28,3.08-6.28,6.88,0,3.8,2.81,6.88,6.28,6.88Z"/>
    <path class="cls-3" d="M190.53,217.74c3.01,0,5.44-2.66,5.44-5.95,0-3.29-2.43-5.96-5.44-5.96-3,0-5.43,2.67-5.43,5.96s2.44,5.95,5.43,5.95Z"/>
    <path class="cls-3" d="M200.69,216.82c2.54,0,4.59-2.25,4.59-5.03,0-2.78-2.05-5.03-4.59-5.03s-4.59,2.25-4.59,5.03c0,2.78,2.05,5.03,4.59,5.03Z"/>
    <path class="cls-3" d="M210.85,215.87c2.05,0,3.72-1.83,3.72-4.07,0-2.25-1.67-4.07-3.72-4.07s-3.72,1.82-3.72,4.07c0,2.25,1.67,4.07,3.72,4.07Z"/>
    <path class="cls-3" d="M221.01,214.9c1.57,0,2.84-1.39,2.84-3.11,0-1.72-1.28-3.12-2.84-3.12-1.57,0-2.84,1.4-2.84,3.12s1.28,3.11,2.84,3.11Z"/>
    <path class="cls-3" d="M231.16,213.98c1.1,0,2-.98,2-2.19,0-1.21-.9-2.19-2-2.19-1.11,0-2,.98-2,2.19s.9,2.19,2,2.19Z"/>
    <path class="cls-3" d="M241.32,213.03c.62,0,1.12-.55,1.12-1.24s-.5-1.24-1.12-1.24-1.13.55-1.13,1.24c0,.68.51,1.24,1.13,1.24Z"/>
    <path class="cls-3" d="M251.48,212.04c.12,0,.23-.11.23-.24s-.1-.25-.23-.25c-.13,0-.23.11-.23.25s.1.24.23.24Z"/>
    <path class="cls-3" d="M58.49,223.88c.48,0,.87-.43.87-.96,0-.53-.39-.96-.87-.96s-.88.43-.88.96c0,.53.39.96.88.96Z"/>
    <path class="cls-3" d="M68.65,224.86c.98,0,1.77-.87,1.77-1.94s-.79-1.95-1.77-1.95c-.99,0-1.78.88-1.78,1.95s.79,1.94,1.78,1.94Z"/>
    <path class="cls-3" d="M78.81,225.82c1.46,0,2.65-1.3,2.65-2.9,0-1.6-1.18-2.9-2.65-2.9-1.46,0-2.65,1.3-2.65,2.9,0,1.6,1.18,2.9,2.65,2.9Z"/>
    <path class="cls-3" d="M88.96,226.78c1.95,0,3.52-1.73,3.52-3.86,0-2.13-1.58-3.86-3.52-3.86s-3.52,1.73-3.52,3.86c0,2.13,1.58,3.86,3.52,3.86Z"/>
    <path class="cls-3" d="M99.12,227.73c2.42,0,4.39-2.15,4.39-4.81,0-2.66-1.97-4.81-4.39-4.81-2.43,0-4.4,2.15-4.4,4.81,0,2.66,1.97,4.81,4.4,4.81Z"/>
    <path class="cls-3" d="M109.28,228.72c2.92,0,5.29-2.6,5.29-5.8,0-3.2-2.37-5.8-5.29-5.8-2.92,0-5.29,2.6-5.29,5.8s2.37,5.8,5.29,5.8Z"/>
    <path class="cls-3" d="M119.43,229.68c3.41,0,6.17-3.03,6.17-6.76s-2.76-6.76-6.17-6.76c-3.41,0-6.17,3.03-6.17,6.76,0,3.73,2.76,6.76,6.17,6.76Z"/>
    <path class="cls-3" d="M129.59,229.8c3.47,0,6.28-3.08,6.28-6.88s-2.81-6.88-6.28-6.88c-3.47,0-6.28,3.08-6.28,6.88s2.81,6.88,6.28,6.88Z"/>
    <path class="cls-3" d="M139.75,229.8c3.47,0,6.28-3.08,6.28-6.88,0-3.8-2.81-6.88-6.28-6.88-3.47,0-6.28,3.08-6.28,6.88,0,3.8,2.81,6.88,6.28,6.88Z"/>
    <path class="cls-3" d="M149.91,229.8c3.47,0,6.28-3.08,6.28-6.88,0-3.8-2.81-6.88-6.28-6.88s-6.28,3.08-6.28,6.88c0,3.8,2.81,6.88,6.28,6.88Z"/>
    <path class="cls-3" d="M160.06,229.8c3.47,0,6.28-3.08,6.28-6.88,0-3.8-2.81-6.88-6.28-6.88-3.47,0-6.28,3.08-6.28,6.88s2.81,6.88,6.28,6.88Z"/>
    <path class="cls-3" d="M170.22,229.8c3.47,0,6.28-3.08,6.28-6.88,0-3.8-2.81-6.88-6.28-6.88-3.47,0-6.28,3.08-6.28,6.88,0,3.8,2.81,6.88,6.28,6.88Z"/>
    <path class="cls-3" d="M180.38,229.8c3.47,0,6.29-3.08,6.29-6.88,0-3.8-2.82-6.88-6.29-6.88-3.47,0-6.28,3.08-6.28,6.88,0,3.8,2.81,6.88,6.28,6.88Z"/>
    <path class="cls-3" d="M190.53,229.06c3.1,0,5.61-2.75,5.61-6.14,0-3.39-2.51-6.14-5.61-6.14s-5.61,2.75-5.61,6.14c0,3.39,2.51,6.14,5.61,6.14Z"/>
    <path class="cls-3" d="M200.69,228.07c2.6,0,4.71-2.31,4.71-5.15s-2.11-5.15-4.71-5.15-4.7,2.31-4.7,5.15c0,2.84,2.11,5.15,4.7,5.15Z"/>
    <path class="cls-3" d="M210.85,227.11c2.12,0,3.83-1.88,3.83-4.19,0-2.32-1.72-4.2-3.83-4.2-2.11,0-3.83,1.88-3.83,4.2,0,2.32,1.72,4.19,3.83,4.19Z"/>
    <path class="cls-3" d="M221.01,226.13c1.62,0,2.93-1.44,2.93-3.21,0-1.77-1.31-3.21-2.93-3.21-1.62,0-2.93,1.44-2.93,3.21,0,1.77,1.31,3.21,2.93,3.21Z"/>
    <path class="cls-3" d="M231.16,225.17c1.13,0,2.05-1.01,2.05-2.25,0-1.25-.92-2.25-2.05-2.25-1.14,0-2.06,1-2.06,2.25,0,1.24.92,2.25,2.06,2.25Z"/>
    <path class="cls-3" d="M241.32,224.22c.65,0,1.18-.58,1.18-1.3,0-.72-.53-1.3-1.18-1.3s-1.19.58-1.19,1.3c0,.72.53,1.3,1.19,1.3Z"/>
    <path class="cls-3" d="M251.48,223.26c.17,0,.31-.15.31-.34s-.13-.34-.31-.34-.31.15-.31.34c0,.19.14.34.31.34Z"/>
    <path class="cls-3" d="M58.49,234.97c.47,0,.85-.42.85-.93,0-.51-.38-.93-.85-.93-.47,0-.84.42-.84.93,0,.51.38.93.84.93Z"/>
    <path class="cls-3" d="M68.65,235.93c.95,0,1.71-.84,1.71-1.88,0-1.04-.77-1.89-1.71-1.89s-1.72.85-1.72,1.89c0,1.04.77,1.88,1.72,1.88Z"/>
    <path class="cls-3" d="M78.81,236.88c1.43,0,2.59-1.27,2.59-2.84,0-1.57-1.16-2.84-2.59-2.84-1.43,0-2.59,1.27-2.59,2.84,0,1.57,1.16,2.84,2.59,2.84Z"/>
    <path class="cls-3" d="M88.96,237.84c1.91,0,3.47-1.7,3.47-3.79,0-2.1-1.56-3.8-3.47-3.8-1.92,0-3.46,1.7-3.46,3.8,0,2.1,1.55,3.79,3.46,3.79Z"/>
    <path class="cls-3" d="M99.12,238.83c2.41,0,4.37-2.14,4.37-4.78,0-2.64-1.96-4.78-4.37-4.78-2.41,0-4.37,2.14-4.37,4.78,0,2.64,1.96,4.78,4.37,4.78Z"/>
    <path class="cls-3" d="M109.28,239.75c2.88,0,5.21-2.55,5.21-5.7,0-3.15-2.33-5.71-5.21-5.71-2.88,0-5.21,2.55-5.21,5.71,0,3.15,2.34,5.7,5.21,5.7Z"/>
    <path class="cls-3" d="M119.43,240.71c3.36,0,6.08-2.98,6.08-6.66,0-3.68-2.72-6.66-6.08-6.66-3.36,0-6.08,2.98-6.08,6.66s2.72,6.66,6.08,6.66Z"/>
    <path class="cls-3" d="M129.59,240.93c3.47,0,6.28-3.08,6.28-6.88,0-3.8-2.81-6.88-6.28-6.88-3.47,0-6.28,3.08-6.28,6.88,0,3.8,2.81,6.88,6.28,6.88Z"/>
    <path class="cls-3" d="M139.75,240.93c3.47,0,6.28-3.08,6.28-6.88,0-3.8-2.81-6.88-6.28-6.88-3.47,0-6.28,3.08-6.28,6.88,0,3.8,2.81,6.88,6.28,6.88Z"/>
    <path class="cls-3" d="M149.91,240.93c3.47,0,6.28-3.08,6.28-6.88,0-3.8-2.81-6.88-6.28-6.88-3.47,0-6.28,3.08-6.28,6.88,0,3.8,2.81,6.88,6.28,6.88Z"/>
    <path class="cls-3" d="M160.06,240.93c3.47,0,6.28-3.08,6.28-6.88,0-3.8-2.81-6.88-6.28-6.88-3.47,0-6.28,3.08-6.28,6.88,0,3.8,2.81,6.88,6.28,6.88Z"/>
    <path class="cls-3" d="M170.22,240.93c3.47,0,6.28-3.08,6.28-6.88,0-3.8-2.81-6.88-6.28-6.88-3.47,0-6.28,3.08-6.28,6.88s2.81,6.88,6.28,6.88Z"/>
    <path class="cls-3" d="M180.38,240.93c3.47,0,6.29-3.08,6.29-6.88,0-3.8-2.82-6.88-6.29-6.88-3.47,0-6.28,3.08-6.28,6.88,0,3.8,2.81,6.88,6.28,6.88Z"/>
    <path class="cls-3" d="M190.53,240.1c3.05,0,5.52-2.71,5.52-6.05,0-3.34-2.47-6.05-5.52-6.05-3.04,0-5.52,2.7-5.52,6.05,0,3.34,2.47,6.05,5.52,6.05Z"/>
    <path class="cls-3" d="M200.69,239.14c2.57,0,4.65-2.28,4.65-5.09,0-2.81-2.08-5.09-4.65-5.09s-4.64,2.28-4.64,5.09c0,2.81,2.08,5.09,4.64,5.09Z"/>
    <path class="cls-3" d="M210.85,238.18c2.09,0,3.77-1.85,3.77-4.13,0-2.28-1.69-4.14-3.77-4.14-2.08,0-3.77,1.85-3.77,4.14,0,2.28,1.69,4.13,3.77,4.13Z"/>
    <path class="cls-3" d="M221.01,237.23c1.6,0,2.9-1.42,2.9-3.18,0-1.76-1.3-3.18-2.9-3.18-1.6,0-2.9,1.42-2.9,3.18,0,1.75,1.3,3.18,2.9,3.18Z"/>
    <path class="cls-3" d="M231.16,236.27c1.12,0,2.03-.99,2.03-2.22s-.91-2.22-2.03-2.22-2.03.99-2.03,2.22c0,1.23.91,2.22,2.03,2.22Z"/>
    <path class="cls-3" d="M241.32,235.31c.63,0,1.16-.56,1.16-1.26,0-.7-.52-1.27-1.16-1.27s-1.16.57-1.16,1.27c0,.7.52,1.26,1.16,1.26Z"/>
    <path class="cls-3" d="M251.48,234.33c.14,0,.25-.12.25-.28s-.11-.28-.25-.28-.25.13-.25.28.11.28.25.28Z"/>
    <path class="cls-3" d="M58.49,245.98c.4,0,.73-.36.73-.8,0-.44-.33-.8-.73-.8s-.73.36-.73.8.32.8.73.8Z"/>
    <path class="cls-3" d="M68.65,246.93c.88,0,1.6-.79,1.6-1.76,0-.97-.72-1.76-1.6-1.76-.89,0-1.61.79-1.61,1.76s.72,1.76,1.61,1.76Z"/>
    <path class="cls-3" d="M78.81,247.86c1.35,0,2.45-1.21,2.45-2.69,0-1.48-1.09-2.68-2.45-2.68s-2.45,1.2-2.45,2.68c0,1.48,1.1,2.69,2.45,2.69Z"/>
    <path class="cls-3" d="M88.96,248.79c1.82,0,3.29-1.62,3.29-3.61,0-1.99-1.47-3.61-3.29-3.61-1.82,0-3.3,1.62-3.3,3.61,0,1.99,1.48,3.61,3.3,3.61Z"/>
    <path class="cls-3" d="M99.12,249.71c2.29,0,4.14-2.03,4.14-4.54,0-2.51-1.85-4.54-4.14-4.54-2.29,0-4.14,2.03-4.14,4.54,0,2.5,1.85,4.54,4.14,4.54Z"/>
    <path class="cls-3" d="M109.28,250.61c2.73,0,4.96-2.43,4.96-5.43,0-3-2.22-5.43-4.96-5.43-2.74,0-4.96,2.43-4.96,5.43,0,3,2.22,5.43,4.96,5.43Z"/>
    <path class="cls-3" d="M119.43,251.47c3.17,0,5.74-2.82,5.74-6.29,0-3.48-2.57-6.29-5.74-6.29-3.17,0-5.75,2.82-5.75,6.29s2.58,6.29,5.75,6.29Z"/>
    <path class="cls-3" d="M129.59,252.06c3.47,0,6.28-3.08,6.28-6.88,0-3.8-2.81-6.88-6.28-6.88-3.47,0-6.28,3.08-6.28,6.88,0,3.8,2.81,6.88,6.28,6.88Z"/>
    <path class="cls-3" d="M139.75,252.06c3.47,0,6.28-3.08,6.28-6.88,0-3.8-2.81-6.88-6.28-6.88-3.47,0-6.28,3.08-6.28,6.88,0,3.8,2.81,6.88,6.28,6.88Z"/>
    <path class="cls-3" d="M149.91,252.06c3.47,0,6.28-3.08,6.28-6.88,0-3.8-2.81-6.88-6.28-6.88-3.47,0-6.28,3.08-6.28,6.88,0,3.8,2.81,6.88,6.28,6.88Z"/>
    <path class="cls-3" d="M160.06,252.06c3.47,0,6.28-3.08,6.28-6.88s-2.81-6.88-6.28-6.88c-3.47,0-6.28,3.08-6.28,6.88,0,3.8,2.81,6.88,6.28,6.88Z"/>
    <path class="cls-3" d="M170.22,252.06c3.47,0,6.28-3.08,6.28-6.88,0-3.8-2.81-6.88-6.28-6.88-3.47,0-6.28,3.08-6.28,6.88,0,3.8,2.81,6.88,6.28,6.88Z"/>
    <path class="cls-3" d="M180.38,251.75c3.31,0,6-2.94,6-6.57,0-3.63-2.69-6.57-6-6.57-3.31,0-6,2.94-6,6.57s2.69,6.57,6,6.57Z"/>
    <path class="cls-3" d="M190.53,250.88c2.88,0,5.21-2.56,5.21-5.71,0-3.15-2.34-5.7-5.21-5.7-2.88,0-5.21,2.55-5.21,5.7,0,3.15,2.33,5.71,5.21,5.71Z"/>
    <path class="cls-3" d="M200.69,249.99c2.43,0,4.4-2.16,4.4-4.81,0-2.66-1.97-4.81-4.4-4.81-2.42,0-4.39,2.15-4.39,4.81,0,2.66,1.97,4.81,4.39,4.81Z"/>
    <path class="cls-3" d="M210.85,249.09c1.98,0,3.58-1.76,3.58-3.92s-1.6-3.92-3.58-3.92c-1.97,0-3.57,1.76-3.57,3.92,0,2.16,1.6,3.92,3.57,3.92Z"/>
    <path class="cls-3" d="M221.01,248.17c1.51,0,2.73-1.34,2.73-2.99,0-1.65-1.22-3-2.73-3-1.51,0-2.73,1.34-2.73,3,0,1.65,1.22,2.99,2.73,2.99Z"/>
    <path class="cls-3" d="M231.16,247.24c1.04,0,1.88-.93,1.88-2.07,0-1.14-.84-2.07-1.88-2.07-1.04,0-1.89.93-1.89,2.07,0,1.14.85,2.07,1.89,2.07Z"/>
    <path class="cls-3" d="M241.32,246.29c.56,0,1.01-.5,1.01-1.11,0-.61-.45-1.11-1.01-1.11s-1.01.5-1.01,1.11c0,.61.45,1.11,1.01,1.11Z"/>
    <path class="cls-3" d="M251.48,245.33c.07,0,.14-.07.14-.15s-.06-.15-.14-.15c-.08,0-.14.07-.14.15s.06.15.14.15Z"/>
    <path class="cls-3" d="M58.49,256.86c.28,0,.51-.24.51-.55s-.23-.55-.51-.55-.51.25-.51.55.22.55.51.55Z"/>
    <path class="cls-3" d="M68.65,257.78c.75,0,1.35-.66,1.35-1.48,0-.82-.6-1.48-1.35-1.48s-1.35.66-1.35,1.48.6,1.48,1.35,1.48Z"/>
    <path class="cls-3" d="M78.81,258.68c1.2,0,2.17-1.07,2.17-2.38,0-1.31-.97-2.38-2.17-2.38s-2.17,1.07-2.17,2.38c0,1.31.97,2.38,2.17,2.38Z"/>
    <path class="cls-3" d="M88.96,259.57c1.65,0,2.99-1.46,2.99-3.27,0-1.81-1.34-3.27-2.99-3.27-1.65,0-2.99,1.46-2.99,3.27,0,1.81,1.34,3.27,2.99,3.27Z"/>
    <path class="cls-3" d="M99.12,260.44c2.08,0,3.78-1.85,3.78-4.14,0-2.28-1.69-4.14-3.78-4.14s-3.78,1.85-3.78,4.14c0,2.28,1.69,4.14,3.78,4.14Z"/>
    <path class="cls-3" d="M109.28,261.27c2.5,0,4.53-2.22,4.53-4.97,0-2.74-2.03-4.97-4.53-4.97-2.5,0-4.53,2.23-4.53,4.97,0,2.74,2.03,4.97,4.53,4.97Z"/>
    <path class="cls-3" d="M119.43,262.01c2.88,0,5.21-2.56,5.21-5.71,0-3.15-2.33-5.7-5.21-5.7s-5.21,2.55-5.21,5.7c0,3.15,2.33,5.71,5.21,5.71Z"/>
    <path class="cls-3" d="M129.59,262.69c3.22,0,5.83-2.86,5.83-6.39,0-3.52-2.61-6.39-5.83-6.39-3.22,0-5.83,2.86-5.83,6.39s2.6,6.39,5.83,6.39Z"/>
    <path class="cls-3" d="M139.75,263.19c3.47,0,6.28-3.08,6.28-6.88,0-3.8-2.81-6.88-6.28-6.88-3.47,0-6.28,3.08-6.28,6.88,0,3.8,2.81,6.88,6.28,6.88Z"/>
    <path class="cls-3" d="M149.91,263.19c3.47,0,6.28-3.08,6.28-6.88,0-3.8-2.81-6.88-6.28-6.88-3.47,0-6.28,3.08-6.28,6.88,0,3.8,2.81,6.88,6.28,6.88Z"/>
    <path class="cls-3" d="M160.06,263.19c3.47,0,6.28-3.08,6.28-6.88,0-3.8-2.81-6.88-6.28-6.88-3.47,0-6.28,3.08-6.28,6.88,0,3.8,2.81,6.88,6.28,6.88Z"/>
    <path class="cls-3" d="M170.22,262.88c3.31,0,6-2.94,6-6.57,0-3.63-2.69-6.57-6-6.57-3.32,0-6,2.94-6,6.57,0,3.63,2.68,6.57,6,6.57Z"/>
    <path class="cls-3" d="M180.38,262.26c3,0,5.44-2.66,5.44-5.95,0-3.29-2.44-5.96-5.44-5.96-3,0-5.43,2.67-5.43,5.96,0,3.29,2.43,5.95,5.43,5.95Z"/>
    <path class="cls-3" d="M190.53,261.52c2.63,0,4.76-2.33,4.76-5.21,0-2.88-2.13-5.21-4.76-5.21-2.63,0-4.76,2.33-4.76,5.21,0,2.88,2.14,5.21,4.76,5.21Z"/>
    <path class="cls-3" d="M200.69,260.72c2.23,0,4.03-1.97,4.03-4.41,0-2.44-1.8-4.41-4.03-4.41-2.22,0-4.02,1.98-4.02,4.41,0,2.44,1.8,4.41,4.02,4.41Z"/>
    <path class="cls-3" d="M210.85,259.85c1.79,0,3.24-1.59,3.24-3.55,0-1.96-1.45-3.55-3.24-3.55-1.78,0-3.23,1.59-3.23,3.55,0,1.96,1.45,3.55,3.23,3.55Z"/>
    <path class="cls-3" d="M221.01,258.99c1.35,0,2.45-1.2,2.45-2.68,0-1.48-1.09-2.68-2.45-2.68-1.35,0-2.45,1.2-2.45,2.68,0,1.48,1.09,2.68,2.45,2.68Z"/>
    <path class="cls-3" d="M231.16,258.09c.9,0,1.63-.8,1.63-1.79,0-.99-.73-1.79-1.63-1.79s-1.64.8-1.64,1.79c0,.99.73,1.79,1.64,1.79Z"/>
    <path class="cls-3" d="M241.32,257.17c.43,0,.79-.38.79-.86,0-.48-.36-.86-.79-.86-.44,0-.79.39-.79.86,0,.48.35.86.79.86Z"/>
    <path class="cls-3" d="M58.49,267.65c.11,0,.2-.1.2-.22s-.09-.21-.2-.21-.2.1-.2.21.09.22.2.22Z"/>
    <path class="cls-3" d="M68.65,268.54c.56,0,1.01-.49,1.01-1.11,0-.61-.45-1.11-1.01-1.11-.56,0-1.01.5-1.01,1.11,0,.61.45,1.11,1.01,1.11Z"/>
    <path class="cls-3" d="M78.81,269.4c.99,0,1.8-.88,1.8-1.97,0-1.09-.81-1.97-1.8-1.97-1,0-1.8.88-1.8,1.97,0,1.09.8,1.97,1.8,1.97Z"/>
    <path class="cls-3" d="M88.96,270.24c1.42,0,2.56-1.26,2.56-2.81,0-1.55-1.14-2.81-2.56-2.81-1.42,0-2.56,1.26-2.56,2.81,0,1.55,1.14,2.81,2.56,2.81Z"/>
    <path class="cls-3" d="M99.12,271.04c1.82,0,3.29-1.62,3.29-3.61,0-1.99-1.47-3.61-3.29-3.61-1.82,0-3.3,1.62-3.3,3.61,0,1.99,1.48,3.61,3.3,3.61Z"/>
    <path class="cls-3" d="M109.28,271.78c2.19,0,3.97-1.95,3.97-4.35s-1.78-4.35-3.97-4.35-3.97,1.95-3.97,4.35,1.78,4.35,3.97,4.35Z"/>
    <path class="cls-3" d="M119.43,272.46c2.54,0,4.59-2.25,4.59-5.03,0-2.77-2.06-5.03-4.59-5.03-2.54,0-4.59,2.26-4.59,5.03,0,2.78,2.05,5.03,4.59,5.03Z"/>
    <path class="cls-3" d="M129.59,273.02c2.82,0,5.1-2.5,5.1-5.59,0-3.08-2.28-5.58-5.1-5.58-2.81,0-5.1,2.5-5.1,5.58,0,3.08,2.28,5.59,5.1,5.59Z"/>
    <path class="cls-3" d="M139.75,273.39c3.01,0,5.43-2.66,5.43-5.96,0-3.29-2.43-5.95-5.43-5.95-3,0-5.44,2.66-5.44,5.95,0,3.29,2.43,5.96,5.44,5.96Z"/>
    <path class="cls-3" d="M149.91,273.57c3.09,0,5.6-2.75,5.6-6.14,0-3.39-2.51-6.14-5.6-6.14s-5.61,2.75-5.61,6.14c0,3.39,2.51,6.14,5.61,6.14Z"/>
    <path class="cls-3" d="M160.06,273.48c3.05,0,5.52-2.71,5.52-6.05,0-3.34-2.47-6.05-5.52-6.05-3.05,0-5.52,2.71-5.52,6.05,0,3.34,2.47,6.05,5.52,6.05Z"/>
    <path class="cls-3" d="M170.22,273.14c2.88,0,5.21-2.56,5.21-5.71,0-3.15-2.33-5.7-5.21-5.7-2.88,0-5.21,2.55-5.21,5.7s2.33,5.71,5.21,5.71Z"/>
    <path class="cls-3" d="M180.38,272.65c2.63,0,4.76-2.33,4.76-5.22,0-2.88-2.13-5.21-4.76-5.21-2.63,0-4.76,2.33-4.76,5.21,0,2.88,2.13,5.22,4.76,5.22Z"/>
    <path class="cls-3" d="M190.53,272c2.31,0,4.16-2.05,4.16-4.57,0-2.52-1.86-4.56-4.16-4.56s-4.17,2.04-4.17,4.56c0,2.52,1.86,4.57,4.17,4.57Z"/>
    <path class="cls-3" d="M200.69,271.29c1.94,0,3.52-1.73,3.52-3.86,0-2.13-1.58-3.85-3.52-3.85-1.95,0-3.52,1.72-3.52,3.85,0,2.13,1.58,3.86,3.52,3.86Z"/>
    <path class="cls-3" d="M210.85,270.52c1.56,0,2.82-1.38,2.82-3.09,0-1.71-1.26-3.08-2.82-3.08s-2.82,1.38-2.82,3.08c0,1.7,1.26,3.09,2.82,3.09Z"/>
    <path class="cls-3" d="M221.01,269.68c1.13,0,2.06-1.01,2.06-2.25s-.92-2.25-2.06-2.25c-1.14,0-2.05,1.01-2.05,2.25,0,1.25.92,2.25,2.05,2.25Z"/>
    <path class="cls-3" d="M231.16,268.85c.71,0,1.3-.63,1.3-1.42,0-.78-.58-1.42-1.3-1.42-.72,0-1.3.64-1.3,1.42,0,.78.58,1.42,1.3,1.42Z"/>
    <path class="cls-3" d="M241.32,267.96c.26,0,.48-.24.48-.53s-.21-.52-.48-.52-.48.23-.48.52.22.53.48.53Z"/>
    <path class="cls-3" d="M68.65,279.24c.34,0,.62-.3.62-.68,0-.37-.28-.68-.62-.68s-.62.3-.62.68.28.68.62.68Z"/>
    <path class="cls-3" d="M78.81,280.04c.75,0,1.35-.66,1.35-1.48,0-.81-.61-1.48-1.35-1.48-.75,0-1.35.67-1.35,1.48,0,.82.6,1.48,1.35,1.48Z"/>
    <path class="cls-3" d="M88.96,280.81c1.13,0,2.05-1.01,2.05-2.25,0-1.24-.92-2.25-2.05-2.25-1.13,0-2.05,1.01-2.05,2.25s.92,2.25,2.05,2.25Z"/>
    <path class="cls-3" d="M99.12,281.55c1.51,0,2.73-1.34,2.73-2.99,0-1.65-1.22-2.99-2.73-2.99-1.51,0-2.73,1.34-2.73,2.99,0,1.65,1.23,2.99,2.73,2.99Z"/>
    <path class="cls-3" d="M109.28,282.2c1.83,0,3.32-1.63,3.32-3.64s-1.49-3.64-3.32-3.64c-1.83,0-3.33,1.63-3.33,3.64,0,2.01,1.49,3.64,3.33,3.64Z"/>
    <path class="cls-3" d="M119.43,282.79c2.13,0,3.86-1.89,3.86-4.23,0-2.33-1.73-4.23-3.86-4.23s-3.86,1.89-3.86,4.23c0,2.34,1.73,4.23,3.86,4.23Z"/>
    <path class="cls-3" d="M129.59,283.28c2.38,0,4.31-2.11,4.31-4.72s-1.93-4.72-4.31-4.72c-2.38,0-4.31,2.11-4.31,4.72,0,2.61,1.93,4.72,4.31,4.72Z"/>
    <path class="cls-3" d="M139.75,283.59c2.54,0,4.59-2.25,4.59-5.03,0-2.77-2.05-5.03-4.59-5.03-2.54,0-4.59,2.26-4.59,5.03,0,2.78,2.06,5.03,4.59,5.03Z"/>
    <path class="cls-3" d="M149.91,283.72c2.59,0,4.7-2.31,4.7-5.16,0-2.84-2.11-5.15-4.7-5.15-2.6,0-4.7,2.31-4.7,5.15,0,2.85,2.11,5.16,4.7,5.16Z"/>
    <path class="cls-3" d="M160.06,283.65c2.57,0,4.65-2.28,4.65-5.09,0-2.81-2.08-5.09-4.65-5.09-2.57,0-4.64,2.28-4.64,5.09,0,2.81,2.08,5.09,4.64,5.09Z"/>
    <path class="cls-3" d="M170.22,283.38c2.43,0,4.4-2.16,4.4-4.82,0-2.65-1.97-4.81-4.4-4.81-2.42,0-4.39,2.15-4.39,4.81,0,2.66,1.97,4.82,4.39,4.82Z"/>
    <path class="cls-3" d="M180.38,282.97c2.23,0,4.03-1.97,4.03-4.41,0-2.43-1.8-4.41-4.03-4.41s-4.02,1.98-4.02,4.41c0,2.44,1.8,4.41,4.02,4.41Z"/>
    <path class="cls-3" d="M190.53,282.42c1.94,0,3.52-1.73,3.52-3.86,0-2.13-1.58-3.85-3.52-3.85-1.94,0-3.52,1.72-3.52,3.85,0,2.13,1.58,3.86,3.52,3.86Z"/>
    <path class="cls-3" d="M200.69,281.77c1.62,0,2.93-1.44,2.93-3.21,0-1.77-1.31-3.2-2.93-3.2-1.62,0-2.93,1.43-2.93,3.2,0,1.77,1.31,3.21,2.93,3.21Z"/>
    <path class="cls-3" d="M210.85,281.06c1.26,0,2.28-1.12,2.28-2.5s-1.02-2.5-2.28-2.5-2.28,1.12-2.28,2.5c0,1.38,1.02,2.5,2.28,2.5Z"/>
    <path class="cls-3" d="M221.01,280.32c.89,0,1.6-.79,1.6-1.76,0-.97-.71-1.76-1.6-1.76-.88,0-1.6.79-1.6,1.76,0,.97.72,1.76,1.6,1.76Z"/>
    <path class="cls-3" d="M231.16,279.49c.46,0,.84-.42.84-.93,0-.51-.37-.92-.84-.92s-.85.41-.85.92c0,.51.38.93.85.93Z"/>
    <path class="cls-3" d="M241.32,278.65s.08-.04.08-.1c0-.05-.04-.09-.08-.09s-.09.04-.09.09c0,.05.04.1.09.1Z"/>
    <path class="cls-3" d="M68.65,289.81c.06,0,.11-.06.11-.13,0-.06-.05-.12-.11-.12-.07,0-.12.06-.12.12,0,.07.05.13.12.13Z"/>
    <path class="cls-3" d="M78.81,290.58c.45,0,.82-.4.82-.9,0-.49-.37-.89-.82-.89s-.82.4-.82.89c0,.5.36.9.82.9Z"/>
    <path class="cls-3" d="M88.96,291.32c.82,0,1.49-.73,1.49-1.64,0-.9-.67-1.63-1.49-1.63s-1.5.73-1.5,1.63c0,.91.68,1.64,1.5,1.64Z"/>
    <path class="cls-3" d="M99.12,291.97c1.15,0,2.08-1.02,2.08-2.29,0-1.26-.93-2.28-2.08-2.28-1.15,0-2.09,1.02-2.09,2.28,0,1.26.94,2.29,2.09,2.29Z"/>
    <path class="cls-3" d="M109.28,292.59c1.46,0,2.65-1.3,2.65-2.9,0-1.6-1.18-2.9-2.65-2.9-1.46,0-2.65,1.3-2.65,2.9,0,1.61,1.18,2.9,2.65,2.9Z"/>
    <path class="cls-3" d="M119.43,293.08c1.71,0,3.1-1.52,3.1-3.39,0-1.87-1.39-3.39-3.1-3.39s-3.1,1.52-3.1,3.39c0,1.88,1.39,3.39,3.1,3.39Z"/>
    <path class="cls-3" d="M129.59,293.48c1.91,0,3.47-1.7,3.47-3.8,0-2.09-1.55-3.79-3.47-3.79s-3.46,1.7-3.46,3.79c0,2.1,1.55,3.8,3.46,3.8Z"/>
    <path class="cls-3" d="M139.75,293.76c2.05,0,3.72-1.82,3.72-4.07,0-2.25-1.66-4.07-3.72-4.07-2.05,0-3.72,1.83-3.72,4.07,0,2.25,1.66,4.07,3.72,4.07Z"/>
    <path class="cls-3" d="M149.91,293.88c2.12,0,3.83-1.88,3.83-4.2,0-2.31-1.71-4.19-3.83-4.19-2.12,0-3.83,1.88-3.83,4.19,0,2.32,1.71,4.2,3.83,4.2Z"/>
    <path class="cls-3" d="M160.06,293.82c2.08,0,3.77-1.85,3.77-4.14,0-2.28-1.69-4.14-3.77-4.14-2.08,0-3.77,1.85-3.77,4.14,0,2.29,1.69,4.14,3.77,4.14Z"/>
    <path class="cls-3" d="M170.22,293.61c1.98,0,3.58-1.76,3.58-3.92,0-2.16-1.6-3.91-3.58-3.91-1.98,0-3.57,1.75-3.57,3.91,0,2.17,1.6,3.92,3.57,3.92Z"/>
    <path class="cls-3" d="M180.38,293.24c1.79,0,3.24-1.59,3.24-3.55,0-1.96-1.45-3.55-3.24-3.55s-3.23,1.59-3.23,3.55c0,1.96,1.44,3.55,3.23,3.55Z"/>
    <path class="cls-3" d="M190.53,292.77c1.56,0,2.82-1.38,2.82-3.09,0-1.7-1.26-3.08-2.82-3.08-1.55,0-2.82,1.38-2.82,3.08,0,1.71,1.26,3.09,2.82,3.09Z"/>
    <path class="cls-3" d="M200.69,292.18c1.26,0,2.28-1.12,2.28-2.5,0-1.38-1.02-2.5-2.28-2.5s-2.28,1.12-2.28,2.5c0,1.38,1.02,2.5,2.28,2.5Z"/>
    <path class="cls-3" d="M210.85,291.54c.94,0,1.69-.83,1.69-1.85,0-1.02-.76-1.85-1.69-1.85-.93,0-1.69.83-1.69,1.85,0,1.02.75,1.85,1.69,1.85Z"/>
    <path class="cls-3" d="M221.01,290.83c.58,0,1.04-.51,1.04-1.15,0-.63-.47-1.14-1.04-1.14-.57,0-1.04.51-1.04,1.14,0,.63.47,1.15,1.04,1.15Z"/>
    <path class="cls-3" d="M231.16,290.06c.18,0,.33-.16.33-.37s-.15-.37-.33-.37-.34.17-.34.37.15.37.34.37Z"/>
    <path class="cls-3" d="M78.81,301.07c.13,0,.22-.11.22-.25s-.1-.25-.22-.25-.22.11-.22.25.1.25.22.25Z"/>
    <path class="cls-3" d="M88.96,301.74c.47,0,.85-.41.85-.93,0-.51-.38-.92-.85-.92s-.85.41-.85.92.38.93.85.93Z"/>
    <path class="cls-3" d="M99.12,302.39c.79,0,1.43-.71,1.43-1.58,0-.87-.64-1.57-1.43-1.57-.79,0-1.44.7-1.44,1.57,0,.87.65,1.58,1.44,1.58Z"/>
    <path class="cls-3" d="M109.28,302.91c1.06,0,1.92-.94,1.92-2.1,0-1.16-.86-2.09-1.92-2.09s-1.92.94-1.92,2.09c0,1.16.86,2.1,1.92,2.1Z"/>
    <path class="cls-3" d="M119.43,303.38c1.29,0,2.34-1.14,2.34-2.56,0-1.41-1.05-2.56-2.34-2.56-1.29,0-2.34,1.15-2.34,2.56,0,1.42,1.05,2.56,2.34,2.56Z"/>
    <path class="cls-3" d="M129.59,303.72c1.46,0,2.65-1.3,2.65-2.9,0-1.6-1.18-2.9-2.65-2.9-1.46,0-2.65,1.3-2.65,2.9s1.19,2.9,2.65,2.9Z"/>
    <path class="cls-3" d="M139.75,303.93c1.57,0,2.84-1.4,2.84-3.12,0-1.72-1.27-3.11-2.84-3.11-1.57,0-2.84,1.39-2.84,3.11,0,1.72,1.27,3.12,2.84,3.12Z"/>
    <path class="cls-3" d="M149.91,304.02c1.62,0,2.93-1.44,2.93-3.21s-1.31-3.21-2.93-3.21c-1.62,0-2.93,1.43-2.93,3.21,0,1.77,1.31,3.21,2.93,3.21Z"/>
    <path class="cls-3" d="M160.06,303.99c1.61,0,2.9-1.42,2.9-3.18,0-1.75-1.29-3.18-2.9-3.18-1.6,0-2.9,1.42-2.9,3.18,0,1.76,1.3,3.18,2.9,3.18Z"/>
    <path class="cls-3" d="M170.22,303.81c1.51,0,2.73-1.34,2.73-3,0-1.65-1.23-2.99-2.73-2.99s-2.73,1.34-2.73,2.99c0,1.66,1.22,3,2.73,3Z"/>
    <path class="cls-3" d="M180.38,303.5c1.35,0,2.45-1.2,2.45-2.69,0-1.48-1.1-2.68-2.45-2.68-1.35,0-2.45,1.2-2.45,2.68,0,1.49,1.09,2.69,2.45,2.69Z"/>
    <path class="cls-3" d="M190.53,303.07c1.14,0,2.06-1.01,2.06-2.25,0-1.24-.92-2.25-2.06-2.25s-2.06,1.01-2.06,2.25c0,1.24.92,2.25,2.06,2.25Z"/>
    <path class="cls-3" d="M200.69,302.57c.89,0,1.61-.78,1.61-1.76,0-.97-.72-1.76-1.61-1.76-.88,0-1.61.78-1.61,1.76,0,.97.72,1.76,1.61,1.76Z"/>
    <path class="cls-3" d="M210.85,301.96c.57,0,1.04-.52,1.04-1.14s-.47-1.14-1.04-1.14c-.57,0-1.04.51-1.04,1.14,0,.63.47,1.14,1.04,1.14Z"/>
    <path class="cls-3" d="M221.01,301.31c.25,0,.45-.22.45-.5,0-.27-.2-.49-.45-.49s-.45.22-.45.49c0,.27.2.5.45.5Z"/>
    <path class="cls-3" d="M88.96,312.13c.09,0,.17-.09.17-.19s-.08-.19-.17-.19c-.1,0-.17.08-.17.19s.07.19.17.19Z"/>
    <path class="cls-3" d="M99.12,312.71c.39,0,.7-.35.7-.77s-.31-.77-.7-.77c-.39,0-.71.35-.71.77,0,.43.32.77.71.77Z"/>
    <path class="cls-3" d="M109.28,313.21c.64,0,1.15-.57,1.15-1.26,0-.7-.51-1.26-1.15-1.26-.64,0-1.16.56-1.16,1.26,0,.7.52,1.26,1.16,1.26Z"/>
    <path class="cls-3" d="M119.43,313.61c.84,0,1.52-.75,1.52-1.67,0-.92-.68-1.67-1.52-1.67-.84,0-1.52.75-1.52,1.67,0,.92.68,1.67,1.52,1.67Z"/>
    <path class="cls-3" d="M129.59,313.92c1,0,1.8-.88,1.8-1.98,0-1.09-.8-1.98-1.8-1.98-.99,0-1.8.88-1.8,1.98,0,1.09.81,1.98,1.8,1.98Z"/>
    <path class="cls-3" d="M139.75,314.14c1.11,0,2-.98,2-2.19,0-1.21-.9-2.19-2-2.19-1.1,0-2,.98-2,2.19,0,1.21.89,2.19,2,2.19Z"/>
    <path class="cls-3" d="M149.91,314.2c1.13,0,2.05-1.01,2.05-2.26s-.92-2.25-2.05-2.25c-1.14,0-2.06,1.01-2.06,2.25,0,1.24.92,2.26,2.06,2.26Z"/>
    <path class="cls-3" d="M160.06,314.17c1.12,0,2.03-1,2.03-2.22,0-1.23-.91-2.22-2.03-2.22-1.12,0-2.03,1-2.03,2.22,0,1.23.91,2.22,2.03,2.22Z"/>
    <path class="cls-3" d="M170.22,314.01c1.04,0,1.89-.93,1.89-2.07,0-1.14-.85-2.07-1.89-2.07s-1.89.92-1.89,2.07c0,1.14.85,2.07,1.89,2.07Z"/>
    <path class="cls-3" d="M180.38,313.73c.9,0,1.63-.8,1.63-1.79,0-.99-.73-1.79-1.63-1.79-.9,0-1.63.8-1.63,1.79,0,.99.73,1.79,1.63,1.79Z"/>
    <path class="cls-3" d="M190.53,313.36c.72,0,1.29-.63,1.29-1.42,0-.78-.58-1.42-1.29-1.42-.72,0-1.3.64-1.3,1.42s.58,1.42,1.3,1.42Z"/>
    <path class="cls-3" d="M200.69,312.87c.47,0,.85-.41.85-.92,0-.51-.38-.93-.85-.93-.47,0-.84.41-.84.93,0,.52.37.92.84.92Z"/>
    <path class="cls-3" d="M210.85,312.31c.19,0,.34-.16.34-.37s-.15-.37-.34-.37-.33.16-.33.37c0,.21.15.37.33.37Z"/>
    <path class="cls-3" d="M109.28,323.44c.19,0,.34-.16.34-.37s-.16-.37-.34-.37-.34.16-.34.37.15.37.34.37Z"/>
    <path class="cls-3" d="M119.43,323.84c.39,0,.7-.35.7-.77s-.31-.77-.7-.77-.71.35-.71.77.32.77.71.77Z"/>
    <path class="cls-3" d="M129.59,324.12c.53,0,.96-.47.96-1.05,0-.58-.42-1.05-.96-1.05-.53,0-.96.47-.96,1.05,0,.58.43,1.05.96,1.05Z"/>
    <path class="cls-3" d="M139.75,324.3c.62,0,1.13-.55,1.13-1.24,0-.68-.51-1.23-1.13-1.23-.62,0-1.13.55-1.13,1.23,0,.69.51,1.24,1.13,1.24Z"/>
    <path class="cls-3" d="M149.91,324.37c.66,0,1.18-.58,1.18-1.3,0-.71-.53-1.29-1.18-1.29-.65,0-1.19.58-1.19,1.29,0,.72.54,1.3,1.19,1.3Z"/>
    <path class="cls-3" d="M160.06,324.34c.64,0,1.16-.57,1.16-1.27,0-.69-.52-1.26-1.16-1.26-.64,0-1.16.57-1.16,1.26,0,.7.52,1.27,1.16,1.27Z"/>
    <path class="cls-3" d="M170.22,324.18c.56,0,1.01-.5,1.01-1.12,0-.61-.45-1.11-1.01-1.11-.56,0-1.01.5-1.01,1.11,0,.62.46,1.12,1.01,1.12Z"/>
    <path class="cls-3" d="M180.38,323.94c.44,0,.79-.39.79-.87,0-.47-.35-.86-.79-.86-.43,0-.79.39-.79.86,0,.48.36.87.79.87Z"/>
    <path class="cls-3" d="M190.53,323.6c.26,0,.48-.24.48-.53,0-.29-.22-.52-.48-.52-.27,0-.48.24-.48.52,0,.29.21.53.48.53Z"/>
    <path class="cls-3" d="M200.69,323.16c.05,0,.09-.04.09-.09,0-.05-.03-.09-.09-.09-.05,0-.08.04-.08.09,0,.06.03.09.08.09Z"/>
    <path class="cls-3" d="M129.59,334.29s.09-.04.09-.09c0-.05-.04-.09-.09-.09s-.09.04-.09.09c0,.06.04.09.09.09Z"/>
    <path class="cls-3" d="M139.75,334.45c.13,0,.23-.11.23-.25s-.1-.25-.23-.25-.22.11-.22.25c0,.14.1.25.22.25Z"/>
    <path class="cls-3" d="M149.91,334.54c.17,0,.31-.15.31-.34s-.14-.34-.31-.34-.31.15-.31.34c0,.19.14.34.31.34Z"/>
    <path class="cls-3" d="M160.06,334.48c.14,0,.25-.13.25-.28s-.11-.28-.25-.28-.25.12-.25.28c0,.16.11.28.25.28Z"/>
    <path class="cls-3" d="M170.22,334.35c.08,0,.14-.07.14-.16,0-.08-.06-.15-.14-.15s-.14.07-.14.15c0,.09.06.16.14.16Z"/>
  </g>
  <g>
    <path class="cls-6" d="M153.35,152.3c-2.52-.64-5.05.89-5.65,3.42l-26.13,109.22c-.6,2.53.95,5.09,3.46,5.73l105.84,26.77c2.52.64,5.1-.88,5.77-3.39l28.94-108.51c.67-2.51-.83-5.06-3.35-5.7l-108.88-27.54Z"/>
    <path class="cls-6" d="M153.35,152.3c-2.52-.64-5.05.89-5.65,3.42l-26.13,109.22c-.6,2.53.95,5.09,3.46,5.73l105.84,26.77c2.52.64,5.1-.88,5.77-3.39l28.94-108.51c.67-2.51-.83-5.06-3.35-5.7l-108.88-27.54Z"/>
    <path class="cls-6" d="M126.22,271.26l-2.05,8.09c-.64,2.52.89,5.07,3.4,5.71l94.7,23.95c2.52.64,5.07-.89,5.71-3.4l2.05-8.09-103.82-26.26Z"/>
    <path class="cls-6" d="M126.22,271.26l-2.05,8.09c-.64,2.52.89,5.07,3.4,5.71l94.7,23.95c2.52.64,5.07-.89,5.71-3.4l2.05-8.09-103.82-26.26Z"/>
    <path class="cls-6" d="M272.03,173.52l8.31-32.87c.64-2.52-.89-5.07-3.4-5.71l-115.44-29.2c-2.52-.64-5.07.89-5.71,3.4l-8.31,32.87,124.55,31.5Z"/>
    <path class="cls-6" d="M272.03,173.52l8.31-32.87c.64-2.52-.89-5.07-3.4-5.71l-115.44-29.2c-2.52-.64-5.07.89-5.71,3.4l-8.31,32.87,124.55,31.5Z"/>
  </g>
  <g>
    <g>
      <path class="cls-5" d="M150.41,152.3c-2.52-.64-5.05.89-5.65,3.42l-26.13,109.22c-.6,2.53.95,5.09,3.46,5.73l105.84,26.77c2.52.64,5.1-.88,5.77-3.39l28.94-108.51c.67-2.51-.83-5.06-3.35-5.7l-108.88-27.54Z"/>
      <path d="M150.41,152.3c-2.45-.66-5.15,1.01-5.64,3.5,0,0-1.7,7.24-1.7,7.24-7.97,33.69-15.36,67.74-22.57,101.58l-.1.45c-.03.15-.07.32-.07.39-.24,1.31.58,2.75,1.82,3.19,29.18,6.72,64.66,14.87,93.74,22.18,2.28.54,8.59,2.15,10.82,2.68,0,0,1.8.45,1.8.45.4.1.33.08.45.09.58.06,1.19-.32,1.36-.9,7.17-26.7,14.76-53.75,22.47-80.27,2.25-7.74,5.84-20,8.08-27.65.69-1.98-.74-3.79-2.77-4.06-34.39-9.65-73.02-20.08-107.68-28.88h0ZM150.41,152.3c32.1,8.1,68.96,16.83,101.21,24.14l7.25,1.65c3.34.44,6,3.44,5.66,6.88-.03.64-.29,1.48-.42,2.1,0,0-.44,1.81-.44,1.81-1.55,6.43-4.51,18.72-6.11,25.29-6.57,26.98-13.46,54.39-20.62,81.24-1.23,4.13-6.08,6.66-10.16,5.37,0,0-1.8-.46-1.8-.46-2.2-.59-8.49-2.17-10.8-2.78-27.79-7.11-62.1-16.45-89.71-24.17l-1.79-.5-.9-.25c-2.06-.5-3.91-2.08-4.65-4.06-.62-1.5-.55-3.23-.06-4.75,8.88-33.44,17.72-67.15,25.85-100.8,0,0,1.76-7.22,1.76-7.22.52-2.49,3.24-4.19,5.7-3.49h0Z"/>
    </g>
    <g>
      <path class="cls-5" d="M150.41,152.3c-2.52-.64-5.05.89-5.65,3.42l-26.13,109.22c-.6,2.53.95,5.09,3.46,5.73l105.84,26.77c2.52.64,5.1-.88,5.77-3.39l28.94-108.51c.67-2.51-.83-5.06-3.35-5.7l-108.88-27.54Z"/>
      <path d="M150.41,152.3c-2.45-.66-5.15,1.01-5.64,3.5,0,0-1.7,7.24-1.7,7.24-7.97,33.69-15.36,67.74-22.57,101.58l-.1.45c-.03.15-.07.32-.07.39-.24,1.31.58,2.75,1.82,3.19,29.18,6.72,64.66,14.87,93.74,22.18,2.28.54,8.59,2.15,10.82,2.68,0,0,1.8.45,1.8.45.4.1.33.08.45.09.58.06,1.19-.32,1.36-.9,7.17-26.7,14.76-53.75,22.47-80.27,2.25-7.74,5.84-20,8.08-27.65.69-1.98-.74-3.79-2.77-4.06-34.39-9.65-73.02-20.08-107.68-28.88h0ZM150.41,152.3c32.1,8.1,68.96,16.83,101.21,24.14l7.25,1.65c3.34.44,6,3.44,5.66,6.88-.03.64-.29,1.48-.42,2.1,0,0-.44,1.81-.44,1.81-1.55,6.43-4.51,18.72-6.11,25.29-6.57,26.98-13.46,54.39-20.62,81.24-1.23,4.13-6.08,6.66-10.16,5.37,0,0-1.8-.46-1.8-.46-2.2-.59-8.49-2.17-10.8-2.78-27.79-7.11-62.1-16.45-89.71-24.17l-1.79-.5-.9-.25c-2.06-.5-3.91-2.08-4.65-4.06-.62-1.5-.55-3.23-.06-4.75,8.88-33.44,17.72-67.15,25.85-100.8,0,0,1.76-7.22,1.76-7.22.52-2.49,3.24-4.19,5.7-3.49h0Z"/>
    </g>
    <g>
      <path class="cls-5" d="M123.29,271.26l-2.05,8.09c-.64,2.52.89,5.07,3.4,5.71l94.7,23.95c2.52.64,5.07-.89,5.71-3.4l2.05-8.09-103.82-26.26Z"/>
      <path d="M123.29,271.26c-.55,2.8-.98,5.45-1.43,7.98-.41,1.76.33,3.54,1.85,4.39.55.31.94.38,1.6.51,5.28,1.05,10.57,2.1,15.84,3.2,7.89,1.65,23.7,5.1,31.56,6.89,15.75,3.57,31.44,7.35,47.1,11.28.67.24,1.45.16,1.78-.59.02-.04.04-.08.04-.12l.03-.08.06-.24,2-7.82,2.53,4.24c-34.57-8.87-68.77-19.15-102.96-29.65h0ZM123.29,271.26c25.58,4.96,52.52,10.59,78.06,16.47,9.99,2.32,20.03,4.75,30,7.24-.55,2.19-2.23,8.93-2.81,11.23-.49,2.23-1.93,4.25-3.93,5.37-1.95,1.13-4.36,1.37-6.52.73-5.21-1.33-10.43-2.67-15.63-4.04-15.05-3.91-31.67-8.54-46.71-12.82-9.52-2.83-22.7-6.56-32.03-9.65-2.58-1.07-3.97-4.32-2.97-6.87,0,0,2.53-7.67,2.53-7.67h0Z"/>
    </g>
    <g>
      <path class="cls-5" d="M123.29,271.26l-2.05,8.09c-.64,2.52.89,5.07,3.4,5.71l94.7,23.95c2.52.64,5.07-.89,5.71-3.4l2.05-8.09-103.82-26.26Z"/>
      <path d="M123.29,271.26c-.55,2.8-.98,5.45-1.43,7.98-.41,1.76.33,3.54,1.85,4.39.55.31.94.38,1.6.51,5.28,1.05,10.57,2.1,15.84,3.2,7.89,1.65,23.7,5.1,31.56,6.89,15.75,3.57,31.44,7.35,47.1,11.28.67.24,1.45.16,1.78-.59.02-.04.04-.08.04-.12l.03-.08.06-.24,2-7.82,2.53,4.24c-34.57-8.87-68.77-19.15-102.96-29.65h0ZM123.29,271.26c25.58,4.96,52.52,10.59,78.06,16.47,9.99,2.32,20.03,4.75,30,7.24-.55,2.19-2.23,8.93-2.81,11.23-.49,2.23-1.93,4.25-3.93,5.37-1.95,1.13-4.36,1.37-6.52.73-5.21-1.33-10.43-2.67-15.63-4.04-15.05-3.91-31.67-8.54-46.71-12.82-9.52-2.83-22.7-6.56-32.03-9.65-2.58-1.07-3.97-4.32-2.97-6.87,0,0,2.53-7.67,2.53-7.67h0Z"/>
    </g>
    <g>
      <path class="cls-5" d="M269.1,173.52l8.31-32.87c.64-2.52-.89-5.07-3.4-5.71l-115.44-29.2c-2.52-.64-5.07.89-5.71,3.4l-8.31,32.87,124.55,31.5Z"/>
      <path d="M269.1,173.52c2.28-10.63,4.21-20.71,6.41-30.95.12-.5.37-1.76.48-2.24.18-.88-.01-1.83-.55-2.53-.41-.57-1-.96-1.65-1.13l-2.96-.66c-36.08-7.97-74.46-17.17-110.38-26.18,0,0-1.53-.38-1.53-.38l-.76-.19-.38-.1c-.12-.03-.09-.01-.15-.03-.61-.11-1.22.32-1.37.92-.41,1.55-1.73,6.76-2.16,8.39l-6.28,24.41-2.45-4.1c38.95,10.19,85.08,23.46,123.72,34.78h0ZM269.1,173.52c-40.36-8.47-85.14-18.43-125.38-28.23,0,0-3.27-.78-3.27-.78,1.65-6.67,6.81-27.37,8.43-33.9l.38-1.53c.7-4.47,5.12-7.76,9.61-6.86.94.2,2.34.58,3.29.82,35.91,9.16,74,19.29,109.56,29.45,0,0,1.52.43,1.52.43l.76.22.38.11.49.16c3.41,1.15,5.07,5.13,3.74,8.41,0,0-.45,1.56-.45,1.56-1.15,4.05-7.69,25.65-9.04,30.14h0Z"/>
    </g>
    <g>
      <path class="cls-5" d="M269.1,173.52l8.31-32.87c.64-2.52-.89-5.07-3.4-5.71l-115.44-29.2c-2.52-.64-5.07.89-5.71,3.4l-8.31,32.87,124.55,31.5Z"/>
      <path d="M269.1,173.52c2.28-10.63,4.21-20.71,6.41-30.95.12-.5.37-1.76.48-2.24.18-.88-.01-1.83-.55-2.53-.41-.57-1-.96-1.65-1.13l-2.96-.66c-36.08-7.97-74.46-17.17-110.38-26.18,0,0-1.53-.38-1.53-.38l-.76-.19-.38-.1c-.12-.03-.09-.01-.15-.03-.61-.11-1.22.32-1.37.92-.41,1.55-1.73,6.76-2.16,8.39l-6.28,24.41-2.45-4.1c38.95,10.19,85.08,23.46,123.72,34.78h0ZM269.1,173.52c-40.36-8.47-85.14-18.43-125.38-28.23,0,0-3.27-.78-3.27-.78,1.65-6.67,6.81-27.37,8.43-33.9l.38-1.53c.7-4.47,5.12-7.76,9.61-6.86.94.2,2.34.58,3.29.82,35.91,9.16,74,19.29,109.56,29.45,0,0,1.52.43,1.52.43l.76.22.38.11.49.16c3.41,1.15,5.07,5.13,3.74,8.41,0,0-.45,1.56-.45,1.56-1.15,4.05-7.69,25.65-9.04,30.14h0Z"/>
    </g>
  </g>
  <g>
    <path class="cls-3" d="M334.54,154.18c-.53,1.7-1.6,3.23-2.94,4.44-1.34,1.22-2.93,2.14-4.56,2.9-3.3,1.48-6.85,2.33-10.39,2.91-7.12,1.15-14.33,1.17-21.49.89-7.17-.29-14.3-1.1-21.38-2.14-7.08-1.04-14.12-2.37-21.11-3.93-6.98-1.59-13.92-3.32-20.8-5.28-6.87-2.01-13.7-4.13-20.46-6.49-13.56-4.6-26.82-10.08-39.76-16.27-12.91-6.26-25.52-13.28-37.1-22.1-2.9-2.2-5.68-4.58-8.37-7.1-.66-.64-1.3-1.32-1.95-1.99-.65-.67-1.31-1.32-1.91-2.04-1.23-1.42-2.4-2.92-3.46-4.54-1.06-1.62-2.01-3.37-2.72-5.33-.71-1.94-1.13-4.15-.89-6.45.23-2.31,1.29-4.56,2.74-6.25,1.46-1.7,3.22-2.95,5.01-3.84,1.79-.91,3.63-1.6,5.46-2.09,1.84-.53,3.67-.88,5.51-1.17,3.68-.55,7.33-.75,10.97-.79,7.27-.05,14.46.53,21.58,1.48,7.12.96,14.15,2.29,21.14,3.82,6.98,1.55,13.88,3.4,20.73,5.39l-.52,1.98c-13.82-3.2-27.77-5.83-41.81-7.17-7.01-.69-14.04-1.06-20.99-.79-3.47.14-6.93.44-10.27,1.05-3.32.61-6.62,1.46-9.34,2.93-1.38.71-2.53,1.62-3.37,2.63-.82,1.02-1.32,2.14-1.43,3.38-.24,2.5,1.08,5.46,2.89,8.11,3.74,5.35,9.06,9.97,14.55,14.15,11.11,8.38,23.55,15.15,36.14,21.43,25.38,12.27,52.14,21.89,79.48,29.04,13.71,3.41,27.58,6.36,41.64,7.67,7.02.67,14.1.95,21.1.31,3.5-.34,6.98-.96,10.27-2.15,1.63-.61,3.23-1.38,4.61-2.46,1.38-1.07,2.54-2.46,3.21-4.12Z"/>
    <polygon class="cls-3" points="236.5 87.81 191.58 92.25 205.95 78.72 201.32 59.53 236.5 87.81"/>
  </g>
  <g>
    <polygon class="cls-4" points="177.8 183.87 181.57 210.72 162.16 210 196.11 268.13 193.3 228.02 206.47 232.58 208.74 184.68 177.8 183.87"/>
    <path d="M178.01,184.06c2.48,9.6,5.16,19.48,6.49,29.24-7.47-.16-14.98-.57-22.42-1.26,0,0,1.83-3.06,1.83-3.06,5.07,10.02,10.1,20.07,15.97,29.65,5.73,9.65,12.12,18.92,18.15,28.38,0,0-4.16,1.28-4.16,1.28-.59-5.72-1.3-14.2-1.82-20.03-.28-3.31-1.82-21.6-2.06-24.44l4.27,1.42c4.41,1.46,8.8,2.98,13.18,4.53l-3.94,2.67c.61-11.53,1.46-24.32,2.28-35.9l.9-11.96,2.01,2.17c-10.22-.7-20.19-1.82-30.68-2.69h0ZM177.6,183.69c10.18-.37,23.1-1.08,33.26-1.11-.12,7.02-.4,19.15-.6,26.18-.24,9.29-.59,18.63-.98,27.91l-3.78-1.28c-4.4-1.49-8.79-3.02-13.15-4.6l3.9-2.98c.84,15.36,2.03,34.55,2.44,49.82-6.89-12.52-13.24-25.73-20.29-38.12-6.04-10.87-13.12-21.14-19.98-31.5,7.74-.11,15.54-.18,23.27.22l-2.56,2.84c-1.18-9.02-1.55-18.39-1.51-27.38h0Z"/>
  </g>
  <g>
    <path class="cls-2" d="M220.44,329.75c15.01.09,29.39-8.1,35.24-22.08,1.98-4.49,3.14-9.4,3.46-14.62,1.58,5.02,1.43,10.63-.08,15.84-4.34,16.09-22.79,26.58-38.62,20.87h0Z"/>
    <path class="cls-2" d="M223.26,339.98c17.02-1.3,34.52-8.03,44.04-22.73,3.03-4.74,5.07-10.17,5.56-16.2,1.66,5.86.64,12.47-2.05,18.13-8.11,17.03-29.74,25.61-47.55,20.8h0Z"/>
  </g>
</svg>