<?xml version="1.0" encoding="UTF-8"?>
<svg id="menü" xmlns="http://www.w3.org/2000/svg" viewBox="0 0 195.84 233.77">
  <defs>
    <style>
      .cls-1 {
        fill: #1d1d1b;
      }

      .cls-2 {
        fill: #ffd618;
      }

      .cls-3 {
        fill: #fff;
        stroke: #1d1d1b;
        stroke-miterlimit: 10;
        stroke-width: 5px;
      }
    </style>
  </defs>
  <circle class="cls-3" cx="97.92" cy="122.7" r="61.57"/>
  <g>
    <path class="cls-2" d="M101.24,82.97l7.85,24.15c.47,1.44,1.81,2.41,3.32,2.41h25.4c3.38,0,4.79,4.33,2.05,6.32l-20.55,14.93c-1.22.89-1.74,2.47-1.27,3.9l7.85,24.15c1.05,3.22-2.64,5.89-5.37,3.9l-20.55-14.93c-1.22-.89-2.88-.89-4.11,0l-20.55,14.93c-2.74,1.99-6.42-.69-5.37-3.9l7.85-24.15c.47-1.44-.04-3.02-1.27-3.9l-20.55-14.93c-2.74-1.99-1.33-6.32,2.05-6.32h25.4c1.51,0,2.85-.97,3.32-2.41l7.85-24.15c1.05-3.22,5.6-3.22,6.64,0Z"/>
    <path class="cls-1" d="M101.48,82.89c2.04,6.34,4.25,12.63,6.55,18.89l1.74,4.69c.44,1.43,1.55,2.1,2.84,1.97,7.77-.38,17.26-.87,24.99-1.04,5.58-.27,8.12,7.04,3.53,10.31-6.45,4.73-14.32,10.17-21,14.69-.48.41-.7,1.12-.55,1.75l.33,1.18,1.36,4.81,2.75,9.62c.42,1.47,1.72,5.73,2.15,7.18.17.73.61,1.74.68,2.58.41,3.23-3.46,5.82-6.27,4.13-7.1-4.99-14.1-10.09-21.32-14.91-.73-.49-1.76-.49-2.48,0l-1.89,1.46c-6.08,4.73-12.15,9.5-18.28,14.17-4.41,3.39-10.6-1.16-8.75-6.42,0,0,.09-.3.09-.3l.74-2.39c1.96-6.33,4.67-15.1,6.65-21.41.19-.69-.46-1.02-.93-1.36-5.39-3.87-12.84-9.27-18.18-13.24,0,0-1-.75-1-.75l-.5-.37-.25-.19c-4.63-3.33-2.32-10.89,3.46-10.92.94,0,3.12.08,4.1.09,7.02.14,14.5.47,21.48.84.66.03,1.31-.28,1.71-.84.26-.37.64-1.51.84-2.01,2.69-6.99,5.33-14.04,7.8-21.11l.42-1.18c1.1-3.39,6.17-3.38,7.19.07h0ZM101.01,83.05c-.87-2.86-5.21-2.9-6.06,0-2.05,6.78-3.98,13.6-5.8,20.44-.24.84-.75,2.82-.98,3.62-.37,2.2-2.58,4.06-4.89,4.01-6.9.36-14.31.7-21.24.82l-2.5.06-1.25.03c-.23,0-.37,0-.55.06-.69.22-.88,1.27-.21,1.67,0,0,.25.18.25.18.28.2,1.22.87,1.53,1.09,2.54,1.77,9.55,6.87,12.16,8.77,1.38,1.01,4.74,3.45,6.05,4.43,2.35,1.43,3.66,4.43,2.79,7.1-2.43,7.26-5.58,16.48-8.05,23.73l-.1.3c-.04.1-.07.21-.07.23-.35.82.47,1.78,1.34,1.71.42,0,.9-.4,1.25-.64,6.88-4.75,13.84-9.43,20.77-14.11,1.71-1.01,3.95-.78,5.44.5.41.33,2.05,1.57,2.47,1.91,5.59,4.35,11.28,8.56,16.99,12.74,1.89,1.89,5.07.75,4.89-2-.19-1.08-1.13-3.39-1.51-4.57-1-2.94-3.97-11.08-5.08-14.11-.33-.95-1.88-5.05-2.17-5.89-.84-2.31.28-4.9,2.3-6.2,0,0,.99-.77.99-.77,6.12-4.81,12.59-9.61,18.85-14.19,1-.77.27-2.42-1.01-2.29-4.88-.12-10.15-.32-14.99-.54l-9.99-.5c-1.57.01-3.18-.88-3.94-2.27-.26-.44-.42-1.01-.51-1.37-2.22-7.98-4.57-16.1-7.15-23.95h0Z"/>
  </g>
</svg>