<?xml version="1.0" encoding="UTF-8"?>
<svg id="Ebene_5" data-name="Ebene 5" xmlns="http://www.w3.org/2000/svg" viewBox="0 0 195.84 233.77">
  <defs>
    <style>
      .cls-1 {
        fill: #ffd618;
      }

      .cls-2 {
        stroke: #1d1d1b;
        stroke-linejoin: round;
        stroke-width: 6.03px;
      }
    </style>
  </defs>
  <polygon class="cls-2" points="122.41 62.67 59.74 130.49 90.98 130.29 78.88 172.74 127.1 112.79 102.79 111.76 122.41 62.67"/>
  <g>
    <polygon class="cls-1" points="120.1 61.03 57.43 128.85 88.67 128.65 76.56 171.1 124.78 111.15 100.47 110.12 120.1 61.03"/>
    <path d="M119.94,61.28c-15.04,16.64-30.7,36.17-45.53,52.88-4.9,5.58-9.91,11.03-15.13,16.4l-1.86-4.21c9.06.12,22.18.64,31.37.94.87.01,1.49.92,1.19,1.74-2.37,6.97-4.56,14-6.48,21.1-1.98,7.09-3.73,14.24-5.4,21.41,0,0-2.8-1.45-2.8-1.45,10.84-15.02,23.5-31.25,34.97-45.93,3.98-5.03,7.99-10.03,12.07-14.98l2.3,5.08c-7.89-.46-16.44-1.03-24.28-1.68-1.69,0-2.88-1.84-2.19-3.38,6.93-16.33,14.84-31.18,21.75-47.93h0ZM120.26,60.78c-6.09,16.03-11.23,33.89-17.49,50.26,0,0-2.19-3.38-2.19-3.38,7.86,0,16.45.17,24.34.37,2.53-.02,3.96,3.21,2.3,5.08-3.95,5.05-7.98,10.04-12.04,15-11.91,14.36-24.98,30.18-37.37,44-1.07,1.42-3.38.28-2.8-1.45,2.36-6.97,4.65-13.97,6.71-21.04,2.11-7.05,3.97-14.17,5.63-21.35l1.32,1.74c-5.43.22-18.15.9-23.42,1.08-2.6.11-5.21.21-7.81.27-1.38.03-2.51-1.06-2.54-2.44-.01-.69.25-1.31.69-1.77,5.22-5.93,10.66-11.79,16.2-17.51,14.98-15.69,33.59-33.26,48.47-48.86h0Z"/>
  </g>
</svg>