<?xml version="1.0" encoding="UTF-8"?>
<svg id="menü" xmlns="http://www.w3.org/2000/svg" viewBox="0 0 195.84 233.77">
  <defs>
    <style>
      .cls-1 {
        fill: #ffd618;
      }

      .cls-2 {
        fill: #fff;
        stroke: #1d1d1b;
        stroke-miterlimit: 10;
        stroke-width: 5px;
      }
    </style>
  </defs>
  <circle class="cls-2" cx="97.92" cy="126.23" r="61.57"/>
  <g>
    <polygon class="cls-1" points="120.19 76.9 65.54 136.05 92.78 135.87 82.22 172.9 124.28 120.61 103.08 119.71 120.19 76.9"/>
    <path d="M120.05,77.11c-17.7,19.62-34.56,41.51-52.91,60.42l-1.62-3.67c2.27.02,4.54.08,6.81.15,4.53.11,15.74.52,20.44.67.8-.05,1.43.76,1.15,1.52-4.16,12.15-7.47,24.57-10.36,37.08,0,0-2.44-1.26-2.44-1.26,3.32-4.5,6.6-9.05,9.97-13.51,9.79-12.81,20.8-27.16,31.07-39.6,0,0,1.99,4.4,1.99,4.4-3.53-.22-7.06-.38-10.59-.65-3.53-.26-7.06-.49-10.59-.79-1.48,0-2.52-1.6-1.91-2.95,5.98-14.1,13.1-27.53,18.97-41.8h0ZM120.33,76.68c-5.45,14.35-9.73,29.4-15.26,43.83,0,0-1.91-2.95-1.91-2.95,7.08,0,14.15.14,21.23.34,1.48.03,2.65,1.26,2.62,2.74-.02.63-.25,1.2-.62,1.66-3.41,4.43-6.98,8.74-10.48,13.1-6.36,7.58-15.16,18.36-21.53,25.74-3.64,4.25-7.37,8.42-11.06,12.63-.93,1.24-2.94.24-2.44-1.26,4.15-12.15,7.89-24.45,10.76-36.97l1.15,1.52c-8,.34-19.34.98-27.24,1.17-1.84.1-2.93-2.29-1.67-3.61,0,0,.05-.06.05-.06l3.45-3.87c3.43-3.72,7.16-7.81,10.68-11.41,13.06-13.69,29.3-29.01,42.27-42.61h0Z"/>
  </g>
</svg>