<?xml version="1.0" encoding="UTF-8"?>
<svg id="Ebene_1" xmlns="http://www.w3.org/2000/svg" version="1.1" viewBox="0 0 60 60">
  <!-- Generator: Adobe Illustrator 30.2.1, SVG Export Plug-In . SVG Version: 2.1.1 Build 1)  -->
  <defs>
    <style>
      .st0 {
        fill: #c9e8fb;
      }

      .st1 {
        fill: #93c3eb;
      }

      .st2 {
        fill: #4788c7;
      }

      .st3 {
        fill: #ffd618;
      }

      .st4 {
        fill: #fff;
      }

      .st5 {
        fill: #211f1f;
      }
    </style>
  </defs>
  <g>
    <circle class="st0" cx="30.1" cy="29.8" r="26"/>
    <path d="M56.2,29.8c.1,18.9-18.5,32.5-36.2,24.5C-1.3,44.6-2.2,14.4,19.8,4.9c17.8-7.5,36.6,6,36.4,24.9h0ZM56,29.8C55.8,7.7,28.1-3.3,12.4,12.1-3.7,28.2,7,55.4,30.1,55c13.4,0,26.1-11.4,25.9-25.1h0Z"/>
  </g>
  <g>
    <path class="st2" d="M27.3,31.5c0,0,0,0,0-.1.2-.6.3-1.1.5-1.7.3-1.2.7-2.4.8-3.7,0,0-.1.2-.3.2-.2,0-.2-.2-.2-.3.4-1.1.9-2.2,1.3-3.3,0,0,0,0,0-.1,0,0,.2,0,.1,0-.4,1.2-.9,2.3-1.3,3.5,1.1-1.2-.2,3-.3,3.3-.2.7-.4,1.4-.6,2.1,0,0,0,0-.1,0Z"/>
    <path class="st2" d="M25.8,31.9c-.4,0-.7-.5-.6-.9.2-1,.4-2,.5-3,0,0,0,0,0,0-.2.2-.5.4-.8.2-.8-.5.8-2.5,1.4-2.6.3-.4.6-.9,1-1.4.1-.2.3-.6.6-.4.1,0,.2.3,0,.4-.3.5-.6,1.1-.9,1.6.6,1.1-.2,4.1-.4,5.4,0,.4-.5.7-.9.6Z"/>
    <path class="st2" d="M30.5,33c-.7-.4-1.1-1.2-.8-2,0-.3.2-.6.3-.9,0,0,0,0,0,0,.8-1.3,2.9-.8,3.1.6.4,1.4-1.3,2.9-2.6,2.2Z"/>
    <path class="st1" d="M46.4,35.6c0,0-.2.1-.3.1-.2,0-.3,0-.5,0-.6.5-1.4.6-2.1.8-.9.2-1.8.3-2.7.4-.4,0-1.2,0-1.7.2-1-.5-2-.9-3-1.4-.2-.1-.5-.2-.8-.3-.7-.8-1.4-1.6-2-2.5-.4-.6-.7-1.2-1-1.7.6-1,1.1-2.1,1.1-3.3.5-.4,1-.9,1.5-1.3.3.4.8.6,1.3.4.5,0,1,0,1.4-.1.2.2.5.3.8.3,0,0,0,0,0,0,.3.3.4.8.3,1.2,0,0,0,0,0,0,0,.2.1.4.3.6.4.2.9-.1,1.1-.5.5-.6,1.1-1.2,1.3-1.9.3-.3.4-.7.4-1.1.1-.4.2-.7.3-1.1,0-.7-.3-1.4-.4-2.1,0-.2-.1-.3-.2-.5-.2-1.4-.7-2.7-1.4-3.3-4-3.1-6.1-3.4-10.6-1-1.9-1.2-3.7.4-5.1,1.6-1.6,1.4-3,3.1-3.8,5.1-.5.4-.9,1-1.1,1.5-.5,1.1-.7,2.3-1.1,3.4-.4,1.4-1.1,2.7-1.5,4.1-.3,0-.5.3-.4.6-.5,1-1.1,2.1-1.8,3-.3.4-.6.8-.8,1.3,0,.1-.2.3-.1.5-.3.3-.7.6-.9,1.1-.2.6.2,1,.8.9,0,0,0,0,.2,0,.1,0,.2,0,.3.1.3,0,.7,0,1-.2,0,0,0,0,0,0,.3,0,.6,0,1-.1.5.1,1,0,1.5-.1,2-.1,4-.9,5.7-2,.7,0,1.3,0,2,.1,1.5.5,3,1,4.5,1.6.9.3,1.8.7,2.7.6.7.4,1.5.8,2.4,1.1,1.7.4,3.7.4,5.4-.3.8-.4,1-1.2,1.2-1.9.7.1,1.4-.1,1.6-.7.6-.2,1.1-.4,1.6-.7.3.4.8.1,1.1-.1.4-.1.5-.6.2-.9.4-.3.9-.4,1.1-.8.2-.4-.3-.9-.7-.7ZM14.3,39.7s0,0,0,0c0,0,0,0,0,0,0,0,0,0,0,0Z"/>
    <polygon points="39 29.3 39 29.3 39 29.3 39 29.3 39 29.3"/>
    <path d="M39,29.3s0,0,0,0c0,0,0,0,0,0Z"/>
    <path d="M12.6,40s0,0,0,0c0,0,0,0,0,0,0,0,0,0,0,0h0s0,0,0,0c2.9-3.5,3.3-8.3,4.9-12.4,1.1-2.9,2.8-5.7,5.1-7.9,4.6-4.3,12.5-7.5,18.1-3.2,2.7,2.1,3.7,5.9,2.3,9-.7,1.7-2.1,3.6-4.1,3.7.9-.2,1.6-1.1,2.1-1.9,1.2-2.2.8-5.1-.6-7.1-2.5-3.3-6.9-3.6-10.5-2.5-3.4,1.1-6.5,3.1-8.6,6-1.7,2.3-2.6,5-3.6,7.6-1.2,3.1-2.5,6.5-5.2,8.7,0,0,0,0,0-.1Z"/>
    <path d="M39.4,37.2c-3.5-.2-7.2-3-6.8-6.8.2-2.1,2-4.5,4.3-4.2,1.6.2,2.3,1.7,2.1,3.1,0-.3-.1-.6-.3-.9-2.3-3.6-7.8,2.7-.9,6.6,2.5,1.4,5.7,1.4,8.4.7-2.1,1-4.4,1.7-6.8,1.4Z"/>
    <path d="M32.5,43.3c-3,0-5.8-1.5-8.8-2.1-1.2-.1-2.4.3-3.5.5-2.5.4-5.4.3-7.5-1.2,0,0,0,0,0,0,0,0,0,0,0,0,1.1.4,2.4.5,3.5.3,5.8-1,5.6-4,12.2-1.4,5.3,2.2,11.5,1.5,16.3-1.4.9-.6,1.9-1.1,2.5-2,0-.2,0-.6-.3-.7-.4,0-.8.2-1.1.4,0,0,0,0,0,0,.3-.3.8-.7,1.3-.5,1.4,1.1-1.8,3.9-2.6,4.7-3.1,2.2-6.5,3.6-10.2,3.6-.6,0-1.2,0-1.7,0Z"/>
    <path d="M44.3,36.6c.8-.5,1.6-.9,2.4-1.3-.6.7-1.5,1.1-2.4,1.3Z"/>
    <path d="M39,29.4c-.4-.1-.2-.7-.4-.9,0,0,0-.1,0-.2,0,0,.1.1.1.2,0,.2,0,.5.2.7,0,0,0,0,0,0,.3,0,.5-.2.7-.2,0,0,0,0,.1,0,.1,0,.2.1,0,.2-.3,0-.6.4-1,.3Z"/>
    <path d="M39,29.5c-.4-.1-.1-.8-.3-1,0,0,0-.1,0-.1,0,0,0,0,0,0,.2.2.2.6.3.9,0,0,.2,0,.2,0,0,.2-.1.3-.3.3Z"/>
    <path d="M39.1,29.5c-.2,0,0-.3,0-.1.6-.1,1-.5,1.5-.9,0,0,0,0,.1,0,0,.1-.2.2-.3.3-.4.3-.8.7-1.4.7Z"/>
    <path d="M39,29.5s0,0,0,0c0,0,0,0,0,0,.7-.2,1.4-.7,2-1.3.2-.2.4-.4.5-.6,0,0,0,0,.1,0,0,0,0,0,0,.1-.2.2-.4.5-.6.7-.6.5-1.2,1-2,1.2,0,0-.1,0-.1,0Z"/>
    <path d="M38.9,29.4c-.1-.5-.2-.9-.4-1.4,0,0,0-.1,0-.1,0,0,.1,0,.1,0,.1.4.2.8.3,1.2,0,.1.1.4,0,.3Z"/>
    <path d="M38.8,29.3c0-.5-.2-.9-.4-1.3,0,0,0,0,0,0,0,0,0,0,0,0,0,.2.2.4.2.7,0,.1.3.9,0,.7Z"/>
    <path d="M39,29.4c0,0,0,0,0-.1,0,0,0,0,0,0,0,0,.2,0,.3,0,.5-.1.8-.4,1.2-.7,0,0,0,0,.1,0,0,0,0,0,0,.1-.5.4-1,.7-1.6.7Z"/>
    <path d="M39,29.4c0,0,0-.2,0-.1.7-.2,1.2-.6,1.8-1,.6,0-1.7,1.2-1.8,1.1Z"/>
    <path d="M39,29.3c0,0,0,0,.1,0,.6-.2,1-.6,1.5-.8,0,0,0,0,.1,0,0,0,0,0,0,.1-.3.1-1.5,1.1-1.7.8Z"/>
    <path d="M38.8,29.4s0,0,0,0c0-.6-.3-1-.6-1.5,0,0,0-.1,0-.1,0,0,.1,0,.1,0,.2.3.3.6.4.9,0,.1.3,1,0,.8Z"/>
    <path d="M38.8,29.2c-.1-.4-.2-.9-.5-1.3,0,0,0,0,0-.1,0,0,0,0,.1,0,.2.3.3.6.4,1,0,.1.2.4,0,.5,0,0,0,0,0,0Z"/>
    <path d="M38.9,29.3s0,0,0,0c0,0,0,0,0,0,0,0,0,0,0,0-.1-.4-.3-.7-.4-1.1,0,0,.1-.1.1,0,0,.1.6,1.4.2,1.2Z"/>
    <path d="M39,29.3c-.2-.6-.3-1.2-.6-1.8,0,0,0,0,0,0,0,0,0,0,0,0,.1.3.2.7.3,1,0,.1.4,1,0,.8Z"/>
    <path d="M43.4,36.7c0-.1.1-.1.2-.1.6-.1,1.2-.3,1.7-.6.4-.2.8-.5,1.2-.7,0,0,0,0,.1,0,0,0,0,0,0,.1-.3.2-.6.3-.9.5-.7.4-1.4.6-2.2.8,0,0,0,0,0,0Z"/>
    <path d="M43.6,36.5c-.4-.2.8-.3.9-.3.5-.2,1-.5,1.5-.7.2-.1.5-.3.8-.2.2,0,.4.2.5.4,0,.1,0,.3-.1.3-.2,0,0-.3-.2-.4,0,0-.2-.1-.3,0-.4,0-.7.3-1,.5-.6.4-1.3.5-2,.6Z"/>
    <path d="M44.2,36.5c0,0,0-.1,0-.1.5-.2,1-.4,1.4-.6.4-.2.9-.5,1.3-.2.2.2.2.5,0,.7,0,0-.2,0-.1,0,0,0,0,0,0,0,.2-1-1.8.2-2.2.3-.2,0-.5.3-.6.1Z"/>
    <path d="M44.6,36.4c0,0,0-.1,0-.1.7-.2,1.3-.5,2-.7.4,0,.7.2.5.6,0,0-.1.3-.2.2,0,0,0-.1,0-.2,0,0,0-.2,0-.3-.1-.2-.3,0-.5,0-.4.2-.8.4-1.3.5-.2,0-.4.1-.5.2,0,0,0,0,0,0Z"/>
    <path d="M46.9,35.6c0,0,0-.1-.2-.2,0,0-.2,0-.3,0,0,0,0,0,0,0,0-.2.3-.2.4-.2.2,0,.3,0,.4.2,0,.1-.1.2-.2.1Z"/>
    <path d="M46.8,36.7c0,0,0,0,0-.1,0-.2.5-.6.2-.8,0,0,0,0,0,0,0,0,0-.1,0-.1,0,0,.2.1.2.2.1.2,0,.4,0,.6,0,.1-.1.4-.3.4Z"/>
    <path d="M12.9,40.6c-.3,0-.3-.3-.3-.5,0,0,0,0,0,0,0,0,0,0,0,0,0-.1.1-.3.2-.4,0,0,.1,0,0,.1,0,.1-.2.2-.2.3,0,.2.1.3.3.3,0,0,0,.2,0,.2s0,0,0,0Z"/>
    <path d="M14.2,41c-.1,0-1.8-.5-1.3-.6.4.2.9.3,1.4.4.1,0,0,.2,0,.2Z"/>
    <path d="M12.7,40.4c-.2-.2,0-.5.1-.7,0-.1.2,0,.2,0,0,.1-.2.3-.2.4,0,0,0,.1,0,.2,0,0,0,.1-.1,0Z"/>
    <path d="M12.9,40.6c-.2-.1-.3-.3-.2-.5,0-.1.1-.1.2,0,0,.1,0,.2,0,.3,0,0,0,0,.1.1,0,0,0,.2,0,.1Z"/>
    <path d="M12.7,39.9c0-.2.2-.3.4-.5,0,0,0,0,.1,0,0,.1-.1.2-.2.3,0,0-.2.3-.3.1Z"/>
    <path d="M13.2,40.7c-.1,0-.6-.3-.4-.4,0,0,.2.2.4.2,0,0,.2,0,.1.1,0,0,0,0,0,0Z"/>
    <path class="st4" d="M23.1,25.5c4.3-3.3,8-5.9,15.6-3.4-5-7.5-12.8-.9-15.6,3.4Z"/>
  </g>
  <g>
    <polygon class="st5" points="19.6 22.8 14.4 22.9 17.7 19.6 15.9 14.4 20.4 16.8 24.7 13.3 24.3 18.6 29.9 21 23.7 22 22.8 27.3 19.6 22.8"/>
    <polygon class="st3" points="20.5 17.2 23.6 14.7 23.3 18.4 27.2 20.1 22.9 20.8 22.2 24.7 19.9 21.5 16.4 21.5 18.6 19.3 17.3 15.5 20.5 17.2"/>
  </g>
</svg>