<?xml version="1.0" encoding="UTF-8"?>
<svg id="Ebene_1" xmlns="http://www.w3.org/2000/svg" xmlns:xlink="http://www.w3.org/1999/xlink" version="1.1" viewBox="0 0 60 60">
  <!-- Generator: Adobe Illustrator 30.2.1, SVG Export Plug-In . SVG Version: 2.1.1 Build 1)  -->
  <defs>
    <style>
      .st0 {
        fill: #2dab66;
      }

      .st1, .st2 {
        fill: #de5864;
      }

      .st1, .st3, .st4, .st5 {
        stroke-linecap: round;
        stroke-linejoin: round;
      }

      .st1, .st5 {
        stroke: #1a1a1a;
        stroke-width: .7px;
      }

      .st6 {
        fill: #1b1b1b;
      }

      .st7 {
        fill: #2fac66;
      }

      .st8 {
        fill: #c9e8fb;
      }

      .st9 {
        fill: #2daa66;
      }

      .st10 {
        fill: #f9b44f;
      }

      .st11, .st12 {
        stroke: #1b1b1b;
        stroke-miterlimit: 10;
        stroke-width: .6px;
      }

      .st11, .st13 {
        fill: #ee7e25;
      }

      .st14 {
        fill: #1d1d1b;
      }

      .st3, .st12, .st5 {
        fill: none;
      }

      .st3, .st4 {
        stroke: #fff48f;
        stroke-width: .6px;
      }

      .st15 {
        fill: #fff48f;
      }

      .st16 {
        clip-path: url(#clippath-1);
      }

      .st17 {
        clip-path: url(#clippath-2);
      }

      .st18 {
        fill: #f299ae;
      }

      .st19, .st4 {
        fill: #ffd618;
      }

      .st20 {
        fill: #6b7cbc;
      }

      .st21 {
        fill: #ffde14;
      }

      .st22 {
        clip-path: url(#clippath);
      }
    </style>
    <clipPath id="clippath">
      <path class="st1" d="M24.5,28.3c-2.5,2.8-6.9,3-9.7.4-2.9-2.6-3.1-6.9-.6-9.7"/>
    </clipPath>
    <clipPath id="clippath-1">
      <path class="st4" d="M47.1,25.2c1.6,3,.4,6.6-2.6,8.3s-6.6.6-8.1-2.4"/>
    </clipPath>
    <clipPath id="clippath-2">
      <path class="st11" d="M31,37.9c1.6.8,2.5,2.6,2.7,4.3.3,1.8-1,3.7-2.4,4.8-1.2.9-2.6,1.4-4.1,1.6s-1.5,0-2.2,0-1.7,0-2.4-.5c-.9-.8-1.5-1.9-2-3-.5-1.1-.8-2.2-.7-3.4s.5-2.6,1.2-3.6c.5-.8,1.3-1.4,2.3-1.6,1.5-.3,2.6.8,4,1,1,.2,2.1,0,3.2.3.1,0,.3.1.4.2Z"/>
    </clipPath>
  </defs>
  <g>
    <circle class="st8" cx="30.1" cy="29.8" r="26"/>
    <path d="M56.2,29.8c.1,18.9-18.5,32.5-36.2,24.5C-1.3,44.6-2.2,14.4,19.8,4.9c17.8-7.5,36.6,6,36.4,24.9h0ZM56,29.8C55.8,7.7,28.1-3.3,12.4,12.1-3.7,28.2,7,55.4,30.1,55c13.4,0,26.1-11.4,25.9-25.1h0Z"/>
  </g>
  <path d="M6.6,41c-1.4-1.9-1.4-4.6-.2-6.7,2.3-4.4,8.7-5,12.5-2.3,1.9,1.3,3.4,3.1,4.3,5.1l-.3.2c-1.3-1.7-2.9-3.1-4.7-4-5.5-3.2-13.2.6-11.1,7.5,0,0-.4.3-.4.3h0Z"/>
  <path d="M18.1,32.3c4.4-8.2,16.4-7.3,19.1,1.5-3.1-7.8-13.9-8.2-17.3-.6,0,0-1.8-.9-1.8-.9h0Z"/>
  <path d="M41.4,29.6c5.1-3.8,14.9-.7,13.8,6.4.1-1.5-.4-2.9-1.3-4-2.6-3.2-8.1-3.3-11.1-.7,0,0-1.4-1.7-1.4-1.7h0Z"/>
  <path d="M38.1,49.3c2.2-3.2,6.9-4.1,10.2-2,0,0-1.1,1.6-1.1,1.6-2.5-2.1-6.5-1.8-8.7.7,0,0-.4-.3-.4-.3h0Z"/>
  <path d="M8.7,43.7c5.2-3,12.7-1.5,15.7,3.8,0,0-.4.2-.4.2-3.1-4.5-10-5.2-14.2-2.2,0,0-1.2-1.8-1.2-1.8h0Z"/>
  <path d="M21.3,44.7c5.8-5.8,15.9-4.8,20.3,2,0,0-.4.3-.4.3-4.4-6-13.6-6.5-18.4-.9,0,0-1.4-1.4-1.4-1.4h0Z"/>
  <path d="M32.5,40.9c5.8-5.8,15.9-4.8,20.3,2,0,0-.4.3-.4.3-4.4-6-13.6-6.5-18.4-.9,0,0-1.4-1.4-1.4-1.4h0Z"/>
  <g>
    <g>
      <path class="st7" d="M25.8,29.4c-3.2,3.6-8.7,3.9-12.3.6-3.6-3.2-3.9-8.7-.6-12.3.2-.2,13.2,11.4,12.9,11.7Z"/>
      <path d="M26.2,29.7c-8.5,8.5-21.2-3-13.4-12.1.1,0,.3,0,.3,0,0,0,.3.3.4.3,4.2,3.6,8.8,7.8,12.7,11.8h0ZM25.8,29.4c-1-1.2-2.9-2.7-4-3.9-2.6-2.3-6.1-5.4-8.7-7.5,0,0-.1,0-.1,0,0,0,0,0,0,0,0,0,0,0,0,0,0,0,0,0,.1,0,0,0,0,0,0,0-3.7,4-2.3,11,2.7,13.2,3.2,1.6,7.4.7,9.7-2l.4.3h0Z"/>
    </g>
    <g>
      <path class="st2" d="M24.5,28.3c-2.5,2.8-6.9,3-9.7.4-2.9-2.6-3.1-6.9-.6-9.7"/>
      <g class="st22">
        <path class="st18" d="M13.7,25.4c.7,1.9,2.5,3.6,4.5,4.1s4.2.1,5.7-1.2c0,.6-.4,1.1-.8,1.4s-1,.4-1.6.5c-1.2.3-2.5.5-3.8.3s-2.6-.6-3.5-1.6c-1.3-1.3-1.6-3.3-1.9-5.1-.1-.9-.3-1.8-.2-2.7,0-.8.3-1.8,1.3-1.9s.9.7.6,1.3c-.6,1.5-.7,3.1-.1,4.7Z"/>
      </g>
      <path class="st5" d="M24.5,28.3c-2.5,2.8-6.9,3-9.7.4-2.9-2.6-3.1-6.9-.6-9.7"/>
    </g>
    <path d="M12.9,17.7c4.4,3.9,9.5,7.4,13.1,11.9-4.6-3.3-9.2-8-13.1-11.9h0Z"/>
    <path d="M14.2,21.5c0,0-.2,0-.3.1s-.1.2,0,.3c0,.2.3.2.5.2.3,0,.6-.1.9-.3-.3-.1-.6-.3-1-.3Z"/>
    <path d="M14.4,24.3c0,0-.2,0-.3.2s0,.2,0,.3c0,.2.3.2.5.1.3,0,.6-.2.8-.5-.4,0-.6-.2-1,0Z"/>
    <path d="M21.8,28.5c0,.1,0,.2,0,.3s-.2.1-.3.1c-.2,0-.3-.3-.3-.4,0-.3,0-.6.3-.9.2.3.4.5.3.9Z"/>
    <path d="M19,28.7c0,0,0,.2-.1.3s-.2.1-.3,0c-.2,0-.2-.3-.2-.5,0-.3.2-.6.4-.8.1.3.3.6.2,1Z"/>
    <path d="M15.8,27c0,0-.1.2-.1.3s0,.2,0,.3c.2.1.4,0,.5-.1.2-.2.4-.5.4-.8-.3.1-.6.1-.9.4Z"/>
  </g>
  <g>
    <g>
      <g>
        <path class="st21" d="M48.4,24.4c2,3.8.6,8.5-3.2,10.5s-8.5.6-10.5-3.2,13.5-7.5,13.7-7.3Z"/>
        <path d="M48.8,24.2c4.6,9.7-8.9,16.8-14.2,7.5,0-.1,0-.2.1-.3,0,0,.3-.2.4-.3,4.3-2.4,9.2-5,13.7-7h0ZM48.4,24.4c-1.3.5-3.2,1.6-4.4,2.2-2.7,1.5-6.4,3.4-8.9,5,0,0-.1,0-.1,0,0,0,0,0,0,0,0,0,0,0,0,0,0,0,0,0,0-.1,0,0,0,0,0,0,5,8.5,17.5,1.8,13.1-7,0,0,.4-.2.4-.2h0Z"/>
      </g>
      <g>
        <path class="st19" d="M47.1,25.2c1.6,3,.4,6.6-2.6,8.3s-6.6.6-8.1-2.4"/>
        <g class="st16">
          <path class="st15" d="M41.5,33.3c1.8,0,3.7-1,4.8-2.5,1.1-1.5,1.4-3.5.7-5.1.5.2.8.6.9,1.1s0,1,0,1.5c-.2,1.1-.4,2.2-.9,3.3s-1.3,2-2.4,2.5c-1.5.7-3.2.4-4.8,0-.8-.2-1.6-.3-2.3-.6-.6-.3-1.4-.8-1.2-1.6s.9-.5,1.3-.1c1,.9,2.4,1.5,3.9,1.5Z"/>
        </g>
        <path class="st3" d="M47.1,25.2c1.6,3,.4,6.6-2.6,8.3s-6.6.6-8.1-2.4"/>
      </g>
      <path class="st15" d="M34.7,31.6c4.6-2.5,9.1-5.7,13.9-7.4-4.3,2.9-9.3,5.2-13.9,7.4h0Z"/>
    </g>
    <g>
      <line class="st19" x1="41.2" y1="28.7" x2="38.8" y2="33"/>
      <path class="st15" d="M41.3,28.7l-2.1,4.5c-.3.5-1.1.2-.8-.4,0,0,2.7-4.2,2.7-4.2,0-.2.3,0,.3.1h0Z"/>
    </g>
    <g>
      <line class="st19" x1="41.5" y1="28.6" x2="43.9" y2="33.4"/>
      <path class="st15" d="M41.7,28.5l2.7,4.7c.3.5-.5.9-.8.4,0,0-2.1-4.9-2.1-5,0-.2.2-.3.2-.1h0Z"/>
    </g>
    <g>
      <line class="st19" x1="41.8" y1="28.3" x2="47.1" y2="29"/>
      <path class="st15" d="M41.8,28.2l5.4.3c.6,0,.5,1-.1.9,0,0-5.3-1-5.3-1-.1,0-.1-.2,0-.2h0Z"/>
    </g>
    <path class="st15" d="M39.7,28.9l3.5-1.7s.4,1.8-.8,2.4-2.1.2-2.7-.7Z"/>
    <path d="M38.6,32.6c.5-1.2,1.2-2.2,2.1-3-.5,1.2-1.2,2.2-2.1,3h0Z"/>
    <path d="M44,32.9c-.6-1.1-1-2.1-1.3-3.3.9.8,1.4,2,1.3,3.3h0Z"/>
    <path d="M47,28.6c-1.2-.3-2.3-.5-3.5-.8,1.2-.4,2.6,0,3.5.8h0Z"/>
  </g>
  <g>
    <g>
      <path class="st9" d="M41,13.4c0,0,.6,1,.6,1.1-1.6-.5-3.3-.3-4.7.6l.9.5c-1.8.2-3.6,1-4.7,2.6,0,0,.5-.1.6-.1.6,0,.3.5.1.8-.2.4-.5.7-.8,1-.3.4-.6.8-.9,1.3-.5.9-.9,1.9-1.1,2.9.3-.7.8-1.1,1.4-1.1-.2.3-.2.7-.1,1.1,1-1.3,3.1-1.6,4.3-.5l-.5.4c1.2.4,2.5,0,3.4-1l-.3,1.1c1.3,0,2.6-.6,3.4-1.7l.3,1.1c1-.2,2.5-3.3,2.6-4.3s.9-2.7.5-3.7c-.4-.9-1.2-.6-2.1-.9s-2.4-1-3.2-.9Z"/>
      <path class="st14" d="M41.1,13.5c.2.3.4.6.6,1,0,0,0,.2-.1.2-1.5-.5-3.3-.3-4.6.5h0c0-.1.9.3.9.3,0,0,0,.1,0,.2-1.8.3-3.5,1.1-4.6,2.5,0,0-.1-.1-.1-.1.2-.2.3-.1.5-.2,1.6,0-.7,2.1-.9,2.6-.7,1-1.2,2.2-1.4,3.4,0,0-.2,0-.2,0,.3-.6.8-1.1,1.4-1.2,0,0,0,0,.1,0-.1.3-.2.7-.1,1.1,0,0-.2,0-.2,0,.7-1,2.2-1.6,3.4-1.2.4.2.8.4,1.1.7,0,0,0,0,0,.1-.2.2-.3.3-.5.5,0,0,0-.2,0-.2,1.2.3,2.4-.1,3.3-1,0,0,.1,0,.1,0,0,.4-.2.8-.2,1.2,0,0-.1-.2-.1-.2,1.2-.2,2.5-.6,3.3-1.7,0,0,0,0,.1,0,.2.4.2.8.4,1.2,0,0-.1,0-.1,0,1-.5,1.6-1.9,2-2.9.5-1.1.5-2.4.9-3.5.1-.6.2-1.2,0-1.6-.2-.4-.8-.4-1.5-.5-1.1-.3-2-.8-3-1.1-.1,0-.3,0-.3-.1h0ZM40.9,13.4c1.3-.2,2.5.7,3.7.9.6,0,1.5,0,1.8.7.6,1.3-.1,2.5-.4,3.8-.2,1.2-.8,2.4-1.5,3.4-.4.5-.7,1.1-1.4,1.3,0,0-.1,0-.1,0-.1-.4-.2-.8-.3-1.1h.2c-.7,1.2-2.1,2.1-3.5,1.8,0,0-.1,0,0-.2.1-.4.2-.7.3-1.1h.2c-.4.6-1,1-1.6,1.2-.6.2-1.3.2-1.9,0,0,0,0,0,0-.1.1-.2.4-.3.5-.5,0,0,0,.1,0,.1-1.2-.9-3.2-.7-4.2.5-.4.2-.2-1,0-1.2,0,0,0,.1,0,.1-.6,0-1,.5-1.3,1,0,0-.2,0-.2,0,.3-1.9,1.3-3.6,2.5-5,.1-.2.4-.6.3-.7,0-.1-.6,0-.8,0,0,0-.2,0-.1-.1,1-1.6,2.9-2.5,4.7-2.6,0,0,0,.2,0,.2,0,0-.9-.5-.9-.5,0,0,0,0,0-.1,1.4-.9,3.2-1.2,4.8-.6,0,0-.1.2-.1.2-.2-.4-.4-.8-.6-1.2h0Z"/>
    </g>
    <path class="st14" d="M32,22.4c4.1-3.3,8.8-6.2,14-6.9-4.9,1.7-9.9,3.9-14,6.9h0Z"/>
    <path class="st14" d="M39.2,15.3c1-.1,2.6,0,3.1,1.1-.6-.1-1-.4-1.5-.6-.5-.2-1-.3-1.6-.4,0,0,0,0,0,0h0Z"/>
    <path class="st14" d="M35.6,17.6c.9-.3,2.3-.4,2.9.4-1.1-.3-1.8-.6-2.9-.4h0Z"/>
    <path class="st14" d="M40.9,17.6c0,1.7-.8,3.3-2,4.4,1.1-1.2,1.6-2.8,1.5-4.4,0-.3.5-.3.5,0h0Z"/>
    <path class="st14" d="M36.8,19.4c-.2.8-.7,1.4-1.3,1.8.5-.5.8-1.2.9-1.9,0-.3.6-.2.5,0h0Z"/>
    <path class="st14" d="M44.6,16c.4,1.7,0,3.5-1.1,4.9.9-1.4,1.1-3.2.6-4.8-.1-.3.4-.4.5-.1h0Z"/>
  </g>
  <g>
    <g>
      <g>
        <circle class="st20" cx="25" cy="16.7" r="4.5"/>
        <path class="st14" d="M24.8,21.2c-6.5-.5-5.7-9,.4-9.2,6.4.3,6.1,9.5-.4,9.2h0ZM24.8,21.1c5.5,0,5.9-8.2.4-8.8-5.7-.4-5.8,8.3-.4,8.8h0Z"/>
      </g>
      <path class="st14" d="M21.5,15.7c-.8,2.5,1.6,4.8,4,5.2-2.5.2-5.4-2.7-4-5.2h0Z"/>
      <path class="st14" d="M23.5,15.3c.9.3,2.4-.5,2.3-1.5-.4-1-2.1-.6-2.8,0-.8.5-.3,1.4.5,1.5h0ZM23.5,15.4c-.9-.2-1.3-1.1-.5-1.8.7-.7,2.6-1.1,3.1,0,.2,1.2-1.5,2-2.6,1.7h0Z"/>
      <path class="st14" d="M25.2,13.1c.4.1,1.1.6.7,1.1-.4.3-.9,1.1-1.5,1-.1,0-.2-.2-.3-.2-.2,0-.4,0-.7,0-.2,0-.4-.3-.5-.5-.2-.2-.2-.5,0-.7.1,0,0,.1,0,.3,0,.3.3.6.6.7.2.1.4,0,.7,0,.2,0,.4.2.6,0,.7-.6,1.9-1.2.4-1.8,0,0,0,0,0,0h0Z"/>
      <path class="st14" d="M22.7,14.1c-.2,0-.2-.4,0-.5.7-.7,1.6-1,2.5-.9.4,0,.9.4.8.8,0,0-.2,0-.2,0,0-.3-.2-.6-.6-.6-.9,0-1.8.2-2.5.8-.1.1-.2.4,0,.4,0,0,0,0,0,0h0Z"/>
      <ellipse class="st14" cx="24.4" cy="13.9" rx=".4" ry=".2" transform="translate(-.4 .8) rotate(-1.9)"/>
    </g>
    <g>
      <g>
        <path class="st0" d="M24.1,11.8c-.2-.7-.8-1.3-1.4-1.7s-1.4-.6-2.1-.8c-.2.6-.4,1.2-.3,1.8.1.8.7,1.5,1.4,1.9.3.2.7.4,1,.5s.9.4,1.1.3c.5-.1.4-1.7.2-2.1Z"/>
        <path class="st14" d="M24.1,11.8c-.5-1.5-2.2-2-3.5-2.4,0,0,0,0,0,0-.3.7-.4,1.4-.2,2.1.3,1,1.5,1.6,2.4,2,.3.1.7.3,1,.3.4-.5.3-1.4.3-2h0ZM24.1,11.8c.1.5.2,1.1,0,1.7,0,.2,0,.4-.3.5-.5,0-.8-.2-1.1-.3-1-.4-2.1-1-2.4-2.2-.2-.8,0-1.5.2-2.2,1.4.2,3.1.9,3.6,2.5h0Z"/>
      </g>
      <path class="st14" d="M23.8,14c0-2-1.7-3.3-3.2-4.5,1.6.8,3.5,2.4,3.2,4.5h0Z"/>
      <path class="st14" d="M23.3,12.1c.2-.3.3-.6.3-.9,0,.3,0,.7-.1,1h-.2Z"/>
      <path class="st14" d="M23.1,11.7c-.9.2-1.7,0-2.5-.2.8.2,1.7.3,2.5,0v.2h0Z"/>
      <path class="st14" d="M23.7,12.9c-.8.2-1.7,0-2.4-.2.8.2,1.6.3,2.4,0v.2h0Z"/>
      <polygon class="st14" points="22.5 11.2 22.7 10.4 22.8 11.2 22.5 11.2 22.5 11.2"/>
      <path class="st14" d="M22.1,10.7c-.6.2-1.2.1-1.8,0,.6,0,1.2,0,1.7-.2v.2h0Z"/>
    </g>
  </g>
  <g>
    <g>
      <path class="st13" d="M31,37.9c1.6.8,2.5,2.6,2.7,4.3.3,1.8-1,3.7-2.4,4.8-1.2.9-2.6,1.4-4.1,1.6s-1.5,0-2.2,0-1.7,0-2.4-.5c-.9-.8-1.5-1.9-2-3-.5-1.1-.8-2.2-.7-3.4s.5-2.6,1.2-3.6c.5-.8,1.3-1.4,2.3-1.6,1.5-.3,2.6.8,4,1,1,.2,2.1,0,3.2.3.1,0,.3.1.4.2Z"/>
      <g class="st17">
        <path class="st10" d="M27.3,40.8c-.5.7-1,1.4-1.2,2.3s0,1.9.5,2.6c.6.7,1.5.9,2.3.7s1.5-.7,2.1-1.4c.8-.8,1.4-1.9,1.5-3.1,0-1.1-.7-2.8-1.8-3.2s-2.7,1-3.4,2Z"/>
      </g>
      <path class="st12" d="M31,37.9c1.6.8,2.5,2.6,2.7,4.3.3,1.8-1,3.7-2.4,4.8-1.2.9-2.6,1.4-4.1,1.6s-1.5,0-2.2,0-1.7,0-2.4-.5c-.9-.8-1.5-1.9-2-3-.5-1.1-.8-2.2-.7-3.4s.5-2.6,1.2-3.6c.5-.8,1.3-1.4,2.3-1.6,1.5-.3,2.6.8,4,1,1,.2,2.1,0,3.2.3.1,0,.3.1.4.2Z"/>
    </g>
    <path class="st6" d="M28.3,37.8c-3.3-.6-6.6,2.1-6.7,5.5,0,0,0,0,0,0,0-3.5,3.4-6.5,6.8-5.9,0,0,0,.5,0,.5h0Z"/>
    <path class="st6" d="M22.9,48.5c-1-1.3-1.5-2.9-1.4-4.5,0,1.6.7,3.1,1.7,4.1l-.4.3h0Z"/>
    <g>
      <path class="st7" d="M27.6,34.9c1.1-1.1,3.1-.6,4.3-1.5.2-.1.3-.3.5-.3s.4,0,.6.1c0,0,0,.2,0,.3.1,1.4-.9,2.8-2.2,3.4-1,.4-2.4.7-3.4.3s-.6-1.8,0-2.4Z"/>
      <path class="st6" d="M27.4,34.8c1.5-1.2,3.4-.4,5-1.7,1.4-.3.7,2.1.2,2.6-1.3,2.7-8.6,3-5.2-1h0ZM27.7,35.1c-2.2,3.2,3.8,2.3,4.6.4.4-.4,1.3-2.7,0-2.4-1.3,1.3-3.4.8-4.7,1.9h0Z"/>
    </g>
    <path class="st6" d="M27.2,36.9c.6-1.1,1.9-1.7,3-1.5v.2c-1.1-.1-2.2.6-2.6,1.5l-.4-.2h0Z"/>
  </g>
  <g>
    <path class="st14" d="M27,11.3c1.9-.9,4.4.4,4.9,2.4-1.2-1.5-3-2.4-4.9-2.4h0Z"/>
    <path class="st14" d="M27.5,10.4c1.3-.9,3.7-.5,4.1,1.2-1-1.3-2.6-1.4-4.1-1.2h0Z"/>
  </g>
  <g>
    <path class="st14" d="M32.4,49.4c-.9,1.9-3.7,2.5-5.3,1.3,1.9.4,3.8,0,5.3-1.3h0Z"/>
    <path class="st14" d="M32.5,50.4c-.5,1.5-2.6,2.8-3.9,1.6,1.6.4,2.8-.6,3.9-1.6h0Z"/>
  </g>
</svg>