<?xml version="1.0" encoding="UTF-8"?>
<svg id="Ebene_1" xmlns="http://www.w3.org/2000/svg" version="1.1" viewBox="0 0 60 60">
  <!-- Generator: Adobe Illustrator 30.2.1, SVG Export Plug-In . SVG Version: 2.1.1 Build 1)  -->
  <defs>
    <style>
      .st0 {
        fill: #c9e8fb;
      }

      .st1 {
        stroke: #1d1d1b;
        stroke-linejoin: round;
        stroke-width: 1.5px;
      }

      .st2 {
        fill: #ffd618;
      }

      .st3 {
        fill: #211f1f;
      }
    </style>
  </defs>
  <g>
    <circle class="st0" cx="30.1" cy="29.8" r="26"/>
    <path d="M56.2,29.8c.1,18.9-18.5,32.5-36.2,24.5C-1.3,44.6-2.2,14.4,19.8,4.9c17.8-7.5,36.6,6,36.4,24.9h0ZM56,29.8C55.8,7.7,28.1-3.3,12.4,12.1-3.7,28.2,7,55.4,30.1,55c13.4,0,26.1-11.4,25.9-25.1h0Z"/>
  </g>
  <g>
    <g>
      <path d="M47.1,41.1c0,0-.2,0-.2,0l-6.6-4.1c-.2-.1-.3-.4-.2-.6,0-.2.2-.3.4-.3s.1,0,.2,0l7.7,3c.1,0,.3.2.3.3,0,.2,0,.3-.1.4l-1.1,1.1c0,0-.2.1-.3.1Z"/>
      <path class="st3" d="M40.5,36.6l7.7,3-1.1,1.1-6.6-4.1M40.5,35.7c-.3,0-.7.2-.8.5-.2.4,0,1,.3,1.2l6.6,4.1c.2,0,.3.1.5.1s.5,0,.7-.3l1.1-1.1c.2-.2.3-.5.3-.9,0-.3-.3-.6-.6-.7l-7.7-3c-.1,0-.2,0-.3,0h0Z"/>
    </g>
    <polygon class="st2" points="40.6 36.4 47.2 40.5 48.3 39.4 40.6 36.4"/>
  </g>
  <g>
    <g>
      <path d="M12,41.1c-.1,0-.2,0-.3-.1l-1.1-1.1c-.1-.1-.2-.3-.1-.4,0-.2.1-.3.3-.4l7.6-3.2c0,0,.1,0,.2,0,.2,0,.3,0,.4.2.1.2,0,.5-.2.6l-6.5,4.2c0,0-.2,0-.3,0Z"/>
      <path class="st3" d="M18.4,36.4l-6.5,4.2-1.1-1.1,7.6-3.2M18.4,35.5c-.1,0-.2,0-.4,0l-7.6,3.2c-.3.1-.5.4-.6.7,0,.3,0,.6.3.9l1.1,1.1c.2.2.4.2.6.2s.4,0,.5-.2l6.5-4.2c.4-.3.5-.8.3-1.2-.2-.3-.5-.5-.8-.5h0ZM18.4,37.3h0,0Z"/>
    </g>
    <polygon class="st2" points="18.3 36.2 11.8 40.5 10.6 39.4 18.3 36.2"/>
  </g>
  <g>
    <g>
      <path d="M18.3,24.5c0,0-.1,0-.2,0l-6.9-3.6c-.2,0-.3-.3-.2-.5l.4-1.5c0-.2.2-.3.3-.3,0,0,.1,0,.2,0,.1,0,.2,0,.3,0l6.5,5.1c.2.1.2.4.1.6,0,.1-.2.2-.4.2Z"/>
      <path class="st3" d="M11.8,18.9l6.5,5.1-6.9-3.6.4-1.5M11.8,18c-.1,0-.2,0-.3,0-.3.1-.5.4-.6.7l-.4,1.5c0,.4,0,.9.5,1l6.9,3.6c.1,0,.3.1.4.1.3,0,.6-.2.8-.4.3-.4.2-.9-.2-1.2l-6.5-5.1c-.2-.1-.4-.2-.6-.2h0Z"/>
    </g>
    <polygon class="st2" points="18.4 23.8 11.5 20.2 11.9 18.7 18.4 23.8"/>
  </g>
  <g>
    <g>
      <path d="M42.4,24.5c-.2,0-.3,0-.4-.2-.1-.2,0-.5.1-.6l6.5-5.1c0,0,.2,0,.3,0s.1,0,.2,0c.2,0,.3.2.3.3l.4,1.5c0,.2,0,.4-.2.5l-6.9,3.6c0,0-.1,0-.2,0Z"/>
      <path class="st3" d="M48.9,18.9l.4,1.5-6.9,3.6,6.5-5.1M48.9,18c-.2,0-.4,0-.6.2l-6.5,5.1c-.4.3-.5.8-.2,1.2.2.3.5.4.8.4s.3,0,.4-.1l6.9-3.6c.4-.2.6-.6.5-1l-.4-1.5c0-.3-.3-.6-.6-.7-.1,0-.2,0-.3,0h0Z"/>
    </g>
    <polygon class="st2" points="42.3 23.8 49.1 20.2 48.8 18.7 42.3 23.8"/>
  </g>
  <g>
    <polygon class="st1" points="37.1 15.2 20.7 32.9 28.9 32.8 25.7 43.9 38.3 28.2 32 28 37.1 15.2"/>
    <g>
      <polygon class="st2" points="36.5 14.7 20.1 32.4 28.3 32.4 25.1 43.5 37.7 27.8 31.4 27.6 36.5 14.7"/>
      <path d="M36.5,14.8c-5.6,6.2-10.2,12.2-15.9,18.1,0,0-.5-1.1-.5-1.1,2.4,0,5.8.2,8.2.2.2,0,.4.2.3.4-1.3,3.6-2.2,7.4-3.1,11.1,0,0-.7-.4-.7-.4,4-5.4,8.1-10.7,12.3-15.9,0,0,.6,1.3.6,1.3-2.1-.1-4.2-.3-6.4-.4-.3,0-.6-.3-.6-.7,1.7-4.3,3.9-8.3,5.7-12.7h0ZM36.5,14.7c-1.6,4.2-2.9,8.8-4.6,13.1,0,0-.5-.8-.5-.8,2.1,0,4.2,0,6.4,0,.4,0,.8.4.8.8,0,.2,0,.3-.2.5-3.1,4-6.3,7.8-9.6,11.6-1.1,1.3-2.2,2.5-3.3,3.8-.1.2-.4.2-.6,0-.1-.1-.2-.3-.1-.4,1.2-3.6,2.4-7.3,3.2-11.1,0,0,.3.4.3.4l-4.1.2c-1.4,0-2.7.1-4.1.2-.3,0-.6-.3-.6-.6,0-.2,0-.3.2-.4,5.2-6,11.5-11.7,16.9-17.3h0Z"/>
    </g>
  </g>
</svg>