<?xml version="1.0" encoding="UTF-8"?>
<svg id="Ebene_1" xmlns="http://www.w3.org/2000/svg" version="1.1" viewBox="0 0 60 60">
  <!-- Generator: Adobe Illustrator 30.2.1, SVG Export Plug-In . SVG Version: 2.1.1 Build 1)  -->
  <defs>
    <style>
      .st0 {
        fill: #c9e8fb;
      }

      .st1 {
        fill: #1d1d1b;
      }

      .st2 {
        fill: #1d1d1b;
      }

      .st3 {
        fill: #f7d1ca;
      }
    </style>
  </defs>
  <g>
    <circle class="st0" cx="30.1" cy="29.8" r="26"/>
    <path d="M56.2,29.8c.1,18.9-18.5,32.5-36.2,24.5C-1.3,44.6-2.2,14.4,19.8,4.9c17.8-7.5,36.6,6,36.4,24.9h0ZM56,29.8C55.8,7.7,28.1-3.3,12.4,12.1-3.7,28.2,7,55.4,30.1,55c13.4,0,26.1-11.4,25.9-25.1h0Z"/>
  </g>
  <g>
    <g>
      <path class="st3" d="M16.1,22.1c.4,3.6,6.1,6.8,13.5,7.3,8.7.5,13.7-1.5,13.2-6.2-.4-4.7-7.8-8.3-14.8-8.6-7.4.6-12.4,3.9-11.9,7.5Z"/>
      <path class="st3" d="M15.8,24.3c3.4,8,5.4,3.1,12.8,4.3,5.3.9,14,2.2,13.4-3.3s-6.4-11-15.1-10.4c-7.4.5-12.9,5.5-11.2,9.4Z"/>
      <path class="st1" d="M18.4,17.7c-2.2,1.3-2.8,5-1.9,7.4,1,2.5,4.1,4.7,6.8,3.6.3-.2.6.4.2.5-3.1,1.4-6.6-.9-7.9-3.7-.7-1.5-.7-3.2-.4-4.8.4-1.6,1.1-3.3,2.6-4.2.3-.2.8,0,.9.2.2.3,0,.8-.3,1h0Z"/>
      <path class="st2" d="M23.7,27.7c-.4-.9-1.1-1.8-2-2.2-.8-.4-1.8-.5-2.4.1-.6.5-.7,1.7-.1,2.5.4.7,1.2,1,1.8,1.1s1.3,0,2-.2c.3,0,.7-.2.8-.4s0-.8-.3-.9h.2Z"/>
      <g>
        <path class="st3" d="M39.4,17.5c4.3,1.6,8.2,3.7,7.6,8.4-.5,3.8-6.5,6.8-10.3,4.8"/>
        <path class="st1" d="M39.7,16.7c3,1,6.8,2.6,8,6,1.4,3.7-1.1,7.5-4.6,8.6-2.1.8-4.6.9-6.5-.4,0,0,0-.2,0-.3,0,0,.1,0,.2,0,1,.4,2,.5,2.9.3,2.6-.3,5.8-2.4,6.2-4.9.7-4.2-3.7-6.2-7-7.6-1-.5-.4-2.1.7-1.7h0Z"/>
      </g>
      <path class="st2" d="M32.2,28.8c.4-1.1,1.3-2.2,2.7-2.7,1.3-.5,3.2-.4,4.5.4s2,2.5,1.2,3.6c-.6.8-1.9,1.2-3.2,1.2-1.2,0-2.4-.4-3.6-.7-.6-.2-1.1-.4-1.5-.8s-.3-1.1.2-1.2h-.3Z"/>
      <g>
        <path class="st3" d="M41.1,20.9c-2.8-2-5.8-8.7-12.3-8.7-5.2,0-8.6,3.9-8.1,8"/>
        <path class="st1" d="M41,21.1c-2.9-2.2-4.6-5.4-7.8-7.1-2.9-1.7-6.8-1.5-9.5.5-1.8,1.3-2.9,3.5-2.7,5.7,0,.2-.1.4-.3.4-.2,0-.4-.1-.4-.3-.4-2.5.8-5.2,2.8-6.7,4.2-3.3,10.3-2,13.5,1.8,1.7,1.7,2.9,3.8,4.7,5.3.3.2,0,.6-.3.4h0Z"/>
      </g>
    </g>
    <g>
      <path class="st3" d="M22.7,25.8c.1,1.1.9,5.5,6.5,4.7,2-.3,3.4-2,3.9-2.7"/>
      <path class="st1" d="M23,25.8c.7,5.3,7.1,5.6,10,1.8.2-.3.6,0,.4.3-2.7,4.8-10.7,4-10.9-2.1,0-.3.5-.4.5,0h0Z"/>
    </g>
  </g>
  <path d="M38.9,28.8c-1.2,4.5,1.5,9.6,5.9,11.3,1.5.6,3.2.8,4.7.3-1.5.7-3.3.6-4.9.2-5.1-1.4-8.6-6.8-7.7-12.1,0,0,2,.4,2,.4h0Z"/>
  <path d="M22.1,26.5c-.1,2.9-1.9,5.5-4.3,6.7-2.2,1.3-5.7,1.2-7-1.3.7,1.1,2,1.6,3.2,1.6,3.5,0,6.5-3.7,6.2-7,0,0,2,0,2,0h0Z"/>
  <path d="M11.3,32.6c1.9-4.4-2.2-8.6-6.8-6.5,3-2.2,8-.4,8.7,3.5.3,1.3.3,2.6-.1,3.9,0,0-1.8-.8-1.8-.8h0Z"/>
  <path d="M30.1,47c4.8-4.8,14.2-3.2,16.1,3.5-2.4-5.8-10.9-6.8-14.7-2.1,0,0-1.5-1.4-1.5-1.4h0Z"/>
  <path d="M41.6,39c1.9-6.1,10-7.7,13.7-2.6-3.8-4.1-10.7-2.3-11.7,3.1,0,0-1.9-.5-1.9-.5h0Z"/>
  <path d="M35.5,29.7c-2.1,6.2-5.6,11.8-10.4,16.2,2.1-2.4,3.9-5.1,5.3-7.9,1.4-2.8,2.5-5.8,3.2-8.9l1.9.5h0Z"/>
  <path d="M24.2,28.5c-.1,4.7,1.5,9.5,4.6,13.3-3.6-3.4-5.9-8.1-6.3-13.2h1.7Z"/>
  <path d="M21.9,30.6c0,3.5-2.2,7.5-5.9,8.2,3.3-1.6,4.9-4.9,5.9-8.2h0Z"/>
  <path d="M35.6,32.5c0,3.8.3,8.6,4.3,10.3-4.4-1-5.1-6.6-4.3-10.3h0Z"/>
  <path d="M20.2,49.1c2.8-3.9,10.1-4.4,12.5.1-3.4-3.3-8.8-2.6-12.5-.1h0Z"/>
  <path d="M5.9,38.8c7.1-4.4,16.3.8,15.9,9-.3-7.5-8.8-11.9-14.8-7.4,0,0-1.1-1.7-1.1-1.7h0Z"/>
</svg>