<?xml version="1.0" encoding="UTF-8"?>
<svg xmlns="http://www.w3.org/2000/svg" viewBox="0 0 195.84 233.77">
  <defs>
    <style>
      .cls-1 {
        fill: #1d1d1b;
      }

      .cls-2 {
        fill: #ffd618;
      }

      .cls-3 {
        fill: #fff;
        stroke: #1d1d1b;
        stroke-miterlimit: 10;
        stroke-width: 5px;
      }
    </style>
  </defs>
  <g id="menü">
    <circle class="cls-3" cx="97.07" cy="116.88" r="61.57"/>
  </g>
  <g id="Ebene_6" data-name="Ebene 6">
    <g>
      <g>
        <path class="cls-2" d="M97.07,163.33c-.21,0-.41-.06-.58-.19-2.45-1.84-5.03-3.52-7.54-5.15-6.95-4.52-13.51-8.78-17.32-16.21-10.66-20.77-9.75-48.93-9.74-49.21.02-.52.45-.93.97-.93,0,0,.58,0,.86,0,23.31,0,32.56-9.18,32.65-9.28.18-.19.43-.29.69-.29h0c.26,0,.51.11.69.29.09.09,9.34,9.28,32.65,9.28.28,0,.86,0,.86,0,.52,0,.95.41.97.93.01.28.93,28.44-9.74,49.21-3.81,7.43-10.38,11.69-17.32,16.21-2.5,1.63-5.09,3.31-7.54,5.15-.17.13-.38.19-.58.19Z"/>
        <path class="cls-1" d="M97.07,163.5c-.57.04-1.28-.69-1.75-.94-7.74-5.64-17.04-9.51-22.9-17.4-8.62-13.01-10.9-29.18-11.31-44.47-.04-2.73-.04-5.47.12-8.21.03-.27.12-.53.27-.75.29-.45.82-.73,1.34-.72,1.91.02,3.79.05,5.7-.05,9.62-.57,19.9-2.75,27.28-9.29,1.83-1.56,3.23.91,4.92,1.7,7.47,4.48,16.3,6.09,24.92,6.57,1.9.09,3.73.09,5.65.08,1.56,0,2.72,1.43,2.59,2.95.25,16.95-2.55,37.89-12.14,52.21-5.54,7.47-14.02,11.14-21.35,16.32,0,0-1.58,1.06-1.58,1.06-.44.24-1.18.97-1.75.94h0ZM97.07,163.16c.37.06,1.18-.71,1.53-.9,0,0,1.57-1.09,1.57-1.09,7-5.07,15.22-9.73,19.78-17.22,1.77-2.92,3.27-6.99,4.4-10.22,4.39-13.18,6.16-27.21,6.26-41.08.02.33.33.61.66.6-.59,0-1.27-.02-1.91-.04-11.28-.34-23.54-2.49-32.27-10.2,0-.04-.06-.05-.09-.03-.8.72-1.69,1.34-2.59,1.91-9.44,5.69-20.74,7.13-31.56,7.38-.16,0-.3.15-.3.31v.44c.16,7.56,1.04,15.15,2.45,22.56,1.91,9.75,4.35,19.69,9.14,28.41,4.99,8,13.88,12.82,21.39,18.28.32.16,1.14.94,1.54.9h0Z"/>
      </g>
      <g>
        <path class="cls-2" d="M97.07,83.04s9.26,9.57,33.35,9.57c.29,0,.58,0,.86,0,0,0,1.04,27.95-9.63,48.73-5.08,9.89-15.51,14.2-24.58,21.02-9.07-6.83-19.5-11.13-24.58-21.02-10.67-20.79-9.63-48.73-9.63-48.73.29,0,.58,0,.86,0,24.08,0,33.35-9.57,33.35-9.57"/>
        <path class="cls-1" d="M97.19,82.92c9.7,7.11,22.39,8.37,34.08,8.29,0,0,1.37-.04,1.37-.04l.04,1.38c.4,14.01-1.7,28.02-6.81,41.07-1.37,3.22-2.76,6.39-4.55,9.43-1.82,3.03-4.31,5.57-6.93,7.86-5.49,4.57-11.75,8.11-17.28,12.58,0,0-.58-.41-.58-.41-8.33-5.88-18.96-10.23-24.57-19.51-5.26-9.28-8.01-19.61-9.48-30.08-1-7.42-1.37-14.87-1.02-22.4,9.36.35,18.93-.38,27.71-3.83,2.74-1.13,5.48-2.46,7.78-4.35,0,0,.24.23.24.23-4.38,4.34-10.27,6.81-16.13,8.46-5.92,1.68-12.08,2.32-18.22,2.45l1.47-1.4c0,6.76.62,13.64,1.61,20.34,1.61,9.99,3.94,20.04,8.73,28.96,5.29,8.88,15.01,13.18,22.96,19.67,0,0-1.09,0-1.09,0,8.36-5.99,18.49-10.03,23.84-19.15,4.82-9.06,6.83-19.35,8.17-29.44.81-6.74,1.43-13.62,1.35-20.39l1.41,1.34c-9.92-.14-20.15-1.68-28.87-6.67-1.97-1.19-3.89-2.48-5.48-4.17l.24-.23h0Z"/>
      </g>
    </g>
  </g>
</svg>