<?xml version="1.0" encoding="UTF-8"?>
<svg id="Ebene_1" xmlns="http://www.w3.org/2000/svg" version="1.1" viewBox="0 0 1920 260.9">
  <!-- Generator: Adobe Illustrator 30.2.1, SVG Export Plug-In . SVG Version: 2.1.1 Build 1)  -->
  <defs>
    <style>
      .st0 {
        stroke: #1d1d1b;
        stroke-linejoin: round;
        stroke-width: 2px;
      }

      .st1 {
        fill: #c9e8fb;
      }

      .st2 {
        fill: #1d1e1c;
      }

      .st3 {
        fill: #1d1d1b;
      }

      .st4 {
        fill: #1d1d1b;
      }

      .st5 {
        fill: #1c1f24;
      }

      .st6 {
        fill: #ffd618;
      }

      .st7 {
        fill: #fff;
      }

      .st8 {
        fill: #f9d3cc;
      }

      .st9 {
        fill: #211f1f;
      }

      .st10 {
        fill: #c8e7fa;
      }
    </style>
  </defs>
  <rect class="st1" x="-19.2" width="1895.4" height="228.5"/>
  <g>
    <g>
      <path class="st6" d="M990.5,75c-22.2,9.5-26.6,16.2-12.8,31.4-26.7-6.1-35.3-3.7-38.1,16.5-15.3-22.1-23.2-26.2-45.1-20.2,11.1-17.5,8.2-25-11.5-41.5,21.3.8,25.7-6,23.3-32.5,15.3,17.4,23.9,15.1,40.8-6.4,1.2,23.3,9.1,27.3,32.5,20.4-12.6,18.4-9.7,26,10.9,32.2Z"/>
      <path d="M990.6,75.2c-.8.4-1.7.8-2.5,1.2-.8.4-1.7.8-2.5,1.2-.8.4-1.6.8-2.5,1.3-.8.4-1.6.9-2.4,1.3-.4.2-.8.5-1.2.7-.4.2-.8.5-1.2.7-.8.5-1.5,1-2.2,1.6-.7.6-1.4,1.1-2.1,1.8-.3.3-.6.6-.9,1-.1.2-.3.3-.4.5l-.4.5c-.5.7-1,1.5-1.3,2.3-.2.4-.2.8-.4,1.3,0,.4-.1.9-.1,1.3,0,.4,0,.9,0,1.3,0,.4.1.9.3,1.3l.2.6.2.6c.1.4.4.8.5,1.2.2.4.4.8.6,1.2.2.4.5.8.7,1.2l.8,1.1c.3.4.5.7.8,1.1.6.7,1.1,1.4,1.7,2.1.6.7,1.2,1.4,1.8,2.1l2,2.2-2.8-.6c-2-.4-4-.9-6-1.2-1-.2-2-.4-3-.5-1-.2-2-.3-3-.4-1-.1-2-.2-3-.3h-1.5c0-.1-1.5-.2-1.5-.2-1,0-2,0-3,0-.5,0-1,0-1.5.1-.5,0-1,.1-1.5.2-1,.2-1.9.4-2.8.7-.9.3-1.8.8-2.6,1.3-.8.5-1.5,1.2-2.2,1.9l-.5.6-.2.3-.2.3-.4.6-.4.6c-.3.4-.5.9-.7,1.3-.2.5-.4.9-.6,1.4-.4,1-.7,2-1,3-.3,1-.5,2-.7,3.1-.2,1-.4,2.1-.5,3.1l-.4,2.6-1.4-2.1c-.7-.9-1.3-1.9-2-2.8l-2-2.8c-.7-.9-1.4-1.9-2.1-2.8-.3-.5-.7-.9-1.1-1.3-.4-.4-.7-.9-1.1-1.3-1.5-1.7-3-3.4-4.7-4.9-.4-.4-.8-.8-1.3-1.1l-.6-.5-.7-.5c-.9-.7-1.8-1.3-2.8-1.8-1-.5-2-1-3-1.4l-.8-.3-.8-.2c-.5-.2-1.1-.3-1.6-.4-.5-.1-1.1-.2-1.6-.3-.5,0-1.1-.1-1.6-.2-.6,0-1.1,0-1.7,0h-.8s-.8,0-.8,0c-.6,0-1.1,0-1.7.1-.6,0-1.1.1-1.7.2-1.1.1-2.2.3-3.3.5-.6,0-1.1.2-1.7.3-.6.1-1.1.2-1.6.4-1.1.3-2.2.5-3.3.8l-.9.2.5-.9c.6-.9,1.1-1.8,1.6-2.7.3-.4.5-.9.8-1.4.3-.5.5-.9.7-1.4.2-.5.5-.9.7-1.4l.3-.7.3-.7c.2-.5.4-1,.6-1.4.2-.5.3-1,.5-1.5.2-.5.3-1,.4-1.5,0-.5.2-1,.3-1.5,0-.5.1-1,.1-1.5,0-.5,0-1,0-1.5,0-1-.2-2-.5-3-.2-1-.6-1.9-1-2.9-.4-.9-.9-1.8-1.5-2.7l-.4-.6-.4-.6c-.3-.4-.6-.8-.9-1.2-.3-.4-.6-.8-1-1.2-.3-.4-.7-.8-1-1.1-.7-.8-1.4-1.5-2.1-2.2-2.9-2.8-6-5.5-9.1-8.1l-1.6-1.3h2.1c1,0,2,0,3,0,1,0,2,0,3-.1,1,0,2-.2,2.9-.3,1-.1,1.9-.3,2.9-.5.5-.1.9-.2,1.4-.4l.7-.2c.2,0,.4-.2.7-.3.9-.4,1.7-.8,2.5-1.3.8-.5,1.5-1.2,2.1-1.9.2-.2.3-.4.4-.6l.2-.3.2-.3.4-.6.3-.6.2-.3v-.3c.1,0,.4-.7.4-.7.2-.5.3-.9.5-1.4.3-1,.5-1.9.6-2.9,0-.5.2-1,.2-1.5,0-.5.1-1,.1-1.5,0-1,.1-2,.1-3.1,0-4.1-.2-8.3-.6-12.4l-.3-3.4,2.3,2.5c.7.8,1.4,1.6,2.2,2.4.4.4.7.8,1.1,1.1.4.4.7.8,1.1,1.1.8.7,1.6,1.4,2.4,2.1.4.3.8.6,1.2,1,.4.3.8.6,1.3.9.4.3.9.6,1.3.8l.7.4c.2.1.5.2.7.3.9.4,1.8.7,2.8.9.9.2,1.9.2,2.9.2.9,0,1.9-.2,2.8-.6.9-.3,1.8-.7,2.7-1.2.9-.5,1.7-1.1,2.6-1.7.8-.6,1.6-1.3,2.4-2,.8-.7,1.6-1.4,2.3-2.2l1.1-1.2,1.1-1.2c.7-.8,1.4-1.6,2.1-2.4.7-.8,1.4-1.6,2.1-2.5.7-.8,1.4-1.7,2.1-2.5l2-2.5.2,3.2c0,1,.1,2.1.2,3.1,0,1,.2,2.1.3,3.1l.2,1.5.3,1.5c0,.5.2,1,.3,1.5.1.5.3,1,.4,1.5.1.5.3.9.5,1.4.2.5.3.9.5,1.4.2.4.4.9.6,1.3l.3.6c.1.2.3.4.4.6.2.4.6.7.8,1.1.1.2.3.3.5.5.2.2.3.3.5.5l.5.4.6.4.3.2.3.2.6.3c.4.2.8.4,1.3.5l.7.2.7.2c.9.2,1.9.3,2.8.4h1.4s1.5,0,1.5,0h1.5c0-.1,1.5-.3,1.5-.3,1-.1,2-.3,2.9-.5,1-.2,1.9-.4,2.9-.6,1-.2,1.9-.5,2.9-.7,1-.2,1.9-.5,2.9-.8l2.4-.6-1.4,2.1c-.5.8-1.1,1.5-1.6,2.3-.5.8-1,1.6-1.5,2.3-.5.8-1,1.6-1.4,2.4-.2.4-.4.8-.6,1.2-.2.4-.4.8-.6,1.2-.4.8-.7,1.7-1,2.6-.1.4-.3.9-.4,1.3,0,.2-.1.4-.2.7v.7c-.2.4-.2.9-.3,1.3,0,.2,0,.4,0,.7,0,.2,0,.4,0,.7,0,.9.2,1.8.5,2.6.3.8.7,1.6,1.2,2.3.5.7,1.1,1.4,1.8,2,.2.1.3.3.5.5l.5.4c.3.3.7.5,1.1.8.7.5,1.5,1,2.3,1.4.4.2.8.4,1.2.6.4.2.8.4,1.2.6.8.4,1.7.7,2.5,1.1.8.3,1.7.7,2.5,1,.8.3,1.7.6,2.6.9h.3c0,.1-.3.2-.3.2ZM990.1,75.1c-.8-.2-1.5-.4-2.3-.7-.9-.3-1.7-.5-2.6-.8-.9-.3-1.7-.6-2.6-1-.4-.2-.8-.3-1.3-.5-.4-.2-.8-.4-1.2-.6-.8-.4-1.6-.8-2.4-1.3-.4-.3-.8-.5-1.2-.8l-.6-.4c-.2-.1-.4-.3-.5-.5-.7-.6-1.4-1.3-2-2.1-.6-.8-1.1-1.6-1.4-2.6-.3-.9-.6-1.9-.6-2.9,0-.3,0-.5,0-.8,0-.3,0-.5,0-.8,0-.5,0-1,.2-1.5v-.7c.2-.2.2-.5.3-.7.1-.5.2-1,.4-1.4.3-.9.6-1.8,1-2.7.2-.5.4-.9.6-1.3.2-.4.4-.9.6-1.3.4-.9.9-1.7,1.4-2.5.5-.8,1-1.6,1.5-2.4.5-.8,1-1.6,1.5-2.4l1,1.4c-1,.3-1.9.6-2.9.9-1,.3-2,.5-3,.8-1,.2-2,.5-3,.7-1,.2-2,.4-3,.5l-1.5.2h-1.5c0,.1-1.6.2-1.6.2-.5,0-1,0-1.6,0-1,0-2.1-.2-3.1-.4l-.8-.2-.8-.2c-.5-.1-1-.4-1.5-.6l-.7-.4-.4-.2-.3-.2c-.2-.2-.5-.3-.7-.5l-.7-.5c-.2-.2-.4-.4-.6-.6-.2-.2-.4-.4-.6-.6-.4-.4-.7-.9-1-1.3-.2-.2-.3-.5-.5-.7l-.4-.7c-.3-.5-.5-1-.8-1.5-.2-.5-.4-1-.6-1.5-.2-.5-.4-1-.5-1.6-.1-.5-.3-1.1-.4-1.6-.1-.5-.2-1.1-.4-1.6l-.3-1.6-.2-1.6c-.1-1.1-.3-2.1-.4-3.2-.1-1.1-.2-2.1-.2-3.2l2.2.8c-.7.9-1.4,1.7-2.1,2.6-.7.9-1.4,1.7-2.1,2.6-.7.8-1.5,1.7-2.2,2.5l-1.1,1.2-1.2,1.2c-.8.8-1.6,1.6-2.4,2.3-.8.7-1.7,1.5-2.6,2.1-.9.7-1.9,1.3-2.9,1.9-1,.5-2.1,1-3.2,1.4-1.1.4-2.3.6-3.4.7-1.2,0-2.3,0-3.5-.3-1.1-.3-2.2-.6-3.3-1.1-.3-.1-.5-.2-.8-.4l-.7-.4c-.5-.3-1-.6-1.4-.9-.5-.3-.9-.6-1.4-1-.4-.3-.9-.7-1.3-1-.9-.7-1.7-1.4-2.5-2.2-.4-.4-.8-.8-1.2-1.2-.4-.4-.8-.8-1.1-1.2-.8-.8-1.5-1.6-2.2-2.4l2-.9c.3,4.2.6,8.4.5,12.7,0,1.1,0,2.1-.2,3.2,0,.5-.1,1.1-.2,1.6,0,.5-.1,1.1-.2,1.6-.2,1.1-.4,2.1-.7,3.2-.2.5-.4,1-.5,1.6l-.3.8-.2.4-.2.4-.4.7-.5.7-.2.4-.3.3c-.2.2-.3.4-.5.7-.8.8-1.6,1.6-2.5,2.2-.9.6-1.9,1.1-2.9,1.5-.2,0-.5.2-.7.3l-.8.2c-.5.2-1,.3-1.5.4-1,.2-2,.4-3,.5-1,.1-2,.2-3,.2-1,0-2,0-3,0-1,0-2,0-3,0l.5-1.3c3.1,2.7,6.1,5.4,9,8.4.7.7,1.4,1.5,2.1,2.3.3.4.7.8,1,1.2.3.4.7.8,1,1.2.3.4.6.8.9,1.3.3.4.6.9.9,1.3.6.9,1.1,1.8,1.5,2.8.4,1,.8,2,1,3,.3,1,.4,2.1.5,3.2,0,.5,0,1.1,0,1.6,0,.5,0,1.1-.2,1.6,0,.5-.2,1.1-.3,1.6-.1.5-.2,1-.4,1.5-.2.5-.3,1-.5,1.5-.2.5-.4,1-.6,1.5l-.3.7-.3.7c-.2.5-.5,1-.7,1.4-.2.5-.5.9-.7,1.4-.3.5-.5.9-.8,1.4-.5.9-1.1,1.8-1.6,2.7l-.4-.6c1.1-.3,2.2-.6,3.3-.9.6-.1,1.1-.3,1.7-.4.6-.1,1.1-.3,1.7-.4,1.1-.2,2.2-.4,3.4-.6.6,0,1.1-.2,1.7-.2.6,0,1.1-.1,1.7-.1h.9c0,0,.9,0,.9,0,.6,0,1.1,0,1.7,0,.6,0,1.1,0,1.7.1.6,0,1.1.1,1.7.2.6.1,1.1.2,1.7.4l.8.2.8.3c1.1.4,2.2.8,3.2,1.4,1,.6,2,1.1,3,1.8l.7.5.7.5c.5.3.9.7,1.4,1.1,1.8,1.5,3.4,3.2,4.9,4.9.4.4.8.9,1.1,1.3.4.4.8.9,1.1,1.3.7.9,1.5,1.8,2.2,2.7.7.9,1.4,1.9,2.1,2.8.7.9,1.4,1.9,2,2.8l-1.8.5c.2-1.1.3-2.2.5-3.3.2-1.1.4-2.2.7-3.2.3-1.1.6-2.1,1-3.2.2-.5.4-1,.7-1.6.3-.5.5-1,.8-1.5l.4-.7.5-.7.2-.4.3-.3.6-.7c.8-.8,1.7-1.6,2.6-2.2,1-.6,2-1.1,3-1.5,1-.4,2.1-.6,3.2-.8.5,0,1.1-.2,1.6-.2.5,0,1.1,0,1.6-.1,1.1,0,2.1,0,3.2,0h1.6c0,0,1.6.2,1.6.2,1,.1,2.1.2,3.1.4,1,.1,2.1.3,3.1.5,1,.2,2,.4,3,.6,2,.4,4,.9,6.1,1.3l-.8,1.6c-.6-.7-1.2-1.4-1.8-2.2-.6-.7-1.2-1.5-1.7-2.2-.3-.4-.6-.8-.8-1.2l-.8-1.2c-.2-.4-.5-.8-.7-1.3-.2-.4-.5-.9-.7-1.3-.2-.5-.4-.9-.6-1.4l-.2-.7-.2-.7c-.1-.5-.2-1-.3-1.5,0-.5,0-1,0-1.6,0-.5.1-1,.2-1.5.1-.5.2-1,.5-1.5.4-1,.9-1.8,1.5-2.6l.5-.6c.2-.2.3-.4.5-.5.3-.4.7-.7,1-1,.7-.6,1.5-1.2,2.2-1.8.8-.5,1.6-1.1,2.4-1.5.4-.2.8-.5,1.2-.7.4-.2.8-.5,1.2-.7.8-.4,1.7-.8,2.5-1.3.8-.4,1.7-.8,2.5-1.2,1.6-.7,3.2-1.3,4.8-2Z"/>
    </g>
    <g>
      <g>
        <g>
          <path d="M966.9,64.7c-.6,0-1.2-.4-1.3-1.1-.1-.7.3-1.3.9-1.5l22-6.2c.1,0,.2,0,.3,0,.3,0,.6.1.9.3.3.3.5.7.4,1.2l-.7,4.3c0,.6-.6,1-1.2,1.1l-21.3,1.9s0,0-.1,0Z"/>
          <path class="st9" d="M989,57.3h0M989,57.3l-.7,4.3-21.3,1.9,22-6.2M989,54.7s0,0-.1,0c-.2,0-.4,0-.6.1l-22,6.1c-1.3.4-2.1,1.6-1.9,3,.2,1.2,1.3,2.1,2.6,2.1s.2,0,.2,0l21.3-1.9c1.2-.1,2.1-1,2.3-2.2l.7-4.1c0-.2,0-.3,0-.5,0-1.4-1.1-2.6-2.6-2.6,0,0,0,0,0,0h0ZM989,59.9h0,0Z"/>
        </g>
        <g>
          <path d="M952.8,62.6c-.3,0-.6-.1-.8-.3-.5-.4-.6-1.2-.2-1.7l18.5-27c.2-.4.6-.6,1.1-.6s9.7.7,9.7.7c.5,0,1,.4,1.1.9.2.5,0,1-.3,1.4l-28.2,26.3c-.2.2-.6.3-.9.3Z"/>
          <path class="st9" d="M971.3,34.3h2.1c0,.1,7.5.7,7.5.7l-28.2,26.3,18.5-27M971.3,31.7c-.9,0-1.7.4-2.1,1.1l-18.5,27c-.8,1.1-.6,2.6.4,3.4.5.4,1.1.6,1.7.6s1.3-.2,1.8-.7l28.2-26.3c.8-.7,1-1.8.7-2.8-.3-1-1.2-1.7-2.3-1.7l-7.5-.5h-2.1c0-.2-.1-.2-.2-.2h0Z"/>
        </g>
      </g>
      <g>
        <polygon class="st7" points="966.9 62.7 988.3 60.8 989 56.6 966.9 62.7"/>
        <polygon class="st7" points="952.1 60.9 980.3 34.6 972.7 34.1 970.6 33.9 952.1 60.9"/>
      </g>
    </g>
    <g>
      <g>
        <g>
          <path d="M902.4,66l-20.9-1.8c-.6,0-1.1-.5-1.2-1.1l-.7-4.2c0-.4,0-.9.4-1.2.2-.2.5-.3.9-.3s.2,0,.3,0l21.6,6c.6.2,1,.8.9,1.5-.1.6-.7,1.1-1.3,1.1s0,0-.1,0Z"/>
          <path class="st9" d="M881,58.7l21.6,6-20.9-1.8-.7-4.2M881,56.1c-.6,0-1.2.2-1.7.7-.7.6-1,1.5-.8,2.3l.7,4.2c.2,1.2,1.2,2.1,2.3,2.2l20.9,1.8c0,0,.2,0,.2,0,1.2,0,2.3-.9,2.6-2.1.2-1.3-.6-2.6-1.9-3l-21.6-6c-.2,0-.5,0-.7,0h0Z"/>
        </g>
        <g>
          <path d="M916.4,64c-.3,0-.6-.1-.9-.3l-27.6-25.8c-.4-.4-.5-.9-.3-1.4.2-.5.6-.8,1.1-.9l9.4-.7s0,0,0,0c.4,0,.8.2,1.1.6l18.2,26.4c.4.5.3,1.3-.2,1.7-.2.2-.5.3-.8.3Z"/>
          <path class="st9" d="M898.2,36.3l18.2,26.4-27.6-25.8,7.4-.5h2M898.2,33.7c0,0-.1,0-.2,0h-2c0,.1-7.4.7-7.4.7-1,0-1.9.8-2.3,1.7-.3,1,0,2.1.7,2.8l27.6,25.8c.5.5,1.1.7,1.8.7s1.2-.2,1.7-.6c1-.9,1.2-2.3.4-3.4l-18.2-26.4c-.5-.7-1.3-1.1-2.1-1.1h0Z"/>
        </g>
      </g>
      <g>
        <polygon class="st7" points="902.5 64.1 881.6 62.2 881 58 902.5 64.1"/>
        <polygon class="st7" points="917.1 62.3 889.5 36.5 896.9 36 898.9 35.9 917.1 62.3"/>
      </g>
    </g>
    <path class="st3" d="M1039.1,73.2c8.9-4.7,21.6.6,24.5,10.2-6.1-7.1-15.2-10.9-24.5-10.2h0Z"/>
    <path class="st3" d="M808.7,82.7c1.8-9.9,13.8-16.6,23.1-13-2.4.1-4.7.5-6.9,1.1-6.7,1.9-12.3,6.1-16.2,11.9h0Z"/>
    <path class="st3" d="M806.6,78.1c.3-7.6,8.2-16.3,16.2-12.9-7.9,0-12.7,6.6-16.2,12.9h0Z"/>
    <g>
      <polygon class="st9" points="934.7 56.8 927.5 60 930.1 53.5 924.5 47.3 932.1 48 936.1 40.5 938.6 48.1 947.9 48.1 940 53.2 941.8 61.1 934.7 56.8"/>
      <polygon class="st6" points="932.5 48.5 935.4 43.1 937.2 48.5 943.6 48.5 938 52 939.4 57.8 934.3 54.7 929.4 57 931.2 52.5 927 48 932.5 48.5"/>
    </g>
    <g>
      <polygon class="st9" points="872.9 50.3 871.7 54.9 869.6 51.2 864.6 51.5 867.8 48.1 865.8 43.4 870.3 45.1 873.9 40.7 873.3 46.4 877.7 48.6 872.9 50.3"/>
      <polygon class="st6" points="868.2 48.1 866.7 44.7 870 45.9 872.4 42.9 872 46.9 875.2 48.5 871.8 49.7 871 52.9 869.6 50.3 865.8 50.5 868.2 48.1"/>
    </g>
    <g>
      <polygon class="st9" points="996.4 70.9 991.1 67.8 996.4 66.6 997.8 60.3 1000.7 65.4 1007.3 64.5 1003.6 69.5 1007.7 75.4 1001 72.6 996.8 77.3 996.4 70.9"/>
      <polygon class="st6" points="1000.6 65.8 1005.3 65.2 1002.7 68.8 1005.6 72.8 1000.9 70.9 997.8 74.4 997.5 69.8 993.9 67.7 997.5 66.8 998.5 62.1 1000.6 65.8"/>
    </g>
    <g>
      <polygon class="st0" points="1034.9 40.5 1018.6 58.1 1026.7 58.1 1023.6 69.1 1036.1 53.5 1029.8 53.3 1034.9 40.5"/>
      <g>
        <polygon class="st6" points="1034.3 40.1 1018 57.7 1026.1 57.7 1023 68.7 1035.5 53.1 1029.2 52.8 1034.3 40.1"/>
        <path d="M1034.2,40.1c-5.3,5.9-10.1,12.5-15.7,18.1,0,0-.6-1.4-.6-1.4,2.3,0,5.8.2,8.1.3.3,0,.5.3.4.6-1.3,3.6-2.3,7.3-3.1,11.1,0,0-.9-.5-.9-.5,3.9-5.4,7.9-10.8,12.2-15.9,0,0,.7,1.6.7,1.6-2.1-.1-4.2-.3-6.3-.5-.6,0-.9-.6-.7-1.1,1.8-4.2,4-8,5.8-12.4h0ZM1034.3,40c-1.6,4.2-2.8,8.8-4.4,13.2,0,0-.7-1.1-.7-1.1,2.1,0,4.2,0,6.3,0,.8,0,1.3,1,.8,1.6-4.1,5.3-8.5,10.4-13,15.3-.3.5-1.1,0-.9-.5.6-1.8,1.3-3.6,1.8-5.5.6-1.8,1-3.7,1.4-5.6l.4.6-4.1.2c-1.4,0-2.7.2-4.1.2-.4,0-.8-.3-.8-.8,0-.2,0-.4.2-.6,1.4-1.6,2.8-3.1,4.3-4.6,4-4.1,8.8-8.5,12.7-12.6h0Z"/>
      </g>
    </g>
    <g>
      <path class="st1" d="M1126.6,162.7c-.6,0-1.1-.2-1.7-.2-16.7-1.7-33.7,6.1-44.8,19.2-10.5-4.8-22.3-5.9-32.4-2.1-7.5,2.8-13.8,8.3-18.2,15.2-1.3-2.2-2.8-4.3-4.4-6.3-8.7-10.8-23.5-17.4-37.3-16-10,.7-20.2,5.1-28.2,8.5-9.2,3.9-18.7,6.2-25.5,2.3-8.4-5-9.6-18-10.2-27.5l-2.1-.2c-1.4,5.6-2.6,11.3-2.7,17.6-.2,13,5.9,21.3,14.9,26-1.9.3-3.8.7-5.6,1.2-.4,0-.7.2-1.1.3-2.8-2.9-5.9-5.3-9.4-7-11-5.5-24-4.8-35.6-.9-2.8,1-5.6,2.2-8.3,3.8-.8-.4-1.6-.8-2.4-1.2-11.3-5.1-24.5-4.5-36.4-.8-4.5,1.4-9.1,3.5-12.9,6.3-1.6-1.1-3.4-2.1-5.2-3-1.8-.8-3.7-1.5-5.6-2-2.7-3.2-3.9-8.5-2.9-12.2,1.4-7.4,9.2-11.8,17.1-12.5,9-1,14.7,3.8,22.2,8.1,17.3,10.5,42,2,44.9-17.4l-2.1-.5c-2.4,5.5-7.1,9.7-12.4,11.6-7.9,2.8-16.1.9-21.7-4.6-3.2-3-6.9-7.3-11-10.3-12.5-8.9-29.4-10.4-44.1-4.8-8.9,3.3-15.8,9.1-20.5,16.1-8.5-20.3-28.5-34.5-51.8-34.5s-42.1,13.4-51,32.7c-18.4-18.3-45.9-31.2-75.7-33.5-32.4-2.4-65.3,8.1-87.7,26.2-9.7,1.3-19.2,3.1-28.5,5.2-35.3,8-72.1,24.3-79.7,50.9l-6.1,60.5c10.5,51,71.1,94.3,140.6,99.3,44.7,3.2,90.1-10,122.2-32.9,5-.7,9.9-1.7,14.7-2.9,11.4-3,23.1-8.3,29.5-16.4,4.6,6.1,10.5,11.2,17.3,14.4,14.6,7,31.8,6.1,47.2,1.1,7.1-2.3,14.4-6,19.7-11.3,3.8,3.9,8.2,7.1,13,9.4,14.6,7,31.8,6.1,47.2,1.1,4.2-1.4,8.4-3.2,12.2-5.5.9.5,1.9,1,2.8,1.5,14.6,7,31.8,6.1,47.2,1.1,6.6-2.2,13.4-5.5,18.7-10.3,2.3,1.8,4.8,3.3,7.5,4.6,13.8,6.6,29.9,6.2,44.6,1.9,4.7,6.5,10.8,11.8,17.9,15.2,14.6,7,31.8,6.1,47.2,1.1,8.8-2.9,17.9-7.9,23.2-15.5,4.4-.7,8.7-1.7,12.9-3.1,8.6-2.8,17.5-7.7,22.9-14.9,4.3,4.9,9.4,9,15.1,11.8,14.6,7,31.8,6.1,47.2,1.1.4-.1.9-.3,1.3-.4,14.6,7,31.8,6.1,47.2,1.1,1.6-.5,3.3-1.1,4.9-1.8,1.7,1.1,3.4,2.1,5.2,3,14.6,7,31.8,6.1,47.2,1.1,6.8-2.2,13.7-5.7,19-10.6,7.7,5.8,16.6,10.7,26.5,14.2,29.6,10.4,64.2,9,95.3,1.6,24.5-5.8,50.2-17.7,55.5-37.2l4.2-44.2c-7.3-37.3-49.5-68.9-97.9-72.6-10.6-.8-21.3-.2-31.7,1.6l1.3-14.5c-6.6-36.5-40.9-68.2-83-78.2-10.9-3.6-22.7-5.5-34.8-5.5-50.4,0-92.7,33-104.6,77.7Z"/>
      <g>
        <path class="st10" d="M1080.3,181.7c4.3-5.6,10.5-10.4,17.9-13.6,10.8-4.7,23.7-5.9,35.1-3.2l-53,16.8Z"/>
        <path class="st3" d="M822.6,200.4c17.1-14.5,46.5-13.6,61.3,3.9-17.2-14.1-42.5-16.3-61.3-3.9h0Z"/>
        <path class="st3" d="M1080,181.7c11.8-16.4,34-22.8,53.5-19.1l-1.1,4.6c-18.1-4.9-39.9-.3-52.4,14.5h0Z"/>
      </g>
      <g>
        <path class="st4" d="M910.2,77.7s0,0,0,0,0,0,0,0,0,0,0,0,0,0,0,0Z"/>
        <path class="st4" d="M915.3,77.8c.1,0,.2-.1.2-.2s0-.2-.2-.2-.2.1-.2.2,0,.2.2.2Z"/>
        <path class="st4" d="M920.4,78c.2,0,.3-.2.3-.4,0-.2-.1-.4-.3-.4s-.3.2-.3.4.1.4.3.4Z"/>
        <path class="st4" d="M925.5,78.1c.2,0,.4-.2.4-.5s-.2-.5-.4-.5-.4.2-.4.5c0,.2.2.5.4.5Z"/>
        <path class="st4" d="M930.7,78.1c.2,0,.4-.2.4-.5s-.2-.5-.4-.5-.4.2-.4.5c0,.3.2.5.4.5Z"/>
        <path class="st4" d="M935.8,78.1c.2,0,.4-.2.4-.5,0-.3-.2-.5-.4-.5s-.4.2-.4.5.2.5.4.5Z"/>
        <path class="st4" d="M940.9,78c.2,0,.4-.2.4-.4,0-.2-.2-.4-.4-.4s-.4.2-.4.4.2.4.4.4Z"/>
        <path class="st4" d="M946,77.9c.1,0,.3-.1.3-.3s-.1-.3-.3-.3-.3.1-.3.3c0,.2.1.3.3.3Z"/>
        <path class="st4" d="M951.1,77.7c0,0,.1,0,.1-.1s0-.1-.1-.1,0,0,0,.1c0,0,0,.1,0,.1Z"/>
        <path class="st4" d="M905.1,83.5c.1,0,.2-.1.2-.3s-.1-.2-.2-.2-.2.1-.2.2.1.3.2.3Z"/>
        <path class="st4" d="M910.2,83.7c.2,0,.4-.2.4-.5s-.2-.5-.4-.5-.4.2-.4.5.2.5.4.5Z"/>
        <path class="st4" d="M915.3,83.9c.4,0,.6-.3.6-.7,0-.4-.3-.7-.6-.7-.4,0-.6.3-.6.7,0,.4.3.7.6.7Z"/>
        <path class="st4" d="M920.4,84.1c.4,0,.8-.4.8-.8,0-.5-.3-.8-.8-.8s-.8.4-.8.8c0,.5.3.8.8.8Z"/>
        <path class="st4" d="M925.5,84.1c.5,0,.9-.4.9-.9,0-.5-.4-.9-.9-.9s-.9.4-.9.9.4.9.9.9Z"/>
        <path class="st4" d="M930.7,84.2c.5,0,.9-.4.9-1,0-.5-.4-1-.9-1s-.9.4-.9,1c0,.5.4,1,.9,1Z"/>
        <path class="st4" d="M935.8,84.2c.5,0,.9-.4.9-.9s-.4-.9-.9-.9-.9.4-.9.9.4.9.9.9Z"/>
        <path class="st4" d="M940.9,84.1c.4,0,.8-.4.8-.9s-.4-.9-.8-.9c-.4,0-.8.4-.8.9,0,.5.4.9.8.9Z"/>
        <path class="st4" d="M946,84c.4,0,.7-.3.7-.7,0-.4-.3-.7-.7-.7s-.7.3-.7.7.3.7.7.7Z"/>
        <path class="st4" d="M951.1,83.8c.3,0,.5-.3.5-.6s-.2-.6-.5-.6-.5.3-.5.6.2.6.5.6Z"/>
        <path class="st4" d="M956.3,83.6c.2,0,.3-.2.3-.3,0-.2-.1-.3-.3-.3s-.3.2-.3.3c0,.2.1.3.3.3Z"/>
        <path class="st4" d="M961.4,83.3s0,0,0,0,0,0,0,0,0,0,0,0,0,0,0,0Z"/>
        <path class="st4" d="M894.8,88.8s0,0,0,0,0,0,0,0,0,0,0,0c0,0,0,0,0,0Z"/>
        <path class="st4" d="M900,89.2c.2,0,.3-.2.3-.3s-.1-.3-.3-.3-.3.2-.3.3.1.3.3.3Z"/>
        <path class="st4" d="M905.1,89.5c.3,0,.6-.3.6-.7,0-.4-.3-.7-.6-.7s-.6.3-.6.7c0,.4.3.7.6.7Z"/>
        <path class="st4" d="M910.2,89.7c.5,0,.8-.4.8-.9s-.4-.9-.8-.9-.8.4-.8.9.4.9.8.9Z"/>
        <path class="st4" d="M915.3,90c.6,0,1-.5,1-1.1s-.5-1.1-1-1.1-1,.5-1,1.1.5,1.1,1,1.1Z"/>
        <path class="st4" d="M920.4,90.1c.7,0,1.2-.6,1.2-1.3s-.5-1.3-1.2-1.3c-.7,0-1.2.6-1.2,1.3,0,.7.5,1.3,1.2,1.3Z"/>
        <path class="st4" d="M925.5,90.2c.7,0,1.3-.6,1.3-1.4,0-.8-.6-1.4-1.3-1.4-.7,0-1.3.6-1.3,1.4,0,.8.6,1.4,1.3,1.4Z"/>
        <path class="st4" d="M930.7,90.3c.7,0,1.3-.7,1.3-1.5,0-.8-.6-1.5-1.3-1.5-.7,0-1.3.7-1.3,1.5,0,.8.6,1.5,1.3,1.5Z"/>
        <path class="st4" d="M935.8,90.3c.7,0,1.3-.6,1.3-1.4,0-.8-.6-1.4-1.3-1.4-.7,0-1.3.6-1.3,1.4,0,.8.6,1.4,1.3,1.4Z"/>
        <path class="st4" d="M940.9,90.2c.7,0,1.2-.6,1.2-1.4s-.6-1.4-1.2-1.4-1.2.6-1.2,1.4c0,.7.6,1.4,1.2,1.4Z"/>
        <path class="st4" d="M946,90c.6,0,1.1-.5,1.1-1.2s-.5-1.2-1.1-1.2c-.6,0-1.1.5-1.1,1.2s.5,1.2,1.1,1.2Z"/>
        <path class="st4" d="M951.1,89.8c.5,0,.9-.4.9-1s-.4-1-.9-1-.9.4-.9,1,.4,1,.9,1Z"/>
        <path class="st4" d="M956.3,89.6c.4,0,.7-.3.7-.7s-.3-.7-.7-.7-.7.3-.7.7c0,.4.3.7.7.7Z"/>
        <path class="st4" d="M961.4,89.3c.2,0,.4-.2.4-.5s-.2-.5-.4-.5-.4.2-.4.5c0,.3.2.5.4.5Z"/>
        <path class="st4" d="M966.5,88.9c0,0,.1,0,.1-.1s0-.1-.1-.1-.1,0-.1.1,0,.1.1.1Z"/>
        <path class="st4" d="M894.8,94.8c.2,0,.3-.2.3-.3s-.1-.3-.3-.3-.3.2-.3.3.1.3.3.3Z"/>
        <path class="st4" d="M900,95.1c.4,0,.7-.3.7-.7s-.3-.7-.7-.7c-.4,0-.7.3-.7.7,0,.4.3.7.7.7Z"/>
        <path class="st4" d="M905.1,95.5c.5,0,1-.5,1-1s-.4-1-1-1-1,.5-1,1,.4,1,1,1Z"/>
        <path class="st4" d="M910.2,95.8c.7,0,1.2-.6,1.2-1.3,0-.7-.5-1.3-1.2-1.3s-1.2.6-1.2,1.3.5,1.3,1.2,1.3Z"/>
        <path class="st4" d="M915.3,96c.8,0,1.4-.7,1.4-1.6,0-.9-.6-1.6-1.4-1.6-.8,0-1.4.7-1.4,1.6,0,.9.6,1.6,1.4,1.6Z"/>
        <path class="st4" d="M920.4,96.2c.9,0,1.6-.8,1.6-1.8s-.7-1.8-1.6-1.8-1.6.8-1.6,1.8c0,1,.7,1.8,1.6,1.8Z"/>
        <path class="st4" d="M925.5,96.3c1,0,1.7-.9,1.7-1.9,0-1-.8-1.9-1.7-1.9-1,0-1.7.8-1.7,1.9,0,1,.8,1.9,1.7,1.9Z"/>
        <path class="st4" d="M930.7,96.4c1,0,1.8-.9,1.8-1.9,0-1.1-.8-1.9-1.8-1.9-1,0-1.8.9-1.8,1.9,0,1.1.8,1.9,1.8,1.9Z"/>
        <path class="st4" d="M935.8,96.3c1,0,1.7-.9,1.7-1.9,0-1.1-.8-1.9-1.7-1.9-1,0-1.7.9-1.7,1.9,0,1.1.8,1.9,1.7,1.9Z"/>
        <path class="st4" d="M940.9,96.2c.9,0,1.7-.8,1.7-1.8,0-1-.7-1.8-1.7-1.8-.9,0-1.7.8-1.7,1.8,0,1,.7,1.8,1.7,1.8Z"/>
        <path class="st4" d="M946,96.1c.8,0,1.5-.7,1.5-1.6,0-.9-.7-1.6-1.5-1.6-.8,0-1.5.7-1.5,1.6s.7,1.6,1.5,1.6Z"/>
        <path class="st4" d="M951.1,95.8c.7,0,1.3-.6,1.3-1.4,0-.8-.6-1.4-1.3-1.4-.7,0-1.3.6-1.3,1.4s.6,1.4,1.3,1.4Z"/>
        <path class="st4" d="M956.3,95.6c.6,0,1-.5,1-1.1,0-.6-.5-1.1-1-1.1-.6,0-1,.5-1,1.1s.5,1.1,1,1.1Z"/>
        <path class="st4" d="M961.4,95.3c.4,0,.8-.4.8-.8,0-.5-.3-.8-.8-.8s-.8.4-.8.8c0,.5.3.8.8.8Z"/>
        <path class="st4" d="M966.5,94.9c.2,0,.4-.2.4-.5s-.2-.5-.4-.5-.4.2-.4.5.2.5.4.5Z"/>
        <path class="st4" d="M971.6,94.5s0,0,0,0,0,0,0,0,0,0,0,0,0,0,0,0Z"/>
        <path class="st4" d="M889.7,100.3c.1,0,.2-.1.2-.2s-.1-.2-.2-.2-.2.1-.2.2.1.2.2.2Z"/>
        <path class="st4" d="M894.8,100.7c.3,0,.6-.3.6-.7,0-.4-.3-.7-.6-.7s-.6.3-.6.7.3.7.6.7Z"/>
        <path class="st4" d="M900,101.1c.5,0,1-.5,1-1s-.4-1-1-1-1,.5-1,1,.4,1,1,1Z"/>
        <path class="st4" d="M905.1,101.4c.7,0,1.3-.6,1.3-1.4s-.6-1.4-1.3-1.4c-.7,0-1.3.6-1.3,1.4s.6,1.4,1.3,1.4Z"/>
        <path class="st4" d="M910.2,101.7c.9,0,1.6-.8,1.6-1.7,0-.9-.7-1.7-1.6-1.7-.9,0-1.6.8-1.6,1.7,0,.9.7,1.7,1.6,1.7Z"/>
        <path class="st4" d="M915.3,102c1,0,1.8-.9,1.8-2s-.8-2-1.8-2-1.8.9-1.8,2,.8,2,1.8,2Z"/>
        <path class="st4" d="M920.4,102.3c1.1,0,2-1,2-2.2s-.9-2.2-2-2.2-2,1-2,2.2.9,2.2,2,2.2Z"/>
        <path class="st4" d="M925.5,102.4c1.2,0,2.2-1.1,2.2-2.4s-1-2.4-2.2-2.4c-1.2,0-2.2,1.1-2.2,2.4s1,2.4,2.2,2.4Z"/>
        <path class="st4" d="M930.7,102.5c1.2,0,2.2-1.1,2.2-2.4,0-1.3-1-2.4-2.2-2.4s-2.2,1.1-2.2,2.4,1,2.4,2.2,2.4Z"/>
        <path class="st4" d="M935.8,102.4c1.2,0,2.2-1.1,2.2-2.4s-1-2.4-2.2-2.4c-1.2,0-2.2,1.1-2.2,2.4,0,1.3,1,2.4,2.2,2.4Z"/>
        <path class="st4" d="M940.9,102.3c1.2,0,2.1-1,2.1-2.3s-.9-2.3-2.1-2.3c-1.2,0-2.1,1-2.1,2.3,0,1.3.9,2.3,2.1,2.3Z"/>
        <path class="st4" d="M946,102.1c1,0,1.9-.9,1.9-2.1,0-1.2-.9-2.1-1.9-2.1-1,0-1.9.9-1.9,2.1,0,1.2.9,2.1,1.9,2.1Z"/>
        <path class="st4" d="M951.1,101.9c.9,0,1.7-.8,1.7-1.8,0-1-.7-1.8-1.7-1.8s-1.7.8-1.7,1.8c0,1,.7,1.8,1.7,1.8Z"/>
        <path class="st4" d="M956.3,101.5c.8,0,1.4-.7,1.4-1.5,0-.8-.6-1.5-1.4-1.5-.8,0-1.4.7-1.4,1.5,0,.8.6,1.5,1.4,1.5Z"/>
        <path class="st4" d="M961.4,101.2c.6,0,1.1-.5,1.1-1.2s-.5-1.2-1.1-1.2-1,.5-1,1.2.5,1.2,1,1.2Z"/>
        <path class="st4" d="M966.5,100.8c.4,0,.7-.4.7-.8s-.3-.8-.7-.8-.7.4-.7.8.3.8.7.8Z"/>
        <path class="st4" d="M971.6,100.4c.2,0,.4-.2.4-.4,0-.2-.2-.4-.4-.4s-.4.2-.4.4c0,.2.2.4.4.4Z"/>
        <path class="st4" d="M884.6,105.7s0,0,0,0,0,0,0,0,0,0,0,0,0,0,0,0Z"/>
        <path class="st4" d="M889.7,106.1c.2,0,.4-.2.4-.5,0-.3-.2-.5-.4-.5s-.4.2-.4.5c0,.3.2.5.4.5Z"/>
        <path class="st4" d="M894.8,106.6c.5,0,.8-.4.8-.9,0-.5-.4-.9-.8-.9s-.8.4-.8.9c0,.5.4.9.8.9Z"/>
        <path class="st4" d="M900,107c.7,0,1.2-.6,1.2-1.3,0-.7-.5-1.3-1.2-1.3-.7,0-1.2.6-1.2,1.3s.5,1.3,1.2,1.3Z"/>
        <path class="st4" d="M905.1,107.4c.9,0,1.6-.8,1.6-1.7,0-.9-.7-1.7-1.6-1.7s-1.6.8-1.6,1.7c0,.9.7,1.7,1.6,1.7Z"/>
        <path class="st4" d="M910.2,107.7c1,0,1.9-.9,1.9-2.1,0-1.2-.9-2.1-1.9-2.1-1,0-1.9.9-1.9,2.1s.9,2.1,1.9,2.1Z"/>
        <path class="st4" d="M915.3,108.1c1.2,0,2.2-1.1,2.2-2.4,0-1.3-1-2.4-2.2-2.4-1.2,0-2.2,1.1-2.2,2.4,0,1.3,1,2.4,2.2,2.4Z"/>
        <path class="st4" d="M920.4,108.3c1.3,0,2.4-1.2,2.4-2.7,0-1.5-1.1-2.7-2.4-2.7s-2.4,1.2-2.4,2.7c0,1.5,1.1,2.7,2.4,2.7Z"/>
        <ellipse class="st4" cx="925.5" cy="105.6" rx="2.6" ry="2.8"/>
        <path class="st4" d="M930.7,108.6c1.5,0,2.7-1.3,2.7-2.9,0-1.6-1.2-2.9-2.7-2.9s-2.7,1.3-2.7,2.9c0,1.6,1.2,2.9,2.7,2.9Z"/>
        <path class="st4" d="M935.8,108.5c1.5,0,2.6-1.3,2.6-2.9,0-1.6-1.2-2.9-2.6-2.9-1.4,0-2.6,1.3-2.6,2.9,0,1.6,1.2,2.9,2.6,2.9Z"/>
        <path class="st4" d="M940.9,108.4c1.4,0,2.5-1.2,2.5-2.7,0-1.5-1.1-2.7-2.5-2.7-1.4,0-2.5,1.2-2.5,2.7,0,1.5,1.1,2.7,2.5,2.7Z"/>
        <path class="st4" d="M946,108.1c1.3,0,2.3-1.1,2.3-2.5,0-1.4-1-2.5-2.3-2.5-1.3,0-2.3,1.1-2.3,2.5,0,1.4,1,2.5,2.3,2.5Z"/>
        <path class="st4" d="M951.1,107.8c1.1,0,2-1,2-2.2,0-1.2-.9-2.2-2-2.2s-2,1-2,2.2.9,2.2,2,2.2Z"/>
        <path class="st4" d="M956.3,107.5c.9,0,1.7-.8,1.7-1.8,0-1-.8-1.8-1.7-1.8-.9,0-1.7.8-1.7,1.8,0,1,.7,1.8,1.7,1.8Z"/>
        <path class="st4" d="M961.4,107.1c.7,0,1.3-.7,1.3-1.5s-.6-1.5-1.3-1.5-1.3.7-1.3,1.5c0,.8.6,1.5,1.3,1.5Z"/>
        <path class="st4" d="M966.5,106.7c.5,0,1-.5,1-1.1,0-.6-.4-1.1-1-1.1s-1,.5-1,1.1c0,.6.4,1.1,1,1.1Z"/>
        <path class="st4" d="M971.6,106.3c.3,0,.6-.3.6-.6,0-.4-.3-.6-.6-.6s-.6.3-.6.6c0,.4.3.6.6.6Z"/>
        <path class="st4" d="M976.7,105.8c0,0,.2,0,.2-.2s0-.2-.2-.2-.2,0-.2.2,0,.2.2.2Z"/>
        <path class="st4" d="M884.6,111.5c.1,0,.2-.1.2-.2s0-.2-.2-.2-.2.1-.2.2,0,.2.2.2Z"/>
        <path class="st4" d="M889.7,111.9c.4,0,.6-.3.6-.7,0-.4-.3-.7-.6-.7s-.6.3-.6.7c0,.4.3.7.6.7Z"/>
        <path class="st4" d="M894.8,112.4c.6,0,1-.5,1-1.1s-.5-1.1-1-1.1-1,.5-1,1.1.5,1.1,1,1.1Z"/>
        <path class="st4" d="M900,112.8c.8,0,1.4-.7,1.4-1.6,0-.9-.6-1.6-1.4-1.6-.8,0-1.4.7-1.4,1.6,0,.9.6,1.6,1.4,1.6Z"/>
        <path class="st4" d="M905.1,113.2c1,0,1.8-.9,1.8-2s-.8-2-1.8-2-1.8.9-1.8,2,.8,2,1.8,2Z"/>
        <path class="st4" d="M910.2,113.7c1.2,0,2.2-1.1,2.2-2.4,0-1.3-1-2.4-2.2-2.4s-2.2,1.1-2.2,2.4c0,1.3,1,2.4,2.2,2.4Z"/>
        <path class="st4" d="M915.3,114c1.4,0,2.5-1.2,2.5-2.8,0-1.5-1.1-2.8-2.5-2.8s-2.5,1.2-2.5,2.8c0,1.5,1.1,2.8,2.5,2.8Z"/>
        <path class="st4" d="M920.4,114.3c1.6,0,2.8-1.4,2.8-3.1,0-1.7-1.3-3.1-2.8-3.1s-2.8,1.4-2.8,3.1c0,1.7,1.3,3.1,2.8,3.1Z"/>
        <path class="st4" d="M925.5,114.6c1.7,0,3-1.5,3-3.3,0-1.8-1.4-3.3-3-3.3-1.7,0-3,1.5-3,3.3,0,1.8,1.4,3.3,3,3.3Z"/>
        <path class="st4" d="M930.7,114.7c1.7,0,3.1-1.5,3.1-3.4s-1.4-3.4-3.1-3.4c-1.7,0-3.1,1.5-3.1,3.4,0,1.9,1.4,3.4,3.1,3.4Z"/>
        <path class="st4" d="M935.8,114.6c1.7,0,3.1-1.5,3.1-3.4s-1.4-3.4-3.1-3.4c-1.7,0-3.1,1.5-3.1,3.4s1.4,3.4,3.1,3.4Z"/>
        <path class="st4" d="M940.9,114.4c1.6,0,2.9-1.4,2.9-3.2,0-1.8-1.3-3.2-2.9-3.2-1.6,0-2.9,1.4-2.9,3.2s1.3,3.2,2.9,3.2Z"/>
        <path class="st4" d="M946,114.1c1.4,0,2.6-1.3,2.6-2.9,0-1.6-1.2-2.9-2.6-2.9-1.5,0-2.6,1.3-2.6,2.9,0,1.6,1.2,2.9,2.6,2.9Z"/>
        <path class="st4" d="M951.1,113.8c1.3,0,2.3-1.1,2.3-2.5,0-1.4-1-2.5-2.3-2.5s-2.3,1.1-2.3,2.5c0,1.4,1,2.5,2.3,2.5Z"/>
        <path class="st4" d="M956.3,113.4c1.1,0,1.9-1,1.9-2.1s-.9-2.1-1.9-2.1-1.9,1-1.9,2.1.9,2.1,1.9,2.1Z"/>
        <path class="st4" d="M961.4,113c.9,0,1.6-.8,1.6-1.7,0-.9-.7-1.7-1.6-1.7s-1.6.8-1.6,1.7c0,.9.7,1.7,1.6,1.7Z"/>
        <path class="st4" d="M966.5,112.5c.6,0,1.2-.6,1.2-1.3s-.5-1.3-1.2-1.3c-.7,0-1.2.6-1.2,1.3,0,.7.5,1.3,1.2,1.3Z"/>
        <path class="st4" d="M971.6,112.1c.4,0,.8-.4.8-.8s-.3-.8-.8-.8-.8.4-.8.8c0,.5.3.8.8.8Z"/>
        <path class="st4" d="M976.7,111.6c.2,0,.4-.2.4-.4s-.2-.4-.4-.4-.4.2-.4.4.2.4.4.4Z"/>
        <path class="st4" d="M884.6,117.2c.2,0,.3-.2.3-.4,0-.2-.1-.4-.3-.4s-.3.2-.3.4c0,.2.1.4.3.4Z"/>
        <path class="st4" d="M889.7,117.7c.4,0,.8-.4.8-.8,0-.5-.3-.8-.8-.8s-.8.4-.8.8.3.8.8.8Z"/>
        <path class="st4" d="M894.8,118.2c.7,0,1.2-.6,1.2-1.3s-.5-1.3-1.2-1.3-1.2.6-1.2,1.3c0,.7.5,1.3,1.2,1.3Z"/>
        <path class="st4" d="M900,118.6c.9,0,1.6-.8,1.6-1.8,0-1-.7-1.8-1.6-1.8-.9,0-1.6.8-1.6,1.8,0,1,.7,1.8,1.6,1.8Z"/>
        <path class="st4" d="M905.1,119.1c1.1,0,2-1,2-2.2,0-1.2-.9-2.2-2-2.2-1.1,0-2,1-2,2.2,0,1.2.9,2.2,2,2.2Z"/>
        <path class="st4" d="M910.2,119.5c1.3,0,2.4-1.2,2.4-2.7,0-1.5-1.1-2.7-2.4-2.7-1.3,0-2.4,1.2-2.4,2.7,0,1.5,1.1,2.7,2.4,2.7Z"/>
        <path class="st4" d="M915.3,120c1.6,0,2.8-1.4,2.8-3.1,0-1.7-1.3-3.1-2.8-3.1-1.6,0-2.8,1.4-2.8,3.1s1.3,3.1,2.8,3.1Z"/>
        <path class="st4" d="M920.4,120.3c1.7,0,3.2-1.6,3.2-3.5s-1.4-3.5-3.2-3.5c-1.7,0-3.2,1.6-3.2,3.5,0,1.9,1.4,3.5,3.2,3.5Z"/>
        <path class="st4" d="M925.5,120.3c1.7,0,3.2-1.6,3.2-3.5s-1.4-3.5-3.2-3.5c-1.7,0-3.2,1.6-3.2,3.5,0,1.9,1.4,3.5,3.2,3.5Z"/>
        <path class="st4" d="M930.7,120.3c1.7,0,3.2-1.6,3.2-3.5s-1.4-3.5-3.2-3.5c-1.7,0-3.2,1.6-3.2,3.5,0,1.9,1.4,3.5,3.2,3.5Z"/>
        <path class="st4" d="M935.8,120.3c1.7,0,3.2-1.6,3.2-3.5,0-1.9-1.4-3.5-3.2-3.5-1.7,0-3.2,1.6-3.2,3.5,0,1.9,1.4,3.5,3.2,3.5Z"/>
        <path class="st4" d="M940.9,120.3c1.7,0,3.2-1.6,3.2-3.5s-1.4-3.5-3.2-3.5c-1.8,0-3.2,1.6-3.2,3.5,0,1.9,1.4,3.5,3.2,3.5Z"/>
        <path class="st4" d="M946,120.1c1.6,0,2.9-1.4,2.9-3.2,0-1.8-1.3-3.2-2.9-3.2-1.6,0-2.9,1.4-2.9,3.2,0,1.8,1.3,3.2,2.9,3.2Z"/>
        <path class="st4" d="M951.1,119.7c1.4,0,2.6-1.3,2.6-2.8,0-1.6-1.1-2.8-2.6-2.8-1.4,0-2.6,1.3-2.6,2.8,0,1.6,1.2,2.8,2.6,2.8Z"/>
        <path class="st4" d="M956.3,119.2c1.2,0,2.2-1.1,2.2-2.4,0-1.3-1-2.4-2.2-2.4s-2.2,1.1-2.2,2.4c0,1.3,1,2.4,2.2,2.4Z"/>
        <path class="st4" d="M961.4,118.8c1,0,1.7-.9,1.7-1.9,0-1.1-.8-1.9-1.7-1.9-1,0-1.7.9-1.7,1.9,0,1.1.8,1.9,1.7,1.9Z"/>
        <path class="st4" d="M966.5,118.3c.7,0,1.3-.7,1.3-1.5,0-.8-.6-1.5-1.3-1.5s-1.3.7-1.3,1.5c0,.8.6,1.5,1.3,1.5Z"/>
        <path class="st4" d="M971.6,117.9c.5,0,.9-.4.9-1s-.4-1-.9-1-.9.4-.9,1,.4,1,.9,1Z"/>
        <path class="st4" d="M976.7,117.4c.3,0,.5-.2.5-.5s-.2-.5-.5-.5-.5.2-.5.5.2.5.5.5Z"/>
        <path class="st4" d="M981.8,116.9s0,0,0,0,0,0,0,0,0,0,0,0,0,0,0,0Z"/>
        <path class="st4" d="M884.6,122.9c.2,0,.4-.2.4-.4s-.2-.5-.4-.5-.4.2-.4.5.2.4.4.4Z"/>
        <path class="st4" d="M889.7,123.4c.5,0,.8-.4.8-.9s-.4-.9-.8-.9-.9.4-.9.9c0,.5.4.9.9.9Z"/>
        <path class="st4" d="M894.8,123.9c.7,0,1.3-.6,1.3-1.4,0-.8-.6-1.4-1.3-1.4s-1.3.6-1.3,1.4c0,.8.6,1.4,1.3,1.4Z"/>
        <path class="st4" d="M900,124.4c1,0,1.7-.8,1.7-1.9s-.8-1.9-1.7-1.9-1.7.8-1.7,1.9.8,1.9,1.7,1.9Z"/>
        <path class="st4" d="M905.1,124.8c1.2,0,2.2-1.1,2.2-2.4,0-1.3-1-2.4-2.2-2.4-1.2,0-2.2,1.1-2.2,2.4,0,1.3,1,2.4,2.2,2.4Z"/>
        <path class="st4" d="M910.2,125.3c1.4,0,2.6-1.3,2.6-2.8,0-1.6-1.2-2.8-2.6-2.8-1.4,0-2.6,1.3-2.6,2.8,0,1.6,1.2,2.8,2.6,2.8Z"/>
        <path class="st4" d="M915.3,125.8c1.7,0,3-1.5,3-3.3,0-1.8-1.4-3.3-3-3.3-1.7,0-3,1.5-3,3.3s1.4,3.3,3,3.3Z"/>
        <path class="st4" d="M920.4,125.9c1.7,0,3.2-1.6,3.2-3.5,0-1.9-1.4-3.5-3.2-3.5-1.7,0-3.2,1.6-3.2,3.5,0,1.9,1.4,3.5,3.2,3.5Z"/>
        <path class="st4" d="M925.5,125.9c1.7,0,3.2-1.6,3.2-3.5,0-1.9-1.4-3.5-3.2-3.5-1.7,0-3.2,1.6-3.2,3.5,0,1.9,1.4,3.5,3.2,3.5Z"/>
        <path class="st4" d="M930.7,125.9c1.7,0,3.2-1.6,3.2-3.5s-1.4-3.5-3.2-3.5c-1.7,0-3.2,1.6-3.2,3.5s1.4,3.5,3.2,3.5Z"/>
        <path class="st4" d="M935.8,125.9c1.7,0,3.2-1.6,3.2-3.5,0-1.9-1.4-3.5-3.2-3.5s-3.2,1.6-3.2,3.5c0,1.9,1.4,3.5,3.2,3.5Z"/>
        <path class="st4" d="M940.9,125.9c1.7,0,3.2-1.6,3.2-3.5s-1.4-3.5-3.2-3.5c-1.8,0-3.2,1.6-3.2,3.5,0,1.9,1.4,3.5,3.2,3.5Z"/>
        <path class="st4" d="M946,125.9c1.7,0,3.2-1.6,3.2-3.5,0-1.9-1.4-3.5-3.2-3.5s-3.2,1.6-3.2,3.5c0,1.9,1.4,3.5,3.2,3.5Z"/>
        <path class="st4" d="M951.1,125.5c1.5,0,2.7-1.3,2.7-3,0-1.7-1.2-3-2.7-3-1.5,0-2.7,1.3-2.7,3,0,1.7,1.2,3,2.7,3Z"/>
        <path class="st4" d="M956.3,125c1.3,0,2.3-1.1,2.3-2.5,0-1.4-1-2.5-2.3-2.5-1.3,0-2.3,1.1-2.3,2.5,0,1.4,1,2.5,2.3,2.5Z"/>
        <path class="st4" d="M961.4,124.5c1,0,1.9-.9,1.9-2.1s-.8-2.1-1.9-2.1-1.9.9-1.9,2.1c0,1.1.8,2.1,1.9,2.1Z"/>
        <path class="st4" d="M966.5,124c.8,0,1.4-.7,1.4-1.6,0-.9-.6-1.6-1.4-1.6-.8,0-1.4.7-1.4,1.6s.6,1.6,1.4,1.6Z"/>
        <path class="st4" d="M971.6,123.6c.6,0,1-.5,1-1.1s-.5-1.1-1-1.1-1,.5-1,1.1c0,.6.5,1.1,1,1.1Z"/>
        <path class="st4" d="M976.7,123.1c.3,0,.6-.3.6-.6s-.3-.6-.6-.6-.6.3-.6.6.3.6.6.6Z"/>
        <path class="st4" d="M981.8,122.6c0,0,.1,0,.1-.1s0-.1-.1-.1-.1,0-.1.1,0,.1.1.1Z"/>
        <path class="st4" d="M884.6,128.6c.2,0,.4-.2.4-.5,0-.3-.2-.5-.4-.5s-.4.2-.4.5.2.5.4.5Z"/>
        <path class="st4" d="M889.7,129.1c.5,0,.9-.4.9-1,0-.5-.4-1-.9-1s-.9.4-.9,1,.4,1,.9,1Z"/>
        <path class="st4" d="M894.8,129.5c.7,0,1.3-.7,1.3-1.5s-.6-1.5-1.3-1.5-1.3.7-1.3,1.5c0,.8.6,1.5,1.3,1.5Z"/>
        <path class="st4" d="M900,130c1,0,1.8-.9,1.8-1.9,0-1.1-.8-1.9-1.8-1.9-1,0-1.8.9-1.8,1.9,0,1.1.8,1.9,1.8,1.9Z"/>
        <path class="st4" d="M905.1,130.5c1.2,0,2.2-1.1,2.2-2.4,0-1.3-1-2.4-2.2-2.4s-2.2,1.1-2.2,2.4,1,2.4,2.2,2.4Z"/>
        <path class="st4" d="M910.2,131c1.5,0,2.7-1.3,2.7-2.9,0-1.6-1.2-2.9-2.7-2.9-1.5,0-2.7,1.3-2.7,2.9,0,1.6,1.2,2.9,2.7,2.9Z"/>
        <path class="st4" d="M915.3,131.5c1.7,0,3.1-1.5,3.1-3.4s-1.4-3.4-3.1-3.4c-1.7,0-3.1,1.5-3.1,3.4,0,1.9,1.4,3.4,3.1,3.4Z"/>
        <path class="st4" d="M920.4,131.5c1.7,0,3.2-1.6,3.2-3.5s-1.4-3.5-3.2-3.5-3.2,1.6-3.2,3.5c0,1.9,1.4,3.5,3.2,3.5Z"/>
        <path class="st4" d="M925.5,131.5c1.7,0,3.2-1.6,3.2-3.5s-1.4-3.5-3.2-3.5c-1.7,0-3.2,1.6-3.2,3.5,0,1.9,1.4,3.5,3.2,3.5Z"/>
        <path class="st4" d="M930.7,131.5c1.7,0,3.2-1.6,3.2-3.5,0-1.9-1.4-3.5-3.2-3.5-1.7,0-3.2,1.6-3.2,3.5s1.4,3.5,3.2,3.5Z"/>
        <path class="st4" d="M935.8,131.5c1.7,0,3.2-1.6,3.2-3.5,0-1.9-1.4-3.5-3.2-3.5-1.7,0-3.2,1.6-3.2,3.5,0,1.9,1.4,3.5,3.2,3.5Z"/>
        <path class="st4" d="M940.9,131.5c1.7,0,3.2-1.6,3.2-3.5s-1.4-3.5-3.2-3.5c-1.8,0-3.2,1.6-3.2,3.5s1.4,3.5,3.2,3.5Z"/>
        <path class="st4" d="M946,131.5c1.7,0,3.2-1.6,3.2-3.5s-1.4-3.5-3.2-3.5c-1.7,0-3.2,1.6-3.2,3.5,0,1.9,1.4,3.5,3.2,3.5Z"/>
        <path class="st4" d="M951.1,131.2c1.6,0,2.8-1.4,2.8-3.1s-1.3-3.1-2.8-3.1c-1.6,0-2.8,1.4-2.8,3.1s1.3,3.1,2.8,3.1Z"/>
        <path class="st4" d="M956.3,130.7c1.3,0,2.4-1.2,2.4-2.6s-1.1-2.6-2.4-2.6c-1.3,0-2.4,1.2-2.4,2.6,0,1.4,1.1,2.6,2.4,2.6Z"/>
        <path class="st4" d="M961.4,130.2c1.1,0,1.9-.9,1.9-2.1,0-1.2-.9-2.1-1.9-2.1-1.1,0-1.9.9-1.9,2.1s.9,2.1,1.9,2.1Z"/>
        <path class="st4" d="M966.5,129.7c.8,0,1.5-.7,1.5-1.6,0-.9-.7-1.6-1.5-1.6-.8,0-1.5.7-1.5,1.6,0,.9.7,1.6,1.5,1.6Z"/>
        <path class="st4" d="M971.6,129.2c.6,0,1-.5,1-1.1s-.5-1.1-1-1.1c-.6,0-1,.5-1,1.1,0,.6.5,1.1,1,1.1Z"/>
        <path class="st4" d="M976.7,128.7c.3,0,.6-.3.6-.7,0-.4-.3-.7-.6-.7s-.6.3-.6.7c0,.4.3.7.6.7Z"/>
        <path class="st4" d="M981.8,128.2c0,0,.2,0,.2-.2s0-.2-.2-.2-.2,0-.2.2,0,.2.2.2Z"/>
        <path class="st4" d="M884.6,134.1c.2,0,.4-.2.4-.5,0-.3-.2-.5-.4-.5s-.4.2-.4.5.2.5.4.5Z"/>
        <path class="st4" d="M889.7,134.6c.5,0,.9-.4.9-.9s-.4-1-.9-1-.9.4-.9,1,.4.9.9.9Z"/>
        <path class="st4" d="M894.8,135.1c.7,0,1.3-.6,1.3-1.4,0-.8-.6-1.4-1.3-1.4s-1.3.6-1.3,1.4c0,.8.6,1.4,1.3,1.4Z"/>
        <path class="st4" d="M900,135.6c1,0,1.7-.9,1.7-1.9s-.8-1.9-1.7-1.9-1.7.9-1.7,1.9c0,1.1.8,1.9,1.7,1.9Z"/>
        <path class="st4" d="M905.1,136.1c1.2,0,2.2-1.1,2.2-2.4s-1-2.4-2.2-2.4c-1.2,0-2.2,1.1-2.2,2.4,0,1.3,1,2.4,2.2,2.4Z"/>
        <path class="st4" d="M910.2,136.6c1.5,0,2.6-1.3,2.6-2.9,0-1.6-1.2-2.9-2.6-2.9-1.4,0-2.6,1.3-2.6,2.9,0,1.6,1.2,2.9,2.6,2.9Z"/>
        <path class="st4" d="M915.3,137c1.7,0,3.1-1.5,3.1-3.4,0-1.9-1.4-3.4-3.1-3.4s-3.1,1.5-3.1,3.4c0,1.9,1.4,3.4,3.1,3.4Z"/>
        <path class="st4" d="M920.4,137.1c1.7,0,3.2-1.6,3.2-3.5,0-1.9-1.4-3.5-3.2-3.5-1.7,0-3.2,1.6-3.2,3.5s1.4,3.5,3.2,3.5Z"/>
        <path class="st4" d="M925.5,137.1c1.7,0,3.2-1.6,3.2-3.5,0-1.9-1.4-3.5-3.2-3.5-1.7,0-3.2,1.6-3.2,3.5s1.4,3.5,3.2,3.5Z"/>
        <path class="st4" d="M930.7,137.1c1.7,0,3.2-1.6,3.2-3.5,0-1.9-1.4-3.5-3.2-3.5-1.7,0-3.2,1.6-3.2,3.5,0,1.9,1.4,3.5,3.2,3.5Z"/>
        <path class="st4" d="M935.8,137.1c1.7,0,3.2-1.6,3.2-3.5s-1.4-3.5-3.2-3.5c-1.7,0-3.2,1.6-3.2,3.5s1.4,3.5,3.2,3.5Z"/>
        <path class="st4" d="M940.9,137.1c1.7,0,3.2-1.6,3.2-3.5,0-1.9-1.4-3.5-3.2-3.5-1.8,0-3.2,1.6-3.2,3.5s1.4,3.5,3.2,3.5Z"/>
        <path class="st4" d="M946,137.1c1.7,0,3.2-1.6,3.2-3.5,0-1.9-1.4-3.5-3.2-3.5-1.7,0-3.2,1.6-3.2,3.5,0,1.9,1.4,3.5,3.2,3.5Z"/>
        <path class="st4" d="M951.1,136.7c1.5,0,2.8-1.4,2.8-3,0-1.7-1.2-3-2.8-3s-2.8,1.4-2.8,3,1.2,3,2.8,3Z"/>
        <path class="st4" d="M956.3,136.2c1.3,0,2.3-1.1,2.3-2.6,0-1.4-1-2.6-2.3-2.6s-2.3,1.1-2.3,2.6c0,1.4,1,2.6,2.3,2.6Z"/>
        <path class="st4" d="M961.4,135.8c1.1,0,1.9-.9,1.9-2.1,0-1.2-.8-2.1-1.9-2.1-1,0-1.9.9-1.9,2.1s.9,2.1,1.9,2.1Z"/>
        <path class="st4" d="M966.5,135.3c.8,0,1.5-.7,1.5-1.6,0-.9-.7-1.6-1.5-1.6-.8,0-1.5.7-1.5,1.6,0,.9.7,1.6,1.5,1.6Z"/>
        <path class="st4" d="M971.6,134.8c.6,0,1-.5,1-1.1s-.5-1.1-1-1.1-1,.5-1,1.1.5,1.1,1,1.1Z"/>
        <path class="st4" d="M976.7,134.3c.3,0,.6-.3.6-.6,0-.4-.3-.6-.6-.6s-.6.3-.6.6c0,.4.3.6.6.6Z"/>
        <path class="st4" d="M981.8,133.8c0,0,.1,0,.1-.1s0-.1-.1-.1-.1,0-.1.1,0,.1.1.1Z"/>
        <path class="st4" d="M884.6,139.7c.2,0,.4-.2.4-.4,0-.2-.2-.4-.4-.4s-.4.2-.4.4.2.4.4.4Z"/>
        <path class="st4" d="M889.7,140.2c.4,0,.8-.4.8-.9,0-.5-.4-.9-.8-.9s-.8.4-.8.9.4.9.8.9Z"/>
        <path class="st4" d="M894.8,140.6c.7,0,1.2-.6,1.2-1.4s-.6-1.4-1.2-1.4c-.7,0-1.2.6-1.2,1.4,0,.7.6,1.4,1.2,1.4Z"/>
        <path class="st4" d="M900,141.1c.9,0,1.7-.8,1.7-1.8,0-1-.7-1.8-1.7-1.8-.9,0-1.7.8-1.7,1.8s.7,1.8,1.7,1.8Z"/>
        <path class="st4" d="M905.1,141.6c1.2,0,2.1-1,2.1-2.3s-.9-2.3-2.1-2.3c-1.2,0-2.1,1-2.1,2.3,0,1.3.9,2.3,2.1,2.3Z"/>
        <path class="st4" d="M910.2,142c1.4,0,2.5-1.2,2.5-2.7s-1.1-2.7-2.5-2.7c-1.4,0-2.5,1.2-2.5,2.7s1.1,2.7,2.5,2.7Z"/>
        <path class="st4" d="M915.3,142.5c1.6,0,2.9-1.4,2.9-3.2,0-1.8-1.3-3.2-2.9-3.2-1.6,0-2.9,1.4-2.9,3.2s1.3,3.2,2.9,3.2Z"/>
        <path class="st4" d="M920.4,142.8c1.7,0,3.2-1.6,3.2-3.5,0-1.9-1.4-3.5-3.2-3.5-1.7,0-3.2,1.6-3.2,3.5s1.4,3.5,3.2,3.5Z"/>
        <path class="st4" d="M925.5,142.8c1.7,0,3.2-1.6,3.2-3.5,0-1.9-1.4-3.5-3.2-3.5s-3.2,1.6-3.2,3.5,1.4,3.5,3.2,3.5Z"/>
        <path class="st4" d="M930.7,142.8c1.7,0,3.2-1.6,3.2-3.5,0-1.9-1.4-3.5-3.2-3.5-1.7,0-3.2,1.6-3.2,3.5,0,1.9,1.4,3.5,3.2,3.5Z"/>
        <path class="st4" d="M935.8,142.8c1.7,0,3.2-1.6,3.2-3.5s-1.4-3.5-3.2-3.5c-1.7,0-3.2,1.6-3.2,3.5,0,1.9,1.4,3.5,3.2,3.5Z"/>
        <path class="st4" d="M940.9,142.8c1.7,0,3.2-1.6,3.2-3.5,0-1.9-1.4-3.5-3.2-3.5s-3.2,1.6-3.2,3.5c0,1.9,1.4,3.5,3.2,3.5Z"/>
        <path class="st4" d="M946,142.6c1.7,0,3-1.5,3-3.3,0-1.8-1.4-3.3-3-3.3-1.7,0-3,1.5-3,3.3,0,1.8,1.4,3.3,3,3.3Z"/>
        <path class="st4" d="M951.1,142.2c1.4,0,2.6-1.3,2.6-2.9,0-1.6-1.2-2.9-2.6-2.9-1.4,0-2.6,1.3-2.6,2.9,0,1.6,1.2,2.9,2.6,2.9Z"/>
        <path class="st4" d="M956.3,141.7c1.2,0,2.2-1.1,2.2-2.4s-1-2.4-2.2-2.4c-1.2,0-2.2,1.1-2.2,2.4,0,1.3,1,2.4,2.2,2.4Z"/>
        <path class="st4" d="M961.4,141.3c1,0,1.8-.9,1.8-2s-.8-2-1.8-2c-1,0-1.8.9-1.8,2s.8,2,1.8,2Z"/>
        <path class="st4" d="M966.5,140.8c.8,0,1.4-.7,1.4-1.5,0-.8-.6-1.5-1.4-1.5-.8,0-1.4.7-1.4,1.5,0,.8.6,1.5,1.4,1.5Z"/>
        <path class="st4" d="M971.6,140.3c.5,0,.9-.5.9-1,0-.6-.4-1-.9-1s-1,.5-1,1c0,.6.4,1,1,1Z"/>
        <path class="st4" d="M976.7,139.8c.3,0,.5-.3.5-.6,0-.3-.2-.6-.5-.6s-.5.3-.5.6.2.6.5.6Z"/>
        <path class="st4" d="M981.8,139.4s0,0,0,0,0,0,0,0,0,0,0,0,0,0,0,0Z"/>
        <path class="st4" d="M884.6,145.2c.1,0,.3-.1.3-.3s-.1-.3-.3-.3-.3.1-.3.3.1.3.3.3Z"/>
        <path class="st4" d="M889.7,145.6c.4,0,.7-.3.7-.7s-.3-.7-.7-.7-.7.3-.7.7.3.7.7.7Z"/>
        <path class="st4" d="M894.8,146.1c.6,0,1.1-.5,1.1-1.2s-.5-1.2-1.1-1.2c-.6,0-1.1.5-1.1,1.2s.5,1.2,1.1,1.2Z"/>
        <path class="st4" d="M900,146.5c.8,0,1.5-.7,1.5-1.6,0-.9-.7-1.6-1.5-1.6-.8,0-1.5.7-1.5,1.6,0,.9.7,1.6,1.5,1.6Z"/>
        <path class="st4" d="M905.1,147c1.1,0,1.9-.9,1.9-2.1s-.9-2.1-1.9-2.1c-1.1,0-1.9.9-1.9,2.1s.9,2.1,1.9,2.1Z"/>
        <path class="st4" d="M910.2,147.4c1.3,0,2.3-1.1,2.3-2.5s-1-2.5-2.3-2.5-2.3,1.1-2.3,2.5c0,1.4,1,2.5,2.3,2.5Z"/>
        <path class="st4" d="M915.3,147.8c1.4,0,2.6-1.3,2.6-2.9,0-1.6-1.2-2.9-2.6-2.9-1.5,0-2.6,1.3-2.6,2.9,0,1.6,1.2,2.9,2.6,2.9Z"/>
        <path class="st4" d="M920.4,148.1c1.6,0,2.9-1.4,2.9-3.2,0-1.8-1.3-3.2-2.9-3.2s-2.9,1.4-2.9,3.2,1.3,3.2,2.9,3.2Z"/>
        <path class="st4" d="M925.5,148.4c1.7,0,3.2-1.6,3.2-3.5s-1.4-3.5-3.2-3.5c-1.7,0-3.2,1.6-3.2,3.5s1.4,3.5,3.2,3.5Z"/>
        <path class="st4" d="M930.7,148.4c1.7,0,3.2-1.6,3.2-3.5,0-1.9-1.4-3.5-3.2-3.5-1.7,0-3.2,1.6-3.2,3.5,0,1.9,1.4,3.5,3.2,3.5Z"/>
        <path class="st4" d="M935.8,148.4c1.7,0,3.2-1.6,3.2-3.5,0-1.9-1.4-3.5-3.2-3.5-1.7,0-3.2,1.6-3.2,3.5,0,1.9,1.4,3.5,3.2,3.5Z"/>
        <path class="st4" d="M940.9,148.2c1.7,0,3-1.5,3-3.3,0-1.8-1.4-3.3-3-3.3s-3,1.5-3,3.3c0,1.8,1.4,3.3,3,3.3Z"/>
        <path class="st4" d="M946,147.9c1.5,0,2.7-1.3,2.7-3,0-1.7-1.2-3-2.7-3s-2.7,1.3-2.7,3c0,1.7,1.2,3,2.7,3Z"/>
        <path class="st4" d="M951.1,147.5c1.3,0,2.4-1.2,2.4-2.6,0-1.5-1.1-2.6-2.4-2.6-1.3,0-2.4,1.2-2.4,2.6,0,1.5,1.1,2.6,2.4,2.6Z"/>
        <path class="st4" d="M956.3,147.1c1.1,0,2-1,2-2.2,0-1.2-.9-2.2-2-2.2s-2,1-2,2.2.9,2.2,2,2.2Z"/>
        <path class="st4" d="M961.4,146.7c.9,0,1.6-.8,1.6-1.8,0-1-.7-1.8-1.6-1.8s-1.6.8-1.6,1.8c0,1,.7,1.8,1.6,1.8Z"/>
        <path class="st4" d="M966.5,146.2c.7,0,1.2-.6,1.2-1.4,0-.7-.6-1.4-1.2-1.4s-1.2.6-1.2,1.4c0,.7.6,1.4,1.2,1.4Z"/>
        <path class="st4" d="M971.6,145.8c.5,0,.8-.4.8-.9s-.4-.9-.8-.9-.8.4-.8.9c0,.5.4.9.8.9Z"/>
        <path class="st4" d="M976.7,145.3c.2,0,.4-.2.4-.4,0-.2-.2-.4-.4-.4s-.4.2-.4.4.2.4.4.4Z"/>
        <path class="st4" d="M884.6,150.6c0,0,0,0,0-.1s0-.1,0-.1-.1,0-.1.1,0,.1.1.1Z"/>
        <path class="st4" d="M889.7,151.1c.3,0,.5-.2.5-.6,0-.3-.2-.6-.5-.6s-.5.3-.5.6c0,.3.2.6.5.6Z"/>
        <path class="st4" d="M894.8,151.5c.5,0,.9-.4.9-1,0-.5-.4-1-.9-1s-.9.4-.9,1,.4,1,.9,1Z"/>
        <path class="st4" d="M900,151.9c.7,0,1.3-.6,1.3-1.4s-.6-1.4-1.3-1.4-1.3.6-1.3,1.4.6,1.4,1.3,1.4Z"/>
        <path class="st4" d="M905.1,152.3c.9,0,1.7-.8,1.7-1.8,0-1-.7-1.8-1.7-1.8-.9,0-1.7.8-1.7,1.8s.7,1.8,1.7,1.8Z"/>
        <path class="st4" d="M910.2,152.7c1.1,0,2-1,2-2.2s-.9-2.2-2-2.2c-1.1,0-2,1-2,2.2,0,1.2.9,2.2,2,2.2Z"/>
        <path class="st4" d="M915.3,153c1.3,0,2.3-1.1,2.3-2.5,0-1.4-1-2.5-2.3-2.5s-2.3,1.1-2.3,2.5c0,1.4,1,2.5,2.3,2.5Z"/>
        <path class="st4" d="M920.4,153.3c1.4,0,2.6-1.3,2.6-2.8,0-1.6-1.2-2.8-2.6-2.8-1.4,0-2.6,1.3-2.6,2.8,0,1.6,1.2,2.8,2.6,2.8Z"/>
        <path class="st4" d="M925.5,153.5c1.5,0,2.7-1.3,2.7-3s-1.2-3-2.7-3c-1.5,0-2.7,1.3-2.7,3,0,1.7,1.2,3,2.7,3Z"/>
        <path class="st4" d="M930.7,153.6c1.6,0,2.8-1.4,2.8-3.1s-1.3-3.1-2.8-3.1c-1.6,0-2.8,1.4-2.8,3.1,0,1.7,1.3,3.1,2.8,3.1Z"/>
        <path class="st4" d="M935.8,153.6c1.5,0,2.8-1.4,2.8-3.1,0-1.7-1.2-3-2.8-3-1.5,0-2.8,1.4-2.8,3s1.2,3.1,2.8,3.1Z"/>
        <path class="st4" d="M940.9,153.4c1.5,0,2.6-1.3,2.6-2.9,0-1.6-1.2-2.9-2.6-2.9-1.5,0-2.6,1.3-2.6,2.9s1.2,2.9,2.6,2.9Z"/>
        <path class="st4" d="M946,153.1c1.3,0,2.4-1.2,2.4-2.6,0-1.5-1.1-2.6-2.4-2.6-1.3,0-2.4,1.2-2.4,2.6,0,1.5,1.1,2.6,2.4,2.6Z"/>
        <path class="st4" d="M951.1,152.8c1.2,0,2.1-1,2.1-2.3s-.9-2.3-2.1-2.3c-1.2,0-2.1,1-2.1,2.3,0,1.3.9,2.3,2.1,2.3Z"/>
        <path class="st4" d="M956.3,152.4c1,0,1.8-.9,1.8-1.9s-.8-1.9-1.8-1.9-1.8.9-1.8,1.9c0,1.1.8,1.9,1.8,1.9Z"/>
        <path class="st4" d="M961.4,152.1c.8,0,1.4-.7,1.4-1.6,0-.9-.6-1.6-1.4-1.6s-1.4.7-1.4,1.6c0,.9.6,1.6,1.4,1.6Z"/>
        <path class="st4" d="M966.5,151.6c.6,0,1-.5,1-1.1s-.5-1.1-1-1.1-1,.5-1,1.1.5,1.1,1,1.1Z"/>
        <path class="st4" d="M971.6,151.2c.4,0,.7-.3.7-.7s-.3-.7-.7-.7-.7.3-.7.7c0,.4.3.7.7.7Z"/>
        <path class="st4" d="M976.7,150.8c.1,0,.2-.1.2-.3s-.1-.3-.2-.3-.2.1-.2.3.1.3.2.3Z"/>
        <path class="st4" d="M889.7,156.5c.2,0,.3-.2.3-.3s-.1-.3-.3-.3-.3.2-.3.3.1.3.3.3Z"/>
        <path class="st4" d="M894.8,156.9c.4,0,.7-.3.7-.7,0-.4-.3-.7-.7-.7-.4,0-.7.3-.7.7,0,.4.3.7.7.7Z"/>
        <path class="st4" d="M900,157.2c.6,0,1-.5,1-1.1s-.5-1.1-1-1.1-1,.5-1,1.1.5,1.1,1,1.1Z"/>
        <path class="st4" d="M905.1,157.6c.8,0,1.4-.7,1.4-1.5s-.6-1.5-1.4-1.5c-.8,0-1.4.7-1.4,1.5,0,.8.6,1.5,1.4,1.5Z"/>
        <path class="st4" d="M910.2,157.9c.9,0,1.7-.8,1.7-1.8s-.7-1.8-1.7-1.8c-.9,0-1.7.8-1.7,1.8,0,1,.8,1.8,1.7,1.8Z"/>
        <path class="st4" d="M915.3,158.2c1.1,0,1.9-1,1.9-2.1,0-1.2-.9-2.1-1.9-2.1-1.1,0-1.9,1-1.9,2.1s.9,2.1,1.9,2.1Z"/>
        <path class="st4" d="M920.4,158.5c1.2,0,2.2-1.1,2.2-2.4s-1-2.4-2.2-2.4-2.2,1.1-2.2,2.4c0,1.3,1,2.4,2.2,2.4Z"/>
        <path class="st4" d="M925.5,158.6c1.3,0,2.3-1.1,2.3-2.5,0-1.4-1-2.5-2.3-2.5-1.3,0-2.3,1.1-2.3,2.5s1,2.5,2.3,2.5Z"/>
        <path class="st4" d="M930.7,158.7c1.3,0,2.4-1.2,2.4-2.6,0-1.4-1.1-2.6-2.4-2.6-1.3,0-2.4,1.2-2.4,2.6,0,1.4,1.1,2.6,2.4,2.6Z"/>
        <path class="st4" d="M935.8,158.7c1.3,0,2.3-1.2,2.3-2.6,0-1.4-1-2.6-2.3-2.6-1.3,0-2.3,1.1-2.3,2.6,0,1.4,1,2.6,2.3,2.6Z"/>
        <path class="st4" d="M940.9,158.5c1.2,0,2.2-1.1,2.2-2.4s-1-2.4-2.2-2.4c-1.2,0-2.2,1.1-2.2,2.4,0,1.3,1,2.4,2.2,2.4Z"/>
        <path class="st4" d="M946,158.3c1.1,0,2-1,2-2.2s-.9-2.2-2-2.2c-1.1,0-2,1-2,2.2s.9,2.2,2,2.2Z"/>
        <path class="st4" d="M951.1,158.1c1,0,1.8-.9,1.8-1.9,0-1.1-.8-1.9-1.8-1.9s-1.8.9-1.8,1.9.8,1.9,1.8,1.9Z"/>
        <path class="st4" d="M956.3,157.7c.8,0,1.5-.7,1.5-1.6s-.7-1.6-1.5-1.6-1.5.7-1.5,1.6c0,.9.7,1.6,1.5,1.6Z"/>
        <path class="st4" d="M961.4,157.4c.6,0,1.2-.6,1.2-1.3,0-.7-.5-1.3-1.2-1.3s-1.1.6-1.1,1.3c0,.7.5,1.3,1.1,1.3Z"/>
        <path class="st4" d="M966.5,157c.4,0,.8-.4.8-.9,0-.5-.4-.9-.8-.9-.4,0-.8.4-.8.9s.4.9.8.9Z"/>
        <path class="st4" d="M971.6,156.6c.2,0,.4-.2.4-.5,0-.3-.2-.5-.4-.5s-.4.2-.4.5c0,.3.2.5.4.5Z"/>
        <path class="st4" d="M976.7,156.2s0,0,0,0,0,0,0,0,0,0,0,0,0,0,0,0Z"/>
        <path class="st4" d="M889.7,161.8s0,0,0,0,0,0,0,0,0,0,0,0,0,0,0,0Z"/>
        <path class="st4" d="M894.8,162.2c.2,0,.4-.2.4-.5s-.2-.4-.4-.4-.4.2-.4.4.2.5.4.5Z"/>
        <path class="st4" d="M900,162.5c.4,0,.8-.4.8-.8s-.3-.8-.8-.8-.8.4-.8.8.3.8.8.8Z"/>
        <path class="st4" d="M905.1,162.9c.6,0,1.1-.5,1.1-1.2s-.5-1.1-1.1-1.1-1.1.5-1.1,1.1.5,1.2,1.1,1.2Z"/>
        <path class="st4" d="M910.2,163.2c.7,0,1.3-.7,1.3-1.5s-.6-1.5-1.3-1.5-1.3.7-1.3,1.5c0,.8.6,1.5,1.3,1.5Z"/>
        <path class="st4" d="M915.3,163.4c.9,0,1.6-.8,1.6-1.7,0-.9-.7-1.7-1.6-1.7-.9,0-1.6.8-1.6,1.7,0,.9.7,1.7,1.6,1.7Z"/>
        <path class="st4" d="M920.4,163.6c1,0,1.7-.9,1.7-1.9s-.8-1.9-1.7-1.9c-1,0-1.7.9-1.7,1.9s.8,1.9,1.7,1.9Z"/>
        <path class="st4" d="M925.5,163.8c1,0,1.9-.9,1.9-2.1,0-1.1-.8-2.1-1.9-2.1s-1.9.9-1.9,2.1.8,2.1,1.9,2.1Z"/>
        <path class="st4" d="M930.7,163.8c1.1,0,1.9-.9,1.9-2.1,0-1.2-.9-2.1-1.9-2.1s-1.9.9-1.9,2.1.9,2.1,1.9,2.1Z"/>
        <path class="st4" d="M935.8,163.8c1,0,1.9-.9,1.9-2.1s-.9-2.1-1.9-2.1c-1,0-1.9.9-1.9,2.1,0,1.2.9,2.1,1.9,2.1Z"/>
        <path class="st4" d="M940.9,163.7c1,0,1.8-.9,1.8-2s-.8-2-1.8-2c-1,0-1.8.9-1.8,2s.8,2,1.8,2Z"/>
        <path class="st4" d="M946,163.5c.9,0,1.6-.8,1.6-1.8s-.7-1.8-1.6-1.8-1.6.8-1.6,1.8.7,1.8,1.6,1.8Z"/>
        <path class="st4" d="M951.1,163.3c.8,0,1.4-.7,1.4-1.6,0-.9-.6-1.6-1.4-1.6-.8,0-1.4.7-1.4,1.6,0,.9.6,1.6,1.4,1.6Z"/>
        <path class="st4" d="M956.3,163c.6,0,1.2-.6,1.2-1.3s-.5-1.3-1.2-1.3-1.1.6-1.1,1.3.5,1.3,1.1,1.3Z"/>
        <path class="st4" d="M961.4,162.6c.5,0,.9-.4.9-.9,0-.5-.4-.9-.9-.9-.5,0-.8.4-.8.9,0,.5.4.9.8.9Z"/>
        <path class="st4" d="M966.5,162.3c.3,0,.5-.3.5-.6s-.2-.6-.5-.6-.5.3-.5.6.2.6.5.6Z"/>
        <path class="st4" d="M971.6,161.9c0,0,.2,0,.2-.2s0-.2-.2-.2-.2,0-.2.2,0,.2.2.2Z"/>
        <path class="st4" d="M894.8,167.4c0,0,.1,0,.1-.1s0-.1-.1-.1-.1,0-.1.1,0,.1.1.1Z"/>
        <path class="st4" d="M900,167.8c.2,0,.4-.2.4-.5,0-.3-.2-.5-.4-.5s-.4.2-.4.5.2.5.4.5Z"/>
        <path class="st4" d="M905.1,168.1c.4,0,.7-.4.7-.8s-.3-.8-.7-.8-.7.4-.7.8.3.8.7.8Z"/>
        <path class="st4" d="M910.2,168.4c.5,0,1-.5,1-1.1s-.4-1.1-1-1.1-1,.5-1,1.1.4,1.1,1,1.1Z"/>
        <path class="st4" d="M915.3,168.6c.6,0,1.2-.6,1.2-1.3,0-.7-.5-1.3-1.2-1.3-.6,0-1.2.6-1.2,1.3,0,.7.5,1.3,1.2,1.3Z"/>
        <path class="st4" d="M920.4,168.8c.7,0,1.3-.7,1.3-1.5s-.6-1.5-1.3-1.5c-.7,0-1.3.7-1.3,1.5s.6,1.5,1.3,1.5Z"/>
        <path class="st4" d="M925.5,168.9c.8,0,1.4-.7,1.4-1.6,0-.9-.6-1.6-1.4-1.6s-1.4.7-1.4,1.6c0,.9.6,1.6,1.4,1.6Z"/>
        <path class="st4" d="M930.7,168.9c.8,0,1.5-.7,1.5-1.6s-.7-1.6-1.5-1.6c-.8,0-1.5.7-1.5,1.6s.7,1.6,1.5,1.6Z"/>
        <path class="st4" d="M935.8,168.9c.8,0,1.5-.7,1.5-1.6,0-.9-.7-1.6-1.5-1.6-.8,0-1.5.7-1.5,1.6,0,.9.7,1.6,1.5,1.6Z"/>
        <path class="st4" d="M940.9,168.8c.8,0,1.4-.7,1.4-1.5s-.6-1.5-1.4-1.5c-.8,0-1.4.7-1.4,1.5s.6,1.5,1.4,1.5Z"/>
        <path class="st4" d="M946,168.7c.7,0,1.2-.6,1.2-1.4s-.6-1.4-1.2-1.4-1.2.6-1.2,1.4.6,1.4,1.2,1.4Z"/>
        <path class="st4" d="M951.1,168.5c.6,0,1-.5,1-1.1s-.5-1.1-1-1.1-1,.5-1,1.1c0,.6.5,1.1,1,1.1Z"/>
        <path class="st4" d="M956.3,168.2c.4,0,.8-.4.8-.9,0-.5-.4-.9-.8-.9s-.8.4-.8.9.4.9.8.9Z"/>
        <path class="st4" d="M961.4,167.9c.3,0,.5-.3.5-.6s-.2-.6-.5-.6-.5.3-.5.6.2.6.5.6Z"/>
        <path class="st4" d="M966.5,167.6c.1,0,.2-.1.2-.2s-.1-.2-.2-.2-.2.1-.2.2.1.2.2.2Z"/>
        <path class="st4" d="M900,173s0,0,0,0,0,0,0,0,0,0,0,0,0,0,0,0Z"/>
        <path class="st4" d="M905.1,173.3c.2,0,.4-.2.4-.4s-.2-.4-.4-.4-.4.2-.4.4c0,.2.2.4.4.4Z"/>
        <path class="st4" d="M910.2,173.6c.3,0,.6-.3.6-.6,0-.4-.3-.6-.6-.6s-.6.3-.6.6c0,.4.3.6.6.6Z"/>
        <path class="st4" d="M915.3,173.8c.4,0,.8-.4.8-.8,0-.5-.3-.8-.8-.8-.4,0-.8.4-.8.8s.3.8.8.8Z"/>
        <path class="st4" d="M920.4,173.9c.5,0,.9-.4.9-1s-.4-1-.9-1-.9.4-.9,1,.4,1,.9,1Z"/>
        <path class="st4" d="M925.5,174c.6,0,1-.5,1-1.1s-.5-1.1-1-1.1-1,.5-1,1.1c0,.6.4,1.1,1,1.1Z"/>
        <path class="st4" d="M930.7,174.1c.6,0,1-.5,1-1.1s-.5-1.1-1-1.1-1,.5-1,1.1c0,.6.5,1.1,1,1.1Z"/>
        <path class="st4" d="M935.8,174.1c.6,0,1-.5,1-1.1,0-.6-.5-1.1-1-1.1-.6,0-1,.5-1,1.1s.5,1.1,1,1.1Z"/>
        <path class="st4" d="M940.9,174c.5,0,1-.5,1-1,0-.6-.4-1-1-1s-1,.5-1,1,.4,1,1,1Z"/>
        <path class="st4" d="M946,173.8c.5,0,.8-.4.8-.9,0-.5-.4-.9-.8-.9-.5,0-.8.4-.8.9s.4.9.8.9Z"/>
        <path class="st4" d="M951.1,173.6c.4,0,.7-.3.7-.7s-.3-.7-.7-.7-.7.3-.7.7.3.7.7.7Z"/>
        <path class="st4" d="M956.3,173.4c.2,0,.4-.2.4-.5,0-.3-.2-.5-.4-.5s-.4.2-.4.5c0,.3.2.5.4.5Z"/>
        <path class="st4" d="M961.4,173.1c0,0,.2,0,.2-.2s0-.2-.2-.2-.2,0-.2.2,0,.2.2.2Z"/>
        <path class="st4" d="M910.2,178.7c0,0,.2,0,.2-.2s0-.2-.2-.2-.2,0-.2.2,0,.2.2.2Z"/>
        <path class="st4" d="M915.3,178.9c.2,0,.4-.2.4-.4s-.2-.4-.4-.4-.4.2-.4.4.2.4.4.4Z"/>
        <path class="st4" d="M920.4,179.1c.3,0,.5-.2.5-.5s-.2-.5-.5-.5-.5.2-.5.5.2.5.5.5Z"/>
        <path class="st4" d="M925.5,179.2c.3,0,.6-.3.6-.6s-.3-.6-.6-.6c-.3,0-.6.3-.6.6,0,.3.3.6.6.6Z"/>
        <path class="st4" d="M930.7,179.2c.3,0,.6-.3.6-.7,0-.4-.3-.7-.6-.7s-.6.3-.6.7c0,.4.3.7.6.7Z"/>
        <path class="st4" d="M935.8,179.2c.3,0,.6-.3.6-.6,0-.3-.3-.6-.6-.6s-.6.3-.6.6c0,.4.3.6.6.6Z"/>
        <path class="st4" d="M940.9,179.1c.3,0,.5-.3.5-.6s-.2-.6-.5-.6c-.3,0-.5.3-.5.6,0,.3.2.6.5.6Z"/>
        <path class="st4" d="M946,179c.2,0,.4-.2.4-.4s-.2-.4-.4-.4-.4.2-.4.4c0,.2.2.4.4.4Z"/>
        <path class="st4" d="M951.1,178.8c.1,0,.2-.1.2-.3,0-.1-.1-.3-.2-.3s-.2.1-.2.3c0,.1.1.3.2.3Z"/>
        <path class="st4" d="M956.3,178.6s0,0,0,0,0,0,0,0,0,0,0,0,0,0,0,0Z"/>
        <path class="st4" d="M920.4,184.2s0,0,0,0,0,0,0,0,0,0,0,0,0,0,0,0Z"/>
        <path class="st4" d="M925.5,184.3c0,0,.1,0,.1-.1s0-.1-.1-.1-.1,0-.1.1,0,.1.1.1Z"/>
        <path class="st4" d="M930.7,184.3c0,0,.2,0,.2-.2s0-.2-.2-.2-.2,0-.2.2,0,.2.2.2Z"/>
        <path class="st4" d="M935.8,184.3c0,0,.1,0,.1-.1s0-.1-.1-.1-.1,0-.1.1c0,0,0,.1.1.1Z"/>
        <path class="st4" d="M940.9,184.2s0,0,0,0,0,0,0,0,0,0,0,0,0,0,0,0Z"/>
      </g>
      <g>
        <path class="st2" d="M1057.4,125.1h0c0-4.8,0-10.9-5.9-10.9h-8.3c.8-.9,1.7-1.9,2.6-3l2.4-2.6c5.2-5.7,7.7-9.5,8.2-12.9l.2-7.4v-2.1c0-3.4-1.6-5.1-2.7-5.8-1.1-.8-2.5-1.4-4.3-1.5-.2,0-.3,0-.5,0h-6.8c-13.3.3-21.8.4-25.3.4h-5.3c-.3,0-.7-.1-1.2-.1h-1.7c0,0-.4-.4-.4-.4h-23.1l-.8.9-4.7-.6c-.5,0-1.3,0-2.5-.1-.5,0-.9,0-1,0h-1c0-.1-.1-.1-.1-.1-1.4,0-2.7,0-4,0-2.8,0-5.1,0-7.2.2,0,0,0-.1,0-.2-.1-.4-.3-.8-.4-1.2,0-.2-.1-.3-.2-.5,0,0,0-.1,0-.2-.2-.4-.3-.7-.5-1-.4-.9-.9-1.6-1.2-2.2,0-.1-.1-.2-.2-.3-.1-.2-.3-.4-.4-.5,0,0,0-.1-.2-.2,0,0-.1-.2-.2-.2,0,0,0,0-.1-.1,0,0,0,0,0,0-.3-.4-.7-.8-1-1.2-3-3.1-6.9-5.3-11.4-6.5-4.4-1.2-9.2-1.3-14.4-.5-7.6,1.3-14.2,4.1-19.9,8.5-1.4,1.1-2.7,2.2-3.9,3.5-.5.5-.9,1-1.4,1.5-.2.3-.4.5-.7.8-.7.8-1.3,1.6-1.9,2.4-.4.6-.8,1.1-1.1,1.7-.2.3-.4.6-.5.9-.2.3-.3.6-.5.9-.2.3-.3.6-.5.9h0c0-.1-.2-.2-.3-.3,0,0,0,0,0,0,0,0,0-.2-.1-.3,0,0,0,0,0,0,0,0-.1-.2-.2-.3-.1-.2-.3-.5-.5-.7-.2-.2-.4-.5-.5-.8,0,0-.2-.2-.2-.3-.9-1.2-1.9-2.3-2.2-2.7-1.8-2.2-4.2-3.8-6.9-4.9-4.6-1.8-9.6-2.3-15-1.4-.4,0-.8.1-1.2.2-.3,0-.6.1-1,.2-.3,0-.7.2-1,.3-.2,0-.4.1-.6.2-.7.2-1.4.4-2.1.7-.3,0-.5.2-.8.3-.1,0-.3,0-.4.2-.3.1-.6.2-.8.3-.6.3-1.2.6-1.8.9-.2.1-.5.2-.7.4-.5.3-.9.5-1.4.8-.2.1-.5.3-.7.4-.5.3-.9.6-1.4.9-.2.1-.4.2-.5.4-.3.2-.5.4-.7.6-.3.2-.6.5-.9.8-.3.2-.6.5-.8.7,0,0,0,0,0,0,0-.1-.2-.3-.3-.4-.7-.9-2.4-2.5-5.4-2.5h-.6s-11.6,0-11.6,0l-16.9.2h-1c-3.6,0-9.6,0-9.6,5.7,0,0-.2,43.4-.2,43.4,0,3.2-.4,8.8,2.8,9.5,1.2.3,2.5.1,3.7.1,1.8,0,3.6,0,5.4,0,3.5,0,7,0,10.5,0,.5,0,1,0,1.5,0h.5c2.5-.3,5.3-2.4,5.3-6.3v-4.1s0-7.1,0-7.1c1.9,0,3.7-.2,5.5-.2,0,.4.1.7.2,1.1,0,.2,0,.3,0,.5,0,.3.1.6.2.9,0,0,0,0,0,0,.2.8.4,1.7.7,2.5.1.4.3.8.4,1.2.1.4.3.8.4,1.2,0,0,0,0,0,0,.2.4.3.8.5,1.2.2.4.3.7.5,1.1.3.6.7,1.2,1,1.8,0,.1.2.3.3.4.1.2.3.4.4.6.2.2.3.4.5.7,0,0,0,0,0,.1.1.2.3.4.5.6.2.2.4.4.6.7,0,.1.2.2.3.3.1.1.2.3.4.4.2.2.4.4.6.6,0,0,0,0,0,0,.2.2.4.4.6.5.2.2.4.3.6.5.3.2.6.4.8.6,4.2,3,9.7,4.4,16.4,4.1,3.9-.2,7.9-1.2,11.9-3,4.5-1.9,8.1-4.7,10.8-8.2l1.7-2.5c.7-1,1.9-3.2,1.9-3.2,0,0,.3.6.5.9,1.2,1.7,2.5,3.2,3.8,4.7,1.4,1.6,2.8,3,4.5,4.3,5.3,3.9,11.6,5.2,18.1,4.9,2.3-.1,5.8-.5,10.5-1.3,4.3-.7,8-1.1,11-1.2,4-.2,9.6,1.3,13.5-.9.4-.2.8-.6,1.2-1,.3-.3.6-.7.8-1.1,0-.1.2-.3.3-.4,4.9,3.3,11.1,4.9,18.6,4.9s14.8-1.9,19.5-5.7h0c0,.1.9,1.5.9,1.5.9,1.3,2,2.2,3.2,2.8,1,.4,2.1.6,3.4.6l37.4-.3h.8c1.8,0,3.2-.4,4.4-1.2,1-.7,2.7-2.4,2.7-5.8v-5.4Z"/>
        <g>
          <path class="st7" d="M854.9,82s-28.1,0-33.5.1c-1.2,0-.9,1.9-.9,1.9l-.2,41.4c0,1,0,2.1,0,3.5s.6.7.6.8l17.8-.2c.4,0,.6-.4.6-1v-4s-.2-12.4-.2-12.4c4.5-.1,8.7-.3,12.4-.5h1.7c0,0,.4,0,.4,0,.6,0,1-.1,1.3-.3.3-.2.4-.7.4-1.4v-10.5c-.6-.4-2.1-.2-4.6-.2s-6.3,0-11.6.3c0-.7,0-1.4,0-2.1v-2.7c0,0,0-.9,0-.9h7.2c4.2,0,7.6-.1,10-.3,0-2.2.1-4.8.1-7.6v-.2s0-2.3,0-2.3c0-.5,0-.8-.3-1-.2-.3-.6-.4-1.2-.4Z"/>
          <path class="st7" d="M975.4,82.1c-5.3,0-9.4,0-12.4.2h-.7c-.2.5-.3,1.5-.3,3.7s0,3.3.2,3.3c0,7.4,0,15.4-.2,24.1.2,2.6.8,4.8,1.8,6.9,1,2,2.3,3.7,3.7,5,4.2,3.7,10,5.5,17.6,5.5s13.2-1.7,17.1-5.2c1.4-1.3,2.6-2.9,3.4-5,.9-2.1,1.3-4.4,1.3-7.1v-8.8c0,0,0-1.8,0-1.8v-5.4c0-6.2,0-10.7.3-14.6,0,0,0-.7-.9-.6-4,0-10.2,0-18.1,0-.2,0-.4.2-.4.4-.1,4.6,0,9.3.1,13.9,0,3.1,0,6.2,0,9.2,0,3.3.5,7.7-1.2,10.7-.5,1-1.6,1.3-2.6,1.3-2.4,0-3.6-2.1-3.6-6.2,0,0,0-24.9-.1-29,0-.3-.2-.5-.5-.5h-4.6Z"/>
          <path class="st7" d="M1052.2,126.1s0-6-.3-8.4c0-.5-.5-.9-1-.9l-19,.2,3.6-4.3c1.7-2,3.8-4.6,6.5-7.8l2.4-2.6c4.2-4.6,6.5-8,6.8-10v-6.6c0,0,0,0,0,0v-2.1c0-.8-.1-1.3-.4-1.5-.3-.2-.9-.4-1.6-.4,0,0-28.6.4-32.1.4h-6.1c-.3,0-.3.2-.3.2,0,2.6.1,10.3.3,11.5,0,.1,0,.3.2.3,0,0,.1,0,.2,0,2.2,0,18.2-.2,18.2-.2-3.6,4.3-8.6,10.4-15,18.5,0,0-4.7,5.5-4.7,5.5-.1.2,0,1.5,0,1.7,0,.8,0,1.6,0,2.4,0,1.1,0,2.2,0,3.2,0,.7,0,1.3,0,2,0,1-.2,1.9.9,2.4.3.1.7.2,1.3.2l37.4-.3h.8c.7,0,1.1,0,1.4-.3s.4-.6.4-1.3v-1.8Z"/>
        </g>
        <path class="st2" d="M943.7,94l-.3,4.8v.7c-.3,3.4-.9,6.5-1.8,9.2-.4,1.1-1.2,2.2-2.5,3.4-1.3,1.2-2.9,1.9-4.9,2.1h-1.8c0,0-.6.2-.6.2h0c-2.6.2-4.5-.2-5.9-1.4-1.4-1.1-2.5-3.1-3.2-5.9-.3-1.2-.5-3.5-.4-6.8,1,.2,2.2.2,3.7,0h0s.5,0,.5,0h.7c0,0,.8-.1.8-.1,1.6-.2,2.9-.5,3.9-1.1,1-.6,1.6-1.1,1.9-1.5.7-1.1,1.2-2.4,1.3-3.8v-.3l.2-2c0-1.8-.4-3-1.3-3.7-.9-.7-2.1-1.1-3.7-1.2-.9,0-2.1,0-3.6.2-.5,0-1,.2-1.5.3.8-1.6,1.8-2.9,2.9-3.8,1.6-1.3,3.3-2.1,5.2-2.3,1.9-.3,3.4-.2,4.6,0,2,.4,3.5,1.6,4.6,3.5,1.1,1.9,1.6,5.1,1.5,9.5Z"/>
        <path class="st2" d="M883.1,93.6c-.9-1.6-2.1-2.6-3.6-3-.9-.2-2.1-.3-3.5,0-1.4.2-2.7.8-3.9,1.9-.8.8-1.5,1.8-2.1,3.1.3,0,.6-.1.9-.2,1.1-.1,2-.2,2.7-.1,1.2,0,2.1.4,2.8,1,.7.6,1,1.7,1,3.1v1.6c-.1,0-.1.2-.1.2,0,1.2-.4,2.2-.9,3.2-.2.4-.7.8-1.4,1.3-.7.4-1.7.7-2.9.9h-.6s-.5,0-.5,0h-.3c0,0,0,0,0,0-1,.1-1.8.1-2.6,0,0,2.7.1,4.6.4,5.6.6,2.3,1.4,4,2.5,4.9,1.1.9,2.6,1.3,4.6,1.2h0s.4,0,.4,0h.7c0,0,.7,0,.7,0,1.5-.1,2.8-.7,3.7-1.7,1-1,1.6-2,1.8-2.9.7-2.2,1.1-4.8,1.3-7.7v-.6l.2-4c0-3.7-.4-6.3-1.3-7.9ZM883.1,93.6c-.9-1.6-2.1-2.6-3.6-3-.9-.2-2.1-.3-3.5,0-1.4.2-2.7.8-3.9,1.9-.8.8-1.5,1.8-2.1,3.1.3,0,.6-.1.9-.2,1.1-.1,2-.2,2.7-.1,1.2,0,2.1.4,2.8,1,.7.6,1,1.7,1,3.1v1.6c-.1,0-.1.2-.1.2,0,1.2-.4,2.2-.9,3.2-.2.4-.7.8-1.4,1.3-.7.4-1.7.7-2.9.9h-.6s-.5,0-.5,0h-.3c0,0,0,0,0,0-1,.1-1.8.1-2.6,0,0,2.7.1,4.6.4,5.6.6,2.3,1.4,4,2.5,4.9,1.1.9,2.6,1.3,4.6,1.2h0s.4,0,.4,0h.7c0,0,.7,0,.7,0,1.5-.1,2.8-.7,3.7-1.7,1-1,1.6-2,1.8-2.9.7-2.2,1.1-4.8,1.3-7.7v-.6l.2-4c0-3.7-.4-6.3-1.3-7.9ZM965.2,107.5c4.5-26.1-4.4-35.1-4.4-35.1-.3-.4-.7-.8-1-1.2-3-3.1-6.9-5.3-11.4-6.5-4.4-1.2-9.2-1.4-14.4-.5-7.6,1.3-14.2,4.1-19.9,8.5-4.6,3.5-8.1,7.9-10.7,12.9.4-.8-3.3-5-3.9-5.8-1.8-2.2-4.2-3.8-6.9-4.9-4.6-1.8-9.6-2.3-15-1.4-8.3,1.4-16.1,6.1-21.2,12.8-5.1,6.7-6.7,15.5-7,23.8-.3,9.8,1.8,21.3,10.2,27.3,4.2,3,9.7,4.4,16.4,4.1,3.9-.2,7.9-1.2,11.9-3,4.5-1.9,8.1-4.7,10.8-8.2,0,0,1.7-2.5,1.7-2.5.7-1,1.9-3.2,1.9-3.2,0,0,.3.6.5.9,1.2,1.7,2.5,3.2,3.8,4.7,1.4,1.6,2.8,3,4.5,4.3,5.3,3.9,11.6,5.2,18.1,4.9,2.3-.1,5.8-.5,10.5-1.3,4.3-.7,8-1.1,11-1.2,4-.2,9.6,1.3,13.5-.9,6.2-3.6,9.4-28.7,1-28.7ZM896.2,121.2l-1.5,2.3c-2,2.7-4.8,4.8-8.4,6.4-3.5,1.6-7,2.5-10.3,2.7-5.7.4-10.2-.7-13.7-3.2-5.8-4-8.7-11.4-8.7-22.3h0v-.7c.3-2.8.6-5.3,1-7.5.4-2.2,1-4.3,1.8-6.3,2-4.5,4.9-8.1,8.6-10.9,3.8-2.8,7.9-4.6,12.4-5.3,4.6-.7,8.8-.3,12.6,1.2,2.3.9,4.1,2.3,5.4,4.1,2.5,3.2,4.1,6.3,4.9,9.1.8,2.9,1.1,6.3,1,10.2-.2,8.7-1.9,15.4-5.2,20.1ZM962.6,112.7v.4c0,.2,0,.5-.1,1v1.5c0,0,0,.5,0,.5v3.9c-.1,0-.2,1-.2,1v1.9c0,0-.2,1.4-.2,1.4v1.8c-.2.4-.5.7-1,1-3.3-.2-6.7-.2-10,0-3.3.2-7.2.7-11.7,1.5-4.5.8-7.7,1.2-9.8,1.4-16,1-25.6-12.3-25.3-28,0-4.2.7-8,1.8-11.5,2-6.5,5.6-11.8,10.9-15.8,4.8-3.7,10.4-6.1,16.9-7.1,4.3-.7,8.3-.6,11.9.4,3.6,1,6.6,2.7,9,5.2,5,5.1,7.3,12.1,6.9,20.9-.1,2.8-.7,5.7-1.9,8.9-1.1,3.1-2.6,5.9-4.4,8.5l2.2-.2h0s2.6-.3,2.6-.3c1.8,0,2.7.4,2.6,1.5v.4ZM879.6,90.6c-.9-.2-2.1-.3-3.5,0-1.4.2-2.7.8-3.9,1.9-.8.8-1.5,1.8-2.1,3.1.3,0,.6-.1.9-.2,1.1-.1,2-.2,2.7-.1,1.2,0,2.1.4,2.8,1,.7.6,1,1.7,1,3.1v1.6c-.1,0-.1.2-.1.2,0,1.2-.4,2.2-.9,3.2-.2.4-.7.8-1.4,1.3-.7.4-1.7.7-2.9.9h-.6s-.5,0-.5,0h-.3c0,0,0,0,0,0-1,.1-1.8.1-2.6,0,0,2.7.1,4.6.4,5.6.6,2.3,1.4,4,2.5,4.9,1.1.9,2.6,1.3,4.6,1.2h0s.4,0,.4,0h.7c0,0,.7,0,.7,0,1.5-.1,2.8-.7,3.7-1.7,1-1,1.6-2,1.8-2.9.7-2.2,1.1-4.8,1.3-7.7v-.6l.2-4c0-3.7-.4-6.3-1.3-7.9-.9-1.6-2.1-2.6-3.6-3Z"/>
        <g>
          <path class="st7" d="M884.4,101.5l-.2,4v.6c-.1,2.9-.6,5.4-1.3,7.7-.3.9-.9,1.9-1.8,2.9-.9,1-2.2,1.6-3.7,1.7h-1.4c0,0-.4.1-.4.1h0c-2,.2-3.5-.2-4.6-1.2-1.1-.9-1.9-2.6-2.5-4.9-.3-1-.4-2.9-.4-5.6.7.1,1.6.1,2.6,0h0s.3,0,.3,0h.5c0,0,.6,0,.6,0,1.2-.1,2.2-.4,2.9-.9.7-.5,1.2-.9,1.4-1.3.5-.9.8-2,.9-3.2v-1.9c.1-1.5-.2-2.5-.9-3.1-.7-.6-1.6-.9-2.8-1-.7,0-1.6,0-2.7.1-.3,0-.6,0-.9.2.6-1.3,1.3-2.3,2.1-3.1,1.2-1.1,2.5-1.7,3.9-1.9,1.4-.2,2.6-.2,3.5,0,1.5.4,2.7,1.4,3.6,3,.9,1.6,1.3,4.3,1.3,7.9Z"/>
          <path class="st7" d="M943.7,94l-.3,4.8v.7c-.3,3.4-.9,6.5-1.8,9.2-.4,1.1-1.2,2.2-2.5,3.4-1.3,1.2-2.9,1.9-4.9,2.1h-1.8c0,0-.6.2-.6.2h0c-2.6.2-4.5-.2-5.9-1.4-1.4-1.1-2.5-3.1-3.2-5.9-.3-1.2-.5-3.5-.4-6.8,1,.2,2.2.2,3.7,0h0s.5,0,.5,0h.7c0,0,.8-.1.8-.1,1.6-.2,2.9-.5,3.9-1.1,1-.6,1.6-1.1,1.9-1.5.7-1.1,1.2-2.4,1.3-3.8v-.3l.2-2c0-1.8-.4-3-1.3-3.7-.9-.7-2.1-1.1-3.7-1.2-.9,0-2.1,0-3.6.2-.5,0-1,.2-1.5.3.8-1.6,1.8-2.9,2.9-3.8,1.6-1.3,3.3-2.1,5.2-2.3,1.9-.3,3.4-.2,4.6,0,2,.4,3.5,1.6,4.6,3.5,1.1,1.9,1.6,5.1,1.5,9.5Z"/>
          <path class="st7" d="M960,110.8s-2.6.3-2.6.3h0s-2.2.2-2.2.2c1.8-2.6,3.3-5.4,4.4-8.5,1.1-3.1,1.7-6.1,1.9-8.9.3-8.8-2-15.8-6.9-20.9-2.4-2.4-5.4-4.1-9-5.2-3.6-1-7.6-1.1-11.9-.4-6.5,1-12.1,3.4-16.9,7.1-5.3,4-8.9,9.3-10.9,15.8-1.1,3.5-1.7,7.4-1.8,11.5-.3,15.7,9.3,29,25.3,28,2.1-.1,5.4-.6,9.8-1.4,4.5-.8,8.4-1.3,11.7-1.5,2-.1,4.1-.2,6.1-.1,1,0,2.1,0,3.1.1.6,0,1.3,0,1.6-.6,1.7-2.8,4.8-16.4-1.9-15.6ZM943.7,94l-.3,4.8v.7c-.3,3.4-.9,6.5-1.8,9.2-.4,1.1-1.2,2.2-2.5,3.4-1.3,1.2-2.9,1.9-4.9,2.1h-1.8c0,0-.6.2-.6.2h0c-2.6.2-4.5-.2-5.9-1.4-1.4-1.1-2.5-3.1-3.2-5.9-.3-1.2-.5-3.5-.4-6.8,1,.2,2.2.2,3.7,0h0s.5,0,.5,0h.7c0,0,.8-.1.8-.1,1.6-.2,2.9-.5,3.9-1.1,1-.6,1.6-1.1,1.9-1.5.7-1.1,1.2-2.4,1.3-3.8v-.3l.2-2c0-1.8-.4-3-1.3-3.7-.9-.7-2.1-1.1-3.7-1.2-.9,0-2.1,0-3.6.2-.5,0-1,.2-1.5.3.8-1.6,1.8-2.9,2.9-3.8,1.6-1.3,3.3-2.1,5.2-2.3,1.9-.3,3.4-.2,4.6,0,2,.4,3.5,1.6,4.6,3.5,1.1,1.9,1.6,5.1,1.5,9.5Z"/>
          <path class="st7" d="M900.3,90.9c-1.4-5.4-5-11.1-10.3-13.2-3.8-1.5-8-1.9-12.6-1.2-4.5.7-8.6,2.5-12.4,5.3-3.7,2.8-6.6,6.4-8.6,10.9-.8,2-1.5,4.1-1.8,6.3-.4,2.2-.7,4.7-.9,7.5,0,0,0,.7,0,.7,0,10.9,2.9,18.2,8.7,22.3,3.5,2.4,8,3.5,13.7,3.2,3.3-.3,6.8-1.2,10.3-2.7,3.6-1.6,6.4-3.8,8.4-6.4l1.5-2.3c3.3-4.7,5-11.5,5.2-20.1,0-3.9-.3-7.3-1-10.2ZM884.2,105.5v.6c-.1,2.9-.6,5.4-1.3,7.7-.3.9-.9,1.9-1.8,2.9-.9,1-2.2,1.6-3.7,1.7h-1.4c0,0-.4.1-.4.1h0c-2,.2-3.5-.2-4.6-1.2-1.1-.9-1.9-2.6-2.5-4.9-.3-1-.4-2.9-.4-5.6.7.1,1.6.1,2.6,0h0s.3,0,.3,0h.5c0,0,.6,0,.6,0,1.2-.1,2.2-.4,2.9-.9.7-.5,1.2-.9,1.4-1.3.5-.9.8-2,.9-3.2v-1.9c.1-1.5-.2-2.5-.9-3.1-.7-.6-1.6-.9-2.8-1-.7,0-1.6,0-2.7.1-.3,0-.6,0-.9.2.6-1.3,1.3-2.3,2.1-3.1,1.2-1.1,2.5-1.7,3.9-1.9,1.4-.2,2.6-.2,3.5,0,1.5.4,2.7,1.4,3.6,3,.9,1.6,1.3,4.3,1.3,7.9l-.2,4Z"/>
        </g>
        <path class="st2" d="M884.5,101.5c-.1,4.1-.4,8.3-1.5,12.2-.3.9-.9,1.9-1.8,2.9-2.2,2.3-7.8,2.7-10.2.7-1.1-.9-1.9-2.6-2.5-4.9-.3-1-.4-2.9-.4-5.6,0,.3,2.2,0,2.4,0,1.6-.2,3.3-.3,4.7-1.1,1.5-.9,2-2.7,2.2-4.3.1-1.5.3-3.9-1-5-.7-.6-1.6-.9-2.8-1-.7,0-1.6,0-2.7.1-.3,0-.6,0-.9.2.6-1.3,1.3-2.3,2.1-3.1,1.2-1.1,2.5-1.7,3.9-1.9,1.4-.2,2.6-.2,3.5,0,1.5.4,2.7,1.4,3.6,3,1.2,2.3,1.4,4.9,1.4,7.4,0,.2,0,.3,0,.5Z"/>
        <rect class="st5" x="962.4" y="78.9" width="87.3" height="1.9"/>
        <path class="st2" d="M943.9,94c-.3,4.9-.8,10-2.3,14.7-1,3-3.9,5-7,5.4-2.8.4-6.4.8-8.7-1.1-1.4-1.1-2.5-3.1-3.2-5.9-.3-1.2-.5-3.5-.4-6.8,0,.4,6.3-.3,7-.4s1.7-.4,2.4-.9c1-.6,1.6-1.1,1.9-1.5,1-1.6,1.3-3.5,1.4-5.4,0-1.5.1-3.3-1.2-4.4-.9-.7-2.1-1.1-3.7-1.2-.9,0-2.1,0-3.6.2-.5,0-1,.2-1.5.3.8-1.6,1.8-2.9,2.9-3.8,1.6-1.3,3.3-2.1,5.2-2.3,1.9-.3,3.4-.2,4.6,0,2,.4,3.5,1.6,4.6,3.5,1.7,2.9,1.8,6.2,1.6,9.5Z"/>
        <g>
          <path class="st8" d="M877.3,154.3c9.8,15.5,12.3,4.5,28.2,4.7,11.4.1,29.8-.2,26.8-11.5-3-11.4-19.3-21.4-37.2-17.2-15.3,3.6-22.6,16.5-17.8,24Z"/>
          <path class="st3" d="M895.6,162.6c-6.4,4-14.9,0-18.6-5.9-2.6-4.6-2.8-10-1-14.7.3-1,2.8-5.4,4-4,.2.3.2.7-.1,1-1.1.9-1.8,2.2-2.3,3.6-2.4,7.3.7,15.6,8.3,17.9,2.7.9,5.7.8,7.7-.7,1.9-1.4,4,1.5,2,2.8h0Z"/>
          <path class="st4" d="M895,158.7c-1.2-1.8-3-3.3-4.9-4-1.9-.6-3.9-.3-5,1-1,1.3-.9,3.7.5,5.2,1.1,1.2,2.7,1.8,4.2,1.7s2.8-.5,4.1-1.1c.6-.3,1.3-.6,1.6-1.2.3-.6-.2-1.7-1-1.9"/>
          <g>
            <path class="st8" d="M924.1,132.2c9.4,1.9,18.3,4.9,18.7,14.9.3,8.1-11.3,16.5-19.8,13.4"/>
            <path class="st3" d="M924.6,129.6c7.2.9,15.5,3.1,19.3,10.1,4.2,8.1.4,16.3-7.1,20.3-4.2,2.3-9.7,3.3-14,1-.2-.1-.3-.5-.2-.7.1-.2.3-.3.5-.3,4.2.7,8.3-1,11.4-3.4,2.8-2.2,5.5-5.6,5.4-9.1-.1-3.5-1.9-6.6-5-8.5-3.1-2-7.3-3.1-11.4-4.3-3-.9-2.1-5.4,1-5.1h0Z"/>
          </g>
          <path class="st4" d="M913,158.1c.5-2.5,2.1-5,4.6-6.5,2.6-1.5,6.4-1.9,9.5-.6,3.1,1.3,5,4.6,3.7,7.1-1,2-3.6,3.2-6.2,3.5-2.6.3-5.2,0-7.7-.3-1.2-.2-2.5-.3-3.4-1.1s-1-2.1,0-2.5"/>
          <g>
            <path class="st8" d="M928.9,138.7c-6.6-3.3-15.1-16.2-28.6-13.9-10.7,1.9-16.6,11.1-14.2,19.4"/>
            <path class="st3" d="M928.6,139.2c-6.6-3.5-11.5-9.6-18.6-12.1-6.5-2.5-14.5-.8-19.3,4.2-3.2,3.3-4.8,8.1-3.7,12.7.1.5-.2,1-.7,1.1-.5.1-.9-.2-1.1-.6-1.8-5.2-.2-11.1,3.5-15.1,5.5-6,14.8-7.9,22.3-4.8,4.9,1.9,8.8,5.4,12.5,8.9,1.8,1.7,3.7,3.4,5.7,4.6.7.4.1,1.5-.6,1.1h0Z"/>
          </g>
          <g>
            <path class="st8" d="M891.9,155.6c.6,2.2,3.7,11.2,15.1,7.5,4-1.3,6.5-5.3,7.3-6.9"/>
            <path class="st3" d="M892.5,155.4c2.1,6.2,7.2,8.8,13.4,6.8,3.4-.9,5.8-3.5,7.8-6.4.4-.7,1.5-.1,1.2.6-2,5.2-6.7,8.5-12.2,8.6-5.7.5-10.4-3.9-11.4-9.3-.2-.8,1-1.1,1.2-.3h0Z"/>
          </g>
        </g>
        <path class="st2" d="M886.7,133.2c0,5-6.4,9-14.4,9s-16.7-5.9-20-14l12.9,5.4,13,1.9,8.4-2.4Z"/>
      </g>
      <path class="st3" d="M892.5,168.6c-.9,14.7-18.3,24.3-31.2,17.2,3.3.7,6.6.8,9.9.4,9.9-1.2,17.9-8.3,21.4-17.5h0Z"/>
      <path class="st3" d="M924.3,160.3c1.3,5.2,2.2,10.8,5.1,15.4,2.8,4.4,7.5,7.1,12.7,8,5.1,1.1,10.3-.3,15.1-2.3,4.9-2.1,9.6-5.1,14.7-7.4,5.2-2.4,10.9-3.8,16.6-4,17-1.1,34.3,9,41.3,24.6,0,0-.7.3-.7.3-10.7-19.4-35.9-27.4-55.8-17.8-7.3,3.4-14.7,8.7-23.1,10-8.6,1.6-18.6-2.3-22.7-10.3-2.6-5.2-2.9-10.9-3.2-16.5h0Z"/>
      <path class="st3" d="M1041.2,143.5c7,1.2,14.3-1.2,18.5-7.1,1.4-1.9,2.4-4,3.2-6.4,1.3,11.2-12.2,19.6-21.7,13.5h0Z"/>
      <path class="st3" d="M1041.6,148.5c10.7,1.1,23.1-2.2,27-13.5.6,13.1-16.8,19.3-27,13.5h0Z"/>
      <g>
        <path class="st3" d="M1092.2,134c7.4-3.4,17.5,1.5,19.3,9.4-1.2-1.5-2.5-2.9-4-4-4.4-3.5-9.7-5.4-15.4-5.4h0Z"/>
        <path class="st3" d="M1094.4,130.4c5.2-3.4,14.7-2.1,16,4.8-3.7-5.1-10.3-5.4-16-4.8h0Z"/>
      </g>
      <path class="st3" d="M916,164.2c.9,7.7-1.4,21.1,4.2,27-2.5-.7-3.9-3.2-4.9-5.4-2.7-6.9-1.6-14.7.7-21.5h0Z"/>
      <path class="st3" d="M948.4,181.8c15.2-6.6,30.4-24,48.3-15.6,1,.6,2,1.2,2.9,2-8.4-4.4-18-2.1-26,2-8.2,4-16,9.9-25.2,11.6h0Z"/>
      <path class="st3" d="M843,150.2c10.7,2.9,15.1,18.3,27.6,16.4-2.5,1.6-5.8,1.6-8.6.6-8.6-2.9-11.9-12-18.9-17h0Z"/>
      <path class="st3" d="M776.5,174c8.5-22.3,35.8-29.4,56.8-22.3,5.1,1.7,10.1,4.1,14.1,7.8,2,1.8,3.9,3.7,5.8,5.6,10.9,11.9,23.9,11.1,32.3-2.9,0,0,3.6,2,3.6,2-11.1,12.9-24.6,14.1-36.2,1.2-1.9-1.9-3.7-3.9-5.7-5.7-12.3-10.4-30.9-11.1-45.5-5.6-9.5,3.6-17.6,11.7-19.7,21.7,0,0-5.7-1.7-5.7-1.7h0Z"/>
      <path class="st3" d="M807.7,198.3c-1.3-7.4-1.4-16.5,4.5-22.2,5.4-5.4,13.9-7.2,21-4.5-10.3-2.5-22.3,4.5-22,15.5,0,3.3.7,6.7,1.7,10.1l-5.1,1.1h0Z"/>
      <path class="st3" d="M1032.4,201.3s1.4-4,1.6-4.5c8.7-20.2,37.2-24.3,53.3-9.8-12-12.6-33.3-14.4-47.5-4.2-4.1,2.9-7.6,6.6-10.1,11.1-14.1-6.9-28.7-4.3-41.8,4.4l.2.3c3.4-1.7,6.9-3.2,10.4-4.2,9.7-3,20.2-1.6,28.7,3.7.8.5,5.1,3.1,5.1,3.1Z"/>
      <g>
        <polygon class="st6" points="784.5 115.8 790.2 122.8 793.6 117.5 802.8 137.6 792.6 129.2 791.3 133.6 778 125.2 784.5 115.8"/>
        <path d="M784.5,115.7c2.1,1.8,4.6,4.1,6.5,6.4,0,0-1.7,0-1.7,0,1.1-1.8,2.3-3.5,3.6-5.2l1-1.3.5,1.4c1.1,3.1,2.7,7.4,4.2,10.2,2.1,4.4,4.7,8.9,6.9,13.4-4.6-3.4-9.2-7-13.6-10.6,0,0,1.9-.6,1.9-.6-.5,2-1.1,4-1.7,6-5.1-3.3-10.2-6.7-15.2-10.2,2.4-3.3,5.2-6.5,7.7-9.6h0ZM784.5,116c-2,3.3-3.8,6.5-5.7,9.7,0,0-.2-1.2-.2-1.2,4.5,2.6,9,5.4,13.5,8.1,0,0-1.8.7-1.8.7.6-2,1.2-4.2,1.8-6.2,3.8,3.3,7.7,6.4,11.4,9.7l-1.4,1.1c-2.5-6.8-5.4-13.8-9.1-20.1,0,0,1.5.1,1.5.1-1,1.9-2.1,3.7-3.3,5.4l-.8,1.2c-2-2.3-4.1-5.9-5.7-8.6h0Z"/>
      </g>
      <g>
        <polygon class="st6" points="1083.5 85 1076.7 94.4 1070.9 88.5 1064.3 116.5 1075.3 103.3 1078 108.5 1092.8 94.3 1083.5 85"/>
        <path d="M1083.5,85.1c-2.2,4.2-3.9,7.7-6.5,11.4-2.4-2.3-4.7-4.7-6.8-7.3l1.8-.5c-.7,2.3-1.5,4.6-2.1,6.9-2.1,6.9-3.1,14.1-4.4,21.2,0,0-2.1-1-2.1-1,1.7-2.3,3.5-4.5,5.3-6.8,1.1-1.4,5.8-7.3,6.8-8.6.6,1.2,1.9,3.6,2.5,4.8.5.9.9,1.8,1.4,2.6l-2.5-.4c5-4.7,10-9.3,15.2-13.9,0,0,0,1.6,0,1.6-2.8-3.1-5.8-6.8-8.6-10h0ZM1083.5,84.8c3.4,2.9,7.7,6.4,11,9.5-5,5.2-10.1,10.3-15.3,15.4,0,0-1.5,1.5-1.5,1.5-1.2-2.2-2.6-4.9-3.8-7.2,0,0,2.6.3,2.6.3-4.6,5.4-10.1,11.8-14.8,17,1.7-6.2,3.9-12.6,5.5-18.9,1.4-5.3,2.1-10.7,3-16.1,2.6,2.3,5.2,4.7,7.5,7.2,0,0-2,.2-2,.2,2.2-3.1,5.2-6.3,7.8-8.8h0Z"/>
      </g>
      <path class="st3" d="M690.3,183.3c-19.3-27.4-52.4-42.2-85.2-44.6-10.8-.9-21.7-.6-32.4,1,0,0-1.3-12.5-1.3-12.5,40.1-2.3,83,10.7,109.6,41.9,3.7,4.3,7.1,8.9,9.9,13.9l-.5.3h0Z"/>
      <path class="st3" d="M1291.1,106.1c-45.2-20.9-102.7-23.4-138.8,15.8-11.7,12.4-20.2,27.4-26.7,43.1,0,0-1-.4-1-.4,4.2-12.2,9.8-24,17-34.8,17.4-26.4,44.9-43.1,76.4-46.3,24.2-2.6,48.8,1.3,71.7,9.3,2.2.8,4.2,1.5,6.4,2.5,0,0-5.1,10.8-5.1,10.8h0Z"/>
      <path class="st3" d="M685.3,203.2c14.4-16.3,34.1-20.4,51-5.2,0,0-.1.1-.1.1-3.8-2.7-7.9-4.8-12.2-6-12.8-3.7-25.2,3.4-32.7,13.5-.3.4-.7.9-.9,1.2l-5.1-3.7h0Z"/>
      <path class="st3" d="M678.3,169.4l3.7,2,1.2.6c0,0,0-.1.1-.2,2.2-4.3,4.8-8.5,7.9-12.4,1.1-1.3,2.2-2.6,3.4-3.9,9.1-9.7,21.4-16.6,34.8-17.3,12.8-.4,25.8,4.6,35.6,12.6,6.1,5.2,10.7,11.8,15.2,18.4l.9-.6c-2.6-4.7-5.3-9.5-8.5-13.9-6.5-9.1-16.1-15.7-26.4-19.7-27-10.9-55.8,4.4-71.2,27.2-.5.8-1.1,1.6-1.6,2.4l5.1,4.5Z"/>
      <path class="st3" d="M689.4,208.1c-8-8-18.9-13-30.3-13.2,0,0-.3,0-.3,0h-.1s0,0,0,0h0s0,0,0,0h0c0-.1,0,.3,0-.3,0-.5,0-.1,0-.3,0,0,0,0,0,0,.1,0,.4,0,.5,0,9.5-.7,19.2,1.7,27.4,6.8,1.9,1.2,3.8,2.6,5.5,3.9,0,0-2.5,3.1-2.5,3.1h0Z"/>
      <path class="st3" d="M781.6,177.3c-10.8-4.6-23-5.1-34-.9,0,0-.4.1-.5.2,0,0,0,0,0,0h0s0,0,0,0c0-.1.1.2-.1-.2-.2-.5,0-.1-.1-.2,0,0,0,0,0,0,.1,0,.3-.2.4-.2,8.1-4,17.4-5.6,26.4-4.4,3.1.4,6.2,1.2,9.1,2l-1.2,3.9h0Z"/>
      <path class="st3" d="M1068.5,203.7h0s0,0,0,0h0s0,0,0,0h.2c0,0,.4-.2.4-.2,15.5-6,33-5.2,48.2,1.2,0,0,1.8-5.6,2-6.3,3.8-13.2,11.1-25.5,21.7-34.3,12-9.9,27.8-13.7,43.2-12.7,0,0,0-.8,0-.8-15.8-2.7-33.1-.3-46.7,8.9-13.2,8.9-23.1,22.4-28.6,37.3-13.6-2.3-28-.3-40.4,5.9-.2,0-.5.2-.6.3,0,0,0,0,0,0,0,.2-.2-.3.1.3.3.7,0,.2.2.3Z"/>
      <path class="st3" d="M958.1,203.9c3.5-1.3,6.7-3.6,9.3-7.1.2-.3,2.7-4.1,2.6-4.1h-.1c-1,1.1-2.1,2.1-3.2,3.2-2.1,2.1-4.5,4-7.2,5-6.9,2.7-15.5,1.8-22.4-.6-6.2-2.1-13-6.9-15.7-14.3,3,7.9,8.8,13.3,15.4,16.3,7,3.1,14.7,4.1,21.3,1.6Z"/>
    </g>
    <g>
      <polygon class="st0" points="829.1 28.8 845.4 46.4 837.2 46.4 840.4 57.4 827.8 41.8 834.2 41.6 829.1 28.8"/>
      <g>
        <polygon class="st6" points="829.7 28.4 846 46 837.8 46 841 57 828.4 41.4 834.8 41.1 829.7 28.4"/>
        <path d="M829.6,28.3c5.5,5.7,11.8,11.2,17,17.2.5.5,0,1.4-.6,1.3-1.4,0-2.7-.1-4.1-.2l-4.1-.2.4-.6c.4,1.9.9,3.7,1.4,5.6.5,1.8,1.2,3.7,1.8,5.5.2.6-.6,1-.9.5-4.5-5-8.8-10.1-13-15.3-.5-.6,0-1.6.8-1.6,2.1,0,4.2,0,6.3,0l-.7,1.1c-1.6-4.3-2.8-9-4.4-13.2h0ZM829.7,28.4c1.8,4.4,4,8.2,5.8,12.4.2.5-.1,1.1-.6,1.1-2.1.2-4.3.4-6.4.5l.7-1.6c4.2,5.2,8.3,10.5,12.2,15.9,0,0-.9.5-.9.5-.8-3.7-1.8-7.5-3.1-11.1-.1-.3.1-.6.4-.6,2.4,0,5.8-.3,8.1-.3,0,0-.6,1.4-.6,1.4-5.5-5.6-10.4-12.2-15.7-18.1h0Z"/>
      </g>
    </g>
  </g>
  <ellipse class="st1" cx="454.7" cy="228.5" rx="181.6" ry="148.2"/>
  <ellipse class="st1" cx="1360" cy="230.6" rx="160.4" ry="148.2"/>
  <path class="st3" d="M398.1,84.7c72.8-22.2,157.5,1.1,207.6,58.4-13.3-12.9-28.5-23.7-44.8-32.1-48-24.7-106.7-29.3-157-9.5,0,0-5.8-16.8-5.8-16.8h0Z"/>
  <ellipse class="st1" cx="274.5" cy="174.7" rx="181.6" ry="148.2"/>
  <ellipse class="st1" cx="176.2" cy="268.1" rx="181.6" ry="148.2"/>
  <ellipse class="st1" cx="1793.7" cy="104.7" rx="181.6" ry="148.2"/>
  <ellipse class="st1" cx="1843.3" cy="190.2" rx="181.6" ry="148.2"/>
  <path class="st3" d="M163.1,42.9c74.6-34.1,173.5-33.6,238.5,20.3,24.7,20.8,43.6,48.4,53.7,78.6-13.7-33.6-37.8-62.1-68.3-81.2-64.1-38.9-149.8-32.9-214.3,1.4,0,0-9.7-19.2-9.7-19.2h0Z"/>
  <path class="st3" d="M1256.8,162.7c22-24.9,52.1-31.2,78-7.9,0,0-.2.2-.2.2-5.8-4.1-12.1-7.3-18.7-9.1-19.5-5.6-38.5,5.2-50,20.6-.5.6-1,1.4-1.3,1.9l-7.9-5.7h0Z"/>
  <path class="st3" d="M1263.1,170.1c-12.2-12.3-28.9-19.9-46.3-20.2,0,0-.4,0-.4,0h-.2s-.1,0-.1,0h0s0,0,0,0h0c0-.2,0,.4,0-.4,0-.8,0-.2,0-.4,0,0,0,0,0,0,.2,0,.6,0,.7,0,14.6-1.1,29.4,2.6,41.8,10.4,2.9,1.8,5.7,4,8.4,6,0,0-3.9,4.7-3.9,4.7h0Z"/>
  <path class="st3" d="M427.9,157.8c-31.8-36.1-75.4-45.2-112.8-11.4,0,0,.2.3.2.3,8.3-5.9,17.5-10.6,27-13.2,28.2-8.1,55.6,7.5,72.2,29.8.7.9,1.4,2,1.9,2.7l11.4-8.2h0Z"/>
  <path class="st3" d="M418.7,168.6c17.7-17.8,41.8-28.8,67-29.1,0,0,.6,0,.6,0h.3s.2,0,.2,0h0s0,0,0,0h0c0-.3,0,.6,0-.6,0-1.1,0-.3,0-.6,0,0,0,0-.1,0-.3,0-.8,0-1.1,0-21.1-1.6-42.6,3.7-60.5,15-4.2,2.6-8.3,5.7-12.2,8.6,0,0,5.6,6.8,5.6,6.8h0Z"/>
  <ellipse class="st1" cx="58.5" cy="133.3" rx="177.8" ry="148.2"/>
  <path class="st3" d="M-94.2,31.6c76.3-70.9,206.2-71.4,282.4-.3,10.6,9.8,20,20.9,27.6,33.2-8.2-11.9-18-22.4-28.9-31.7C132.3-13.2,53.1-25.2-13.2-.8c-26,9.4-50.5,24-69.8,43.8,0,0-11.3-11.4-11.3-11.4h0Z"/>
  <path class="st3" d="M1622.8,33.5c60.2-73.2,168.3-98.8,253.4-59.5-84.4-31-185.2.1-235.9,73.1,0,0-17.6-13.7-17.6-13.7h0Z"/>
  <path class="st3" d="M1446.9,119.8c-54.1-46.8-141.4-44.3-193.7,5.4,51-54.7,142-61.8,202-15.9,0,0-8.3,10.5-8.3,10.5h0Z"/>
  <ellipse class="st1" cx="1600.4" cy="182.2" rx="181.6" ry="148.2"/>
  <path class="st3" d="M1431.3,108c20.7-26.2,48.5-47,79.7-58.8,50.8-20.3,109-22,160.2-2.5-41.3-13.3-86.2-13.6-127.1-1.3-41.2,12.1-77.6,35.3-102.2,70.7,0,0-10.6-8.1-10.6-8.1h0Z"/>
</svg>